<?xml version="1.0" encoding="utf-8"?>
<!-- Generator: Adobe Illustrator 27.0.0, SVG Export Plug-In . SVG Version: 6.00 Build 0)  -->
<svg version="1.1" id="图层_1" xmlns="http://www.w3.org/2000/svg" xmlns:xlink="http://www.w3.org/1999/xlink" x="0px" y="0px"
	 viewBox="0 0 595.28 841.89" style="enable-background:new 0 0 595.28 841.89;" xml:space="preserve">
<style type="text/css">
	.st0{display:none;}
</style>
<g id="图层_1_00000042719868557491788610000015621322056281598652_" class="st0">
</g>
<g id="图层_2_00000040571732447914544800000001399108292350054544_">
	<g>
		<g>
			<path d="M385.46,515.99c-1.13,0-2.4-0.31-3.75-0.93L98.11,384.6c-3.16-1.45-5.52-3.93-6.49-6.81c-0.73-2.17-0.58-4.41,0.43-6.29
				l22.1-41.34c1.9-3.55,7.5-4.55,12.47-2.23l244.69,114.17c4.72,2.2,9.02,7.54,9.79,12.14l9.05,54.39
				c0.49,2.91-0.13,5.19-1.75,6.43C387.59,515.68,386.59,515.99,385.46,515.99z M382.13,514.16c2.34,1.08,4.35,1.12,5.67,0.11
				c1.31-1,1.8-2.94,1.37-5.47l-9.05-54.39c-0.71-4.24-4.85-9.35-9.23-11.4L126.2,328.84c-4.5-2.1-9.51-1.3-11.17,1.79l-22.1,41.34
				c-0.89,1.66-1.01,3.56-0.36,5.5c0.88,2.61,3.05,4.88,5.96,6.22L382.13,514.16z"/>
			<path d="M373.75,527.89c-1.5,0-2.8-0.25-3.77-0.69L96.31,401.31c-5.44-2.5-10.39-13.56-5.12-27.01l0.93,0.37
				c-5.05,12.88-0.49,23.39,4.6,25.73L370.4,526.3c2.55,1.17,7.83,0.69,12.24-2.13c3.04-1.95,6.67-5.64,6.68-12.12h1
				c0,5.42-2.54,10.02-7.14,12.96C380,527.04,376.54,527.89,373.75,527.89z"/>
			<path d="M385.47,516.03c-1.13,0-2.4-0.31-3.75-0.93l-3.89-1.79c-0.01,0-0.02-0.01-0.03-0.01l0,0l0,0l0.42-0.91c0,0,0,0,0.01,0
				l0.02,0.01c2.34,1.07,4.36,1.11,5.68,0.11c1.32-1,1.82-2.93,1.42-5.45l-8.66-54.23c-0.68-4.23-4.8-9.33-9.18-11.38l0.42-0.91l0,0
				l3.39,1.58c4.72,2.21,9.02,7.54,9.79,12.14l9.05,54.39c0.49,2.91-0.13,5.2-1.75,6.44C387.6,515.72,386.6,516.03,385.47,516.03z
				 M382.17,514.21c2.33,1.06,4.33,1.1,5.63,0.1c1.31-1,1.8-2.95,1.37-5.48l-9.05-54.39c-0.59-3.54-3.58-7.7-7.11-10.16
				c2.41,2.48,4.2,5.58,4.65,8.4l8.66,54.23c0.46,2.9-0.18,5.17-1.8,6.4C383.86,513.82,383.06,514.12,382.17,514.21z"/>
			<g>
				<path d="M352.64,492.54c-1.19,0-2.51-0.32-3.91-0.97L240.58,441.4c-3.75-1.72-6.39-5.95-5.87-9.42l0.97-6.5l-10.08-4.66
					c-2.08-0.97-3.44-3.18-3.09-5.03l3.7-20.3c0.14-0.74,0.57-1.33,1.22-1.66c0.86-0.44,1.99-0.39,3.11,0.13l9.2,4.28l0.76-5.11
					c0.18-1.21,0.84-2.18,1.86-2.73c1.41-0.76,3.35-0.68,5.3,0.23l96.42,45.2c4.82,2.24,9,7.63,9.52,12.28l4.13,37.61
					c0.29,2.65-0.43,4.75-2.04,5.9C354.84,492.23,353.8,492.54,352.64,492.54z M228.72,394.53c-0.32,0-0.61,0.06-0.85,0.19
					c-0.37,0.19-0.61,0.52-0.69,0.95l-3.7,20.3c-0.26,1.38,0.9,3.19,2.53,3.95l10.76,4.98l-1.07,7.24c-0.45,3.06,1.93,6.81,5.3,8.36
					l108.15,50.17c2.39,1.1,4.55,1.15,5.96,0.14c1.3-0.94,1.88-2.71,1.63-4.98l-4.13-37.61c-0.48-4.26-4.49-9.41-8.95-11.48h0
					l-96.42-45.2c-1.64-0.76-3.29-0.86-4.4-0.26c-0.75,0.4-1.22,1.1-1.35,2l-0.96,6.43l-10.42-4.84
					C229.63,394.64,229.15,394.53,228.72,394.53z"/>
				<path d="M236.41,421.12l-6.18-2.86l3.03-18.65l5.96,2.77L236.41,421.12z M231.33,417.68l4.28,1.98l2.5-16.68l-4.08-1.89
					L231.33,417.68z"/>
				<path d="M347.86,484.89l-101.65-47.27l0.4-3.26l-3.87-1.79l1.85-14.33l3.75,1.74l0.37-3.03l97.1,45.33L347.86,484.89z
					 M247.29,437.02l99.41,46.23l-1.84-20.31l-95.34-44.51l-0.37,3.03l-3.75-1.74l-1.59,12.25l3.87,1.79L247.29,437.02z"/>
				<rect x="297.7" y="393.73" transform="matrix(0.4231 -0.9061 0.9061 0.4231 -228.9918 525.4927)" width="1" height="97.72"/>
				<rect x="297.86" y="408.28" transform="matrix(0.422 -0.9066 0.9066 0.422 -243.8279 535.8821)" width="1" height="101.78"/>
				<path d="M345.76,461.61l-0.79-0.37l-96.19-44.92l0.36-2.97l-3.69-1.71l1.71-13.14l3.58,1.67l0.34-2.77l92.82,43.5L345.76,461.61
					z M249.86,415.72l94.74,44.25l-1.66-18.41l-91.06-42.68l-0.34,2.77l-3.58-1.67l-1.43,11.06l3.69,1.71L249.86,415.72z"/>
				<rect x="297.87" y="375.22" transform="matrix(0.4245 -0.9054 0.9054 0.4245 -210.3142 512.9622)" width="1" height="93.4"/>
				<rect x="298.02" y="388.47" transform="matrix(0.4235 -0.9059 0.9059 0.4235 -223.8163 522.3788)" width="1" height="97.14"/>
				<g>
					<polygon points="356.66,484.57 353.08,482.92 351.56,468.16 355.59,470.02 355.17,470.92 352.74,469.8 354.02,482.26 
						357.08,483.67 					"/>
					<polygon points="354.24,462.4 350.8,460.8 349.4,447.19 353.29,449.01 352.87,449.91 350.58,448.84 351.74,460.14 
						354.66,461.5 					"/>
				</g>
				<g>
					<path d="M252.48,439.41l-3.55-1.65l2.14-18.69l3.44,1.59L252.48,439.41z M250.01,437.16l1.63,0.75l1.81-16.64l-1.54-0.71
						L250.01,437.16z"/>
					<path d="M257.46,438.97c-0.43-0.19-0.52-0.24-0.18-5.97c-0.65,4.72-0.77,4.96-1.11,5.14l-0.22,0.12l-0.25-0.1
						c-0.43-0.2-0.52-0.25-0.16-5.86c-0.66,4.62-0.78,4.85-1.11,5.03l-0.22,0.12l-0.25-0.1c-0.43-0.21-0.53-0.25-0.13-5.99
						c-0.7,4.75-0.82,4.98-1.16,5.16l-0.22,0.12l-0.25-0.1l0.41-0.91c-0.27-0.12-0.52,0.04-0.58,0.16c0.2-0.42,0.67-3.62,1-5.96
						c0.86-5.99,0.97-6.24,1.33-6.44l0.47-0.02c0.44,0.2,0.52,0.24,0.15,5.75c0.65-4.53,0.76-4.76,1.09-4.94l0.22-0.12l0.25,0.1
						c0.43,0.2,0.52,0.24,0.16,5.76c0.63-4.54,0.75-4.77,1.07-4.95l0.22-0.12l0.25,0.1c0.43,0.2,0.52,0.24,0.19,5.75
						c0.61-4.53,0.72-4.75,1.05-4.93l0.22-0.12l0.25,0.1l-0.2,0.46l0.38,0.28c-0.19,0.41-0.61,3.58-0.91,5.89
						c-0.8,6.12-0.91,6.38-1.28,6.58L257.46,438.97z"/>
				</g>
				<g>
					<g>
						<path d="M254.79,418.1l-3.42-1.58l1.96-17.12l3.33,1.54L254.79,418.1z M252.45,415.91l1.5,0.7l1.65-15.06l-1.43-0.66
							L252.45,415.91z"/>
					</g>
					<g>
						<rect x="250.55" y="409.02" transform="matrix(0.1065 -0.9943 0.9943 0.1065 -178.5607 620.3347)" width="10.64" height="1"/>
					</g>
					<g>
						<rect x="253.32" y="409.79" transform="matrix(0.1025 -0.9947 0.9947 0.1025 -176.8733 624.5525)" width="8.71" height="1"/>
					</g>
				</g>
				<g>
					<g>
						<path d="M347.75,483.72l-3.6-1.65l-1.74-20.35l3.49,1.62L347.75,483.72z M345.1,481.41l1.5,0.69l-1.63-18.08l-1.41-0.65
							L345.1,481.41z"/>
					</g>
					<g>
						<rect x="342.68" y="465.43" transform="matrix(0.9965 -0.0838 0.0838 0.9965 -38.3373 30.4272)" width="1" height="12.64"/>
					</g>
					<g>
						<rect x="340.82" y="465.7" transform="matrix(0.9968 -0.0802 0.0802 0.9968 -36.6819 28.9061)" width="1" height="10.32"/>
					</g>
				</g>
				<g>
					<path d="M345.67,460.56l-3.48-1.62l-1.59-18.64l3.37,1.56L345.67,460.56z M343.13,458.28l1.38,0.64l-1.49-16.39l-1.29-0.6
						L343.13,458.28z"/>
					<path d="M341.35,456.09c-0.33-0.15-0.43-0.2-0.89-4.05c0.12,3,0.02,3.06-0.25,3.24l-0.24,0.16l-0.28-0.12
						c-0.32-0.15-0.42-0.19-0.88-4.1c0.11,3.04,0.01,3.11-0.27,3.29l-0.24,0.16l-0.28-0.12c-0.33-0.15-0.43-0.2-0.88-4.18
						c0.1,3.13,0,3.19-0.27,3.37l-0.24,0.16l-0.28-0.12l0.22-0.46l0,0.01l0-0.01l-0.43-0.19c0.11-0.42-0.03-3.57-0.12-5.87
						c-0.26-6.15-0.2-6.19,0.15-6.42l0.51-0.04c0.32,0.14,0.42,0.18,0.84,3.89c-0.1-2.86-0.01-2.92,0.26-3.1l0.24-0.16l0.27,0.12
						c0.31,0.14,0.42,0.19,0.84,3.75c-0.1-2.73-0.01-2.79,0.26-2.97l0.24-0.16l0.28,0.12c0.31,0.14,0.42,0.19,0.85,3.76
						c-0.11-2.73-0.02-2.8,0.25-2.98l0.24-0.16l0.28,0.12l-0.22,0.46l0-0.01l0,0.01l0.43,0.18c-0.1,0.42,0.06,3.36,0.18,5.73
						c0.33,6.34,0.27,6.38-0.08,6.62L341.35,456.09z M336.6,453.3l0.21-0.43L336.6,453.3z M341.31,443.52l-0.21,0.43L341.31,443.52z
						"/>
				</g>
			</g>
		</g>
		<g>
			<g>
				<path d="M499.89,489.3c-0.04,0-0.08,0-0.12,0c-3.37-0.14-5.78-5.91-5.49-13.14l0,0c0.14-3.38,0.86-6.54,2.03-8.9
					c1.23-2.48,2.8-3.79,4.52-3.75c1.68,0.07,3.17,1.53,4.2,4.1c0.97,2.45,1.43,5.66,1.29,9.03
					C506.02,483.8,503.21,489.3,499.89,489.3z M495.28,476.2L495.28,476.2c-0.27,6.45,1.81,11.98,4.53,12.1c0.03,0,0.06,0,0.08,0
					c2.69,0,5.16-5.31,5.42-11.69c0.13-3.24-0.3-6.3-1.22-8.62c-0.86-2.16-2.06-3.42-3.31-3.47c-0.03,0-0.05,0-0.08,0
					c-1.22,0-2.49,1.16-3.5,3.19C496.1,469.94,495.42,472.96,495.28,476.2z"/>
				<path d="M503.24,481.26l-2.57-0.11c-1.34-0.05-2.28-2.12-2.18-4.8c0.07-1.81,0.62-3.4,1.43-4.14c0.35-0.32,0.74-0.47,1.14-0.46
					l1.96,0.08l-0.04,1l-1.96-0.08c-0.13-0.02-0.27,0.06-0.42,0.19c-0.5,0.46-1.04,1.7-1.1,3.45c-0.09,2.26,0.66,3.74,1.22,3.76
					l2.57,0.11L503.24,481.26z"/>
				<path d="M503.32,481.23c-0.02,0-0.04,0-0.06,0c-0.71-0.03-1.32-0.6-1.72-1.6c-0.35-0.87-0.51-2.01-0.46-3.2
					c0.11-2.64,1.18-4.6,2.51-4.6c0.02,0,0.04,0,0.05,0c1.35,0.06,2.29,2.12,2.18,4.79c-0.05,1.19-0.31,2.31-0.72,3.15
					C504.64,480.72,504,481.23,503.32,481.23z M503.59,472.84c-0.56,0-1.42,1.4-1.51,3.64c-0.04,1.05,0.09,2.04,0.39,2.79
					c0.23,0.59,0.55,0.96,0.83,0.97c0,0,0.01,0,0.01,0c0.27,0,0.61-0.34,0.89-0.9c0.36-0.72,0.58-1.69,0.62-2.74
					c0.09-2.26-0.66-3.73-1.22-3.75C503.6,472.84,503.6,472.84,503.59,472.84z"/>
				<path d="M499.02,489.29c-91.7-3.92-92.11-4.17-92.26-4.27c-2.51-1.63-4.08-6.82-3.84-12.6c0.21-5.03,1.74-9.56,3.9-11.55
					c0.84-0.77,1.73-1.12,2.64-1.1c0,0,0,0,0,0c0.08,0,0.15,0.02,0.21,0.04c0.05-0.01,0.11-0.02,0.18-0.02l90.07,3.95l-0.04,1
					l-90.05-3.95c-0.03,0.01-0.11,0.03-0.2,0.03h-0.09l-0.16-0.05c-0.62-0.02-1.25,0.26-1.89,0.84c-1.98,1.82-3.38,6.08-3.58,10.85
					c-0.22,5.3,1.16,10.17,3.3,11.67c2.79,0.31,61.07,2.85,91.84,4.17L499.02,489.29z"/>
			</g>
			<g>
				<g>
					<path d="M414.13,479.98c-3.92,0-7.1-3.18-7.1-7.1s3.18-7.1,7.1-7.1s7.1,3.18,7.1,7.1S418.04,479.98,414.13,479.98z
						 M414.13,466.78c-3.36,0-6.1,2.74-6.1,6.1s2.74,6.1,6.1,6.1c3.36,0,6.1-2.74,6.1-6.1S417.49,466.78,414.13,466.78z"/>
					<g>
						<rect x="410.61" y="472.38" transform="matrix(0.041 -0.9992 0.9992 0.041 -75.3188 867.2878)" width="7.05" height="1"/>
					</g>
				</g>
				<g>
					<path d="M483.29,482.83c-3.92,0-7.1-3.19-7.1-7.1s3.18-7.1,7.1-7.1s7.1,3.18,7.1,7.1S487.21,482.83,483.29,482.83z
						 M483.29,469.63c-3.36,0-6.1,2.74-6.1,6.1c0,3.36,2.74,6.1,6.1,6.1s6.1-2.74,6.1-6.1
						C489.39,472.37,486.65,469.63,483.29,469.63z"/>
					<g>
						<rect x="479.76" y="475.23" transform="matrix(0.041 -0.9992 0.9992 0.041 -11.8514 939.1129)" width="7.05" height="1"/>
						<rect x="482.79" y="472.2" transform="matrix(0.0412 -0.9992 0.9992 0.0412 -11.9264 939.0226)" width="1" height="7.05"/>
					</g>
				</g>
			</g>
		</g>
		<g>
			<g>
				<path d="M499.89,460.36c-0.04,0-0.08,0-0.12,0c-1.68-0.07-3.17-1.53-4.2-4.11c-0.97-2.45-1.43-5.65-1.29-9.03l0,0
					c0.29-7.14,3.1-12.64,6.42-12.64c0.04,0,0.08,0,0.12,0c1.68,0.07,3.17,1.53,4.2,4.11c0.97,2.45,1.43,5.65,1.29,9.03
					C506.02,454.85,503.21,460.36,499.89,460.36z M495.28,447.26L495.28,447.26c-0.13,3.24,0.3,6.3,1.22,8.62
					c0.86,2.16,2.06,3.42,3.31,3.47c2.74,0.16,5.24-5.24,5.5-11.68c0.13-3.24-0.3-6.3-1.22-8.62c-0.86-2.16-2.06-3.42-3.31-3.47
					c-0.03,0-0.06,0-0.08,0C498.02,435.58,495.54,440.88,495.28,447.26z"/>
				<path d="M500.03,455.75c-0.02,0-0.05,0-0.07,0c-2.25-0.09-3.29-4.41-3.13-8.43c0.09-2.14,0.49-4.14,1.14-5.65
					c0.71-1.65,1.68-2.54,2.67-2.5c2.25,0.09,3.29,4.41,3.13,8.43C503.6,451.58,502.24,455.75,500.03,455.75z M500.57,440.18
					c-0.55,0-1.18,0.7-1.69,1.89c-0.6,1.39-0.97,3.27-1.06,5.29c-0.17,4.17,1,7.34,2.17,7.38c0.01,0,0.02,0,0.03,0
					c1.16,0,2.57-3.05,2.74-7.18c0.17-4.17-1-7.34-2.17-7.39C500.59,440.18,500.58,440.18,500.57,440.18z"/>
				<path d="M500.21,450.53c-0.01,0-0.02,0-0.03,0c-1.16-0.05-1.11-2.6-1.09-3.11l0,0c0.02-0.51,0.2-3.01,1.34-3.01
					c1.16,0.05,1.12,2.6,1.09,3.11c-0.03,0.73-0.14,1.42-0.31,1.93C500.98,450.17,500.64,450.53,500.21,450.53z M500.37,445.7
					c-0.13,0.35-0.26,0.95-0.29,1.76l0,0c-0.03,0.81,0.05,1.42,0.15,1.78c0.13-0.35,0.26-0.95,0.29-1.76S500.47,446.05,500.37,445.7
					z"/>
				<g>
					<path d="M403.14,448.2l-2.57-0.11c-1.34-0.05-2.28-2.12-2.18-4.8c0.08-1.82,0.63-3.41,1.44-4.15c0.34-0.31,0.73-0.47,1.13-0.45
						l1.96,0.08l-0.04,1l-1.96-0.08c-0.13-0.02-0.26,0.06-0.41,0.19c-0.5,0.46-1.04,1.7-1.11,3.45c-0.09,2.26,0.66,3.74,1.22,3.76
						l2.57,0.11L403.14,448.2z"/>
					<path d="M403.14,448.2c-1.35-0.05-2.28-2.12-2.18-4.8c0.07-1.81,0.62-3.4,1.43-4.14c0.35-0.32,0.75-0.48,1.14-0.46l-0.05,1
						c-0.12,0.01-0.26,0.06-0.41,0.2c-0.5,0.46-1.04,1.7-1.1,3.45c-0.09,2.26,0.66,3.74,1.22,3.76L403.14,448.2z"/>
				</g>
				<path d="M499.02,460.35c-3.69-0.15-90.26-3.71-90.63-3.73c-0.91-0.04-1.76-0.48-2.53-1.31c-1.99-2.16-3.15-6.8-2.94-11.83
					c0.21-5.03,1.74-9.56,3.9-11.55c0.84-0.77,1.73-1.12,2.64-1.1c0,0,0,0,0,0c0.08,0,0.15,0.02,0.21,0.04
					c0.05-0.01,0.11-0.02,0.18-0.02l90.07,3.95l-0.04,1l-90.05-3.95c-0.03,0.01-0.1,0.03-0.2,0.03h-0.09l-0.16-0.05
					c-0.62-0.02-1.25,0.26-1.89,0.84c-1.98,1.82-3.38,6.08-3.58,10.85c-0.2,4.77,0.86,9.13,2.68,11.11c0.58,0.63,1.2,0.96,1.84,0.99
					c0.5,0.03,89.72,3.69,90.62,3.73L499.02,460.35z"/>
			</g>
			<g>
				<g>
					<path d="M483.29,453.89c-3.92,0-7.1-3.18-7.1-7.1s3.18-7.1,7.1-7.1s7.1,3.19,7.1,7.1S487.21,453.89,483.29,453.89z
						 M483.29,440.69c-3.36,0-6.1,2.74-6.1,6.1c0,3.36,2.74,6.1,6.1,6.1s6.1-2.74,6.1-6.1
						C489.39,443.43,486.65,440.69,483.29,440.69z"/>
					<g>
						<rect x="479.76" y="446.29" transform="matrix(0.041 -0.9992 0.9992 0.041 17.0647 911.3585)" width="7.05" height="1"/>
					</g>
				</g>
				<g>
					<path d="M414.13,451.04c-3.92,0-7.1-3.19-7.1-7.1s3.18-7.1,7.1-7.1s7.1,3.18,7.1,7.1S418.04,451.04,414.13,451.04z
						 M414.13,437.84c-3.36,0-6.1,2.74-6.1,6.1c0,3.36,2.74,6.1,6.1,6.1c3.36,0,6.1-2.74,6.1-6.1
						C420.23,440.58,417.49,437.84,414.13,437.84z"/>
					<g>
						<rect x="410.61" y="443.44" transform="matrix(0.041 -0.9992 0.9992 0.041 -46.4037 839.5343)" width="7.05" height="1"/>
						<rect x="413.63" y="440.42" transform="matrix(0.0412 -0.9992 0.9992 0.0412 -46.4854 839.45)" width="1" height="7.05"/>
					</g>
				</g>
			</g>
		</g>
		<g>
			<g>
				<g>
					<path d="M402.58,470.08l-56.26-3.71l-14.06-0.93l-0.87-0.06c-0.23-0.04-0.48,0.02-0.69-0.09l-1.49-0.7l-3.19-1.49l-6.38-2.99
						l-25.53-11.94l-21.68-10.14l1.36-2.91l-5.33,1.93l1.93,5.33l1.36-2.91l21.68,10.14l25.53,11.94l6.38,2.99l3.19,1.49l1.7,0.8
						c0.15,0.1,0.33,0.09,0.51,0.11l0.53,0.03l0.89,0.06l14.06,0.93l56.26,3.71L402.58,470.08z"/>
				</g>
			</g>
		</g>
		<g>
			<g>
				<g>
					<path d="M403.49,449.64l-56.26-3.71L333.17,445l-0.87-0.06c-0.23-0.04-0.48,0.02-0.69-0.09l-1.49-0.7l-3.19-1.49l-6.38-2.99
						l-25.53-11.94l-21.68-10.14l1.36-2.91l-5.33,1.93l1.93,5.33l1.36-2.91l21.68,10.14l25.53,11.94l6.38,2.99l3.19,1.49l1.7,0.8
						c0.15,0.1,0.33,0.09,0.51,0.11l0.53,0.03l0.89,0.06l14.06,0.93l56.26,3.71L403.49,449.64z"/>
				</g>
			</g>
		</g>
		<g>
			<g>
				<path d="M236.77,347.02l-4.49-2.08c-2.08-0.97-3.44-3.18-3.09-5.03l3.7-20.3c0.14-0.74,0.57-1.33,1.22-1.66
					c0.86-0.44,1.99-0.39,3.11,0.13l4.52,2.1L236.77,347.02z M235.41,318.65c-0.32,0-0.61,0.06-0.85,0.19
					c-0.37,0.19-0.61,0.52-0.69,0.95l-3.7,20.3c-0.26,1.38,0.9,3.19,2.53,3.95l3.32,1.54l4.58-24.82l-3.82-1.78
					C236.32,318.76,235.84,318.65,235.41,318.65z"/>
				<path d="M359.33,416.65c-1.19,0-2.51-0.32-3.91-0.97l-108.15-50.17c-3.75-1.72-6.39-5.95-5.87-9.42l5.78-38.86
					c0.18-1.21,0.84-2.18,1.86-2.73c1.41-0.76,3.35-0.68,5.3,0.23l96.42,45.2c4.82,2.24,9,7.64,9.52,12.28l4.13,37.61
					c0.29,2.66-0.43,4.76-2.04,5.91C361.52,416.35,360.48,416.65,359.33,416.65z M251.23,314.99c-0.64,0-1.23,0.13-1.71,0.39
					c-0.75,0.4-1.22,1.1-1.35,2l-5.78,38.86c-0.45,3.01,1.98,6.84,5.3,8.36l108.15,50.17c2.38,1.1,4.54,1.15,5.94,0.15
					c1.3-0.94,1.88-2.71,1.63-4.99l-4.13-37.61c-0.47-4.25-4.48-9.4-8.94-11.48l-96.42-45.2
					C252.99,315.21,252.06,314.99,251.23,314.99z"/>
			</g>
			<path d="M354.54,409L252.9,361.74l4.86-40.23l92.83,43.5L354.54,409z M253.98,361.14l99.41,46.22l-3.76-41.68l-91.06-42.67
				L253.98,361.14z"/>
			<g>
				<path d="M368,409.49l-4.38-2.02l-1.52-14.78l4.28,1.99L368,409.49z M364.56,406.8l2.26,1.04l-1.36-12.49l-2.18-1.01
					L364.56,406.8z"/>
				<path d="M365.58,387.31l-4.24-1.96l-1.4-13.62l4.15,1.93L365.58,387.31z M362.28,384.69l2.12,0.98l-1.23-11.33l-2.05-0.95
					L362.28,384.69z"/>
			</g>
			<polygon points="241.9,355.42 234.84,352.86 235.9,346.21 236.88,346.37 235.96,352.2 242.24,354.48 			"/>
			<rect x="242.74" y="324.98" transform="matrix(0.3007 -0.9537 0.9537 0.3007 -142.424 461.1549)" width="1" height="5.42"/>
		</g>
	</g>
</g>
</svg>
