<?xml version="1.0" encoding="utf-8"?>
<!-- Generator: Adobe Illustrator 23.0.2, SVG Export Plug-In . SVG Version: 6.00 Build 0)  -->
<svg version="1.1" id="图层_1" xmlns="http://www.w3.org/2000/svg" xmlns:xlink="http://www.w3.org/1999/xlink" x="0px" y="0px"
	 viewBox="0 0 595.3 841.9" style="enable-background:new 0 0 595.3 841.9;" xml:space="preserve">
<style type="text/css">
	.st0{fill:#612816;}
	.st1{fill:#380F07;}
	.st2{fill:#562E1C;}
	.st3{fill:#F3AD8C;}
	.st4{fill:#D17351;}
	.st5{fill:#547893;}
	.st6{fill:#1D4764;}
	.st7{fill:#6B90AC;}
	.st8{fill:#375B74;}
	.st9{fill:#6F341D;}
	.st10{fill:#FEFEFD;}
	.st11{fill:#E5E5E6;}
	.st12{fill:#E2AE57;}
	.st13{clip-path:url(#SVGID_3_);}
	.st14{clip-path:url(#SVGID_5_);}
	.st15{fill:#4F1D0F;}
</style>
<g>
	<path class="st0" d="M286,207.7c-0.4-1.8-3.1-9.4-2.6-11.2c0.4-1.6,0.3-3.1,0.3-4.7s0-3.1-0.6-4.6c-0.9-2,1.5-9.7,1.4-11.8
		c-0.1-1.8-3.3-16-6.1-15.9c-0.5,0-4.9-3-5.2-3.3c-1.5-1.3-13.4,1.1-14.9,1.3c-8.6,1.1-12.4,5.8-14.9,7.3c-6.5,4-11.9,8.6-16.9,14.4
		c-8.9,10.3-15.4,23.6-18.1,37c-0.5,2.3-1.1,4.7-1.2,7c-0.6,24.3,6.8,41.9,10,52.9c5.4-0.9,2.3-14.8,4.4-11c1.2,2.1,2.4,4.2,4.7,5
		c1.5,0.5,2,1.2,1.9,2.7c0,0.6-0.3,1.5,0.9,1.6c0.5-1.9,4.3-2.7,4.4-3c1.3,0.3,1.3-3,6.8-5.9c7.1-3.8,9.9-12.1,20-14.5
		c9.5-2.2,21.5-1,23.2-8.3c0.1,0,0.1-0.1,0.2-0.1c0-0.1,0.1-0.1,0.1-0.2c0.1-1,0-1.9-0.1-2.9c-0.5-3,1.9-6.1,2-9.2
		C285.7,226.4,289.6,222.6,286,207.7z"/>
	<path class="st1" d="M219.2,274.6c0.1-0.3,0.2-0.5,0.1-0.8c0.4-1.3,0.7-2.6,0.7-3.9c0-0.2,0-0.4,0.1-0.5c0.2-0.5,0.3-1,0.2-1.6
		c0.1-0.2,0.1-0.4,0.2-0.5c1.3,0.1,2.6,0.1,3.6-0.8c0.1-0.1,0.3,0,0.5,0.1c0,0.9,0.5,1.7,0.8,2.6c-0.1,0.2,0,0.3,0.2,0.4
		c0,0.1,0.1,0.3,0.1,0.4c-0.1,0.1,0,0.3,0.1,0.4c1.5,4,3.1,7.8,5.6,11.3c1.9,2.6,4.4,4.6,7.6,5.3c0.7,0.2,0.9,0.6,1,1.2
		c1.2,7,3.1,13.9,5.4,20.6c1,2.8,2.2,5.5,3.4,8.2c1.6,3.8,3.7,7.3,5.4,10.9c-1.8,1.5-3.7,2.7-6,3.1c-0.2-0.3-0.3-0.6-0.5-0.9
		c0,0,0-0.1-0.1-0.1c-0.1,0-0.1-0.1-0.2-0.1c-0.1-0.3-0.2-0.4-0.5-0.2c-0.5,0-1.1,0-1.6,0c-0.3-0.3-0.5-0.1-0.7,0.2
		c-2.1,0.7-4.1,1.8-6.3,2.3c-1.1-0.3-2.2-0.3-3.3,0.2c-0.2,0-0.4,0.1-0.6,0.1c-0.2-0.1-0.3,0-0.4,0.1c-0.7,0.2-1.5,0.5-2.2,0.7
		c-0.7-0.1-1.3,0.4-2,0.4c-0.2-0.9-1.2-1.3-1.5-2.1c-0.8-2.1-1.5-4.3-2.2-6.5c-1.4-4.5-3.4-5.4-3.3-10c0.1-2.6-0.1-8.6-0.4-11.2
		c-0.1-1.4,1.6-3.4,1.3-4.7c-0.3-1.2-1.1-2.4-1.2-3.6c-0.1-1.1,0.4-2.1,0.6-3.1c0.5-3,0.6-6-0.5-9c-0.5-1.4-1.4-2.5-1.7-3.9
		c-0.5-2-0.4-2-2.3-1.8C218.8,276.7,219.3,275.7,219.2,274.6z"/>
	<path class="st2" d="M228.3,331.6c-0.8-2.1-1.5-4.3-2.2-6.5c-0.9-2.7-1.2-5.5-1.4-8.3c-0.3-3.4-0.3-6.9-0.1-10.3
		c0.1-2.2,0-4.3-0.1-6.5c0-0.6,0.6-35.7,0.6-35.7l-3.4-9.8c0,0-3.6,23.3-10.5,35.4c-6.9,12.1-17.3,44.7,2,50.6l10.9,8.1
		c0,0-11.5-12.5-13.8-26.3c-0.1-0.5-0.1-0.9-0.2-1.4c-0.2-2.1-0.1-4.1,0.2-6.2c0.7-2.5,4.5-15.7,5.9-19.2c0,0-12.3,34.8,7.3,47
		c0.1,0.1,0.2,0.1,0.3,0.2l2.4,1.1c0,0-9.9-10.8-8.3-28.4c0.1-0.7,0.3-1.4,0.5-2.1c0.1-0.4,0.3-0.4,0.5-0.1l0,0
		c-0.5,6.4,0.2,12.6,2.1,18.8c0.3,0.8,0.3,1.7,0.9,2.4c0.1,0.1,0.3,0.2,0.4,0.3c0.2-0.1,0.3,0,0.3,0.2c0.1,0.1,0.3,0.2,0.5,0.3
		c1.3,1,2.5,0.2,3.7-0.2c0.5-0.2,0.9-0.4,1.4-0.6c0.1-0.2,0.3-0.3,0.5-0.2c0.4-0.1,0.7-0.3,1.1-0.4c0-0.1,0.1-0.2,0.1-0.2
		C229.6,332.7,228.6,332.4,228.3,331.6z"/>
	<path class="st1" d="M341.4,279.6c0.1,0.3,0.3,0.8,0.4,1.1c-0.1,1.1,0.6,1.4,0.9,2.4c0.4,1.4,1.1,2.7,1.4,4.1
		c-0.6-0.1-0.9-1-1.1-0.6c-0.5,0.7-1.5,1-1.3,2.1c0.2,1.2,0,2.4-0.1,3.5c0,0.6-0.1,1.3-0.1,2c-0.2,0.5-0.2,1.1-0.2,1.7
		c-0.1,0.6-0.1,1.3,0.1,1.9c-0.4,2.2,0.1,4.3,0.5,6.4c-0.2,0.3-0.1,0.5,0.1,0.7c0.4,1.8,1.2,3.4,1.6,5.1c1.1,4.5,2.8,8.8,3.1,13.5
		c0.2,3.1,0.1,6.2-0.4,9.3c-0.2,1.1-1,2-0.7,3.2c-0.6,0.3-1.3-0.1-1.9,0c-1.7-0.6-3.4-1-5.2-1.1c-1.3,0-2.5,0.3-3.4,1.3
		c-0.2-0.1-0.3,0-0.2,0.2c0,0,0,0.1,0,0.1c-0.5,0.3-1,0.2-1.5,0.1c-2.2-0.5-4.4-1.2-6.5-2c-0.9-0.3-1-0.7-0.8-1.6
		c2.4-7.8,3.7-15.8,4.1-23.9c0.2-3.8,0.3-7.5,0.1-11.3c0-0.9,0.2-1.4,1.1-1.9c2.4-1.2,3.9-3.3,4.8-5.7c1.5-4.3,2.5-8.7,2.8-13.2
		c0-0.1,0.1-0.1,0.1-0.2c0.8-0.1,1,0,1.8,0.8c0.1,0.2,0.2,0.5,0.3,0.7C341.1,278.7,341,279.3,341.4,279.6z"/>
	<path class="st0" d="M359,315.1c-2.7-9-9.4-17.1-12-22.9c-1.7-3.7-3.7-8.6-5-11.6c-0.1-0.2-0.1-0.3-0.2-0.5c0,0,0,0,0,0
		c-0.6-1.5-1-2.4-1-2.4s-0.5,18.6,0,24.8c0.5,6.1,5.3,23.3,5.5,27c0.1,1.4-0.2,3-0.5,4.4c-0.2,0.4-0.3,0.9-0.3,1.3
		c-0.5,2-1.1,3.5-1.1,3.5s8.2,3.3,10.1-3.1c2-6.3,0.5-13.1-1-19.7c-1.5-6.6-4.3-13-4.3-13s1.1,1.6,2.4,3.9c2.6,4.7,4.8,9.5,5.8,14.8
		c0.4,1.9,0.5,3.8,0.5,5.7c-0.1,1-0.3,1.9-0.2,2.7c0.1,2.4-1.5,7.9-1.5,7.9s-1,5.4,2.5-0.2C362.2,332.3,361.6,324.1,359,315.1z"/>
	<g>
		<path class="st3" d="M355.6,251.1c-1.2-1.6-1.7-3.4-2.4-4.8c0-0.1,0-0.1-0.1-0.1c-1,0.5-2.2,0.6-3.3,0.4c-0.1,0.2-0.2,0.4-0.2,0.6
			c-1,4.4-0.1,7.4-2.6,11.1c0-1-2.2-13.6-2.2-14.1s-6.6-8-13-11.9c-6.4-3.9-25.7-5.7-30.3-8.1c-4.6-2.4-17.6-8.9-17.6-8.9
			s7.4,12.9-11.7,10.3c-14.4-1.9-20.1,18.5-31.7,36.7c-4.1,6.5-17.1,11.3-13.7,12.1c0.7,0.2,1,0.6,1.1,1.2
			c1.2,7.4,3.3,14.6,5.7,21.8c1,2.9,2.3,5.8,3.6,8.6c1.7,4,3.9,7.7,5.7,11.5c1.1,0.9,1.7,2.3,2.4,3.5c2.6,4.4,5.6,8.4,8.8,12.4
			c3.9,4.8,7.7,9.6,11.9,14.1c4.1,4.3,8.9,7.3,14.9,8c4.9,0.5,9.7,0.5,14.3-1.4c2.1-0.8,3.9-2.1,5.5-3.6c4.3-4,8.2-8.5,12-12.9
			c0.9-1,1.9-2,2.6-3.1c0.3-0.4,0.6-0.9,1.2-1c0.3,0.3,0.1,0.5-0.1,0.8c-2.9,3.7-5.3,7.8-8,11.6c-5,6.9-10.2,13.6-16.5,19.3
			c-3,2.6-6.1,5.1-10,6.2c0.8,0.6,1.7,0.1,2.5,0.2c4,0.2,8-0.2,12-1c5.1-1.1,10.4-0.7,15.1-3c11.6-5.8,20-16.5,25.7-28.1
			c2.3-4.6,6.5-8.9,7.1-14c0.3-2.5-1.5-3.2-3.1-5c-0.4-0.4-1.8-0.3-3.2,0.1c-0.6,0.3-1.2,0-1.7-0.2c-2.4-1.1-4.8-2.3-7.1-3.6
			c-1-0.5-1-1-0.5-2c4.3-8.4,7.5-17.3,9.7-26.4c1-4.3,1.9-8.6,2.5-12.9c0.1-1.1,0.5-1.6,1.7-1.9c3-0.9,5.2-2.9,6.7-5.5
			c2.7-4.6,4.6-9.4,5.9-14.5c0-0.1,0.1-0.1,0.2-0.2c0.1-0.5,0.3-1,0.4-1.5C355.8,251.3,355.7,251.2,355.6,251.1z M345,261.3
			c-0.2,0.3-0.4,0.7-0.9,0.6c-0.5-0.1-0.5-0.5-0.5-0.9c0-0.1,0-0.1,0-0.2c1.9-1.2,3.1-2.1,3.4-2.4
			C346.4,259.3,345.7,260.3,345,261.3z"/>
		<g>
			<g>
				<path class="st4" d="M271.5,276.9c2.2,1.7,5.6,7.4,6.5,10.1c1,2.8,0.4,5.7,0.5,8.6c0,0.2-0.1,0.5-0.4,0.5
					c-0.3,0.1-0.5-0.2-0.6-0.4c-0.6-1.2-1.1-2.5-1.8-3.7c-1-2-2.1-4.1-4.3-5.1c-0.5-0.3-1.1-0.5-1.7-0.4c-0.9-0.8-1.9-0.5-2.9-0.3
					c-1.7,0.5-3.3,1.2-4.9,1.7c-5.9,1.6-11.1,0.6-15.6-3.8c-0.3-0.3-0.6-0.6-1-0.5c-1.3-2-2.1-4.3-3.2-6.5c-0.4-0.8,0.1-1,0.9-1
					c2.2,0,4.4-0.2,6.6-0.6c0,0,0.1,0,0.1,0c0,0-0.1,0-0.1,0c0-0.1,0.1-0.2,0.1-0.4c0.5,0.2,1,0.3,1.4,0.5c5.8,2.4,6.9,2.7,13.1,3.7
					C265.5,279.5,270.3,277.8,271.5,276.9z"/>
				<path class="st4" d="M300,286.3c-2-0.7-3.6-0.1-4.9,1.9c-0.3,0.5-0.6,0.9-0.9,1.4c-0.3,0.4-0.5,0.8-1.1,0.6
					c-0.6-0.1-0.8-0.6-0.8-1.1c-0.4-2.9,1.4-6.5,4-7.9c0.3-0.1,0.4-0.4,0.5-0.6c0.6,0.1,1.1,0.3,1.7,0.2c2.6-0.2,5.2-0.8,7.8-1.6
					c3.8-1.1,7.4-2.7,11.1-4.2c1.1,1,2.5,0.5,3.8,0.7c1.4,0.3,2.8,0.3,4.2,0.3c1.1,0,1.3,0.5,1,1.5c-0.7,1.9-1.4,3.9-2.5,5.6
					c-0.5,0.1-0.7,0.5-1,0.9c-1.1,1.2-2.3,2.2-3.7,3c-4,2.3-8.2,1.6-12.3,0.3c-1.9-0.6-3.7-1.6-5.8-1.7
					C300.6,285.6,299.9,285.3,300,286.3z"/>
				<path class="st2" d="M245.3,283.5c0.5-0.1,0.8,0.3,1,0.5c4.4,4.4,9.7,5.4,15.5,3.8c1.7-0.5,3.3-1.2,4.9-1.7c1-0.3,2-0.5,2.9,0.3
					c-2.3,1.9-4.7,3.8-7.5,5c-1,0.4-1.6,1.4-3,0.8c-0.6-0.3-1.5,0.4-1.8,1.2c-0.1,0.3-0.2,0.5-0.6,0.5c-0.1,0-0.3-0.2-0.3-0.4
					c-0.1-2-1.5-0.8-2.3-0.9c-0.3,0-0.6,0.3-1,0.5c-0.5,0.2-1.2,0.6-0.8-0.5c0.2-0.7-0.2-0.7-0.7-0.8c-0.8,0-1.6,0.2-2.4,0.4
					c-0.3-0.1-0.7-0.2-0.4-0.6c0.8-1.2-0.3-1.3-1-1.4c-0.6-0.1-1.3,0-1.9,0.2c-0.2,0-0.3-0.1-0.5-0.1c0-0.2,0-0.4,0.2-0.6
					c0.4-0.4,0.6-0.8,0.4-1.3c-0.3-0.5-0.8-0.2-1.2-0.2c-0.3,0-0.5,0.1-0.8,0.1c-0.4-0.1-0.7-0.1-1.1-0.2c0-0.2,0-0.4-0.1-0.6
					c0.1,0,0.2-0.1,0.3-0.1c0.5,0,0.9-0.2,1-0.7C244.9,285.8,245.2,284.7,245.3,283.5z"/>
				<path class="st2" d="M300,286.3c-0.2-1,0.5-0.7,1-0.7c2,0.1,3.9,1,5.8,1.7c4.1,1.4,8.3,2,12.3-0.3c1.4-0.8,2.7-1.7,3.7-3
					c0.3-0.3,2.8-3.9,3.3-4c-1.4,3.6-1.9,6.1,1.2,7.9c-1,0.4-1.8,0.1-2.7,0c-0.4,0-0.9-0.3-1.1,0.1c-0.2,0.5,0.3,0.8,0.7,1
					c0.3,0.2,0.7,0.3,0.9,0.8c-1.2,0.5-2.4-0.2-3.6,0.1c-0.3-0.1-0.6-0.2-0.8,0.2c-0.1,0.3,0,0.4,0.3,0.4c0.2,0.3,0.4,0.5,0.7,0.8
					c-0.1,0.2-0.2,0.4-0.3,0.6c-0.3,0-0.6-0.1-0.9-0.1c-0.5-0.5-1.1-0.6-1.7-0.7c-1.1-0.1-1.4,0.4-0.9,1.4c0.1,0.2,0.3,0.4,0,0.7
					c-0.4-0.2-0.8-0.4-1.2-0.6c-0.7-0.5-1.4-0.7-2.2-0.6c-0.6,0.1-1,0.3-0.7,1c0,0.2,0,0.4,0,0.6c-0.7-0.1-1-0.6-1.4-1.1
					c-0.6-0.7-1.3-1-1.9,0c-0.6,0.1-0.8-0.3-1-0.7l0-0.1l-0.1,0c-0.1,0-0.3-0.1-0.4-0.1c-0.2-0.2-0.4-0.3-0.6-0.3
					c-0.3-0.1-0.5-0.2-0.8-0.3c-0.5-0.4-1.1-0.7-1.7-0.8c-0.2-0.1-0.4-0.2-0.6-0.3c-1.5-1-2.7-2.4-4.4-3.1
					C300.6,286.5,300.3,286.4,300,286.3z"/>
			</g>
			<g>
				<path class="st4" d="M243,317.5c1.1,0.9,1.7,2.3,2.4,3.5c2.6,4.4,5.6,8.4,8.8,12.4c3.9,4.8,7.7,9.6,11.9,14.1
					c4.1,4.3,8.9,7.3,14.9,8c4.9,0.5,9.7,0.5,14.3-1.4c2.1-0.8,3.9-2.1,5.5-3.6c4.3-4,8.2-8.5,12-12.9c0.9-1,1.9-2,2.6-3.1
					c0.3-0.4,0.6-0.9,1.2-1c0.3,0.3,0.1,0.5-0.1,0.8c-2.9,3.7-5.3,7.8-8,11.6c-5,6.9-10.2,13.6-16.5,19.3c-3,2.6-6.1,5.1-10,6.2
					c-0.6,0-1.3,0-1.9-0.1c-0.5-0.4-1.1-0.4-1.7-0.1c-0.3,0-0.5-0.1-0.8-0.1c-0.2-0.2-0.5-0.4-0.8-0.1c-0.4-0.1-0.8-0.1-1.2-0.2
					c-0.6-0.3-1.1-0.6-1.8-0.4c-0.3,0-0.5-0.1-0.8-0.2c-0.2-0.2-0.4-0.3-0.7-0.2c-0.2,0-0.4-0.1-0.6-0.2c-0.4-0.4-0.8-0.5-1.4-0.4
					c-0.4-0.1-0.9-0.3-1.3-0.4c-0.1-0.3-0.4-0.3-0.6-0.2c-0.7-0.3-1.4-0.5-2.1-0.8c-0.1-0.4-0.5-0.5-0.8-0.4
					c-0.2-0.1-0.4-0.2-0.5-0.3c-0.1-0.3-0.3-0.3-0.6-0.2c-0.3-0.1-0.5-0.2-0.8-0.3c-0.2-0.5-0.6-0.6-1.1-0.6
					c-0.2-0.1-0.3-0.1-0.5-0.2c-1.2-0.9-2.3-1.7-3.8-2c-0.3-0.1-0.5-0.2-0.8-0.3c-0.1-0.1-0.2-0.2-0.3-0.3h0
					c-0.1-0.3-0.3-0.4-0.6-0.4c0-0.1-0.1-0.1-0.2-0.1c-2.6-2-5.3-4.1-7.6-6.4c-5.8-5.7-10-12.3-12.4-20.1c-0.9-2.8-1.6-5.5-1.7-8.4
					c-0.2-2.6-0.6-5.4,2.2-7.1C239.1,320.4,241.1,319.1,243,317.5z"/>
				<path class="st4" d="M295,321.3c-0.9,1.2-1.7,1.7-2.5,2.3c-2.2,1.5-2.4,0.4-3.5,2.8c-0.7,1.5-2.8,2.2-4.3,2.2
					c-0.7,0-2.7-1.7-2.9-2.6c-1.9-1.7-3.3-1.6-5.7-3.4c-1.3-1-5.1-4.4,0.7-10.5c-0.5,1.4-1.7,3.5-2,5.4c-0.4,2.3-0.2,3,1.9,4.1
					c1.4,0.8,3.3,1.4,4.3,2.6c2.1,2.5,6.9,2.8,9.2-0.9C290.9,321.8,293.3,321.8,295,321.3z"/>
				<path class="st4" d="M295.5,320.1c0.4-4.9-0.4-5.8-2-6.8c-0.1-0.4-0.2-0.8,0.2-1c0.4-0.2,0.6,0.1,0.9,0.3
					c1.5,1.1,2.3,3.8,1.6,5.8C296,319,295.8,319.4,295.5,320.1z"/>
			</g>
			<path class="st0" d="M267.6,275.9c-9.8,5.6-16.7-5.1-26.1,0.2c-1.1,0.6-0.5,2.2,0.6,2.3c11,0.9,23.1,7.7,31.8-1.5
				C277.7,272.8,275.5,271.4,267.6,275.9z"/>
			<path class="st0" d="M294,275.5c9,6.8,22.2-5.1,31.7,0.2c1.1,0.6,0.5,2.2-0.6,2.3c-11,0.9-24.8,9.8-34.9-2
				C287.8,273.2,290.2,272.6,294,275.5z"/>
		</g>
		<g>
			<path class="st4" d="M271.8,338.7c-0.5-0.2-0.5-1,0.1-1c1.3-0.1,2.5,0.4,3.9,0.1c1.4-0.3,2.4-1.5,3.6-2c1.7-0.6,2.2-0.5,3.8-0.1
				c2.1,0.5,3.3,0.6,5.6,0.2c1.3-0.2,2.1-0.8,3.5-0.7c2.4,0.1,4.1,1.7,6.7,1.7c1.7,0,1.7,2.6,0,2.6c-3.6,0-5.7-2-9.5-1.2
				c-1.8,0.4-3.2,1.2-5.1,0.6c-2-0.6-2.8-1.1-5.1-0.5c-0.9,0.3-1.6,0.8-2.6,1C274.7,339.9,273.6,339.4,271.8,338.7L271.8,338.7z
				 M283.4,345.3c0.7,0,1.5-0.2,2.2-0.3c0.8-0.1,1.5,0,2.3,0.3c1.5,0.5,2.2-2,0.6-2.3c-1.8-0.4-4.7-0.4-5.7,1.4
				C282.6,344.7,282.9,345.2,283.4,345.3L283.4,345.3z"/>
		</g>
	</g>
	<g>
		<path d="M168.3,615.4c0,0-1.8-2.5-4,2.2s-9,24.1-9,27s0,6.1,0,6.1s-14,28.8-15.1,36.7h277.9l-22.7-67
			C395.4,620.5,214.7,637.7,168.3,615.4z"/>
		<path class="st5" d="M197.9,668.1c-2.9-1-5.9-2.2-8.7-3.5c-1.4-0.6-2.9-1.3-4.3-2c-1.2-0.6-2.5-1.5-3.9-1.7
			c-0.3-0.1-0.7-0.1-1-0.2c-6.1-2.8-12.2-5.4-18-8.6c-1.3-0.7-2.8-1.4-3.5-3c-0.9,3.2-2.6,6-4,9c-1.1,2.5-6.6,15.7-7.1,17.3
			c-1.3,4-2.4,8.1-3.5,12.1h4.7c0.6-2.4,1.2-4.8,1.7-7.2c0.3-1.2,0.7-1.6,1.9-1c6.4,3,13,5.7,19.6,8.3h6.2c0,0,0-0.1-0.1-0.1
			c-1.2,0.2-2.3-0.3-3.3-1c-6-2.3-11.9-4.7-17.7-7.3c-1.2-0.6-2.8-0.7-3.6-2c-0.4-0.1-0.9-0.2-1.3-0.3c-1.2-0.3-1.8-1.1-1.6-2.4
			c0.2-1.7,0.9-3.3,1.3-4.9c0,0,1-0.3,1.5-0.5c-0.4-0.3,0.3-1.9,0.3-2.7c-0.6-0.3-0.6-0.3,0,0c1.8,0,3.3,0.7,4.8,1.5
			c3.2,1.7,6.5,3.1,9.8,4.5c1.4,0.6,2.8,1.3,4.1,1.8c3.9,1.3,7.8,2.1,11.2,4.6c0.9,0.7,1.9,1.6,2.1,2.8c0.2,1.4-1.5,3-0.4,4.3
			c2.1,2.4,5.2,0.5,6.9-1.3c2.3-2.5,3.6-6,4.8-9.1c0.6-1.5,1.3-3,1.9-4.5C199.4,669.3,199.3,668.6,197.9,668.1z"/>
		<path class="st6" d="M273.8,687.6l-3.2-8.8l0.2-1.4c-0.6-3.2-2.2-5.2-2.5-8.5c-0.3-3.6-0.2-7.2,0.2-10.8c0.1-0.8,0.4-1.7,0.7-2.5
			c-4.4-1.9-10.3-2.1-15-3.2c-4.4-1.1-8.9-2.3-13.2-3.7c-3-1-7.5-3.9-10.7-2.6c-3.8,1.5-4.6,8.3-5.6,11.7
			c-2.8,9.8-6.8,19.7-8.3,29.8c1.6,0,5,0.1,6.6,0.1c0,0,0-0.1,0-0.1L273.8,687.6z M235.6,648.1c3.4,0.9,6.7,1.9,10.1,2.8
			c5.1,1.2,10.2,2.3,15.4,3.4c1.1,0.2,2.1,0.7,3.1,1c0.7,0.1,0.4,0.5,0.1,0.9c-1.7,2.1-2.3,4.6-2.3,7.3s0,5.4-0.1,8.1
			c0.4,2,0.6,4,0.6,6l-34.9-5.6C229,665.5,232.7,647.3,235.6,648.1z"/>
		<path class="st6" d="M325.8,687.5c-1-3-1.4-6.3-2.5-9.3c-8.8,2.3-17.7,4-26.7,5.3c-0.2,0-0.4,0.1-0.6,0.1
			c-0.3,0.3-0.6,0.3-0.9,0.2c-0.3,0-0.6,0.1-0.9,0.1c-0.3,0.3-0.6,0.3-0.9,0.2c-0.2,0-0.4,0-0.6,0.1c-0.2,0.2-0.4,0.3-0.6,0.2
			c-4.6,1-9.3,1.9-14,3.1L325.8,687.5L325.8,687.5z"/>
		<path class="st7" d="M218.9,642.6c-5.4,12.8-8,26.4-10.1,40c2.3,0.2,4.5,1.2,6.8,1.2c1.7-11.9,4.6-23.5,8.8-34.8
			c0.3-0.8,0.6-1.6,1.1-2.3c0.5-0.9,0.3-1.2-0.7-1.4c-1.4-0.3-2.7-0.6-4.1-1c-0.5-0.1-1.2-0.3-1-1c0.2-0.6,0.8-0.4,1.3-0.2
			c1.8,0.5,3.6,1,5.3,1.5c0.8,0.2,1.5,0.8,0.8,1.5c-1.5,1.4-1.9,3.3-2.6,5c-2.6,7-4.2,14.2-5.8,21.5c-0.9,4-1.9,8-2.3,12.1
			c0.3,1-0.2,2-0.2,3h1.9c0.1-0.2,0.1-0.5,0.2-0.9c0.2-1.7,0.4-3.5,0.7-5.2c1.5-7.5,3.2-15,5.2-22.3c1-3.7,2-7.3,3.8-10.7
			c0.6-1.2,1.9-1.9,2.1-3.4c-0.1-0.6-0.2-1.2-0.3-1.8c-0.1-0.1-0.2-0.1-0.3-0.2c0.3-0.2,0.4,0,0.6,0.2c0.4,0.1,0.8,0.2,1.2,0.3
			c0.1-0.1,0.2-0.2,0.3-0.3c-2.9-1.3-6-1.9-9-2.7c-0.5-0.1-1-0.1-1.3-0.6c-0.9,0.1-1.8-0.6-2.7-0.2c0.3,0.7,1.1,0.2,1.6,0.8
			C219.4,640.9,219.1,641.7,218.9,642.6z"/>
		<path class="st6" d="M226.3,677.5c0.3-1.6,0.3-8.3,1.9-8.3c0-0.5,1.1,3.4,1.1,3c1,0,1,2.6,1.9,2.9c7.4,1.9,14.8,3.7,22.3,5.1
			c3,0.6,7.2,1.6,10.4,1.5c0.3,2.5-0.9,2.4-3.6,2.3C256.1,683.6,226.8,677.1,226.3,677.5z"/>
		<path class="st8" d="M206.7,686.2c-0.1-0.1-0.1-0.3-0.2-0.4c0.1-1,0.1-2,0.2-2.9c0-0.4-0.1-0.7-0.3-1c0.2,0.3,0.3,0.7,0.3,1
			c0.7-2,0.4-2.6-1.1-3.1c0,0.2,0,0.3,0,0.4c0-0.1,0-0.3,0-0.4l0,0c-1.2-0.1-1.8,0.5-2.1,1.7c-0.5,2.1-1.2,4.1-2,6.1h5.4
			c-0.1-0.2-0.1-0.6-0.1-0.9L206.7,686.2z"/>
		<path class="st5" d="M215.5,641.8c-0.8-0.9-2-1.1-3-1.5c-8.6-2.9-16.9-6.4-25.1-10.1c-2.1-0.4-3.8-1.5-5.6-2.6
			c-0.5-0.3-0.8-0.7-0.4-1.3c-2.8-1.5-5.8-2.6-8.5-4.4c-0.2-0.2-0.5-0.3-0.6-0.6c-0.1,0-0.1-0.1-0.2-0.1c-0.2,0-0.5,0-0.6-0.3
			c-1.2-0.9-2.5-1.9-3.7-2.8c-1-0.3-1.2,0.5-1.4,1.1c-2.7,8-5.2,16-8,23.9c-0.8,2.2-0.7,4.1,0.1,6.1c0.7,1.5,2.1,2.2,3.5,3
			c3.1,1.8,6.4,3.3,9.6,4.8c1.6,0.8,3.3,1.5,4.9,2.2c1.2,0.5,3.3,2.1,4.7,1.7c0.4-0.1,0.7-0.3,1.1-0.3c0.4,0,0.7,0,1.1,0
			c0.6,0,1.3-0.4,1.5-1c1.7,1.2,4.1,1.8,6,2.5c3.5,1.4,7,2.7,10.5,4c1.3,0.5,2.7,1,4,1.5c0.1,0,0.2,0.1,0.4,0.1
			c0.7,0.2,1.4,0.5,1.6-0.6c0.6-3.2,9-21.3,9.9-24.4C216.9,642.4,216.3,642.1,215.5,641.8z M196,650.6c0.1,0.1,0.1,0.2,0.1,0.3
			C196.1,651,196.1,650.8,196,650.6z"/>
		<path class="st5" d="M265.8,655.9c0.3-0.3,0.6-0.8-0.1-0.9c-1.1-0.2-2.2-0.7-3.3-1c-5.4-1.1-10.8-2.2-16.1-3.5
			c-3.6-0.8-7.1-1.9-10.6-2.8c-0.8-0.2-1.5-0.3-1.8,0.7c-0.4,1.2-0.9,2.3-1.3,3.5c-1.2,3.5-5.6,18.5-5.4,21.1c0.2,2,2.3,1.9,3.9,2.3
			c7.7,2,15.5,3.8,23.4,5.2c3.2,0.6,6.3,1.7,9.6,1.6c0-3.5,0-6.9-0.7-10.4c0-2.8,0.1-5.5,0.1-8.3C263.3,660.6,264,658.1,265.8,655.9
			z"/>
		<path class="st7" d="M171.9,687.5c-6.6-2.5-13.2-5.2-19.6-8.3c-1.3-0.6-1.6-0.2-1.9,1c-0.6,2.4-1.1,4.8-1.7,7.2L171.9,687.5
			L171.9,687.5z"/>
		<path class="st5" d="M194,687c0.2,0.4,0.6,0.7,1.4,0.7c0.4,0,3.5,0.1,3.6-0.1c0.2-0.3,0.3-0.7,0.5-1c1.3-2.8,2.3-5.8,3.3-8.8
			c0.4,0,0.8,0.1,1.2,0.2c1.2,0.2,2.4,0.3,3.1-0.9c0.8-1.6,1.5-3.3,0.5-5c-0.8-1.3-2.4-1.8-3.9-1.8c-1.4,0-1.9,1.1-2.5,2.1
			c-1.2,2.4-2.5,4.9-3.7,7.3c-0.7,1.3-1.3,2.5-2,3.8C195,684.3,193.5,685.9,194,687z M204.4,671c1.4,0,3.2,1.4,3.1,2.4
			c-0.1,2.7-1,3.9-3,3.8c-1.1,0-2.9-2.1-2.9-3.3C201.8,672.3,203,671,204.4,671z"/>
		<path class="st7" d="M177.2,678c0,0.4-0.3,0.6-0.6,0.8c-2.2,1.5-2.9,3.8-2.1,6.2c0.1,0.4,0.2,0.9,0.3,1.3
			c-6-2.3-11.9-4.7-17.7-7.3c-1.2-0.6-2.8-0.7-3.6-2c1.5-0.4,2.1-1.6,2.5-3c0.5-1.4,0.5-2.7,0.4-4.1
			C159.3,671.3,174.9,677.3,177.2,678z"/>
		<path class="st7" d="M181.2,687.5c0.3-0.8,0.5-1.5,0.8-2.3c0.6-1.6,1.5-3.3,0.6-5.1l0,0.1c-0.2,2.9-1.7,5-4.2,6.3
			c-0.1,0.3-0.2,0.5-0.3,0.8c0,0,0,0.1,0.1,0.1H181.2z"/>
		<path class="st4" d="M156.5,670c0.1,1.4,0.1,2.7-0.4,4.1c-0.5,1.4-1,2.5-2.5,3c-0.4-0.1-0.9-0.2-1.3-0.3c-1.2-0.3-1.8-1.1-1.6-2.4
			c0.2-1.7,0.9-3.3,1.3-4.9c0.5-0.2,1-0.3,1.5-0.5C154.5,669,155.4,669.7,156.5,670z"/>
		<path class="st5" d="M178.4,686.6c-0.1,0.3-0.2,0.5-0.3,0.8c-1.3,0.2-2.3-0.3-3.3-1c-0.1-0.4-0.1-0.9-0.3-1.3
			c-0.9-2.5-0.1-4.7,2.1-6.2c0.3-0.2,0.6-0.4,0.6-0.8c0.5-0.1,1,0,1.4,0.4c-0.3,0.2-0.6,0.3-0.9,0.5c-1.6,0.9-2.7,2.2-2.6,4.1
			C175.3,684.9,176.4,686.2,178.4,686.6z"/>
		<path class="st8" d="M342.7,686.2c-0.3-0.3-0.3-0.6-0.1-0.9C343,685.6,343,685.9,342.7,686.2z"/>
		<path class="st5" d="M209,685.5c2.2,0.6,4.3,1.5,6.5,2h0.8c0.1-1,0.5-1.9,0.2-3c-0.7,0.2-0.8-0.4-0.9-0.8c-2.3,0-4.5-1-6.8-1.2
			c-0.2,0.5-0.4,1-0.6,1.5C207.9,684.9,208.2,685.3,209,685.5z"/>
		<path class="st7" d="M355.4,687.5h60.7c-0.6-2.1-1.3-4.2-2-6.3c-2.8-8.3-5.7-16.6-9.5-24.5c-1-2.1-1-2.1-3.1-1.2
			c-16.4,7-33.3,12.6-50.1,18.4c-0.9,0.3-1.2,0.5-0.9,1.5C352,679.6,353.7,683.6,355.4,687.5z"/>
		<path class="st7" d="M347.5,687.5h5c-0.4-0.9-0.8-1.7-1.1-2.6c-1-2.4-1.6-4.9-3.2-7.1c-0.2,0.6-0.3,1.2-0.3,1.9
			c0.1,1.4-0.5,2.4-1.7,3.1c-0.1,0.8,0.1,1.5,0.3,2.2C346.9,685.9,347.2,686.7,347.5,687.5z"/>
		<path class="st8" d="M216.5,684.6c-0.7,0.2-0.8-0.4-0.9-0.8c1.7-11.9,4.6-23.5,8.8-34.8c0.3-0.8,0.6-1.6,1.1-2.3
			c0.5-0.9,0.3-1.2-0.7-1.4c-1.4-0.3-2.7-0.6-4.1-1c-0.5-0.1-1.2-0.3-1-1c0.2-0.6,0.8-0.4,1.3-0.2c1.8,0.5,3.6,1,5.3,1.5
			c0.8,0.2,1.5,0.8,0.8,1.5c-1.5,1.4-1.9,3.3-2.6,5c-2.6,7-4.2,14.2-5.8,21.5C217.9,676.5,216.9,680.5,216.5,684.6z"/>
		<path class="st6" d="M182.3,679.8c0.1,0.1,0.2,0.2,0.3,0.3l0,0.1C182.5,680.2,182.4,680,182.3,679.8L182.3,679.8z"/>
		<path class="st4" d="M182.3,679.9c0.1,0.1,0.2,0.3,0.3,0.4c-0.2,2.9-1.7,5-4.2,6.3c-2-0.4-3.1-1.7-3.2-3.6c-0.2-1.9,1-3.2,2.6-4.1
			c0.3-0.2,0.6-0.3,0.9-0.5C179.9,678.7,181,679.4,182.3,679.9z"/>
		<path class="st4" d="M207.6,673.4c-0.1,2.7-1,3.9-3,3.8c-1.1,0-2.9-2.1-2.9-3.3c0.1-1.7,1.3-3,2.7-3
			C205.9,671,207.6,672.4,207.6,673.4z"/>
		<path class="st8" d="M291.7,667.2c-0.4-1-0.8-2-1.1-3c4.7-0.1,9.4,0,14,0.8c0.6,0.1,1.2,0,1.8,0c0.5,0,1,0,1.2,0.5
			c0.2,0.5-0.2,0.8-0.5,1.2c-0.4,0.6-1,0.9-1.6,1.1c-1.6-0.1-3,0.6-4.5,0.9c-1.1,0.2-2.3,0.7-3.2,0.1
			C295.9,667.6,293.8,667.5,291.7,667.2z M299.7,668c1.6-0.4,3.5-0.1,5.3-0.9c0.4-0.2,1-0.5,0.9-1c-0.1-0.6-0.9-0.5-1.3-0.4
			c-1,0.3-2,0.1-3-0.1c-2.7-0.4-5.4-0.2-8-0.9c-0.2-0.1-0.5,0-0.7,0c-0.4,0.1-0.9,0.3-1,0.8c-0.1,0.6,0.4,1,0.9,1
			C295,667,297.2,667.8,299.7,668z"/>
		<path class="st6" d="M322.9,676.7c0.9,0.3,1.1,0.8,0.4,1.5c1.1,3,1.5,6.3,2.5,9.3h3.8c-0.1-0.6-0.2-1.3-0.3-1.9
			c-2.4-12.3-4.5-24.6-8.1-36.6c-0.5,0.1-0.9,0.6-1.4,0.1c-0.6,0.2-1.2,0.4-1.9,0.5l0,0c-10.3,2.1-20.7,3.3-31.1,4.7
			c-3.9,0.5-7.8,1-11.6,2.3c-1.5,0.5-2.4,1.5-2.6,3c-0.7,5.4-0.6,10.9,0.7,16.2c0.4,3,1.6,5.6,2.6,8.4c0.1,0.3,0.4,0.7,0.8,0.6
			c1.3-0.2,6-1.1,6.2-1.1c0.3,0,0.6,0,0.9,0c0.2-0.3,0.4-0.3,0.6,0c0.2,0,0.4-0.1,0.6-0.1c0.3-0.6,0.7-0.6,1.2-0.2
			c0.2,0,0.4-0.1,0.6-0.1c0.1-0.3,0.3-0.5,0.6-0.2c0.4,0,0.8-0.1,1.2-0.1c0.2-0.5,0.5-0.5,0.9-0.2c0.9-0.1,3.4-1,3.9-0.5
			c1.2,0.2,2.2-0.7,3.3-0.6c0.3-0.3,0.6-0.3,0.9-0.2c0.2,0,0.4,0,0.5-0.1c1.1-0.9,2.6-0.6,3.9-0.8C309,679.3,316,678,322.9,676.7"/>
		<circle class="st9" cx="288.5" cy="670.2" r="8.7"/>
		<path class="st5" d="M335.1,646.3C335.1,646.3,335.1,646.3,335.1,646.3C335.1,646.3,335.1,646.3,335.1,646.3
			c4.6-1.3,14.4-4.2,20.6-6.8c8.3-3.4,39.1-15,39.1-15l-1.1-2.2c0,0-36.2,13.5-49.7,18.2c-4.6,1.3-9.2,2.5-13.9,3.5
			c-14.4,3.1-28.8,5-43.4,6.7c-1.6,0.2-3.3,0.4-4.9,0.6c-1.9,0.2-3.9,0.3-5.8,0.8c-1.8,0.4-3.4,1.4-5.2,1.8c-0.7,0.2-1,0.6-1.5,1.3
			c-0.5,0.9-0.8,1.8-0.9,2.8c-0.4,3.6-0.5,7.2-0.2,10.8c0.3,3.1,0.9,6.1,1.5,9.2c0.4,2,0.6,4.1,0.9,6.1c0.1,0.7,0.2,1.4,0.4,2
			c0.1,0.4,0.2,0.7,0.4,1c0.3,0.5,0.9,0.6,1.4,0.7c4.8,1.3,31.9-5.4,31.9-5.4l6.3-1.5c4.1-0.8,8.2-1.8,12.2-2.8
			c0.6-0.7,0.5-1.2-0.4-1.5c0,0-42.1,6.8-45.5,7.2c-0.8,0.1-1.4-0.1-1.8-0.3c-0.9-2.5-2-5-2.3-7.7c-1.3-5.4-1.3-10.8-0.7-16.2
			c0.2-1.5,1.1-2.5,2.6-3c3.8-1.3,7.7-1.8,11.6-2.3c10.4-1.4,17.2-1.8,27.5-3.9c0.6-0.2,6.6-0.2,6.9-1.4c3.6,12,5.7,24.3,8.1,36.6
			c0.1,0.6,0.2,1.3,0.3,1.9h10.9c-0.1-1-0.2-1.9-0.4-2.9c0-0.2,0-0.4-0.1-0.6c-0.1-0.4-0.2-0.9-0.3-1.3c-0.7-4.1-1.3-8.2-2.1-12.3
			c-1.5-7.3-3.3-14.5-4.9-21.8V647C332.7,647,333.6,646.7,335.1,646.3z"/>
		<path class="st5" d="M402.5,648.9c-1-3.2-2-6.4-3.2-9.5c-1.4-3.9-2.2-7.9-3.4-11.8l-0.7-2.3c0,0-1.9,0.8-5.1,2.1
			c-0.4,0.1-0.7,0.2-1,0.4c-10.9,4.4-34.5,13.7-54.9,20c0,0,1.3,7.7,2,11.5s4,15.4,4,15.4s7.9-1.3,14.8-3.6
			c6.5-2.2,39.1-14.9,44.6-18.2c0.5-0.2,1-0.5,1.4-0.7C402.9,651.3,403.1,650.9,402.5,648.9z"/>
		<path class="st8" d="M346.6,685.1c-0.3-0.7-0.4-1.5-0.3-2.2c-0.2,0-0.5,0-0.7,0.1c-0.1-0.6-0.2-1.2-0.2-1.8c0-3.7-3.4-0.5-3.4-0.5
			s-0.2,2.1,0,3.5s0.5,3.5,0.5,3.5l5-0.1C347.2,686.7,346.9,685.9,346.6,685.1z"/>
		<path class="st4" d="M348.3,677.9c-0.2,0.6-0.3,1.2-0.3,1.9c0.1,1.4-0.5,2.4-1.7,3.1c-1.2,0.1-2.4,0.5-3.6,0.3
			c-1.6-1.2-1.8-3-1.8-4.8c0-0.2,0.1-0.5,0.3-0.7C342.6,675.8,346.9,675.9,348.3,677.9z"/>
	</g>
	<path class="st10" d="M450.5,390.4c-6-16.6-7.1-39.4-14.5-53.6c0-0.1,0.1-0.3,0.1-0.4c-0.7-1-1.4-2-2.1-2.9
		c-9.3-13.8-14.9-7.6-14.9-7.6c-6.2,0.5-12,1.9-18.1,0c-4.8-1.5-8.8-4.6-13.5-6.1c-1.7,0.8-3.2,1.8-4,3c-1,1.6-1.5,3.5-2.5,5.3
		c-1.2,2.2-1.9,4.6-3,6.9c-1.6,3.3-2.8,6.7-4.3,10.1c-1.4,3.3-2.5,6.6-3.8,10c-2.3,6-4.4,12-6.9,17.9c-2.9,7.1-5.9,14.2-9,21.2
		c-2.3,5.1-4.8,10.2-7.4,15.2c-1.6,3-3.1,6.1-4.8,9c-2.1,3.5-4.3,7-6.5,10.5c-3,4.7-6.3,9.1-9.5,13.5c-3.6,4.9-7.4,9.6-11.7,13.9
		c-3.8,3.6-7.4,7.4-11.4,10.8c-3.4,2.9-7,5.5-10.7,8.1c-3,2.1-6.3,3.9-9.8,5.1c-1.7,0.6-3.6,1.4-5.6,0.3c-0.2-0.1-0.5-0.1-0.7-0.1
		c-1,0.6-1.6,0.2-2.4-0.6c-1-1-0.7-1.4,0.1-1.9c4.8-3,9.3-6.6,13.8-10.1c5.7-4.5,10.9-9.6,16-14.7c4.3-4.3,8.4-8.9,12.2-13.7
		c2.3-3,4.9-5.8,7.1-8.9c2.6-3.5,5-7.2,7.4-10.8c1.5-2.2,3.1-4.3,4.3-6.7c1.2-2.5,2.9-4.9,4.2-7.4c1.9-3.4,3.8-6.8,5.4-10.3
		c1.8-3.8,3.8-7.5,5.4-11.5c1-2.5,2-5.1,3.1-7.6c1.2-2.8,2.3-5.7,3.4-8.5c1.3-3.4,2.5-6.7,3.8-10.1c1.1-3.1,2.1-6.3,3.4-9.4
		c0.9-2.2,2.1-4.3,3.4-6.3c2.5-3.9,5.4-7.5,8.4-11c1.6-2,3.7-3.5,5.6-5.2c0.5-0.5,1.2-0.9,1.3-1.7c-0.2,0-0.3,0-0.5,0
		c-1.5,0.3-3.2-0.5-4.7-0.4c-1.6,0.1-3.3,0.5-4.8,1c-1,0.4-4.1,2.3-5.2,1.5c-2.5-1.7-6.4-2.1-9.4-2.6c-2.7-0.4-5.6-0.8-8.1-1.7
		c-1.9-0.6-3.5-1.8-5.4-2.4s-4.2-0.7-5.6,0.7c0.1,0.9,1.4,0.9,2.2,1.2c2,0.7,1.9,3.5,1.4,5.5c-4.4,17.1-16.6,32-32.7,39.3
		c-16,7.3-34.5,6.3-49.8-2.4c-0.8-0.5-4.4-2.9-5.3-2.7c-0.7,0.1,0.2,2.8-0.3,3.2c-1.4,1.2-2.9,2.5-4.4,3.7l0,0c0,0-1.6,1.5-6.4,2
		c-0.9-0.5-1.9-0.8-2.9-1.1c-2.6-0.9-4.7-2.5-6.9-4.1c-2.3-1.5-4.5-3.2-6.4-5.1c-1.2-1.2-2.4-2.3-3.8-3.3c-0.2-0.1-0.4-0.3-0.6-0.2
		c-0.3,0.1-0.2,0.4-0.2,0.6c0.6,3.1,1,6.2,1.9,9.2c2.1,7,3.9,14.2,6.6,21c1.9,4.8,3.7,9.7,5.8,14.4c1.8,3.8,3.6,7.6,5.5,11.3
		c1.8,3.6,3.7,7.1,6,10.5c1.8,2.7,3.6,5.4,4.9,8.4c0.2,0.5,0.8,1.1,0.1,1.6c-0.6,0.4-1.2,0-1.7-0.5c-3-3-5.8-6.2-8.2-9.7
		c-2.4-3.4-4.8-6.7-6.9-10.3c-1.4-2.4-2.7-4.8-4.1-7.2c-1.6-2.9-3-5.8-4.5-8.8c-2-4-3.8-8.2-5.5-12.4c-1.5-3.6-2.8-7.2-4.1-10.9
		c-1.3-3.8-2.4-7.7-3.8-11.5c-0.9-2.5-1.6-4.9-2.4-7.4c-1.1-3.4-2.4-6.8-3.6-10.2c-0.8-2.1-1.5-4.2-3.1-5.9
		c-0.1-0.1-0.2-0.3-0.4-0.4c-0.5-0.3-1-0.9-1.4-0.7c-0.6,0.3-1.1,2.4-1,3c0.4,3.3,0.3,2.6,0.9,5.9c0.8,4.1,2.5,11,3.2,15.1
		c1,6,2.2,12.1,2.8,18.1c0.6,5.5,1.2,10.9,1.9,16.3c0.5,4.8,1,9.5,1.7,14.3c0.4,2.5,0.4,5.1,0.7,7.6c0.4,4,0.7,8.1,1.1,12.1
		c0.1,1.6,0.2,3.3,0.3,4.9c0.1,2.9,0.3,5.8,0.4,8.6c0.1,3.1,0.2,6.3,0.2,9.4c0,0.5,0.1,1-0.1,1.4c-0.2,0.6,0.1,1.6-0.6,1.7
		c-0.7,0.1-1.1-0.9-1.3-1.5c-0.9-2.3-1.6-4.8-2.5-7.1c-1.2-3.1-1.6-6.3-2.6-9.5c-0.7-2.5-1-5.1-1.6-7.6c-0.7-2.9-1.3-5.9-1.7-8.9
		c-0.7-4.6-1.5-9.2-2.2-13.8c-0.5-3.4-0.8-6.9-1.4-10.3c-0.8-4.4-1-9-1.5-13.5c-0.6-5.5-1.4-11-2-16.6c-0.3-3-0.8-6.1-1.1-9.1
		c-0.4-3.6-0.9-7.3-1.4-10.9c-0.6-4-1.3-7.9-2.1-11.9c-0.7-3.2-1.6-6.4-2.9-9.4c-0.5-1.2-1-2.4-1.6-3.6c-0.6-1.1-1.4-2.1-2.7-2.3
		c-0.5-0.1-1-0.2-1.4-0.5c-0.3-0.2-0.6-0.5-1-0.1c-0.4,0.4-0.2,0.8,0,1.1c1.5,2.8,2.4,5.8,2.9,8.8c0.9,4.8,0.9,9.7,0.2,14.6
		c-0.8,5.7-2.3,11.3-3.8,16.8c-0.7,2.5-1.6,4.9-2.5,7.4c-1.1,3.3-2.3,6.6-3.4,9.8c-1,2.8-2,5.5-3.1,8.2c-1.3,2.9-2.4,5.9-3.6,8.9
		c-1.6,4-3.1,8-4.6,12c-0.5,1.3-0.8,2.6-0.9,4l-0.7-0.9l-3.8,74.8c0,0-0.6,6.5-3.4,22.8c-2.7,16.3-9.2,87.1-4.4,97.1
		c0.2,0.4,0.4,0.8,0.6,1.2c0.4,2.7,1.4,5.2,2.8,7.6c1.9,3.3,4.2,6.2,6.6,9l0,0c0,0,15.5,18.8,25.1,24.3c9.6,5.4,65.3,23.7,92.1,22.6
		c26.8-1,97.6-21.4,107-27.2c9.4-5.9,25.3-25.8,26.4-34.1c1-8.4-5.9-111-5.9-111s0.5-3.4,1.1-7.5c3.3,2.8,18.2,0.1,23.9-8
		c6.5-9.4,18-26.6,22.3-43.2C459.1,422.1,457,408.4,450.5,390.4z M177.6,624.1c-0.1-0.1-0.2-0.2-0.3-0.3c-2-2.2-3.9-4.5-5.6-7
		c-0.8-1.2-1.6-2.4-1.9-3.8c-0.2-1-0.4-2.1,0.6-2.8c0.9-0.6,2-0.6,2.9,0c1.7,1.2,3.6,2.2,5.1,3.8c3.2,3.3,6.6,6.4,9.6,9.9
		c0.3,0.3,0.6,0.7,0.9,1L177.6,624.1z M206.3,626.4c-0.3-0.5-0.5-1-0.6-1.6c-0.9-3.5-2.1-6.9-3.1-10.3c-0.8-2.5-1.3-5.1-2-7.6
		c-1-3.3-1.9-6.7-2.7-10.1c-0.8-3.5-1.9-6.8-2.5-10.3c-0.3-1.4-0.7-2.9-1.3-4.3c-0.2-0.5-0.4-0.9-0.5-1.4c-0.6-3.9-1.7-7.7-2.5-11.6
		c-1.1-5.1-2.4-10.1-3.6-15.1c-0.2-0.8-0.3-1.5-0.4-2.3c-0.8-3.6-1.6-7.1-2.3-10.7c-0.5-2.3-0.7-4.6-1.2-6.9
		c-1.2-5.3-1.9-10.7-2.8-16c-1-5.7-1.7-11.5-2.4-17.3c-0.7-5.6-1-11.2-1.3-16.8c-0.7-12.2-0.7-24.3-0.5-36.5
		c0.1-6.9,0.7-13.8,1-20.6c0.1-1,0-1.9,0.1-2.9c0-0.3,0-0.7,0.5-0.7c0.4,0,0.3,0.4,0.3,0.7c0.4,4.3,0.8,8.6,1.1,13
		c0.5,6.5,0.9,13,1.4,19.5c0.6,7.5,1.4,15.1,2.2,22.6c0.5,4.9,1.3,9.7,2.2,14.5c1.1,5.7,2.6,11.2,4.2,16.7c1,3.3,2.2,6.5,3.3,9.7
		c0.8,2.4,1.5,4.9,2.3,7.3c0.6,1.9,1.5,3.7,2,5.7c1.4,5,3.7,9.7,5.1,14.7c0.8,2.7,2,5.3,3.1,7.9c1.4,3.5,2.7,7,4.1,10.5
		c1.5,3.9,3.1,7.9,4.7,11.8c3,7.4,5.9,14.7,9,22c2.6,6.3,5.2,12.6,8.2,18.7c1.6,3.3,2.9,6.8,4.4,10.1L206.3,626.4z M381.3,508.1
		c-1,4.3-1.6,8.6-2.7,12.8c-1.3,4.8-2.6,9.7-3.8,14.5c-0.6,2.3-1.1,4.6-1.8,6.8c-1.1,3.6-2.5,7.2-3.5,10.9c-0.6,2.2-1.4,4.3-2,6.5
		c-0.5,1.8-1.5,3.5-2,5.3c-1.4,4.5-3.2,8.8-4.8,13.2l-13.2,5.3c0.5-1.1,1.1-2.2,1.6-3.3c0.8-1.7,1.5-3.5,2.3-5.2
		c2.9-5.8,5.5-11.8,8.1-17.8c2.5-5.7,5.2-11.3,7.6-17c2-4.8,4-9.7,6-14.5c1.6-3.8,2.9-7.8,4.6-11.6c1.3-2.8,2.3-5.7,3.4-8.6
		c0.1-0.1,0.2-0.3,0.3-0.4c0.1,0,0.2,0.1,0.3,0.1C381.6,506.2,381.5,507.2,381.3,508.1z M407.8,472.3c-0.7,3.8-1.6,8.1-2.4,12.3
		c-0.2-4.5-0.5-8.9-0.6-13.4c-0.1-3.7-0.3-7.4-0.6-11.2c-0.3-3.2-0.4-6.5-0.4-9.7c-0.1-6.8-0.8-13.6-0.6-20.4
		c0.1-2.9-0.1-5.7-0.3-8.6c-0.3-5.4-0.2-10.9-1.3-16.2c-0.5-2.5-0.6-5.2-0.6-7.8c-0.1-5-0.6-10-0.3-15.1c0.4-6,0.6-11.9,1.7-17.8
		c0.9-4.7,1.5-9.4,3-13.9c1.1-3.4,2-6.9,3.4-10.1c0.1-0.3,0.1-1,0.7-0.8c0.4,0.1,0.2,0.6,0.1,1c-0.7,2.9-1.5,5.9-2,8.8
		c-0.5,3.1-0.8,6.2-1.2,9.4c-0.5,3.5-0.5,7.1-1,10.6c-0.2,2-0.3,3.9-0.4,5.9c-0.1,3.5,0.1,7-0.1,10.5c-0.1,3-0.2,6-0.1,9
		c0.3,6.3-0.3,12.6,0.3,18.9c0.2,2.2,0.2,4.4,0.3,6.6c0.2,3.7,0.5,7.5,1,11.2c0.2,1.7,0.3,3.4,0.7,5c0.1,0.5,0.1,1.2,0.7,1.2
		c0.6,0,0.4-0.8,0.4-1.2c0-3,0.7-6,0.9-9c0-0.2,0.1-0.4,0.1-0.5c-0.3-3.6,0.7-7.1,0.9-10.7c0.3-4.1,0.4-8.3,0.9-12.4
		c0.6-4.7,0.9-9.3,1.4-14c0.3-2.6,0.8-5.2,1.1-7.8c0.2-1.7,0.4-3.5,0.5-5.2c0.4-5.7,1.7-11.3,2.1-17c0.2-2.3,0.9-4.5,1.3-6.7
		c0.4-2.4,1.1-4.8,1.5-7.2c0.4-2.6,1.3-5.1,2.6-7.5c0.3-0.6,0.5-1.1,0.8-1.7c0.1,0.7,0.2,1.4,0.4,2c-0.3,0.9-0.6,1.8-0.9,2.6
		c-2.5,7.1-3.7,14.6-4.4,22.1c-0.3,3.6-0.6,7.3-0.7,10.9c-0.2,6.5-0.6,13-1,19.6c-0.2,3.4-0.5,6.8-0.7,10.1
		c-0.3,4.8-0.6,9.6-1.4,14.3c-0.5,2.7-0.6,5.5-1,8.3c-0.5,3.9-0.8,7.9-1.7,11.8c-0.8,3.5-1.2,7.1-1.5,10.7
		c-0.6,6.8-1.6,13.5-1.7,20.3C407.9,470.4,407.9,471.4,407.8,472.3z"/>
	<path class="st10" d="M174.8,319.5c0,0-15.9-0.3-33.9,24.1c-18,24.5-45.4,67.7-37.4,80.6s34.6,36.7,45.4,51.8s18.7,24.5,18.7,24.5
		s16.6-56.2,25.9-80.6s13.1-68.4,9.4-77C199.2,334.3,189.2,314,174.8,319.5z"/>
	<g>
		<path class="st11" d="M177.1,484c-0.7-12.2-0.7-24.3-0.5-36.5c0.1-6.9,0.7-13.8,1-20.6c0.1-1,0-1.9,0.1-2.9c0-0.3,0-0.7,0.5-0.7
			c0.4,0,0.3,0.4,0.3,0.7c0.4,4.3,0.8,8.6,1.1,13c0.5,6.5,0.9,13,1.4,19.5c0.6,7.5,1.4,15.1,2.2,22.6c0.5,4.9,1.3,9.7,2.2,14.5
			c1.1,5.7,2.6,11.2,4.2,16.7c1,3.3,2.2,6.5,3.3,9.7c0.8,2.4,1.5,4.9,2.3,7.3c0.6,1.9,1.5,3.7,2,5.7c1.4,5,3.7,9.7,5.1,14.7
			c0.8,2.7,2,5.3,3.1,7.9c1.4,3.5,2.7,7,4.1,10.5c1.5,3.9,3.1,7.9,4.7,11.8c3,7.4,5.9,14.7,9,22c2.6,6.3,5.2,12.6,8.2,18.7
			c1.6,3.3,2.9,6.8,4.4,10.1c0.8,1.9,1.7,3.7,2.6,5.5c0.7,1.4,0.9,2.9,1.2,4.3c0.3,1.2-0.8,2.1-2.2,2.2c-2.3,0.2-4.3-0.8-6.3-1.7
			c-2.3-1-4.6-1.8-6.8-2.8c-2.5-1.2-5.1-2-7.5-3.3c-2.1-1.2-4.4-2.3-6.6-3.2c-2.3-1-3.7-2.6-4.4-4.9c-0.9-3.5-2.1-6.9-3.1-10.3
			c-0.8-2.5-1.3-5.1-2-7.6c-1-3.3-1.9-6.7-2.7-10.1c-0.8-3.5-1.9-6.8-2.5-10.3c-0.3-1.4-0.7-2.9-1.3-4.3c-0.2-0.5-0.4-0.9-0.5-1.4
			c-0.6-3.9-1.7-7.7-2.5-11.6c-1.1-5.1-2.4-10.1-3.6-15.1c-0.2-0.8-0.3-1.5-0.4-2.3c-0.8-3.6-1.6-7.1-2.3-10.7
			c-0.5-2.3-0.7-4.6-1.2-6.9c-1.2-5.3-1.9-10.7-2.8-16c-1-5.7-1.7-11.5-2.4-17.3C177.7,495.2,177.4,489.6,177.1,484z"/>
		<path class="st11" d="M381.9,324c0.4-0.6,0.9-1.1,1.6-1.4c-1,1.6-1.5,3.5-2.5,5.3c-1.2,2.2-1.9,4.6-3,6.9
			c-1.6,3.3-2.8,6.7-4.3,10.1c-1.4,3.3-2.5,6.6-3.8,10c-2.3,6-4.4,12-6.9,17.9c-2.9,7.1-5.9,14.2-9,21.2c-2.3,5.1-4.8,10.2-7.4,15.2
			c-1.6,3-3.1,6.1-4.8,9c-2.1,3.5-4.3,7-6.5,10.5c-3,4.7-6.3,9.1-9.5,13.5c-3.6,4.9-7.4,9.6-11.7,13.9c-3.8,3.6-7.4,7.4-11.4,10.8
			c-3.4,2.9-7,5.5-10.7,8.1c-3,2.1-6.3,3.9-9.8,5.1c-1.7,0.6-3.6,1.4-5.6,0.3c-0.2-0.1-0.5-0.1-0.7-0.1c-1,0.6-1.6,0.2-2.4-0.6
			c-1-1-0.7-1.4,0.1-1.9c4.8-3,9.3-6.6,13.8-10.1c5.7-4.5,10.9-9.6,16-14.7c4.3-4.3,8.4-8.9,12.2-13.7c2.3-3,4.9-5.8,7.1-8.9
			c2.6-3.5,5-7.2,7.4-10.8c1.5-2.2,3.1-4.3,4.3-6.7c1.2-2.5,2.9-4.9,4.2-7.4c1.9-3.4,3.8-6.8,5.4-10.3c1.8-3.8,3.8-7.5,5.4-11.5
			c1-2.5,2-5.1,3.1-7.6c1.2-2.8,2.3-5.7,3.4-8.5c1.3-3.4,2.5-6.7,3.8-10.1c1.1-3.1,2.1-6.3,3.4-9.4c0.9-2.2,2.1-4.3,3.4-6.3
			c2.5-3.9,5.4-7.5,8.4-11c1.6-2,3.7-3.5,5.6-5.2C381.1,325.2,381.8,324.9,381.9,324z"/>
		<path class="st11" d="M381.8,505.2c-0.1,1-0.2,2-0.5,2.9c-1,4.3-1.6,8.6-2.7,12.8c-1.3,4.8-2.6,9.7-3.8,14.5
			c-0.6,2.3-1.1,4.6-1.8,6.8c-1.1,3.6-2.5,7.2-3.5,10.9c-0.6,2.2-1.4,4.3-2,6.5c-0.5,1.8-1.5,3.5-2,5.3c-1.4,4.5-3.3,8.8-4.8,13.2
			c-1.2,3.4-2.6,6.7-4,10c-1.5,3.6-2.9,7.2-4.7,10.6c-3.1,6.2-6.1,12.4-9.6,18.4c-1.7,2.8-3.4,5.6-5,8.5c-1.6,2.9-3.7,5.5-5.4,8.4
			c-1.7,3-3.9,5.6-6,8.3c-1.8,2.4-3.5,4.9-5.4,7.2c-2.1,2.6-4.1,5.2-6.7,7.4c-0.9,0.8-1.9,0.9-3,0.7c-0.8-0.1-1-1.2-0.5-2
			c2-3.2,3.5-6.7,5.4-10c2.8-4.9,5.3-10,8-15c2.3-4.2,4.5-8.3,6.5-12.6c1.6-3.3,3.4-6.4,5-9.7c1.7-3.6,3.5-7.1,5.2-10.7
			c2.8-5.9,5.7-11.7,8.5-17.6c0.8-1.7,1.5-3.5,2.3-5.2c2.9-5.8,5.5-11.8,8.1-17.8c2.5-5.7,5.2-11.3,7.6-17c2-4.8,4-9.7,6-14.5
			c1.6-3.8,2.9-7.8,4.6-11.6c1.3-2.8,2.3-5.7,3.4-8.6c0.1-0.1,0.2-0.3,0.3-0.4C381.6,505.1,381.7,505.2,381.8,505.2z"/>
		<path class="st11" d="M406,495.6c0-1-0.4-6.1-0.4-7.4c-0.1-5.7-0.6-11.3-0.7-17c-0.1-3.7-0.3-7.4-0.6-11.2
			c-0.3-3.2-0.4-6.5-0.4-9.7c-0.1-6.8-0.8-13.6-0.6-20.4c0.1-2.9-0.1-5.7-0.3-8.6c-0.3-5.4-0.3-10.9-1.3-16.2
			c-0.5-2.5-0.6-5.2-0.6-7.8c-0.1-5-0.6-10-0.3-15.1c0.4-6,0.6-11.9,1.7-17.8c0.9-4.7,1.5-9.4,3-13.9c1.1-3.4,2-6.9,3.4-10.1
			c0.1-0.3,0.1-1,0.7-0.8c0.4,0.1,0.2,0.6,0.1,1c-0.7,2.9-1.5,5.9-2,8.8c-0.5,3.1-0.8,6.2-1.2,9.4c-0.5,3.5-0.5,7.1-1,10.6
			c-0.2,2-0.3,3.9-0.4,5.9c-0.1,3.5,0.1,7-0.1,10.5c-0.1,3-0.2,6-0.1,9c0.3,6.3-0.3,12.6,0.3,18.9c0.2,2.2,0.2,4.4,0.3,6.6
			c0.2,3.7,0.5,7.5,1,11.2c0.2,1.7,0.3,3.4,0.7,5c0.1,0.5,0.1,1.2,0.7,1.2c0.6,0,0.4-0.8,0.4-1.2c0-3,0.7-6,0.9-9
			c0-0.2,0.1-0.4,0.1-0.5c-0.3-3.6,0.7-7.1,0.9-10.7c0.3-4.1,0.4-8.3,0.9-12.4c0.6-4.7,0.9-9.3,1.4-14c0.3-2.6,0.8-5.2,1.1-7.8
			c0.2-1.7,0.4-3.5,0.5-5.2c0.4-5.7,1.7-11.3,2.1-17c0.2-2.3,0.9-4.5,1.3-6.7c0.4-2.4,1.1-4.8,1.5-7.2c0.4-2.6,1.3-5.1,2.6-7.5
			c1-1.9,1.4-3.9,2.3-5.9c0.9-2.1,2.5-3.7,3.4-5.8c0.1-0.3,0.4-0.6,0.8-0.4c0.4,0.2,0.1,0.6-0.1,0.8c-2.8,4.4-4.4,9.3-6.1,14.1
			c-2.5,7.1-3.7,14.6-4.4,22.1c-0.3,3.6-0.6,7.3-0.7,10.9c-0.2,6.5-0.6,13-1,19.6c-0.2,3.4-0.5,6.8-0.7,10.1
			c-0.3,4.8-0.6,9.6-1.4,14.3c-0.5,2.7-0.6,5.5-1,8.3c-0.5,3.9-0.8,7.9-1.7,11.8c-0.8,3.5-1.2,7.1-1.5,10.7
			c-0.6,6.8-1.6,13.5-1.7,20.3c-0.1,4.7-0.5,9.5-0.8,14.2C407,485,406.9,493.9,406,495.6z"/>
		<path class="st10" d="M368.4,645.1c-0.6,0.4-1.3,0.6-2,0.7c-0.1,0.1-0.3,0.1-0.5,0.2c-0.2,0.1-0.4,0.2-0.6,0.2
			c-0.3,0-0.6,0-0.8,0.3c-4.1,1.6-8.2,3-12.4,4.1c-0.1-0.1-0.2-0.1-0.3,0c-0.8,0.4-1.6,0.7-2.5,0.8c-0.3-0.3-0.5-0.2-0.6,0.2
			c-0.4,0.2-0.7,0.3-1.1,0.5c-0.2-0.1-0.4,0-0.6,0.2c-0.2,0-0.4,0.1-0.5,0.1c-1,0-1.9,0.7-2.9,0.5c0.1-0.3,0.4-0.6,0.7-0.8
			c4.2-1.9,7.7-5,11.6-7.3c4-2.3,8-4.5,12.1-6.7c0.2-0.1,0.5-0.3,0.8-0.1c0.3,0.2,0.3,0.6,0.1,0.9c-0.7,1-0.3,2.3-1,3.4
			c-0.4,0.6-0.1,1.3,0.2,1.8c0.4,0.5,0.9,0.1,1.4-0.1c0.5-0.2,0.8-0.2,1,0.4c-0.3,0.2-0.6,0.3-1,0.3
			C369.1,644.6,368.6,644.5,368.4,645.1z"/>
		<g>
			<path class="st11" d="M343.8,652.9c-0.6,0.8-1.6,0.8-2.4,1.1c-2.6,0.8-5.2,1.7-7.9,2.2c-0.5-0.9-0.2-1.5,0.6-2.1
				c2.4-1.7,4.7-3.5,7-5.2c2.2-1.6,4.4-3.3,6.6-4.9c1.9-1.4,3.8-2.7,5.7-4c2.6-1.8,5.2-3.7,7.9-5.5c6.2-4.1,12.2-8.6,18.9-12.1
				c1-0.5,2-1.1,3.1-1.3c2-0.3,3,0.9,2.4,2.8c-0.5,1.7-1.5,3.2-2.5,4.5c-1.8,2.5-3.8,4.9-5.9,7.2c-1.3,1.4-2.4,3.1-3.5,4.7
				c-0.6,0.8,0,1.9,1.1,2c0.2,0,0.5,0,0.6,0.2c-1.6,0.7-3.2,1.3-4.9,1.7c-0.1-0.5-0.5-0.6-1-0.4c-0.5,0.2-1,0.6-1.4,0.1
				c-0.3-0.5-0.6-1.3-0.2-1.8c0.7-1,0.3-2.3,1-3.4c0.2-0.3,0.2-0.7-0.1-0.9c-0.3-0.2-0.5,0-0.8,0.1c-4,2.2-8.1,4.4-12.1,6.7
				c-3.9,2.3-7.4,5.4-11.6,7.3C344.2,652.3,344,652.6,343.8,652.9z M373.4,642.8c0,0,0.1,0,0.1-0.1c0-0.1-0.1-0.1-0.1-0.2
				c0,0-0.1,0-0.1,0.1C373.3,642.7,373.3,642.8,373.4,642.8z"/>
			<path class="st11" d="M202.6,647.7c0.4-0.1,1.1-0.1,0.4-0.8c-2.5-2.1-5.1-4.2-7.6-6.4c-2.5-2.2-5.2-4.1-7.6-6.5
				c-2.2-2.3-4.7-4.2-6.9-6.5c-1.2-1.2-2.4-2.5-3.6-3.8c-2-2.2-3.9-4.5-5.6-7c-0.8-1.2-1.6-2.4-1.9-3.8c-0.2-1-0.4-2.1,0.6-2.8
				c0.9-0.6,2-0.6,2.9,0c1.7,1.2,3.6,2.2,5.1,3.8c3.2,3.3,6.6,6.4,9.6,9.9c2.6,3,5.7,5.6,8.3,8.7c3.2,3.8,6.9,7.1,10.1,10.8
				c1.6,1.8,3.4,3.4,5.1,5.2c0.7,0.7,1.2,1.6,1.1,2.7c-0.7,0-1.3-0.4-1.9-0.6c-1.8-0.7-3.6-1.5-5.5-1.8c-0.2-0.1-0.5-0.2-0.7-0.2
				C203.9,648,203.1,648.2,202.6,647.7z"/>
			<path class="st11" d="M233.7,657.9c-2.6-1.2-5.4-1.7-8.2-2.5c-0.4-0.1-0.9,0-1.2-0.5c0.7-0.4,1.4-0.7,2.3-0.3
				c0.6,0.2,1.4-0.6,2.2-0.6c4.4-0.2,8.6-1.2,13-1.6c2.4-0.2,4.8-0.5,7.1-1.1c2.2-0.6,4.4-0.7,6.6-0.6c2.9,0,4.8,2.1,6.6,4.2
				c0.6,0.7,1.1,1.5,1.8,2.1c0.9,0.8,1.5,1.6,1.1,3c-0.3,0.8,0.8,1.2,1,2c0.1,0.7,0.5,1.1-0.6,1.2c-1,0.1-1.1,1-1.1,1.8
				c-0.1,0-0.2,0.1-0.3,0.1c-0.8-0.3-1.6-0.6-2.5-0.5c-0.3,0-0.5-0.1-0.8-0.1c-0.3-0.2-0.5-0.3-0.9-0.2c-0.3,0-0.5-0.1-0.8-0.1
				c-0.3-0.1-0.6-0.3-0.9-0.3c-4.1-0.9-8.2-1.8-12.3-2.7c-2.9-0.6-5.8-1.6-8.8-2.1c-0.2,0-0.4-0.1-0.5-0.1c-0.8-0.5-1.6-0.8-2.5-0.7
				C234,657.9,233.9,657.9,233.7,657.9z"/>
		</g>
	</g>
	<path class="st11" d="M353.9,324.3c-0.1-0.2-0.1-0.6-0.5-0.6s-0.3,0.4-0.4,0.6c-0.1,0.8-0.2,1.5-0.3,2.3c-0.5,4.2-1.9,8.2-3.3,12.1
		c-0.7,2.1-1.9,4.1-2.9,6.2c-2.8,5.6-6.1,10.9-10.5,15.5c-2.7,2.8-5.6,5.4-8.6,7.8c-2.9,2.3-6,4.4-9.2,6.2c-4,2.3-8.2,4.2-12.6,5.6
		c-5.2,1.7-10.5,2.9-16,3.1c-3.9,0.1-7.9,0.3-11.8-0.2c-3.7-0.5-7.4-1.2-11-2.4c-4.5-1.6-8.9-3.3-13-5.8c-2.2-1.3-4.3-2.6-6.1-4.4
		c-0.7-0.6-0.6-1.1,0.3-1.6c1.8-1.1,3.5-2.3,5-3.8c0.9-0.9,2.3-2.5,3.7-2.7c-2.6-2-5.7-3.6-8.1-5.9c-6.7-6.5-11.2-14.4-13.4-23.8
		c-0.4-1.7-0.6-3.5-0.8-5.3c-0.1-0.6-0.1-1.3-0.1-1.9c1-4.5,4.4-5.1,4.2-5.2c-5.6-2.9-10.8-1-16.5,0.2c-2.3,0.5-4.2,1.1-5.7,1.6
		c-2.4,0.9-4.9,1.1-7.4,0.6c-1.1-0.2-2.3-0.4-3.4-0.6c-3.8-0.6-4,1.1-5.8,1s-5.6-3.5-10.6-4.9c-4.9-1.4-9.5-0.4-9.7-0.3
		c-1.6,0.2-3.2,0.8-4.7,1.6c-0.6,0.3-1.2,0.6-1.9,0.9c1.3,0.9,2.8,1.4,4.1,2c1.1,0.5,2.2,1.1,3.3,1.7c1.5,0.8,2.3,2.3,2.6,3.9
		c0.6,2.4,0.8,4.9,0.8,7.4c0,4.4-0.7,8.8-1.3,13.1c-0.3,2.2-0.8,4.4-1.3,6.5c-1.6,6.4-3.3,12.7-5.4,18.9c-1,3.1-2,6.2-2.9,9.4
		c-1,3.1-2,6.1-3,9.2c-1.3,3.8-2.7,7.5-3.8,11.4c-0.2,0.6-0.3,1.7-0.9,1.7c-0.7-0.1-0.6-1.2-0.6-1.9c0-4.4-0.3-8.9-0.7-13.3
		c-0.4-5.3-0.6-10.6-1.5-15.8c-0.1-0.6-0.2-1.3-0.3-1.9c0.1,6.1-0.4,12.1-1.5,18.1c0.1,4,0.1,8,0,11.9c-0.1,6.6-0.5,13.2-1.3,19.8
		c-0.6,5.1-1.5,10.2-2.5,15.3c-0.1,0.5-0.1,1.4-0.7,1.3c-0.7,0-0.4-0.9-0.5-1.4c-0.7-5.5-0.5-11.1-1.2-16.6
		c-0.2-1.8-0.4-3.7-0.4-5.5c-0.1-4.3-0.4-8.7-0.7-13c-0.6-0.1-1.1-0.2-1.6-0.5c-1.6,5.7-3.7,11.2-6.4,16.4c-0.3,1.2-0.6,2.4-1,3.6
		c-1,3-2.9,5-5.4,6.3c-1.6,2.1-3.4,4.1-5.4,5.9c2.9,1.6,5.5,3.6,8,5.8c2.8,2.6,5.2,5.5,7.5,8.6c1.8,2.5,3.9,4.8,4.2,8
		c0.2,1.5,0.3,3,0.5,4.5c1.3,9,2.2,18,3.8,26.9c0.5,2.8,0.7,5.6,1.9,8.2c0.3-0.3,0.5-0.7,0.5-1.1c-0.1-4.2,0.6-8.4,0.8-12.6
		c0.1-2.6,0.1-5.2,0.4-7.8c0.5-5,0.5-9.9,1-14.9c0.3-2.7,0.2-5.4,0.5-8c0.3-2.8,0.4-5.6,0.6-8.5c0.2-4.8,0.7-9.7,0.9-14.5
		c0.2-5.1,0.6-10.2,0.6-15.3c0-2.1,0.3-4.2,1-6.2c2.1-5.8,4.4-11.5,6.6-17.2c0.5-1.3,1.1-2.6,1.6-3.9c1.1-2.6,2.1-5.2,3-7.9
		c1.1-3.3,2.3-6.6,3.4-9.8c0.9-2.5,1.8-4.9,2.5-7.4c1.5-5.5,3-11.1,3.8-16.8c0.6-4.9,0.6-9.8-0.2-14.6c-0.5-3-1.4-6-2.9-8.8
		c-0.2-0.4-0.4-0.8,0-1.1c0.4-0.4,0.6-0.1,1,0.1c0.4,0.3,0.9,0.4,1.4,0.5c1.4,0.2,2.2,1.1,2.7,2.3c0.6,1.2,1,2.4,1.6,3.6
		c1.4,3,2.2,6.2,2.9,9.4c1,4.4,1.7,8.9,2.4,13.4c0.5,3.3,0.9,6.6,1.3,10c0.3,2.8,0.7,5.6,1,8.4c0.5,5.5,1.3,11,2,16.6
		c0.5,4.5,0.7,9,1.5,13.5c0.6,3.4,0.9,6.9,1.4,10.3c0.7,4.7,1.5,9.4,2.3,14.1c0.5,3,1.1,5.9,1.8,8.9c0.5,2.4,0.8,4.9,1.5,7.3
		c0.9,3.1,1.4,6.4,2.6,9.5c0.9,2.3,1.6,4.8,2.5,7.1c0.2,0.6,0.6,1.6,1.3,1.5c0.6-0.1,0.4-1.1,0.6-1.7c0.1-0.4,0.1-0.9,0.1-1.4
		c0-2.7-0.1-5.4-0.2-8.1c-0.1-3-0.2-6.1-0.4-9.1c-0.1-1.9-0.1-3.8-0.3-5.7c-0.4-4-0.7-8.1-1.1-12.1c-0.2-2.7-0.3-5.4-0.7-8
		c-0.3-2.1-0.6-4.3-0.8-6.5c-0.8-7.8-1.8-15.5-2.6-23.3c-0.5-5-1.2-10.1-2.2-15c-1.5-7.4-2-14.9-4.1-22.2c-0.3-1.1-0.1-2.3,0.1-3.4
		c0.1-0.5-0.5-1.6,0.2-2c0.4-0.2,0.9,0.4,1.4,0.7c0.1,0.1,0.2,0.3,0.4,0.4c2.1,2,2.7,4.8,3.7,7.4c1,2.6,1.9,5.2,2.7,7.8
		c0.9,2.8,1.7,5.5,2.7,8.2c1.3,3.8,2.4,7.7,3.8,11.5c1.3,3.7,2.6,7.3,4.1,10.9c1.7,4.2,3.5,8.4,5.5,12.4c1.4,2.9,2.9,5.9,4.5,8.8
		c1.4,2.4,2.7,4.8,4.1,7.2c2.1,3.6,4.5,7,6.9,10.3c2.5,3.5,5.2,6.7,8.2,9.7c0.5,0.5,1.1,0.9,1.7,0.5c0.7-0.4,0.1-1.1-0.1-1.6
		c-1.3-3-3.1-5.7-4.9-8.4c-2.3-3.3-4.2-6.9-6-10.5c-1.9-3.7-3.7-7.5-5.5-11.3c-2.2-4.7-3.9-9.6-5.8-14.4c-2.8-6.8-4.5-14-6.6-21
		c-0.9-3-1.3-6.1-1.9-9.2c-0.1-0.2-0.1-0.5,0.2-0.6c0.1,0,0.2,0,0.3,0c1,0.3,1.8,1.1,2.6,1.9c2.4,2.6,5.1,4.7,8,6.7
		c2.2,1.5,4.3,3.2,6.9,4.1c1.4,0.5,2.9,0.8,4.1,2c3,2.9,6.5,5.2,10.1,7.1c4.3,2.3,8.8,4.2,13.5,5.5c5.3,1.4,10.6,2.4,16.1,2.4
		c6.6,0,13.1-0.7,19.5-2.6c4.9-1.4,9.5-3.3,13.9-5.7c6.4-3.4,12.3-7.5,17.5-12.6c4-3.9,7.5-8.3,10.4-13c2.4-3.9,4.6-7.9,6.1-12.4
		c1.2-3.6,2.2-7.2,3-10.9C354.5,327.2,354.7,325.7,353.9,324.3z"/>
	<path class="st12" d="M153.9,249.9C154,249.9,154,249.9,153.9,249.9C154,249.8,153.9,249.9,153.9,249.9"/>
	<path class="st0" d="M356.2,242.6c-0.3-4.2-0.8-8.5-1.4-12.6c-0.5-3.3-0.7-6.5-1.1-9.8c-0.6-4.3-1.5-8.6-2.7-12.8
		c-2.4-8.3-5.7-16.4-10.3-23.8c-1.6-2.5-3.3-4.9-5.2-7.2c-2.6-3.1-5.2-6.1-8.3-8.7c-0.1-0.1-0.1-0.1-0.2-0.1
		c-0.3-0.3-0.6-0.6-0.9-0.9c-4.7-4.1-10-7.6-15.8-9.9c-4-1.6-8.3-2.6-12.6-2.8c-2.2-0.1-4.4-0.2-6.5,0.4c-5.4,1.5-7.2,4.4-7.1,4.6
		c0.2,0.2-4.3-4.1-14.6-3.6c-5.5,0.2-8,0.5-13.1,2.8c-1.3,0.6-4,2.7-4.3,3c1.9-0.9,3.5-1.4,4.7-1.5c0.4-0.1,2.6,0.1,3,0.1
		c3.1,0,4.4,0.8,7.3,1.7c2.3,0.7,4.5,1.9,6.5,3.2c2.3,1.4,4.5,2.9,6.5,4.8c1.6,1.5,1.5,3.3,1.5,5.1c0.8,14.2,1.7,37.1,1.7,42.1
		c0,3.5,7.9,9.1,11.2,11.2c6.2,3.9,7.5,14.1,14.9,21.2c4.2,4,25.8,15.7,27.5,16.3c1.3,0.4,2.4,0.6,2.7,2.1c0.1,0.3,0.2,3.8,0.1,3.9
		c0.7-0.5,0.2-1.6,0.5-2.3c0.1-0.5,0.1-1.1,0.5-1.4c2.7-1.7,4.5-4.2,6.1-6.9c0.1-0.3,0.3-0.7,0.4-1l-0.1,0h0.1
		c1.2-3.1,2.4-6.3,3.6-9.4c0.1-0.1,0.1-0.2,0.2-0.4c0-0.1,0.1-0.2,0.1-0.3c0.2-0.1,0.4-0.2,0.5-0.4c1-0.2,1.9-0.1,2.6,0.7
		c0.1,0.1,0.2,0.3,0.2,0.4c0.2,0.3,0.3,0.6,0.5,0.9c0.1,1.2-3,6.1-3.1,7.3c-0.4,2.3-3,5.5-3.4,7.7c0.6,0.2,5.9-5,6-5.3
		c0.6-1.8,1.2-3.7,1.5-5.6C356.5,251,356.5,246.8,356.2,242.6z M354,231.4L354,231.4c0.5,0,0.5,0.6,0.5,0.9
		C354.5,232,354.5,231.4,354,231.4z"/>
	<g>
		<g>
			<g>
				<g>
					<path id="SVGID_1_" class="st3" d="M491.5,400c-29.3-32-89.5-89.6-103.8-121.8c-3.3-7.4-2-6.7-3-24.4
						c-0.4-7.3-1.2-14.4-4.7-21.1c-3.4-6.3-6.9-12.5-9-19.3c-1.2-3.7-2.3-7.4-3.6-11.1c-0.6-1.9-1.1-4.3-3.7-4.1c-3,0.2-2.7,3-3,5
						c-0.3,2.3,0.9,7.6,1.2,9.9c1.5,9.9,6.5,15.5,7.5,15.7c-1.6,0-2.1-1.1-2.9-1.8c-11-10.3-22-20.6-35.6-27.5c-3-1.6-6.9-2.6-9,0.1
						c-2.5,3.2,0.6,6,3.2,8.1c8.7,7.2,17.5,14.3,26.2,21.6c2.3,1.9,4.8,3.7,6.1,6.8c-2.3,0.5-3.1-1-4.2-1.9
						c-12-9.8-23.7-20.1-36.9-28.4c-2.1-1.4-4.3-2.8-6.6-0.2c-2.3,2.7-2,5.5,0.3,7.9c2,2.1,4.3,4.1,6.6,5.9
						c10,8.1,20.7,15.3,30.1,24.2c1.3,1.2,3.1,2.1,2.7,4.4c-2,0.1-2.9-1.3-4-2.3c-10.7-10.2-23.4-18-34.8-27.2
						c-3.2-2.6-5.5-1.6-6.7,2.4c-0.6,2,0,3.6,1.1,5.3c1.8,2.6,4,4.8,6.4,6.7c8.5,7,17,14,25.4,21.2c2.4,2,4.8,4.2,5.7,7.6
						c-2.3,0.4-3-1.3-4-2.3c-7.4-7.1-12.5-12.4-20.4-18.9c-0.8-0.6-4-2.3-5.3-1.7c-1.3,0.6-1.8,1.2-1.8,2.4c0,1.7,0.5,3.4,1.2,4.9
						c1.8,3.9,4.6,7,7.4,10.1c5.8,6.5,11.3,13.2,15.6,20.8c4.4,7.9,9.3,15.1,17.8,19c0.7,0.3,16.5,26.2,47.7,95
						c17.6,38.8,32.6,69,48.8,85.1c19,18.8,42.1,24,54.5,12C517.1,475.5,514,424.6,491.5,400"/>
				</g>
				<g>
					<defs>
						<path id="SVGID_2_" d="M491.5,400c-29.3-32-89.5-89.6-103.8-121.8c-3.3-7.4-2-6.7-3-24.4c-0.4-7.3-1.2-14.4-4.7-21.1
							c-3.4-6.3-6.9-12.5-9-19.3c-1.2-3.7-2.3-7.4-3.6-11.1c-0.6-1.9-1.1-4.3-3.7-4.1c-3,0.2-2.7,3-3,5c-0.3,2.3,0.9,7.6,1.2,9.9
							c1.5,9.9,6.5,15.5,7.5,15.7c-1.6,0-2.1-1.1-2.9-1.8c-11-10.3-22-20.6-35.6-27.5c-3-1.6-6.9-2.6-9,0.1c-2.5,3.2,0.6,6,3.2,8.1
							c8.7,7.2,17.5,14.3,26.2,21.6c2.3,1.9,4.8,3.7,6.1,6.8c-2.3,0.5-3.1-1-4.2-1.9c-12-9.8-23.7-20.1-36.9-28.4
							c-2.1-1.4-4.3-2.8-6.6-0.2c-2.3,2.7-2,5.5,0.3,7.9c2,2.1,4.3,4.1,6.6,5.9c10,8.1,20.7,15.3,30.1,24.2c1.3,1.2,3.1,2.1,2.7,4.4
							c-2,0.1-2.9-1.3-4-2.3c-10.7-10.2-23.4-18-34.8-27.2c-3.2-2.6-5.5-1.6-6.7,2.4c-0.6,2,0,3.6,1.1,5.3c1.8,2.6,4,4.8,6.4,6.7
							c8.5,7,17,14,25.4,21.2c2.4,2,4.8,4.2,5.7,7.6c-2.3,0.4-3-1.3-4-2.3c-7.4-7.1-12.5-12.4-20.4-18.9c-0.8-0.6-4-2.3-5.3-1.7
							c-1.3,0.6-1.8,1.2-1.8,2.4c0,1.7,0.5,3.4,1.2,4.9c1.8,3.9,4.6,7,7.4,10.1c5.8,6.5,11.3,13.2,15.6,20.8
							c4.4,7.9,9.3,15.1,17.8,19c0.7,0.3,16.5,26.2,47.7,95c17.6,38.8,32.6,69,48.8,85.1c19,18.8,42.1,24,54.5,12
							C517.1,475.5,514,424.6,491.5,400"/>
					</defs>
					<clipPath id="SVGID_3_">
						<use xlink:href="#SVGID_2_"  style="overflow:visible;"/>
					</clipPath>
					<g class="st13">
						<path class="st4" d="M354.2,232.6c1.1,0.9,2.3,6.2,4.2,1.9c-1.3-3.1-3.8-4.9-6.1-6.8c-8.7-7.2-17.5-14.4-26.2-21.6
							c-1.2-1-5-2.9-5.6-2.1c-0.5,0.6-0.7,1.2-0.9,1.7C331.9,213.8,342.9,223.4,354.2,232.6z"/>
						<path class="st4" d="M311.6,216.9c11.5,9.2,24.1,17,34.8,27.2c1.1,1,1,5.9,4,2.3c0.5-2.3-1.4-3.2-2.7-4.4
							c-9.4-8.9-20.1-16.1-30.1-24.2c-2.3-1.8-9-8.2-9.3-7.8c-1.7,2-2,3.9-1.2,5.8C308.3,215.2,309.8,215.5,311.6,216.9z"/>
						<path class="st4" d="M360.8,219.4c2.3,2.1,5.6,7.4,7.8,9.4c0.8,0.7,4,2.3,3.9,0.2c-1-0.2-8.2-5.5-9.7-15.4
							c-0.3-2.1-3.3-7.7-3.5-5.9c-0.3,2.3,0.9,7.6,1.2,9.9C360.6,218.3,360.7,218.9,360.8,219.4z"/>
						<path class="st4" d="M312,239c0.1-1,0.4-1.9,1.4-2.4c1.3-0.6,4.9,1.8,5.6,2.4c7.9,6.5,13,11.8,20.4,18.9c0.9,0.9,1,5.7,2.8,4
							c1-0.9,1.1-2.4,0.5-3.6c-1.1-2.4-3.1-4.2-5-5.8c-8.4-7.1-16.9-14.1-25.4-21.2c-2.4-2-9.4-7.8-9.9-6c-0.6,2,0,3.6,1.1,5.3
							c1.8,2.6,4,4.8,6.4,6.7C310.6,237.9,311.3,238.4,312,239z"/>
						<path class="st4" d="M504.9,486.8c-12.3,12-35.4,6.8-54.5-12c-16.3-16.1-31.3-46.3-48.8-85.1c-31.2-68.8-47-94.7-47.7-95
							c-8.5-3.9-13.5-11.1-17.8-19c-4.2-7.6-9.8-14.3-15.6-20.8c-2.8-3.1-9.2-12.4-9.6-12.3c-1.3,0.6-1.5,1.9-1.5,3.2
							c0,1.7,0.5,3.4,1.2,4.9c1.8,3.9,4.6,7,7.4,10.1c5.8,6.5,11.3,13.2,15.6,20.8c4.4,7.9,9.3,15.1,17.8,19
							c0.7,0.3,16.5,26.2,47.7,95c17.6,38.8,32.6,69,48.8,85.1c19,18.8,42.1,24,54.5,12c2.4-2.3,4.2-5.8,5.5-10.2
							C507.1,484.3,506,485.7,504.9,486.8z"/>
					</g>
				</g>
			</g>
		</g>
		<g>
			<path class="st3" d="M197.6,359.2c1.9-7.5,8.1-14.1,15-19.4c4.5-3.5,8.3-8,11-13.2c7.1-13.9,16.4-25.6,24.2-39.1
				c1.1-2,1.9-4,2.1-6.4c0.2-3.8-1.5-5-3-5.6c-1.7-0.7-4.2,0.1-5,1c-6.3,8.1-2.4,2.9,4-6.5c2-3,4.1-6,4.6-9.7
				c0.3-2.4,0.8-5.1-2.1-6.3c-2.6-1.1-5.3,1.2-6.5,2.7c-8.5,10.3-10.3,12.7,0.2-1.9c1.3-1.8,3.7-5.9,1.9-7.8c-1.5-1.7-5.5-2.1-7-1.3
				c-7.3,4.1-19.9,19.2-12.5,10.1c2.1-2.6,4.5-4.8,7.1-6.7c2.3-1.7,4-4.3,4.3-7.1c0.1-0.8,0.1-1.7-0.1-2.6c-0.3-1.7-1.5-2.9-3.1-3.7
				c-3.9-2.1-8.9,3-12,6.2c-7,7-12.7,12.6-19.2,20.2c-5.9,6.9-19,18-17.5,16.8c1.2-1,1.3-3.3,1.7-4.8c1.2-5,0.7-6.2,0.3-11.3
				c-0.2-2.8-1.9-5-4.8-5.3c-3.1-0.3-4,2.4-4.5,4.9c-0.3,1.3-0.4,2.7-0.6,4c-0.8,8-2.2,15.8-5.8,23.1c-3,6-3.7,12.4-2.9,19
				c0.9,7.7,1.8,15.5,0,23.1c-0.7,2.9-1.2,6-2.7,8.9C147.2,375.9,94.7,447,86.1,478.1c-6.3,22.9-0.3,42.9,14.3,47.2
				c15.7,4.7,53.6-19.7,62.9-47.7C175.3,441.1,190.1,389.1,197.6,359.2"/>
			<g>
				<g>
					<defs>
						<path id="SVGID_4_" d="M197.6,359.2c1.9-7.5,8.1-14.1,15-19.4c4.5-3.5,8.3-8,11-13.2c7.1-13.9,16.4-25.6,24.2-39.1
							c1.1-2,1.9-4,2.1-6.4c0.2-3.8-1.5-5-3-5.6c-1.7-0.7-4,1.4-4.8,2.4c-6.3,8.1-2.6,1.5,3.8-7.9c2-3,4.1-6,4.6-9.7
							c0.3-2.4,0.8-5.1-2.1-6.3c-2.6-1.1-5.3,1.2-6.5,2.7c-8.5,10.3-9.2,10.4,1.1-2.4c1.4-1.7,2.8-5.4,1.1-7.4
							c-1.5-1.7-5.5-2.1-7-1.3c-3.9,2.3-2.1,0.6-2.1,0.6c0.8-2.3,0.7-1.5,1-4.4c0.1-0.8,0.1-1.7-0.1-2.6c-0.3-1.7-1.5-2.9-3.1-3.7
							c-3.9-2.1-8.9,3-12,6.2c-7,7-12.7,12.6-19.2,20.2c-5.9,6.9-19,18-17.5,16.8c1.2-1,1.3-3.3,1.7-4.8c1.2-5,0.7-6.2,0.3-11.3
							c-0.2-2.8-1.9-5-4.8-5.3c-3.1-0.3-4,2.4-4.5,4.9c-0.3,1.3-0.4,2.7-0.6,4c-0.8,8-2.2,15.8-5.8,23.1c-3,6-3.7,12.4-2.9,19
							c0.9,7.7,1.8,15.5,0,23.1c-0.7,2.9-1.2,6-2.7,8.9C147.2,375.9,94.7,447,86.1,478.1c-6.3,22.9-0.3,42.9,14.3,47.2
							c15.7,4.7,53.6-19.7,62.9-47.7C175.3,441.1,190.1,389.1,197.6,359.2"/>
					</defs>
					<clipPath id="SVGID_5_">
						<use xlink:href="#SVGID_4_"  style="overflow:visible;"/>
					</clipPath>
					<g class="st14">
						<path class="st4" d="M184.9,259.1c0,0,1.6,14.9-2.5,22.1s9.9-11.5,12.4-15.5C197.3,261.8,184.9,259.1,184.9,259.1z"/>
						<path class="st4" d="M236.1,238.3c0,0-1.3,6.3-13.3,18.1c-4.6,4.5-20.3,23-19.8,29.1s1.1,1.6,1.1,1.6s0.1-2.7,4.1-8.8
							c2.8-4.2,24.7-29.8,28.3-33.2C239.4,242.2,236.1,238.3,236.1,238.3z"/>
						<path class="st4" d="M216.6,291c0,0-1-4,3.3-9.8s21.3-24.2,21.3-24.2s-7.9,10-14.9,19.6C221.4,283.3,216.8,289,216.6,291z"/>
						<path class="st4" d="M243.3,274.3c0,0-20.2,23.8-22,27.4c-1.8,3.6,0.9,2.5,2.5,0.9C225.5,301,243.3,274.3,243.3,274.3z"/>
						<path class="st4" d="M245.7,291.1c0,0-24.7,34-30.8,40s-15.3,13.1-17.5,18.2s-34,125.6-39.6,136.1s-42.7,36.9-60.5,36.5
							c-17.8-0.4-4.7,11,2.5,11.3c7.2,0.4,29.3,0,37.4-7.9c8.1-7.9,39.2-31.3,44.8-46.6c5.6-15.3,35.1-127.1,35.1-127.1
							S252,298.8,245.7,291.1z"/>
					</g>
				</g>
			</g>
		</g>
	</g>
	<path class="st3" d="M231.4,268.7c0,0-8.1-16.6-13-13.5c-4.9,3.1,6.5,25.2,10.3,22.7S231.4,268.7,231.4,268.7z"/>
</g>
<g>
	<path class="st15" d="M283.8,178l-1.6-10.4c0,0,17.3-10.6,27.2-0.5c0,0-11.5-13.3-30.4-0.8c0,0-10.1-5.8-24.5,2.6
		c-14.4,8.4-21.6,17.3-25.9,30.7c-0.2,0.5,25.4-44.1,50.9-29.5c0,0.2,0.5,3.8,0.5,4c-3.1-1.4-19.7,3.6-23.8,13.7
		c0,0,5.5-10.8,23.5-11.3c0.6,5.3,1.5,8.9,2.4,18c1.4,14.4,3.1,24.2,3.1,24.2s-2.6-33.4-1.7-37.2c1-3.8,18.5-9.1,39.6,1.4
		C323.1,183,307.3,167.6,283.8,178z"/>
</g>
</svg>
