<?xml version="1.0" encoding="utf-8"?>
<!-- Generator: Adobe Illustrator 27.0.0, SVG Export Plug-In . SVG Version: 6.00 Build 0)  -->
<svg version="1.1" id="图层_1" xmlns="http://www.w3.org/2000/svg" xmlns:xlink="http://www.w3.org/1999/xlink" x="0px" y="0px"
	 viewBox="0 0 595.28 841.89" style="enable-background:new 0 0 595.28 841.89;" xml:space="preserve">
<style type="text/css">
	.st0{fill:#907F69;}
	.st1{fill:#4F4139;}
	.st2{clip-path:url(#SVGID_00000146488574959133154820000003852150980657441202_);fill:#4F4139;}
	.st3{clip-path:url(#SVGID_00000166677347107938326420000014761679576827075751_);}
	.st4{fill:#82896D;}
	.st5{fill:#B4AEA0;}
	.st6{fill:#4F4038;}
	.st7{fill:#CAC9C6;}
	.st8{fill:#C9CAC7;}
	.st9{fill:#4D4038;}
	.st10{fill:#CCCABD;}
	.st11{fill:#ADAA93;}
	.st12{fill:#385058;}
	.st13{fill:#FFFFFF;}
	.st14{fill:none;}
	.st15{fill:#3B4E6A;}
	.st16{fill:#576A8D;}
	.st17{fill:#202C3D;}
	.st18{fill:#3E516B;}
	.st19{fill:#5E7191;}
	.st20{fill:#425168;}
	.st21{fill:#48556F;}
</style>
<g id="图层_3">
	<g>
		<path class="st0" d="M149,718c-7.5,3.83-49.17,114.83-49.17,114.83h461.83c0,0-7.33-39.67-6-49.33c1.33-9.67-3-36-14.83-42.67
			C529,734.17,519,731.5,518,728.33s1-14.67,0.33-24.83c-0.67-10.17-9-61.67-9-61.67s11.83-13.17,18.83-43.33
			c7-30.17,7.5-55.17,6.33-71.5c-1.17-16.33-1-26.33-1.67-33s-4.67-55-6.17-62.5s-9.33-40.17-11.83-45.67s-24.83-42.17-38.33-60
			s-31.67-29.33-33.83-32.17c-2.17-2.83-12.5-9.5-12.5-9.5s3.17-5.67,1.5-9s-23-16.5-48.33-23.83c0,0-5.5-3-7.83-2.33
			s-4.83,3.5-4.83,3.5L359,250.17c0,0-0.5-1.83-2.33-2.17c-1.83-0.33-4.17,0-4.17,0s-0.33-2.67-1.17-4.33
			c-0.83-1.67-5.17-4.33-5.17-4.33l-6.33-1.5c0,0-2.18-4.46-7.51-2.98c-5.33,1.48-124.56,56.18-124.56,56.18l-10.6,6.63l0.55,3.89
			L218,332.67l-5.85,5.33l-18.83-33.83c0,0-2.42-3.75-4-3.33c-4.46,1.17-48.33,23-49.83,26.33s-1.83,6.83-3.5,8.5s-2.67,1.33-1.5,4
			s3.17,5.33,3.17,5.33s-4.67,3.17-7.83,10.5c-3.17,7.33-8.67,18-6.83,23s3.67,6.67,3.67,6.67s1.5,16.67,1.17,20.5
			s-6.33,16.33-7.67,23.17c-0.52,2.65-1.91,12.33-3.6,23.57l0,0c0,0,4.76,0.18,5.93-1.15s1.42-7.33,4.33-11.58
			c2.92-4.25,15.58-10.33,17.17-10.25c1.58,0.08,3.58-1.75,3.08-4.33s-6.25-1.83-6.25-1.83s-4.17,0.17-5.67,0.83
			s-8.33,1.33-8.33,1.33l4.83-9.58c6.67,0,19.33,9.08,22.08,10.92c2.75,1.83,7.5,0.83,6.17-2.75s-21.83-14.08-25.33-17.92
			s-1.41-15.1-1.41-15.1s6.92,4.75,9.83,4.17c2.92-0.58,41.75-26.25,42.08-29.25s-1.92-2.33-3.5-2.5s-36.08,25.08-39,25.92
			c-2.92,0.83-13.67-5.83-14.67-11.92c-1-6.08,9.08-24.58,12.42-27.67c3.33-3.08,8.17-0.33,8.17-0.33
			c10.17,7.64,36.06,4.58,37.67,6.36s12.61,12.67,12.61,12.67l19.24-12.22c0,0,20.76,8.66,25.77,17.77
			c5.01,9.11,14.99,46.95,14.99,46.95s-64.61,10.64-69.78,15.22s-29.42,19.83-41.33,28.5c-11.92,8.67-23.08,18.75-28.08,23.92
			c-2.94,3.03-7.44,5.28-10.67,6.63c-0.08,0.24-0.17,0.45-0.25,0.62c-0.03,0.07-0.08,0.14-0.11,0.2c8.19-1.43,27.89-4.74,29.86-3.95
			c2.5,1-1,3.83-3.83,6.17c-2.83,2.33-30.25,20.58-33.42,23.42c-3.17,2.83-13.25,21.75-13.25,21.75l-1.58,19.67
			c0,0-2.17,2.58-4.08,3.42c-0.23,0.1-0.58,0.21-1,0.34c0.34,13.46,1.78,26.69,3.48,37.31c0.94-0.75,2.28-0.99,3.42-0.57
			c1.84,0.67,2.78,2.66,3.5,4.48c6.55,16.59,10.85,34.83,23.03,47.86c2.48,2.65,5.23,5.03,7.86,7.53c1.85,1.77,3.67,3.62,5.9,4.86
			c1.99,1.1,4.22,1.67,6.46,2.07c7.21,1.31,14.71,1.03,21.81-0.81c1.9-0.49,4.02-1.07,5.75-0.14c0.95,0.52,1.54,1.39,1.86,2.4
			c5.27-3.38,12.02-7.67,12.02-7.67s-2.67,40.83,0.33,43.5s11.33,5.5,11.33,5.5l-5,17.17C183,730.33,156.5,714.17,149,718z"/>
		<path class="st1" d="M218.02,360c1.65-0.44,25.1-8.22,32.82-8.67c7.72-0.44,82.85,2.44,82.85,2.44s50.2,73.33,49.98,78.22
			s-1.11,10.89,0,19.56c1.11,8.67,2,12.67,2,12.67l-33.44-6.89c0,0,11.67,30.87,15.22,37.88c3.56,7.01,5.56,10.78,6.22,15.67
			c0.67,4.89-0.22,19.56-0.67,28.22c-0.44,8.67-2,20.67-2,20.67s-0.22,16.89-2.89,16.22s-3.78-5.11-3.78-5.11
			s-7.57-74.22-9.12-84.67c-1.55-10.44-5.99-16-6.55-20.89s-1.89-12-1.89-12L309,428.44c0,0,14.67,25.78,17.56,26.44
			c2.89,0.67,6.67-1.11,6.22,4c-0.44,5.11-7.7,22.22-8.63,25.11s-5.37,1.33-4.93-3.33c0.44-4.67,2.24-22,2.24-22
			s-14.9-1.11-14.68-5.11s1.11-11.33,1.11-11.33s-0.67-2.89-3.11-6.89c-2.44-4-0.98-3.78-2.94-7.56c-1.95-3.78-8.88-7.99-8.88-7.99
			l-48.99-2.44L218.02,360z"/>
		<g>
			<g>
				<defs>
					<path id="SVGID_1_" d="M149,718c-7.5,3.83-49.17,114.83-49.17,114.83h461.83c0,0-7.33-39.67-6-49.33
						c1.33-9.67-3-36-14.83-42.67C529,734.17,519,731.5,518,728.33s1-14.67,0.33-24.83c-0.67-10.17-9-61.67-9-61.67
						s11.83-13.17,18.83-43.33c7-30.17,7.5-55.17,6.33-71.5c-1.17-16.33-1-26.33-1.67-33s-4.67-55-6.17-62.5
						s-9.33-40.17-11.83-45.67s-24.83-42.17-38.33-60s-31.67-29.33-33.83-32.17c-2.17-2.83-12.5-9.5-12.5-9.5s3.17-5.67,1.5-9
						s-23-16.5-48.33-23.83c0,0-5.5-3-7.83-2.33s-4.83,3.5-4.83,3.5L359,250.17c0,0-0.5-1.83-2.33-2.17c-1.83-0.33-4.17,0-4.17,0
						s-0.33-2.67-1.17-4.33c-0.83-1.67-5.17-4.33-5.17-4.33l-6.33-1.5c0,0-2.18-4.46-7.51-2.98
						c-5.33,1.48-124.56,56.18-124.56,56.18l-10.6,6.63l0.55,3.89l-4.39,2.61c0,0-2.42-3.75-4-3.33c-4.46,1.17-48.33,23-49.83,26.33
						s-1.83,6.83-3.5,8.5s-2.67,1.33-1.5,4s3.17,5.33,3.17,5.33s-4.67,3.17-7.83,10.5c-3.17,7.33-8.67,18-6.83,23
						s3.67,6.67,3.67,6.67s1.5,16.67,1.17,20.5s-6.33,16.33-7.67,23.17c-0.52,2.65-1.91,12.33-3.6,23.57l0,0
						c0,0-4.43,41.47-7.66,42.81c-0.08,0.24-0.17,0.45-0.25,0.62c-0.03,0.07-0.08,0.14-0.11,0.2
						c-33.78,16.18-24.39,69.63-26.31,70.46c-0.23,0.1-0.58,0.21-1,0.34c0.34,13.46,1.78,26.69,3.48,37.31
						c0.94-0.75,5.28,35.95,24.39,57.84c29.11,33.33,54.87,8.84,55.19,9.85c5.27-3.38,12.02-7.67,12.02-7.67s-2.67,40.83,0.33,43.5
						s11.33,5.5,11.33,5.5l-5,17.17C183,730.33,156.5,714.17,149,718z"/>
				</defs>
				<clipPath id="SVGID_00000101088338967760904700000015472948935610202504_">
					<use xlink:href="#SVGID_1_"  style="overflow:visible;"/>
				</clipPath>
				<path style="clip-path:url(#SVGID_00000101088338967760904700000015472948935610202504_);fill:#4F4139;" d="M167,832.67
					c0,0,5-25,8.33-35.67s5-19.67,5-19.67l10-31.33c0,0,89.67,17.67,138.67,20s58,3.33,81,0.67c23-2.67,103.67-11,103.67-11
					l21.33,0.67l25.67-0.67l13,97.67L171,853.67L167,832.67z"/>
			</g>
			<g>
				<defs>
					<path id="SVGID_00000028311955701162410970000012641980858341687714_" d="M149,718c-7.5,3.83-49.17,114.83-49.17,114.83h461.83
						c0,0-7.33-39.67-6-49.33c1.33-9.67-3-36-14.83-42.67C529,734.17,519,731.5,518,728.33s1-14.67,0.33-24.83
						c-0.67-10.17-9-61.67-9-61.67s11.83-13.17,18.83-43.33c7-30.17,7.5-55.17,6.33-71.5c-1.17-16.33-1-26.33-1.67-33
						s-4.67-55-6.17-62.5s-9.33-40.17-11.83-45.67s-24.83-42.17-38.33-60s-31.67-29.33-33.83-32.17c-2.17-2.83-12.5-9.5-12.5-9.5
						s3.17-5.67,1.5-9s-23-16.5-48.33-23.83c0,0-5.5-3-7.83-2.33s-4.83,3.5-4.83,3.5L359,250.17c0,0-0.5-1.83-2.33-2.17
						c-1.83-0.33-4.17,0-4.17,0s-0.33-2.67-1.17-4.33c-0.83-1.67-5.17-4.33-5.17-4.33l-6.33-1.5c0,0-2.18-4.46-7.51-2.98
						c-5.33,1.48-124.56,56.18-124.56,56.18l-10.6,6.63l0.55,3.89l-4.39,2.61c0,0-2.42-3.75-4-3.33c-4.46,1.17-48.33,23-49.83,26.33
						s-1.83,6.83-3.5,8.5s-2.67,1.33-1.5,4s3.17,5.33,3.17,5.33s-4.67,3.17-7.83,10.5c-3.17,7.33-8.67,18-6.83,23
						s3.67,6.67,3.67,6.67s1.5,16.67,1.17,20.5s-6.33,16.33-7.67,23.17c-0.52,2.65-1.91,12.33-3.6,23.57l0,0
						c0,0-4.43,41.47-7.66,42.81c-0.08,0.24-0.17,0.45-0.25,0.62c-0.03,0.07-0.08,0.14-0.11,0.2
						c-33.78,16.18-24.39,69.63-26.31,70.46c-0.23,0.1-0.58,0.21-1,0.34c0.34,13.46,1.78,26.69,3.48,37.31
						c0.94-0.75,5.28,35.95,24.39,57.84c29.11,33.33,54.87,8.84,55.19,9.85c5.27-3.38,12.02-7.67,12.02-7.67s-2.67,40.83,0.33,43.5
						s11.33,5.5,11.33,5.5l-5,17.17C183,730.33,156.5,714.17,149,718z"/>
				</defs>
				<clipPath id="SVGID_00000062877124219634306190000003708857134467509176_">
					<use xlink:href="#SVGID_00000028311955701162410970000012641980858341687714_"  style="overflow:visible;"/>
				</clipPath>
				<g style="clip-path:url(#SVGID_00000062877124219634306190000003708857134467509176_);">
					<path class="st4" d="M450.99,285.51c8.8,0,17.61,0,26.41,0c0.08,1.87-1.54,2.01-2.68,2.53c-1.4,0.64-2.9,1.06-4.06,2.17
						c-0.6,0.58-0.96,1.14-0.37,1.87c0.55,0.68,1.41,0.78,1.94,0.22c2.3-2.44,5.56-3.84,7.37-6.79h19.81
						c1.41,2.11,1.13,4.66,1.68,6.99c0.36,1.54-1.21,2.6-2.73,2.96c-2.76,0.66-4.15,2.41-4.66,5.12c-0.2,1.06-0.59,2.12-1.15,3.08
						c-0.63,1.1-1.5,2.05-2.87,1.43c-1.56-0.71-1.92,0.39-2.46,1.33c-1.22,1.59-2.96,1.59-4.68,1.41c-1.08-0.12-2.18-0.1-3.24-0.29
						c-2.19-0.39-3.89,0.06-5.03,2.15c-0.47,0.86-1.3,1.54-2.18,2.01c-1.3,0.68-1.78,1.7-1.65,3.1c-0.39,1.32,0.55,1.86,1.47,2.24
						c4.08,1.68,8.38,2.31,12.45,0.49c3.05-1.36,5.57-1.12,8.21,0.56c1.32,1.67,1.75,3.56,1.39,5.65c-0.38,2.18-0.17,4.24,0.34,6.44
						c0.64,2.75,0.13,5.58-1.37,8.15c-0.92,1.57-1.23,3.21,0.31,4.73c1.26,1.25,1.3,2.84-0.01,3.85c-2.16,1.67-2.02,3.73-1.49,5.91
						c0.22,0.92,0.33,1.81,0.22,2.7c-0.24,1.97-1.52,2.84-3.44,2.34c-0.64-0.17-1.18-0.54-1.65,0.21c-0.11,1.12,0.84,1.54,1.44,2.17
						c2.05,2.13,2.35,4.44,0.25,6.44c-1.76,1.68-1.66,3.12-0.68,4.99c0.43,0.82,1.24,1.67,0.56,2.76c-0.52,0.52-1.17,0.71-1.89,0.71
						c-3.01-0.05-5.71-1.05-8.21-2.71c-1.6-1.06-3.29-1.96-5.1-2.65c-2.37-0.9-4.17-2.57-5.83-4.45c-2.66-3-6.34-3.02-8.87-0.04
						c-0.77,0.91-1.92,1.43-2.48,2.53c-0.88,1.02-2.08,1.63-3.16,2.41c-0.24,0.12-0.5,0.2-0.76,0.24c-2.01,0.1-3.5-0.78-4.59-2.44
						c-0.42-0.65-0.72-1.62-1.83-1.01c-0.21,0.27-0.31,0.58-0.38,0.9c-0.09,0.65,0.26,1.04,0.78,1.31c0.31,0.16,0.59,0.35,0.88,0.55
						c0.21,0.12,0.38,0.27,0.56,0.43c0.28,0.24,0.51,0.51,0.72,0.81c0.15,0.2,0.26,0.42,0.36,0.65c0.14,0.36,0.2,0.73,0.18,1.11
						c-0.02,0.26-0.09,0.5-0.2,0.73c-0.64,0.71-0.85,1.89-2.1,1.92c-0.27-0.04-0.39-0.18-0.35-0.46c-0.02,0.24-0.03,0.48-0.03,0.72
						c-0.27,0.51-0.72,0.67-1.25,0.7c-0.64-0.09-1.26-0.32-1.91-0.37c-0.99-0.38-2.16,0-3.07-0.73c-0.96-0.69-1.03-2.05-2.04-2.7
						c-0.66-0.45-1.59-0.31-2.14-0.98c-2.42-4.28-2.18-8.97-2.17-13.65c0.01-2.59-0.2-5.2-2.2-7.25c-0.63-0.64-1.33-1.34-0.53-2.35
						c1.64-1.09,3.39-0.75,5.14-0.41c0.42,0.19,0.79,0.46,1.09,0.8c0.6,2.14,1.91,3.53,4.18,3.9c0.34,0.25,0.58,0.58,0.72,0.98
						c0.13,1.45-0.67,2.2-1.94,2.61c-0.3,0.04-0.61,0.1-0.86,0.25c0.03-0.01-0.16,0.13-0.12,0.12s0.05,0.15,0.09,0.13
						s0.19-0.03,0.22-0.05c0.4-0.16,0.77-0.3,1.15-0.42c0.21-0.07,0.41-0.14,0.61-0.23c0.28-0.14,0.56-0.28,0.82-0.46
						c0.16-0.16,0.33-0.29,0.51-0.42c0.18-0.17,0.37-0.3,0.57-0.42c0.91-0.55,1.94-0.81,2.88-0.35c2.19,1.07,3.17-0.08,4.02-2.06
						c-2.29-0.75-4.34-1.43-6.83-0.6c-2.83,0.94-4.4-0.18-5.26-3.04c0.38-1.97,1.73-2.59,3.56-2.66c1.25-0.05,2.55,0.21,4.04-0.44
						c-1.81-1.51-3.76-2.22-5.83-2.79c-2.83-0.77-5.93-1.07-7.79-3.83c-0.05-5.03,0.51-5.99,3.99-6.95c1.22,1.1,2.56,1.7,4.28,1.3
						c0.69-0.16,1.4,0.16,1.96,0.66c0.98,0.68,1.01,2.1,2.04,2.83c0.63-0.85-0.03-1.7,0.26-2.45c1.92-3.05,4.68-3.96,7.69-2.19
						c2.77,1.63,5.5,1.36,8.37,0.62c1.82-0.47,1.29-1.63,0.98-2.77c-0.13-1.6-1.83-2.28-2.23-3.73c-0.65-3.24-1.35-3.87-4.57-4.07
						c-0.63-0.04-1.26-0.11-1.82-0.44c-4.6-3.63-4.99-8.4-3.17-13.41c0.81-2.22,0.53-4.14,0.02-6.2c0.26-0.51,0.72-0.74,1.24-0.89
						c0.43-0.11,0.87-0.14,1.31-0.2c0.27-0.08,0.55-0.16,0.79-0.35c0.12-0.18,0.22-0.35,0.27-0.55c-0.27-1.71-2.4-1.13-2.98-2.44
						c-0.26-2.23,1.22-3.59,2.52-5.04c0.78-0.7,1.64-1.07,2.69-0.71c1.56,1.07,3.23,1.44,5.38,0.92c-1.86-1.35-3.89,0.29-5.41-1.01
						c-0.74-0.23-1.35-0.72-1.46-1.45c-0.25-1.78-1.52-2.75-2.76-3.78C450.93,286.29,450.77,285.93,450.99,285.51z"/>
					<path class="st5" d="M546.81,424.35c2.35,0.87,3.8,2.24,4.54,4.93c1.51,5.49,4.23,6.67,13.22,6.68c0,1.69,0,3.38,0,5.07
						c-1.71,1.77-2.03,3.9-1.74,6.25c0.17,1.39,0.45,2.75,0.51,4.17c0.1,2.61-0.44,4.83-3.15,5.77c-2.93,1.01-5.18-0.24-6.98-2.54
						c-1.16-1.49-1.43-3.34-2.05-5.04c-1.69-4.58-4.41-5.37-8.25-2.32c-1.1,0.87-2.05,1.92-3.14,2.81
						c-1.88,1.54-4.03,1.77-6.36,1.37c-3.08-0.53-5.62,0.63-6.08,3.72c-0.94,6.32-5.21,8.9-10.58,10.55
						c-6.06-1.48-11.95,1.14-18.08,0.58c2.21,1.75,5.96,2.55,4.34,6.13c-1.41,3.11-4.43,0.93-6.22,0.99
						c2.24,1.29,5.26-0.26,8.06,0.47c2.84,0.74,5.62,1.7,8.26,3.03c2.72,1.37,5.79,2.21,7.59,4.98c0.86,1.61,0.76,3.59,1.95,5.08
						c1.07,1.82,3.03,1.8,4.74,2.24c6.11,1.58,7.13,5.01,2.86,9.76c-4.1,1.04-8.04-0.55-12.06-0.84c-1.84-0.13-3.31-2.01-1.71-3.66
						c2.38-2.46,1.08-3.89-0.67-5.55c-0.41-0.39-0.69-0.89-1-1.36c-2.22-3.44-2.22-3.45-4.58-0.11c-0.49,0.69-1,1.37-1.62,1.94
						c-2.9,2.68-15.06,5.2-18.73,3.7c-1.69-0.69-3.01-0.78-4.75,0.05c-3.81,1.82-8.09,2.09-12.11,3.07
						c-5.37,1.31-9.24,0.74-12.81-3.37c-1.14-1.31-2.94-0.5-4.45-0.47c-0.84-0.1-1.68-0.09-2.5,0.13c-2.47,0.93-4.52,0.1-5.86-1.91
						c-1.82-2.73-4.14-5.29-4.11-8.9c1.67-2.71,4.62-0.75,7.72-1.92c-5.38-3.52-9.46-7.8-15.99-6.69c-1.91,0.21-3.5-0.34-3.64-2.45
						c-0.12-1.87,1.48-2.57,3.02-2.93c1.22-0.28,2.29-1.09,3.61-0.95c0.66,0.07,1.28,0.3,1.9,0.51c4.61,1.67,9.29,1.98,14.07,0.74
						c3.5-0.91,6.37,0.07,8.49,3.07c0.4,0.57,0.8,1.22,1.44,1.51c1.73,0.8,4.1,2.58,5.31,1.08c1.33-1.65-1.56-2.43-2.63-3.49
						c-3.77-3.72-3.46-6.76,1.13-9.39c0.83-0.47,1.86-0.58,2.59-1.46c-2.47-1.26-4.99,0.41-7.41-0.28
						c-1.93-0.84-3.53-2.26-5.54-3.01c-1.5-0.57-2.78-1.76-2.19-3.58c0.54-1.69,2.21-1.67,3.58-1.36c2.34,0.55,4.44,0.36,6.38-1.13
						c0.33-0.25,0.8-0.5,1.17-0.43c4.1,0.71,7.03-1.73,10.13-3.73c0.64-0.11,1.26-0.05,1.86,0.17c2.83,2.73,4.59,6.24,6.69,9.48
						c1.28,1.98,2.42,2.53,4.39,1.3c0.59-0.37,1.24-0.83,1.89-0.89c8.9-0.78,9.51-7.28,9.59-14.01c0.05-3.82,3.02-5.63,5.27-7.68
						c4.43-4.04,9.15-7.85,15.27-9.23c3.14-0.84,5.95-0.24,8.47,1.84c1.72,1.42,3.81,2.12,5.93,2.7c3.99,1.33,8.39,2.14,9.03,8.6
						c0.92-2.74-0.47-3.83-0.34-5.2c0.69-2.64-1.43-3.12-3.07-3.96c-2.16-1.71-4.13-3.61-5.77-5.82c-1.14-1.53-1.35-3.26-0.64-5.07
						c3.44-3.17,5.16-3.15,8.4,0.07c-0.85,1.75,0.38,2.57,1.53,3.41C546.61,421.83,546.96,422.92,546.81,424.35z"/>
					<path class="st1" d="M255.17,588.17c3.67,1.67,4.83,53.39,4.83,53.39s0,1.27-2,3.27s-5.67,13.85-5.67,13.85l-12,0.82
						c0,0-16.5-1.17-25-0.83c-8.5,0.33-11.83-6-11.83-6s0-15.83,0.33-19.33s5.67-9.17,7.17-13.33s6-28.83,6-28.83
						C220,587.67,251.5,586.5,255.17,588.17z M179.02,319.61c2.44,1.01,4.88,2.01,7.33,3.02c1.54,0.63,3.08,1.27,4.52,2.1
						c1.29,0.74,2.49,1.62,3.68,2.51l4.78,3.53c0.35,0.26,0.77,0.42,1.21,0.46l1,0.09c-3.34-6.76-7.06-13.39-11.92-19.15
						c-0.31-0.36-0.66-0.75-1.13-0.8c-0.45-0.05-0.86,0.22-1.24,0.47c-3.44,2.29-7.1,4.23-10.93,5.79
						C176.81,318.65,177.96,319.17,179.02,319.61z M151.17,343.65c-1.96-0.74-3.97-1.32-5.98-1.9c1.66-0.71,3.04-2.03,3.82-3.66
						c0.11-0.22,0.21-0.46,0.4-0.6c0.18-0.14,0.41-0.18,0.64-0.2c2.79-0.3,5.41,1.43,8.21,1.6c1.27,0.08,2.54-0.16,3.79-0.4
						c2.68-0.52,5.36-1.03,8.04-1.55c2.67-0.52,5.42-1.03,8.1-0.56c1.02,0.18,2,0.5,2.97,0.83c0.5,0.17,2.27,0.46,2.58,0.89
						c0.97,1.37-3.11,1.63-3.73,1.7c-3.92,0.43-7.91,0.07-11.79,0.84c-1.37,0.27-2.92,0.87-3.3,2.22c-0.22,0.79,0.05,1.68,0.62,2.27
						c0.57,0.59,1.39,0.9,2.21,0.92c0.87,0.02,1.75-0.25,2.59-0.02c0.82,0.22,1.45,0.87,2.19,1.3c0.75,0.43,1.61,0.63,2.46,0.77
						c2.79,0.47,5.72,0.47,8.32,1.58c-1.19,0.53-2.53,0.64-3.83,0.69c-7.33,0.28-14.71-1.02-21.49-3.8
						C155.7,345.63,153.48,344.53,151.17,343.65z M139.75,561.33c-0.65,6.29-0.93,12.62-0.81,18.94c0.02,1.3,0.06,2.62,0.4,3.88
						c0.36,1.35,1.04,2.59,1.64,3.86c1.38,2.91,2.34,6.03,2.83,9.21c0.1,0.67,0.16,1.45-0.31,1.95c-0.54,0.57-1.48,0.45-2.24,0.23
						c-6.35-1.89-10.89-7.83-12.63-14.22s-1.06-13.19,0.23-19.68c1.55-7.84,3.97-15.54,4.06-23.61c0.03-2.92,0.48-5.82,1.26-8.63
						c0.11-0.4,0.24-0.81,0.51-1.12c0.62-0.74,1.83-0.73,2.63-0.21c0.35,0.23,0.63,0.52,0.87,0.86c0.51,0.71,0.74,1.59,0.76,2.46
						l0.81,25.46C139.78,560.92,139.77,561.12,139.75,561.33z M147.67,554.78c-0.56-10.44,0.33-23.56-0.22-29.33
						c-0.56-5.78,1.56-4.75,2.11-4.67c3.35,0.48,4.99,12.21,5.64,18.77c0.32,3.26,0.92,6.49,1.76,9.66
						c1.48,5.6,3.77,14.23,5.05,18.8c2,7.11,13.11,17.22,14,18.56s0.11,2.22,0,3.89c-0.11,1.67,0.44,2.56,1.11,4.67
						s-1,4.67-3.11,6.11s-7.11,3.44-7.56-0.78c-0.44-4.22,3.44-2.89,3.44-2.89s-0.11-3-0.22-5.67s-21.22-16.22-23.56-20.11
						C143.78,567.89,148.22,565.22,147.67,554.78z M212.17,338l-18.83-33.83l0,0l4.5-1.82l-0.11-0.79l20.29,31.11L212.17,338z
						 M164.31,671.83c-1.85,1.19-3.52,2.26-4.65,3c-4.33,2.83-11.83,8.83-32.5,1.17c-20.67-7.67-34.33-40-38.33-52.67
						c-1.24-3.93-2.75-10.73-4.1-19.19c0.94-0.75,2.28-0.99,3.42-0.57c1.84,0.67,2.78,2.66,3.5,4.48
						c6.55,16.59,10.85,34.83,23.03,47.86c2.48,2.65,5.23,5.03,7.86,7.53c1.85,1.77,3.67,3.62,5.9,4.86
						c1.99,1.1,4.22,1.67,6.46,2.07c7.21,1.31,14.71,1.03,21.81-0.81c1.9-0.49,4.02-1.07,5.75-0.14
						C163.4,669.95,163.99,670.82,164.31,671.83z M82.25,566.5c-0.23,0.1-0.58,0.21-1,0.34c-0.26-10.4,0.13-20.93,1.58-30.5
						c4.78-31.49,22.44-33.95,25.72-40.3c8.19-1.43,27.89-4.74,29.86-3.95c2.5,1-1,3.83-3.83,6.17
						c-2.83,2.33-30.25,20.58-33.42,23.42c-3.17,2.83-13.25,21.75-13.25,21.75l-1.58,19.67C86.33,563.08,84.17,565.67,82.25,566.5z
						 M296.44,335.33c-1.78,3.33,2,2.56,4.22,0.89c2.22-1.67,5.33-8.56,7.11-13.44c1.78-4.89,4.33-7.89,7-10.67s3.33-4.11,6.22-9.76
						c2.89-5.65,15.56-27.46,15.56-27.46s-3.11,13.33-4,18.11c-0.89,4.78-0.22,5.89,2,5.89s1.78-1.67,4.22-7.78s3.44-6.89,7-14.89
						s5-19.56,5-19.56c5.33-0.78,8.22-6.5,8.22-6.5l10.91,2.18c0,0-12.8,24.54-25.57,43.43c-12.78,18.89-33.67,48.56-38.22,49.79
						c-4.56,1.24-30-0.13-27.56-1.02s5.67-4.67,9.78-7.67s11.93-11.03,11.89-10.56C299.89,330,298.22,332,296.44,335.33z
						 M359.89,280.33c3.22-5.89,12.44-19.78,12.44-19.78s5.11,1.67,8.67,2.56c3.56,0.89,7.33,1.44,7.11,2s-6,8.78-6,8.78L371,282.78
						l-15.89,13.33l-5.67,4.56l-8.56,11.22C341.33,311.11,356.67,286.22,359.89,280.33z M381.11,294.78c0,0,9-8.89,10.78-10.56
						c1.78-1.67,4.89-4,4.89-4l5.33-6.11L411,278l-10.33,7.67L385.44,297l-16.67,19.78c0,0-4.33,3-7.11,5.11s-6.33,6.67-8.56,8.33
						c-2.22,1.67-6.11,4.56-6.11,4.56l-5.33,4.44c0,0-0.56,0.78-2.22,0c-1.67-0.78-3.47-2.44-5.73-1.89
						c-0.54,0.13,7.18-4.33,7.18-4.33s23-20.11,25.22-22.33c2.22-2.22,3.8-4.11,3.8-4.11L381.11,294.78z M348.56,357.22
						c1.11,3.67,3.67,15.67,3.67,15.67s-7.4-18.07-17.56-23.33c-10.15-5.26-15.67-3.31-19.33-3.49c0,0,2.11-4.51,3.78-3.4
						c1.67,1.11,10.65,2.69,14.6,3.4c3.96,0.71,6.29,4.04,8.84,5.49S347.44,353.56,348.56,357.22z M356.44,355.22
						c-2-5.56-7.67-10.22-7.78-10.56l14.33-8.89c0,0,6.89-3,10.78-5.44c3.89-2.44,22.89-15.89,22.89-15.89l-9,8.33
						c0,0-7.22,8.67-9.67,12.78s-8.33,6.67-12.78,11S356.44,355.22,356.44,355.22z M405.67,381.33c6.78-16.56,9.11-17,11.44-16
						c2.33,1-3.89,12.89-5.56,16.22c-1.67,3.33-3.44,10.56-4.67,18.89c-1.22,8.33-0.33,12.33-0.33,12.33l6.33-4.11
						c0,0,5.22-3.56,7.89-5.44c2.67-1.89,14.11-20.44,14.11-20.44l6.33-6.33c0,0,7.56-5.11,11.44-7.44
						c3.89-2.33,2.33,1.67,1.78,3.89s-1.33,0.56-4.22,2.67c-2.89,2.11-3.89,3.78-8.33,7.22c-4.44,3.44-14.67,19.33-14.67,19.33
						l-14.78,21.33l10.56-5.89c0,0,6.22-3.89,10.22-9.33c4-5.44,21.44-14.56,29.33-19.44c7.89-4.89,11.89-10.78,14.33-13.78
						c2.44-3,4-2.22,5.33-0.78s-2.44,7.89-7.78,12.78c-5.33,4.89-25.11,15.22-28.89,18s-9,7.78-11.67,11.22
						s-21.22,24.11-21.22,24.11s23.89,34.22,25,36.22s-3.11,3.33-5.33,4.33s0.33,5.89-1.11,7.56c-1.44,1.67-3.56-0.33-6.44-1.67
						c-2.89-1.33-7.89-2.89-10-4.56c-2.11-1.67-22.89-14.22-22.89-14.22l-1.22-4.56c0,0,0.44-8.22,1.56-11.78
						c1.11-3.56-0.78-18.33-1.44-21c-0.67-2.67-4.33-5-4.33-5s-31.78-46.44-31.22-48.56c0.56-2.11,45.11-51.44,45.11-51.44
						s-0.89,12.22-2.22,15.89s-1.22,7.78-1.44,17.22s-4.11,33.33-4.11,33.33s0.56-1.44,3.33-2.78c2.78-1.33,2.78,7.56,2.78,7.56
						S398.89,397.89,405.67,381.33z M250.84,331.31c0,0,7.72,10.69,13.83,9.57c6.11-1.11,15.67-9.23,24.56-9.95
						c0,0-14.05,13.17-21.47,14.17s-6.31,0.37-9.75-1.82C254.56,341.11,251.67,335.63,250.84,331.31z M520.55,411.55
						c-0.47,1.5-1.46,3.33-3.02,3.09c-0.91-0.14-1.53-0.98-2.03-1.75c-3.71-5.71-6.89-11.81-11.31-16.99
						c-4.42-5.18-10.41-9.47-17.2-10.04c0.28-3.69,0.57-7.4,1.46-11c0.52-2.09,1.25-4.14,1.51-6.27c0.26-2.08,0.07-4.18-0.12-6.26
						c-0.35-3.87-0.71-7.75-1.06-11.62c-0.24-2.58-1.8-8.06-0.54-10.33c1.55,1.46,2.65,4.1,3.8,5.96c1.34,2.18,2.67,4.35,4.01,6.53
						c2.09,3.41,4.19,6.82,6.38,10.17c6.26,9.57,13.36,18.73,17.77,29.29c1.14,2.73,2.1,5.58,2.26,8.53
						C522.67,404.48,521.64,408.07,520.55,411.55z M517.84,698.62c0.33,2.92-0.95,2.71-1.06,2.16c-0.11-0.56-4.67-1.89-9-4.11
						c-4.33-2.22-4.33-2.44-6.44-5.89c-2.11-3.44-9.33-23.44-10.56-23.56c-1.22-0.11-16.11,11.56-16.78,13.22
						c-0.67,1.67,5.11,41.56,10.78,45.89s17.33,1.78,19.44,1.56c2.11-0.22,3.89-1.11,4.22,0s0,2.22,1.11,3.22s0.67,1.78,1.44,3.11
						c0.78,1.33,1,1.11,2.33,3.22c1.33,2.11,1.22,5,1.22,5s1.22,5.11-0.11,6.44c-1.33,1.33-8.67,3.78-20.33,5
						c-11.67,1.22-83.33,7.78-87.44,8.22c-4.11,0.44-30.22,2.44-36,3s-34.11-2.44-40-3.67c-5.89-1.22-119.11-13.11-140.67-22.11
						c0,0-2.78-4.44-1.67-7.78c1.11-3.33,4.22-14.22,4.22-14.22s-19.33-2.89-22.89-9.78s6.21-43.1,6.21-43.1s9.79-6.9,12.68-11.12
						c0,0,0.22,55.56,2.89,57.11c2.67,1.56,10.22,3.78,19.11,4s21.78,0.67,28.22,0.44s10.67,0.67,15.78,0
						c5.11-0.67,11.56-1.11,11.33-8.67c-0.22-7.56-1.56-7.33-0.89-15.11s2.44-102.89,0.67-105.11s-6-3.33-10.44-3.33
						s-36.22-0.89-38.44,2.89s-8.67,27.33-12.22,35.56s-6.44,13.11-9.33,18.22s-12.56,21.11-20.33,22.67
						c-7.78,1.56-19.22,5-19.78,2.67s0.78-4.67,3.56-5.44s8.44-2.78,11.11-4.33c2.67-1.56,9.44-3.56,10.78-5.89
						c1.33-2.33,3.33-7,4.11-9.78s2.67-13.44,2.67-13.44s-3.78-6-0.33-12.67c3.44-6.67,10.22-18.33,12-22.33s2.78-7,2.33-7.44
						c-0.44-0.44-5.78,3-7.22,1.67s-2.78-3.11,0.11-4.67s6.33-2.78,7.44-6.67c1.11-3.89,0.11-14.44,0.11-14.44
						s-8.44,6.13-11.78,6.34s-10.33-2.68-8.33-5.68s2.78-1.51,5.67-3.14c2.89-1.64,13-7.41,14.22-9.19s0.33-12.22,5-17.11
						s14-21.33,12.22-29.11s-8.33-23.33-12.67-27.67c-4.33-4.33-13.56-17.11-15.89-23.89c-1.16-3.38-2.11-8.29-2.76-12.36
						c-7.32,5.66-28.8,19.25-39.79,27.25c-11.92,8.67-23.08,18.75-28.08,23.92c-2.94,3.03-7.44,5.28-10.67,6.63
						c1.88-5.23,5.11-25.81,7.66-42.81l0,0c0,0,4.76,0.18,5.93-1.15s1.42-7.33,4.33-11.58c2.92-4.25,15.58-10.33,17.17-10.25
						c1.58,0.08,3.58-1.75,3.08-4.33s-6.25-1.83-6.25-1.83s-4.17,0.17-5.67,0.83s-8.33,1.33-8.33,1.33l4.83-9.58
						c6.67,0,19.33,9.08,22.08,10.92c2.75,1.83,7.5,0.83,6.17-2.75s-21.83-14.08-25.33-17.92s-1.42-15.1-1.42-15.1
						s6.92,4.75,9.83,4.17c2.92-0.58,41.75-26.25,42.08-29.25s-1.92-2.33-3.5-2.5s-36.08,25.08-39,25.92
						c-2.92,0.83-13.67-5.83-14.67-11.92c-1-6.08,9.08-24.58,12.42-27.67c3.33-3.08,8.17-0.33,8.17-0.33
						c10.17,7.64,36.06,4.58,37.67,6.36s12.61,12.67,12.61,12.67l19.24-12.22l29.61-7.91c5.44,1.61,11.18,1.9,16.85,2.17
						c20.44,1,40.88,1.99,61.32,2.99c1.52,0.07,3.09,0.16,4.43,0.88c1.22,0.65,2.12,1.75,2.98,2.83
						c16.83,21.05,32.12,45.48,47.56,68.81c2.51,3.78,1.2,6.66,2.02,11.12c1.85,10.13,0.98,17.43,2.76,27.54
						c-9.44-3-21.51-7.58-32.87-8.8c11.35,31.15,17.91,46.13,21.06,54.86c0.51,1.41,0.72,2.92,0.8,4.43
						c0.08,1.57-0.08,3.14-0.37,4.69c-3.12,16.79-3.26,35.56-4.43,53.32c-0.18,2.74-4.18,2.87-4.54,0.14
						c-0.21-1.58-0.38-3.17-0.54-4.75c-3.2-31.68-7.68-82.14-17.44-112.44c-1.69-5.26-34.44-22.86-38.33-26.78c0,0-0.67,1.22,2,5.22
						s11.67,16.33,14.44,18.22c2.78,1.89,2.78,2.33,4.89,3.22c2.11,0.89,4,0.67,3.22,4.78s-4.89,10.78-5.89,14.22s-1.44,9.56-4,9.44
						c-2.56-0.11-4.56-0.67-3.89-4.78c0.67-4.11,0.33-6.22,1-8.89s1.25-4.56,0.79-6.78s0.21-5.11-0.79-5.78s-12.22-0.78-14-3.67
						s-0.67-2.78,0.11-5.78s0.44-10,0.44-10s-6.56-8.56-6-10.33c0.56-1.78,2.56-0.78,0.78-2.22s-17.33-14.33-17.33-14.33
						s4.44,26.56-4.22,40.78c-8.67,14.22-23.22,22.11-23.22,22.11s2.56,5,6,6.44s6.89,2,10,2.22s4.56-1.89,4.78,2.56
						s-1.89,15.11-4.44,21.67c0,0,11.33-3,14.78-3.33c3.44-0.33,7.72-3.11,9.3-1.56s-0.3,8.56-1.19,14.89
						c-0.89,6.33-0.56,17.22-1.89,23.22c0,0,8.22,2.33,17,5.22c8.78,2.89,13.56,4.89,15.44,5.11s5.56,1.44,2.78,3.89
						s-8.67-0.11-10.78,0.78s-4.78,2.33-4.78,2.33l-11.33,2.11c0,0,13.44,21.44,14.33,21.11c0.89-0.33,1.11-1.56,2.78-0.89
						s17.22,11.11,22.89,12.33c5.67,1.22,14.67,4.44,17.22,5.33c2.56,0.89,5.89-0.78,6.11,2.33s-2.56,3.22-6.44,4.11
						c-3.89,0.89-26.22,0-28.44-0.78s17.78,14.56,21.11,16.44c3.33,1.89,24.44,11.56,28.44,12.78s10.78,2.22,9,5.22
						s-7.11,4.89-10.44,5.44c-3.33,0.56-4.22,0.78-4.22,0.78s12.56,6.78,14.44,7.33c1.89,0.56,4.67,0.67,4.44,2.89
						c-0.22,2.22,1.67,3-1.89,3s-6.89,0.33-6.89,0.33s27.89,20.33,39.89,22.78c12,2.44,23.67,3.11,29.89,1.78
						c6.22-1.33,10.44-3.22,10.44-3.22s4.56-1.22,10-4.44s11.33-7.78,14.56-11.11c3.22-3.33,19.22-22.06,19.22-22.06
						s-2,12.5-11.22,18.83c0,0-0.67,0.11,0.22,2.89s5.89,15.78,9.22,21.78s4.22,8.11,6.11,9.44
						C515.56,696.11,517.51,695.7,517.84,698.62z M381.44,473.78c1.33,2.44-2.44,2.22-3.78,4.32c-1.33,2.09-2,5.68-2.89,8.35
						s0,5.11-2.44,6.89c-2.44,1.78-4.01-4.22-5.12-8.22s-6.67-15.78-6.67-20.22s4.22-1.24,4.22-1.24
						C365.89,466.19,380.11,471.33,381.44,473.78z M427.64,451.56c4.65-0.38,9.3-0.79,13.92-1.47c4.27-0.64,8.49-1.57,12.69-2.6
						c8.34-2.05,16.66-4.54,25.21-5.58c0.94-0.11,1.75-0.21,2.66,0.1c0.84,0.3,1.61,0.79,2.36,1.26c1.94,1.21,3.86,2.46,5.78,3.69
						c3.9,2.49,7.8,4.97,11.7,7.46c7.73,4.93,15.46,9.86,23.19,14.79c0.67,0.43,1.46,0.83,2.04,1.34c-0.12-0.11-0.03-1.08-0.07,0.12
						c-0.01,0.33,0,0.66,0.01,0.98c0.01,0.65,0.02,1.31,0.03,1.96c0.05,2.54,0.16,5.07,0.33,7.6c0.34,5.21,0.92,10.39,1.69,15.55
						c0.2,1.34,1.89,2.07,3.08,1.75c1.43-0.39,1.95-1.73,1.75-3.08c-0.69-4.64-1.19-9.3-1.5-13.98c-0.15-2.29-0.26-4.58-0.32-6.87
						c-0.06-2.11,0.42-4.85-0.77-6.7c-1.15-1.79-3.46-2.83-5.21-3.94c-2.02-1.29-4.04-2.58-6.06-3.86
						c-3.97-2.53-7.94-5.06-11.91-7.6c-4.04-2.58-8.08-5.15-12.12-7.73c-1.95-1.24-3.9-2.49-5.85-3.73
						c-1.87-1.2-3.72-2.54-5.77-3.43c-2.25-0.97-4.27-0.82-6.64-0.5c-2.24,0.3-4.47,0.69-6.69,1.13c-4.37,0.88-8.69,1.99-13.01,3.09
						c-4.93,1.26-9.86,2.51-14.87,3.42c-5.18,0.93-10.42,1.37-15.65,1.8c-1.35,0.11-2.5,1.07-2.5,2.5
						C425.14,450.33,426.29,451.67,427.64,451.56L427.64,451.56z M493.03,454.14c-0.4-1.96-1.17-3.8-2.63-5.29
						c-2.05-2.09-5.19,0.56-3.93,3.03c0.69,1.34,1.31,2.72,1.84,4.13c0.02,0.2,0.04,0.4,0.06,0.6c0.13,1.71,0.21,3.53-0.29,5.2
						c-0.99,3.32-5.66,3.21-8.46,2.8c-1.27-0.19-2.52-0.55-3.67-1.09c0-0.09,0.02-0.18,0-0.28c-0.45-3.38-0.82-6.79-1.36-10.16
						c-0.45-2.76-1.37-6.04-3.96-7.55c-2.85-1.67-6.41-0.22-7.3,2.96c-0.85,3.05,0.82,6.51,1.94,9.3c1.08,2.68,2.23,5.36,4.35,7.41
						c1.83,1.77,4.13,3.01,6.55,3.74c4.75,1.44,11.82,1.49,15.19-2.75c0.41-0.1,0.83-0.32,1.19-0.74
						C495.36,462.3,494.56,458,493.03,454.14z M483.52,459.19c-0.01-0.02-0.02-0.04-0.02-0.05l0,0c-0.04-0.3-0.08-0.61-0.12-0.91
						c-0.08-0.55-0.16-1.11-0.25-1.66c-0.17-1.02-0.36-2.04-0.58-3.06c-0.45-2.11-1.02-4.19-1.68-6.24
						c-0.4-1.24-1.75-2.17-3.08-1.75c-1.24,0.4-2.17,1.74-1.75,3.08c0.81,2.51,1.47,5.06,1.96,7.65c0.12,0.63,0.23,1.26,0.33,1.89
						c0.05,0.32,0.1,0.63,0.15,0.95c0.02,0.14,0.04,0.28,0.06,0.41c0,0.03,0.01,0.07,0.01,0.11c0.14,1.11,0.22,2.14,1.17,2.88
						c0.57,0.44,1.22,0.58,1.92,0.48c0.85-0.11,1.37-0.59,1.87-1.25C484.09,460.97,483.85,459.95,483.52,459.19z M449.01,490.18
						c-2.75-1.67-0.23-6,2.52-4.32c7.13,4.35,13.98,9.11,20.56,14.24c5.74,4.47,11.5,9.16,16.51,14.46
						c4.98,5.27,8.42,11.56,12.03,17.78c3.79,6.54,8.33,12.57,12.74,18.7c4.66,6.49,9.32,12.99,13.99,19.48
						c0.79,1.1,0.19,2.79-0.9,3.42c-1.24,0.73-2.63,0.2-3.42-0.9c-5.15-7.17-10.3-14.34-15.44-21.51
						c-4.27-5.95-8.52-11.85-12.17-18.21c-3.47-6.06-6.94-11.9-11.95-16.85C473.23,506.34,461.3,497.67,449.01,490.18L449.01,490.18
						z M532.85,590.26c-6.4,0.96-12.74-0.94-17.94-4.74c-9.67-7.07-14.58-18.88-19.59-29.35c-2.82-5.89-5.62-11.78-8.43-17.68
						c-0.68-1.42-1.36-2.84-2.03-4.26c-0.68-1.44-1.27-2.85-0.73-4.44c1.01-2.94,5.41-2.77,6.25-0.08c2.07,0.93,3.24,3.63,4.38,5.44
						c1.57,2.48,3.13,4.96,4.68,7.44c5.61,8.98,11.12,18.01,16.54,27.1c2.21,3.71,4.14,8.07,8.05,10.28
						c3.4,1.92,7.35,2.96,9.91,6.11C535,587.35,534.91,589.95,532.85,590.26z M506.61,593.7c-5,3.83-10.77-1.81-14.36-4.93
						c-3.64-3.16-6.79-6.76-8.57-11.29c-0.92-2.34-1.47-4.8-2-7.25c-0.56-2.53-1.11-5.06-1.57-7.6c-0.51-2.84-0.53-5.39-0.15-8.24
						c0.07-0.52,0.1-1.02,0.09-1.51c-0.12-0.35-0.15-0.68-0.11-1c-0.05-0.26-0.13-0.52-0.23-0.79c-0.39-1.03-0.94-2.02-1.48-2.98
						c-0.62-1.12-1.3-2.22-2.03-3.28c-0.66-0.96-1.68-1.93-2.04-3.04c-0.48-1.53,0.26-3.24,1.89-3.65c1.56-0.39,2.77,0.64,3.28,2.01
						c0.08,0.21,0.1,0.44,0.1,0.66c0.14,0.19,0.29,0.38,0.43,0.57c0.31,0.43,0.62,0.86,0.91,1.3c0.67,1,1.3,2.04,1.88,3.1
						c0.97,1.77,1.94,3.62,2.28,5.62c8.11,12.62,13.37,26.94,22.58,38.88C508.41,591.45,507.57,592.96,506.61,593.7z"/>
					<g>
						<path class="st4" d="M309.51,486.26c-1.23,0.21-3.15-1-3.48,0.86c-0.3,1.67,1.57,2,2.96,2.07c2.12,0.1,3.54,0.98,3.35,3.24
							c-0.17,2.04-1.53,2.6-3.54,2.42c-2.79-0.25-4.19,2.01-3.34,3.93c1.89,4.29,1.2,8.62,1.39,12.95c0.06,1.27,0.22,2.61,1.77,2.89
							c1.46,0.26,2.22-0.77,2.86-1.91c0.72-1.3-0.26-4.07,2.17-3.74c2.22,0.3,1.26,3.01,1.91,4.58c0.36,0.85,0.37,1.89,0.36,2.85
							c-0.05,4.12-1.58,5.5-5.74,5.27c-4.22-0.24-7.85,2.63-8.34,6.57v0.01c0.3,0.25,0.52,0.58,0.83,0.83
							c4.43,4.22,10.1,4.22,15.52,3.84c4.32-0.3,8.45-0.77,12.66,0.65c3.17,1.06,11.74-5.3,11.98-8.69
							c0.02-0.25-0.18-0.52-0.28-0.77c-0.41-1.2-1.52-1.48-2.51-1.96c-1.35-0.66-2.95-1.31-2.94-3.12c0.02-2.03,1.79-2.68,3.31-3.27
							c2.7-1.04,5.62-1.36,8.3-2.52c2.24-0.97,4.34-2.19,4.98-4.63c0.73-2.8,1.66-5.54,2.35-8.33c0.94-3.79-1.3-5.95-5.25-5.79
							c-1.37,0.05-2.84,1.45-4.19-0.08c-4.22,0.25-8.13-0.71-11.81-2.82c-3.44-1.97-6.97-3.8-10.46-5.7
							C319.39,486.09,314.44,485.43,309.51,486.26z"/>
						<path class="st6" d="M465.51,698.02c1.53,1.39,1.99,3.53,3.79,4.84c2.32,1.69,4.31,3.06,6.79,0.34
							c1.04-1.14,2.49-1.13,3.87-0.65c5.3,1.85,10.48,0.7,16.34-0.41c-2.58-2.01-4.98-2.1-7.44-1.97c-2.4,0.13-7.46-4.32-7.47-6.61
							c0-0.38,0.13-0.84,0.36-1.13c1.22-1.58,9.6-0.68,10.05,1.27c0.59,2.55,2.15,2.65,4.18,3c3.11,0.53,6.16,1.43,9.18,2.36
							c2.21,0.68,4.34,1.99,3.94,4.6c-0.41,2.67-2.8,3.62-5.28,3.79c-2.69,0.18-5.46-0.3-8.06,0.91c0.47,2.09,1.97,1.47,3.05,1.58
							c2.12,0.22,4.22-0.25,5.57,2.46c0.89,1.79,9.8,0.96,11.86-0.71c0.04-0.21,0.08-0.42,0.13-0.63c0.18-0.4,0.39-0.79,0.63-1.15
							c3.66-2.73,4.99-2.44,6.42,1.39c-1.83,5.11-4.16,6.72-9.4,7.08c-6.99,0.49-13.63-1.67-20.47-2.37
							c-1.36-0.14-2.77-0.79-4.05-0.23c-5.49,2.39-11.16,0.79-16.75,0.89c-1.98,0.04-3.97-0.22-5.5-1.48
							c-2.39-1.97-4.65-1.88-7.23-0.45c-4.04,2.24-8.15,2.22-12.28,0.06c-3.32-1.74-7.04-2.46-10.46-3.95
							c-1.58-0.68-3.08-1.59-2.97-3.55c0.1-1.8,1.64-2.25,3.1-2.86c3.27-1.35,6.62-1.88,10.12-1.49c0.88,0.08,1.6,0.59,2.38,0.93
							c2.9,2.07,8.04,0.58,9.37-2.73c0.29-1.61,1.6-2.22,2.84-2.88C463.25,698.18,464.38,698.1,465.51,698.02z"/>
						<path class="st7" d="M192.28,529.97c-1.43,4.09-3.9,4.8-6.74,2.2c-1.51-1.38-2.66-3.16-4-4.73c-1.95-2.28-4.03-4.35-6.34-6.34
							c-2.44-2.1-4.4-5.17-6.4-7.93c-0.71-0.98-0.38-2.46,1.06-3.14c1.43-0.67,2.93-0.54,3.72,0.76c1.56,2.55,3.93,3.13,6.58,3.67
							c2.13,0.44,4.3,1.14,5.4,3.43c0.71,1.47,1.93,1.9,3.47,1.28c3.11-1.26,3.83,1.05,3.91,3.1
							C193.06,525.01,192.5,527.77,192.28,529.97z"/>
						<path class="st7" d="M115.66,589.67c0.4-0.04,0.8-0.07,1.19-0.08c0.85-0.13,1.57-0.5,2.19-1.1c0.36-0.53,0.65-1.07,0.32-1.72
							c-1.27-0.51-2.55-1.01-3.82-1.52c-0.27,0.02-0.54-0.02-0.8-0.12c-4.05-1.56-8.21-2.92-11.72-5.6
							c-4.19-3.19-5.28-3.26-9.34-0.18c-3.17,2.4-5.31,2.07-7.45-1.24c-0.83-1.28-1.36-2.71-1.92-4.13
							c-0.64-1.63-1.65-2.95-3.57-2.99c-1.79-0.04-2.81,1.25-3.29,2.71c-0.8,2.4-2.24,2.83-4.47,2.12
							c-2.29-0.73-4.41-0.66-5.57,1.97c-0.43,0.95-1.09,1.7-2,2.21c-0.64,0.5-1.28,1-2.01,1.39c-1.86,1-3.84,2.21-3.04,4.66
							c0.83,2.53,2.41,4.64,5.65,4.19c1.09,0.96,2.18,1.92,3.27,2.88c0.22,0.36,0.49,0.69,0.87,0.86c3.1,1.34,5.35-0.14,7.28-2.34
							c4.46-5.08,4.42-5.08,10.49-1.56c1.79,1.04,3.74,1.98,5.81,2.02c1.81,0.04,3.17,0.69,4.43,1.81c1.84,3.34,4.65,5.43,8.42,4.36
							c3.16-0.89,0.16-3.55,0.71-5.32C109.05,589.22,111.75,587.91,115.66,589.67z"/>
						<path class="st8" d="M461.19,409.69c2.72-0.86,3.63,2.34,5.22,2.57c1.93,0.28,1.47-3.84,4.26-4.23
							c2.67-0.37,5.52,0.8,8.01-0.92c2.98-0.76,5.98-1.23,8.99-0.32c1.21,0.36,2.5,1.13,2.34,2.55c-0.17,1.5-1.71,0.96-2.71,1.19
							c-1.07,0.24-2.18,0.41-3.16,0.86c-4.58,2.1-4.68,3.15-0.78,6.43c1.06,0.89,2.16,1.74,3.13,2.72c0.83,0.84,2.23,1.6,1.64,3.05
							c-0.69,1.67-2.42,1.95-3.9,1.63c-3.19-0.68-6.59-1.05-8.22-4.7c-1.23-2.75-3.56-2.51-6.03-1.81
							c-4.93,1.4-9.82,1.49-14.54-0.88c-0.59-0.49-0.55-1.03-0.13-1.6c0.03-0.27,0.05-0.55,0.06-0.82c0.26-0.25,0.49-0.53,0.7-0.83
							c0.61-0.82,1.22-1.65,1.83-2.47C458.32,410.36,459.18,409.25,461.19,409.69z"/>
						<path class="st8" d="M322.38,527.57c2.72-0.86,3.63,2.34,5.22,2.57c1.93,0.28,1.47-3.84,4.26-4.23
							c2.67-0.37,5.52,0.8,8.01-0.92c2.98-0.76,5.98-1.23,8.99-0.32c1.21,0.36,2.5,1.13,2.34,2.55c-0.17,1.5-1.71,0.96-2.71,1.19
							c-1.07,0.24-2.18,0.41-3.16,0.86c-4.58,2.1-4.68,3.15-0.78,6.43c1.06,0.89,2.16,1.74,3.13,2.72c0.83,0.84,2.23,1.6,1.64,3.05
							c-0.69,1.67-2.42,1.95-3.9,1.63c-3.19-0.68-6.59-1.05-8.22-4.7c-1.23-2.75-3.56-2.51-6.03-1.81
							c-4.93,1.4-9.82,1.49-14.54-0.88c-0.59-0.49-0.55-1.03-0.13-1.6c0.03-0.27,0.05-0.55,0.06-0.82c0.26-0.25,0.49-0.53,0.7-0.83
							c0.61-0.82,1.22-1.65,1.83-2.47C319.51,528.24,320.37,527.13,322.38,527.57z"/>
						<path class="st9" d="M390.84,513.96c-0.67-0.33-1.33-0.66-2-0.99c-0.2-0.67,0.39-0.94,0.68-1.37c2.17-2.31,4.28-1,6.15,0.34
							c1.3,0.92,2.06,1.38,2.61-0.54c0.18-0.61,0.57-1.22,1.26-1.25c3.56-0.15,5.95-2.13,8.02-4.79c0.71-0.91,1.81-0.84,2.93-0.33
							c1.56,0.71,2.98,0.37,3.95-1.15c0.78-1.22,2.03-1.63,3.3-2.11c2.02-0.76,3.38-2.1,2.92-4.45c-0.31-1.59,0.81-2.06,1.81-2.52
							c1.21-0.57,1.49,0.55,1.85,1.33c0.59,1.27,1.77,1.68,2.93,2.13c2.6,1.01,2.7,1.38,0.85,3.38c-0.29,0.31-0.58,0.63-1.44,1.56
							c3.53-0.41,6.14-2.15,9.05-1.64c0.73-0.7,1.89-1.23,1.35-2.54c-0.53-1.3-1.61-2.04-2.93-2.41c-1.89-0.52-3.77,0.09-5.66,0.1
							c-1.59-0.23-1.8-1.49-2-2.74c1.05-0.66,2.04-1.46,3.17-1.93c1.62-0.68,3.65-0.9,2.43-3.5c-0.06-0.13-0.02-0.45,0.07-0.5
							c1.94-1.04,3.16,0.79,4.73,1.24c0.95,0.28,1.68,1.01,0.6,1.91c-2.28,1.9-0.97,3.3,0.45,4.83c1.66,1.8,3.97,3.07,4.68,5.66
							c-0.15,0.29-0.3,0.59-0.45,0.88c-0.97,0.42-1.94,0.86-3.02,0.9c-2.28,0.13-4.26,1.18-6.24,2.17c-3.07,1.54-6.23,2.54-9.73,2
							c-1.14-0.18-2.35-0.22-3.39,0.36c-5.88,3.25-12.93,3.17-18.75,6.61C397.52,516.67,394.17,515.16,390.84,513.96z"/>
						<path class="st9" d="M273.31,616.17c-4.45,0.86-8.91,1.73-13.36,2.59c1.11,1.54,2.71,2.1,4.47,2.68
							c4.56,1.51,9.29,2.94,11.26,8.1c0.52,1.37,1.53,1.89,2.91,1.74c3.14-0.36,6.29-0.66,9.4-1.17c1.54-0.25,2.19-1.67,2.39-3.05
							c0.62-4.37,1.19-4.75,5.36-2.92c1.63,0.72,3.42,1.39,4.68,2.58c3.75,3.56,7.4,4.7,11.74,0.93c0.92-0.8,2.62-0.68,3.94-1.02
							c1.46-0.38,3.13-0.59,2.79-2.79c-0.15-0.42-0.35-0.79-0.85-0.88l0.03,0.04c-0.23-0.38-0.56-0.64-0.92-0.88
							c-0.8-0.62-1.6-1.23-2.4-1.85c-0.31-0.21-0.61-0.43-0.91-0.65c-0.26,0-0.51-0.06-0.75-0.17c-0.55-0.35-1.26-0.27-1.81-0.63
							c-1.23,0.02-2.46,0.03-3.69,0.05c-0.62,0.24-1.31,0.25-1.92,0.56c-1.13,0-2.25,0-3.38,0c-1.36-0.64-2.93,0.19-4.26-0.62
							c-0.52-0.1-1.04-0.2-1.56-0.3c-0.33-0.16-0.65-0.34-0.95-0.54c-1.06-0.34-2.12-0.69-3.18-1.03c-0.36-0.23-0.68-0.52-1.12-0.59
							c-0.2,0.03-0.37-0.03-0.51-0.17c-1.71-0.04-3.52-1.78-5.01,0.83c-2.99,5.24-5.25,5.39-10.04,0.98
							C275.54,616.56,274.87,615.79,273.31,616.17z"/>
						<path class="st9" d="M333.11,372.47c1.75-0.19,3.48-0.89,5.15-1.52c8.6-3.23,17.32-5.68,26.66-4.79
							c2.06,0.2,4.12,0.42,6.19,0.51c2.49,0.11,2.83-1.15,1.82-3.14c-1.09-1.53-2.62-2.51-4.23-3.39c-1.45-1.83-3.59-1.61-5.58-1.86
							c-0.55-0.09-1.06-0.3-1.55-0.54c-0.16-0.07-0.32-0.17-0.49-0.23c-0.32-0.17-0.64-0.35-0.98-0.48
							c-0.33-0.18-0.67-0.36-1.03-0.49c-0.37-0.16-0.75-0.29-1.15-0.37c-1.91-0.29-3.82-0.19-5.74-0.08
							c-1.27,0.26-2.54,0.5-3.77,0.88c-0.87,0.28-1.47,0.94-2.13,1.52c-0.23,0.06-0.47,0.1-0.72,0.1c-0.51,0.42-1.25,0.28-1.76,0.71
							l-0.07,0.05c-0.39,0.55-1.16,0.36-1.59,0.82l-0.05,0.03c-0.22,0.28-0.48,0.5-0.79,0.69c-3.04,4.87-6.62,8.83-13.17,7.7
							C328.04,372.15,330.4,372.76,333.11,372.47z"/>
						<path class="st9" d="M260.31,504.84c-0.3-1.23-1.27-1.69-2.33-2.08c-0.96-0.35-2.48-0.02-2.6-1.49
							c-0.11-1.4,1.14-2.09,2.16-2.75c4.5-2.9,9.17-5.44,14.45-6.64c1.37-0.31,2.6-0.81,3.57-1.86c0.84-0.96,0.99-3.04,3.1-1.97
							c6.87,2.53,13.33,0.86,18.47-3.56c4.37-3.76,9.49-4.61,14.45-6.37c0.43-0.04,0.85-0.12,1.26-0.26
							c1.38-0.64,2.37-1.84,3.64-2.63c6.37-5.09,6.46-7.43,0.44-11.19c-0.79-0.4-1.61-0.75-2.41-1.12
							c-4.05-0.48-8.04-0.66-11.36,2.37c-0.85,0.81-1.63,1.68-2.55,2.4c-0.56,0.45-1.11,0.88-1.87,0.92
							c-0.52,0.08-0.96,0.31-1.37,0.62c-0.33,0.07-0.66,0.14-1,0.2c-0.6,0.43-0.85,1.04-0.97,1.74c-0.75,4.48-0.75,4.48-4.76,3.21
							c-1.1,1.12-2.2,2.24-3.31,3.37v-0.01c-0.56,0.28-1.12,0.57-1.67,0.85c-0.8-0.56-1.72-0.17-2.57-0.34
							c-0.36,0.06-0.73,0.09-1.1,0.09c-0.38,0.02-0.76,0.09-1.12,0.2c-1.06,0.48-2.21-0.04-3.22,0.2c-3.6,0.84-7.77-0.77-10.81,2.47
							c-0.66,5.74-0.66,5.74-6.54,3.78c-0.53-0.18-1.07-0.24-1.62-0.19c-4.82,0.04-6.93,3.34-8.64,7.15
							c-2.07,4.61-2.97,5.03-7.99,4.06c-2.15-0.42-4.26-1.29-6.52-0.68c-1.49,0.4-2.25-0.72-3.16-1.53
							c-1.62-1.06-3.27-1.71-5.11-0.5c-1.96,2.66,0.26,5.12,0.36,7.68c0.61,2.2,0.19,4.65,1.67,6.62c1.87,0.64,3.58,0.57,4.51-1.45
							c1.12-2.42,2.92-2.12,4.8-1.3c5.22,2.29,11.22,1.67,16.32,4.39C257.83,509.14,259.66,507.71,260.31,504.84z"/>
						<path class="st9" d="M118.34,640.09c-2.72,0.26-4.35-1.5-6-3.23c-1.91-3.98-3.49-4.25-6.22-1.08
							c-1.1,2.06-2.79,3.44-4.96,4.26l0.01-0.02c-0.53,0.42-0.34,1.22-0.87,1.64c0.03,0.78,0.05,1.55,0.08,2.33
							c0.34,0.55,0.28,1.23,0.58,1.8c0.29,1.6,0.56,3.21,1.87,4.38c0.53,0.25,1.06,0.26,1.59-0.03c0.22-0.12,0.46-0.19,0.71-0.22
							c0.32-0.2,0.64-0.4,0.96-0.61c0.28-0.06,0.56-0.12,0.84-0.17c0.22-0.25,0.49-0.44,0.8-0.57c0.58-0.36,1.15-0.72,1.73-1.08
							c0.22-0.28,0.5-0.49,0.84-0.6l0.21-0.2c0.09-0.33,0.29-0.55,0.63-0.63l0.21-0.2c0.07-0.31,0.25-0.51,0.55-0.62
							c0.57-0.35,1.14-0.7,1.7-1.05l-0.04-0.06c0.33-0.42,0.7-0.22,1.06-0.05c0.79,0.09,1.57,0.19,2.36,0.28
							c0.49,0.23,1.13,0.16,1.48,0.68l0.1,0.09c0.49,0.34,1.21,0.17,1.61,0.73l0.05,0.03c0.46,0.43,1.22,0.23,1.63,0.78
							c0.31,0.08,0.63,0.17,0.94,0.25c0.29,0.13,0.54,0.32,0.74,0.57c2.5,0.32,5.01,0.64,7.51,0.95c1.21,1.28,2.68,1.36,4.19,0.8
							c1.09-0.4,2.14-0.67,3.18-0.05c2.93,1.78,6.29,1.92,9.53,2.54c1.64,0.32,3.68,0.39,4.52,1.76c2.48,4.1,6.43,6.99,9.1,11.08
							c-1.76,0.44-3.27,0.15-4.78,0.16c-1.77,0.01-3.33,0.56-4.11,2.26c-0.85,1.85-0.46,3.95,1.12,4.87
							c3.88,2.27,6.53,5.84,9.94,8.54c2.2,1.74,4.96,1.62,7.46,0.27c1.9-1.02,3.01-2.89,2.29-4.86c-1.4-3.85,0.52-7.16,1.79-10.24
							c1.36-3.29,0.74-5.19-1.7-7.14c-3.23-2.57-6.41-5.12-8.7-8.73c-1.7-2.68-4.58-3.72-7.82-4c-6.61-0.56-13.61,0.04-18.77-5.57
							c-0.53-0.57-1.45-0.78-2.26-0.96c-0.82-0.21-1.65-0.3-2.49-0.16c-0.64,0.12-1.15,0.45-1.64,0.85
							c-4.21,0.4-8.38,1.67-12.66,0.58C118.94,640.36,118.64,640.24,118.34,640.09z"/>
						<path class="st5" d="M497.77,619.92c-2.85-1.12-3.42-3.25-2.99-5.94c-0.59-2.37-3.22-3.47-3.7-5.91
							c-1.77-2.31-4.03-3.11-6.84-2.21c-1.99,1.99-1.38,4.09-0.15,6.1c1.23,2,1.25,4.08,1.02,6.36c0.18-4.15-2.29-5.5-5.67-6.68
							c-2.94-1.03-6.13-2.01-8.35-4.58c-1.12-4.73,2.7-4.89,5.55-5.99c0.46-0.16,0.91-0.18,1.34,0.02c0.87,0.72,1.83,1.15,3,0.85
							c2.12-1.09,3.65-2.94,5.53-4.34c1.58-1.18,2.55-3.33,0.9-4.67c-2.92-2.37-1.61-3.94,0.3-5.75c0.22-1.97-1.2-2.77-2.59-3.59
							c-0.84-0.36-1.59-0.85-2.27-1.44c-1.97-1.75-3.98-1.21-6.19-0.37c-5.84,2.22-9.55-0.67-8.86-6.77
							c3.72-1.69,3.9-5.24,3.15-8.18c-0.73-2.84-3.75-2.72-6.44-2.19c-4.67,0.93-5.78,0.12-6.74-4.59c-0.67-3.32-2.85-4-5.67-3.03
							c-1.28,0.44-2.27,1.69-3.53,2.24c-2.15,0.95-4.91,3.23-4.97-1.93c-0.02-1.93-6.18-4.54-8.61-3.63
							c-2.93,1.1-0.8,2.86-0.31,4.41c0.43,1.37,0.77,3.07-0.84,3.7c-2.05,0.8-2.13-1.28-2.57-2.47c-2.4-6.59-3.79-7.39-10.13-4.58
							c-4.61,2.04-9.26,3.13-14.29,2.73c-1.54-0.12-3.1-0.05-4.64,0.05c-1.7,0.11-2.95,0.97-3.39,2.67
							c-0.41,1.6,0.51,2.66,1.68,3.57c1.17,0.9,3.03,1.08,3.2,3.03c1.33,7.63,6.13,13.07,11.54,18.09c0.49,0.46,1.22,0.79,1.92,0.75
							c4.16-0.2,6.02,2.08,6.51,5.9c1.11,2.39,0.65,4.95,0.73,7.44c0.15,4.27,1.56,5.72,5.85,5.84c1.4,0.04,2.77-0.13,4.15-0.42
							c2.3-0.48,4.17-0.11,4.65,2.73c0.25,1.45,1.2,2.93,2.59,3.02c3.97,0.26,4.06,2.75,3.73,5.66c0.95,2.21,3.26,2.96,4.87,4.46
							c0.95,0.89,1.98,1.67,1.69,3.1c-0.27,1.35-1.62,1.25-2.58,1.73c-3.61,1.82-7.31,0.8-10.98,0.61c-1.6,0.73-3.8,0.84-3.91,3.22
							c-0.09,1.96,1.56,2.39,3.03,2.95c2.23,0.84,0.81,1.9,0.03,2.78c-2.33,2.63-4.85,5.15-4.46,9.1c0.28,1.29,1.31,2.1,1.98,3.14
							c2.14,3.35,5.21,6.31,4.86,10.78c1.87,3.73,5.28,5.59,8.82,7.28c2.14,0.13,3.65-1.06,5.09-2.4c2.42-2.26,5.02-3.78,8.57-3.06
							c1.46,0.3,3.08,0.07,3.9-1.62c1.85-2.55,0.61-5.05-0.03-7.61c-1.02-4.09-0.02-5.35,4.11-4.69c3.39,0.54,5.81-0.6,7.5-3.33
							c1.64-2.65,3.75-4.09,6.93-3.65c2.4-0.06,4.69,0.38,6.99,1.1c2.6,0.82,5.25,0.61,6.7-2c1.01-1.84,2.49-3.37,3.29-5.32
							c0.47-3.43-1.35-6.44-1.74-9.72C499.86,621.29,498.91,620.37,497.77,619.92z"/>
						<path class="st5" d="M149.32,502.03c-0.09,0.76-0.58,1.8,0.4,2.15c0.99,0.35,1.51-0.65,2-1.37c0.16-0.24,0.2-0.55,0.3-0.83
							c0.57-1.51,1.64-2.06,3.4-1.78c-1.56,1.5-1.57,3.49-2.42,5.11c-0.42,0.8,0.29,1.07,0.88,1.46c2.76,1.79,5.9,2.2,9.04,2.5
							c0.94,0.09,2.36,0.65,2.61-1.12c0.28-1.91-0.78-3.89-2.21-4.14c-1.19-0.21-2.38-0.43-3.57-0.64c2.45-0.1,4.79-0.24,7.13-0.21
							c1.86,0.95,0.77,2.29,0.47,3.52c-0.17,1.04-0.33,2.07-0.5,3.11c0.27,0.63,0.85,0.95,1.36,1.33c0.9,0.6,1.79,0.2,2.68-0.02
							c0.59-0.29,1.18-0.33,1.75,0.04h-0.01c0.69,0.3,1.56,0.42,1.27,1.56c-0.34,1.31,0.37,2.16,1.4,2.83
							c0.45-0.01,0.91-0.03,1.36-0.04c0.15-0.11,0.29-0.23,0.41-0.37l0.01-0.01c1.4-0.86,2.13-2.12,0.99-3.47
							c-1.34-1.59-1.37-3.33-1.35-5.18c0.02-2.28-0.09-4.56,0.02-6.84c-0.08-0.29-0.19-0.56-0.37-0.81
							c-0.1-0.13-0.19-0.26-0.28-0.41c0.11-0.5,0.69-0.46,0.93-0.81c0.43-0.44,0.76-1,0.65-1.59c-0.42-2.21,0.21-4.4,0.14-6.51
							c-0.1-2.86,0.25-5.43,0.78-8.24c0.66-3.53,0.99-7.91-3.07-10.49c-0.55-0.95-1.61-1.44-2.19-2.37
							c-0.58-0.61-0.3-1.19,0.01-1.81c0.45-0.9,0.27-1.72-0.47-2.4c-0.61-0.56-1.3-0.67-2.03-0.26c-0.9,0.5-1.23,1.33-0.97,2.25
							c0.61,2.16-0.14,3.39-2.29,3.91c-0.56,0.13-1.02,0.58-1.5,0.92c-0.82,0.55-1.64,0.51-2.5,0.07c-0.84-0.43-1.87-0.59-2.46,0.16
							c-1.13,1.44-2.55,1.84-4.24,1.79c-0.64-0.02-1.07,0.43-1.5,0.84c-0.26,0.14-0.5,0.35-0.77,0.4c-3.78,0.78-4.01,1.11-3.29,4.83
							c0.13,0.65,0.26,1.3,0.4,1.94c0.23,1.08-0.14,1.82-1.14,2.35c-1.32,0.7-2.63,1.24-4.18,1.19c-1.15-0.03-2.37-0.33-3.44,0.4
							c1.72,0.59,3.43,1.18,5.26,1.37c2.02,0.21,1.79,2.08,2.33,3.32c0.57,1.32-0.98,0.9-1.4,1.44c0.16,0.97,1.46,0.52,1.71,1.38
							c-0.22,2.87,0.09,5.82-1.29,8.51C149.5,501.32,149.36,501.67,149.32,502.03z"/>
						<path class="st5" d="M403.07,555.1c0.51-0.18,1.09,0.03,1.55,0.4l0,0c7.43,1.69,8.94,1.26,11.79-3.39
							c-0.02-1.26,0.37-2.73-0.14-3.76c-1.95-3.95,0.28-5.26,3.36-6.96c5.52-3.06,10.75-6.5,14.05-12.35
							c2.79-4.95,8.19-5.43,12.56-1.7c3.38,2.88,6.98,5.42,11.76,8.06c-3.98-11.91-12.57-17.71-23.23-22.03
							c5.04-2.74,9.39-3.35,14.1-1.88c1.32,0.41,3.72,2.26,4.08-0.32c0.26-1.91,1.5-5.08-2.94-6c-7.5-1.55-14.73-1.37-22.1,0.34
							c-3.93,0.91-6.39,3.19-7.92,6.84c-4.11,9.84-6.52,10.94-16.43,8.08c-3.29-0.95-6.17-0.01-8.12,2.91
							c-1.98,2.96-0.62,5.27,1.66,7.39c1.7,1.58,3.48,3.14,4.53,5.8c-4.49-0.5-8.19-2.27-12.07-3.33c-4.4-1.2-5.99,0.04-6.06,4.61
							c-0.05,2.81-0.19,5.65,0.05,8.44c0.23,2.65,0.58,5.49,4.16,5.89C392.68,553.91,397.37,557.08,403.07,555.1z"/>
						<path class="st5" d="M405.19,302.1c1.54,1.74,4.41,0.39,5.79,2.5c0.27,0.25,0.54,0.5,0.8,0.76c0.22-0.01,0.45-0.02,0.67-0.03
							c3.15,1.83,6.54,3.15,10.32,4.66c-2.78-0.38-5-2.44-7.49-0.56c0.22,3.18-2,5.07-3.76,7.22c-0.75,0.92-2.15,1.8-1.51,3.18
							c0.56,1.19,2,0.63,3.07,0.75c1.22,0.13,2.97-0.35,3.34,1.09c0.83,3.17,3.28,3.8,5.85,4.67c1.91,0.65,3.28,2.2,4.07,4.05
							c0.55,1.28,2.32,2.79,0.52,4.03c-1.33,0.91-2.65-0.42-3.46-1.6c-1.28-1.88-2.83-1.91-4.76-1.18c-5,1.88-9.88,3.98-14,7.5
							c-0.72,0.61-1.94,1-1.72,2.17c0.29,1.51,1.74,1.34,2.75,1.19c4.43-0.66,6.24,0.94,5.04,5.44c-0.1,0.37,0.11,0.83,0.17,1.24
							c2.23,1.72,4.49,1.38,6.77,0.13c3.17-0.86,6.33-1.45,9.49,0.04c2.34,1.69,4.34,0,6.27-0.83c3.36-1.46,6.39-2.05,8.96,1.29
							c2.93,0.34,5.86,0.73,6.52-3.34c-0.01-1.56-1.61-2.48-1.95-4.3c6.47,1.97,11.37-2.64,17.1-3c-0.49-2.5-0.98-5-1.47-7.5
							c-7.56-3.28-7.56-3.28-1.77-8.39c-0.41-1.14-1.2-2.25-0.22-3.48c0.23-2.09,1.43-2.63,3.44-2.67c5.52-0.11,5.51-0.2,5.28-5.54
							c-0.04-0.96-0.23-2.09,0.98-2.49c1.14-0.38,1.73,0.5,2.37,1.29c1.05,1.31,2.07,2.67,3.3,3.8c4.38,4.04,8.41,3.55,10.78-1.71
							c1.8-3.99,4.54-4.55,7.72-2.76c4.46,2.51,8.59,1.35,12.87-0.07c-1.96-0.71-3.94-2.08-5.87-2.01
							c-4.63,0.16-8.84-0.09-11.89-4.21c-0.29-0.39-1.35-0.43-1.99-0.3c-2.16,0.41-4.33,0.04-6.2-0.73
							c-7.05-2.91-14.11-3.15-21.34-0.89c-1.81,0.57-3.5,0.25-4.12-1.75c-1.11-3.52-3.25-6.41-5.41-9.27
							c-0.95-1.25-1.67-2.25-0.37-3.64c0.58-0.62,1.18-1.47,0.11-2.07c-0.95-0.52-1.61,0.27-1.92,1.09
							c-1.17,3.13-2.34,2.04-3.55,0.06c-3.98-3.76-7.97-4.46-12.75-1.02c-2.64,1.91-5.81,1.63-8.39-1.01
							c-1.52-1.56-3.66-2.96-5.62-1.91c-3.13,1.68-6.64,2.03-9.76,3.57c-2.24,1.1-3.53,2.69-3.21,5.3c0.51,0.08,1.01,0.16,1.52,0.24
							c0.55,0.34,1.23,0.28,1.81,0.54c1.75,0.87,3.87,1.3,4.97,3.02c1.66,2.6,3.97,3.15,6.84,3.19c3.79,0.05,7.57,0.46,11.35,0.82
							c1.82,0.17,4.02,0.43,4.86,2.1c2.63,5.29,7.46,8.26,11.75,11.81c1.77,1.46,1.68,2.43-0.68,2.96c-0.79,0.18-1.73,0.13-2.3,1.24
							c1.69,2,2.64,4.08-0.44,5.95c-1.31,0.8-0.66,1.95,0.05,2.9c1.34,1.82,2.49,3.86-0.09,5.34c-2.25,1.29-4.81,1.56-6.98-0.55
							c-2.82-2.75-4.52-6.67-8.99-7.7c-1.25-0.29-2.25-2.36-1.73-3.94c0.57-1.74,2.37-1.11,3.68-1.03c2.09,0.13,4.22-0.07,6.23,0.8
							c1.41,0.61,2.04-0.31,2.49-1.46c0.52-1.34,0.17-2.3-1.34-2.34c-1.91-0.04-2.55-1.48-3.44-2.73c-2.16-3.04-5.79-4.92-6.91-8.84
							c-0.16-0.57-1.32-1.12-2.07-1.21c-7.13-0.9-13.96-4.52-21.43-2.41C404.17,300.55,404.4,301.44,405.19,302.1z"/>
						<path class="st4" d="M475.6,639.58c3.49-0.23,6.8-0.06,9.48,2.59c0.86,2.7,3.09,4.3,4.98,6.16c1.75,1.31,3.56,3.18,5.76,2.73
							c3.78-0.77,7.59-0.13,11.32-0.82c2.2-1.69,4.61-2.89,7.28-3.75c2.28-0.74,4.9-1.37,5.49-4.37c0.07-0.58-0.48-1.04-0.29-1.63
							c0.44,0.27,0.62,0.74,0.9,1.13c1.59,1.38,2.22,3.37,3.24,5.12c0.71,1.22,1.69,2.3,3.26,1.9c1.65-0.41,2.39-1.75,2.43-3.37
							c0.03-1.46-0.53-2.99,0.72-4.22c1.78-2.37,4.49-3.61,6.69-5.48c2.24-1.91,3.63-4.44,2.05-6.89c-1.54-2.4-3.79-0.1-5.45,0.74
							c-3.39,1.72-5.55,1.43-7.55-2.27c-2.91-5.37-6.89-9.93-13.03-11.95c-2.14,1-4.68-1.01-6.71,0.88
							c-4.05,1.87-8.79,1.04-13.16,4.15c0.46-1.77,0.69-2.56,0.87-3.35c0.23-1.01,1.17-2.25-0.26-2.91
							c-1.32-0.61-2.46,0.35-3.15,1.38c-0.76,1.13-1.28,2.43-1.8,3.7c-0.5,1.22-1.19,2.21-2.5,2.56c-0.79,0.22-1.74,0.44-2.32-0.3
							c-0.48-0.61-0.03-1.35,0.41-1.87c1.83-2.18,0.72-5.4,2.91-7.6c1.19-1.2-0.36-2.23-1.52-2.71c-4.83-2.01-9.54-4.13-15.05-4.02
							c-6.72,0.13-6.72-0.15-6.76,6.77c-0.41,2.95,1.91,3.01,3.67,3.07c2.94,0.1,5.62,0.86,8.24,2.09c4.01,1.87,4.09,2.12,1.25,5.66
							c-2.65-0.09-3.91,2.06-6.16,3.52c1.26,0.61,2.11,0.95,2.89,1.42c1.12,0.67,2.85,0.83,2.9,2.52c0.04,1.51-1.5,1.8-2.54,2.33
							c-1.83,0.94-2.78,2.55-3.6,4.3C470.71,640.38,473.4,639.72,475.6,639.58z"/>
						<path class="st5" d="M181.73,546.46c1.83-1.33,2.91-3.31,4.41-4.94c0.26-0.29,0.51-0.57,0.73-0.9
							c0.23-0.27,0.45-0.53,0.64-0.83c0.35-0.35,0.76-0.64,1.16-0.92c0.31-0.16,0.62-0.33,0.89-0.54c0.5-0.3,0.97-0.66,1.35-1.11
							c0.26-0.34,0.46-0.71,0.58-1.12c0.77-3.08-1.35-4.61-3.46-5.88c-2.71-1.63-4.73-3.61-5.62-6.74
							c-0.61-2.13-2.31-3.36-4.34-4.07c-3.45-1.19-11.67,0.9-13.85,3.47c-2.88,3.4-3.32,9.34-1.02,13.85
							c0.27,0.33,0.56,0.63,0.88,0.91c3.36,1.87,4.69,5.3,6.48,8.36c0.58,0.26,1.15,0.51,1.73,0.77
							C175.51,548.95,178.5,548.82,181.73,546.46z"/>
						<path class="st5" d="M128.91,626.12c1.83-1.33,2.91-3.31,4.41-4.94c0.26-0.29,0.51-0.57,0.73-0.9
							c0.23-0.27,0.45-0.53,0.64-0.83c0.35-0.35,0.76-0.64,1.16-0.92c0.31-0.16,0.62-0.33,0.89-0.54c0.5-0.3,0.97-0.66,1.35-1.11
							c0.26-0.34,0.46-0.71,0.58-1.12c0.77-3.08-1.35-4.61-3.46-5.88c-2.71-1.63-4.73-3.61-5.62-6.74
							c-0.61-2.13-2.31-3.36-4.34-4.07c-3.45-1.19-11.67,0.9-13.85,3.47c-2.88,3.4-3.32,9.34-1.02,13.85
							c0.27,0.33,0.56,0.63,0.88,0.91c3.36,1.87,4.69,5.3,6.48,8.36c0.58,0.26,1.15,0.51,1.73,0.77
							C122.69,628.61,125.68,628.49,128.91,626.12z"/>
						<path class="st4" d="M434.03,679.43c2.7-2.88,5.56-5.24,9.97-4.81c1.87,0.18,3.35-1.17,4.3-2.81
							c1.56-2.69,1.44-5.53,0.68-8.43c-0.49-1.89-0.85-3.97-3.11-4.47c-2.47-0.55-3.2,1.62-4.31,3.14
							c-0.18,0.25-0.47,0.19-0.89-0.23c-0.56-3.69,0.39-7.75-1.2-11.6c-0.59-1.43,0.83-1.97,2.08-2.5c5.1-2.15,5.5-5.23,1.23-8.71
							c3.02-0.57,6.06-0.16,9.09-0.27c1.78-0.07,3.68,0.06,4.59-2c-0.2-2.81-2.13-3.52-4.5-3.69c-1.53,0.09-3.03,0.71-4.6,0.3
							c-0.39-0.09-0.77-0.2-1.14-0.36c-0.19-0.12-0.35-0.28-0.52-0.43c-0.02,0.02-0.12-0.32-0.14-0.3c-0.03-0.24,0-0.49,0.04-0.73
							c0.84-2.06,2.96-2.06,4.62-2.87c2.72-1.33,6.25-0.66,8.38-3.41c-3.45-1.01-7.28-1.08-8.13-6.1c-0.39-2.3-9.54-3.57-11.81-2.08
							c0.28,3.07,1.47,5.89,2.56,8.71c1.39,3.61-0.03,5.83-4.1,8.54c-1.74,1.15-2.91,2.89-3.86,4.75c-0.44,0.85-2.24,1.83-0.81,3.41
							c4.16,4.6,4.01,10.43-0.28,14.43c-1.6,0.2-1.96,1.24-1.79,2.64c0.51,2.33,0.04,4.59-0.54,6.82c-0.48,1.84-1.26,3.6-1.06,5.58
							c0.32,3.07,3.19,4.71,4.1,7.44C433.25,679.56,433.64,679.58,434.03,679.43z"/>
						<path class="st4" d="M401.73,543.44c6.89,0,13.77,0,20.66,0c0.06,1.46-1.21,1.57-2.1,1.98c-1.1,0.5-2.27,0.83-3.18,1.7
							c-0.47,0.45-0.75,0.89-0.29,1.46c0.43,0.53,1.1,0.61,1.52,0.17c1.8-1.91,4.35-3,5.77-5.31h15.49c1.1,1.65,0.89,3.65,1.31,5.47
							c0.28,1.21-0.95,2.03-2.13,2.32c-2.16,0.52-3.25,1.89-3.64,4c-0.16,0.83-0.46,1.66-0.9,2.41c-0.5,0.86-1.17,1.61-2.25,1.12
							c-1.22-0.56-1.5,0.3-1.93,1.04c-0.95,1.24-2.31,1.25-3.66,1.1c-0.85-0.09-1.7-0.08-2.53-0.22c-1.71-0.3-3.04,0.04-3.94,1.68
							c-0.37,0.67-1.02,1.21-1.71,1.57c-1.02,0.53-1.4,1.33-1.29,2.43c-0.3,1.04,0.43,1.46,1.15,1.75c3.19,1.31,6.56,1.8,9.74,0.38
							c2.39-1.06,4.36-0.88,6.42,0.44c1.03,1.31,1.37,2.79,1.09,4.42c-0.3,1.7-0.14,3.32,0.26,5.04c0.5,2.15,0.1,4.37-1.07,6.38
							c-0.72,1.23-0.97,2.51,0.24,3.7c0.99,0.97,1.02,2.22-0.01,3.01c-1.69,1.31-1.58,2.92-1.17,4.62c0.17,0.72,0.26,1.41,0.17,2.11
							c-0.19,1.54-1.19,2.22-2.69,1.83c-0.5-0.13-0.92-0.42-1.29,0.16c-0.08,0.88,0.66,1.21,1.13,1.7c1.6,1.67,1.84,3.47,0.2,5.04
							c-1.38,1.31-1.3,2.44-0.53,3.9c0.34,0.64,0.97,1.3,0.43,2.16c-0.41,0.41-0.92,0.55-1.48,0.56c-2.36-0.04-4.46-0.82-6.42-2.12
							c-1.25-0.83-2.58-1.53-3.99-2.07c-1.86-0.71-3.26-2.01-4.56-3.48c-2.08-2.35-4.96-2.36-6.94-0.03
							c-0.6,0.71-1.5,1.12-1.94,1.98c-0.69,0.8-1.63,1.28-2.47,1.88c-0.19,0.1-0.39,0.15-0.6,0.18c-1.57,0.08-2.74-0.61-3.59-1.91
							c-0.33-0.51-0.56-1.27-1.43-0.79c-0.16,0.21-0.24,0.45-0.3,0.7c-0.07,0.51,0.2,0.81,0.61,1.03c0.24,0.13,0.46,0.28,0.68,0.43
							c0.16,0.09,0.3,0.21,0.44,0.33c0.22,0.18,0.4,0.4,0.56,0.63c0.12,0.16,0.2,0.33,0.28,0.51c0.11,0.28,0.16,0.57,0.14,0.87
							c-0.02,0.2-0.07,0.39-0.16,0.57c-0.5,0.55-0.67,1.48-1.65,1.5c-0.21-0.03-0.3-0.14-0.27-0.36c-0.01,0.19-0.02,0.37-0.02,0.56
							c-0.21,0.4-0.56,0.52-0.98,0.54c-0.5-0.07-0.98-0.25-1.49-0.29c-0.77-0.3-1.69,0-2.4-0.57c-0.75-0.54-0.8-1.6-1.6-2.11
							c-0.52-0.35-1.24-0.24-1.67-0.77c-1.89-3.35-1.7-7.02-1.7-10.68c0-2.02-0.16-4.07-1.72-5.67c-0.49-0.5-1.04-1.05-0.42-1.84
							c1.28-0.85,2.65-0.59,4.02-0.32c0.33,0.15,0.61,0.36,0.85,0.63c0.47,1.67,1.5,2.76,3.27,3.05c0.27,0.2,0.45,0.45,0.56,0.76
							c0.1,1.13-0.53,1.72-1.52,2.04c-0.24,0.03-0.48,0.08-0.67,0.19c0.02-0.01-0.12,0.1-0.09,0.09c0.03-0.01,0.04,0.12,0.07,0.1
							s0.15-0.02,0.17-0.04c0.31-0.12,0.6-0.23,0.9-0.33c0.16-0.06,0.32-0.11,0.48-0.18c0.22-0.11,0.44-0.22,0.64-0.36
							c0.12-0.12,0.26-0.23,0.4-0.33c0.14-0.13,0.29-0.23,0.45-0.33c0.71-0.43,1.51-0.63,2.25-0.27c1.71,0.83,2.48-0.06,3.15-1.61
							c-1.79-0.58-3.4-1.12-5.34-0.47c-2.21,0.74-3.44-0.14-4.11-2.38c0.3-1.54,1.35-2.02,2.79-2.08c0.98-0.04,1.99,0.16,3.16-0.35
							c-1.41-1.18-2.94-1.74-4.56-2.18c-2.21-0.61-4.63-0.83-6.09-3c-0.04-3.93,0.4-4.69,3.12-5.43c0.95,0.86,2,1.33,3.35,1.01
							c0.54-0.13,1.1,0.13,1.54,0.52c0.77,0.53,0.79,1.64,1.6,2.22c0.49-0.66-0.02-1.33,0.21-1.91c1.5-2.39,3.66-3.1,6.01-1.71
							c2.16,1.27,4.3,1.06,6.55,0.48c1.42-0.36,1.01-1.27,0.76-2.17c-0.1-1.26-1.43-1.78-1.75-2.91c-0.51-2.54-1.05-3.03-3.58-3.19
							c-0.5-0.03-0.98-0.08-1.43-0.35c-3.59-2.84-3.9-6.57-2.48-10.49c0.63-1.74,0.42-3.23,0.02-4.85c0.2-0.4,0.57-0.58,0.97-0.7
							c0.34-0.09,0.68-0.11,1.02-0.15c0.21-0.06,0.43-0.13,0.61-0.27c0.09-0.14,0.17-0.28,0.21-0.43c-0.21-1.34-1.88-0.88-2.33-1.91
							c-0.2-1.74,0.95-2.81,1.97-3.94c0.61-0.54,1.28-0.84,2.11-0.56c1.22,0.83,2.52,1.13,4.21,0.72c-1.45-1.05-3.04,0.23-4.23-0.79
							c-0.58-0.18-1.06-0.57-1.14-1.13c-0.2-1.4-1.19-2.15-2.16-2.95C401.69,544.05,401.56,543.77,401.73,543.44z"/>
						<path class="st4" d="M173.46,512.1c1.81-0.12,3.53-0.03,4.92,1.34c0.44,1.4,1.6,2.23,2.58,3.19c0.91,0.68,1.85,1.65,2.98,1.42
							c1.96-0.4,3.93-0.07,5.87-0.42c1.14-0.88,2.39-1.5,3.77-1.94c1.18-0.38,2.54-0.71,2.85-2.27c0.04-0.3-0.25-0.54-0.15-0.85
							c0.23,0.14,0.32,0.38,0.47,0.59c0.82,0.72,1.15,1.74,1.68,2.65c0.37,0.63,0.87,1.19,1.69,0.99c0.86-0.21,1.24-0.91,1.26-1.75
							c0.02-0.76-0.27-1.55,0.38-2.19c0.92-1.23,2.33-1.87,3.47-2.84c1.16-0.99,1.88-2.3,1.06-3.57c-0.8-1.24-1.96-0.05-2.83,0.39
							c-1.76,0.89-2.88,0.74-3.92-1.18c-1.51-2.78-3.57-5.15-6.76-6.2c-1.11,0.52-2.43-0.52-3.48,0.46
							c-2.1,0.97-4.56,0.54-6.82,2.15c0.24-0.92,0.36-1.32,0.45-1.74c0.12-0.52,0.6-1.17-0.14-1.51c-0.69-0.31-1.27,0.18-1.63,0.72
							c-0.4,0.58-0.66,1.26-0.93,1.92c-0.26,0.63-0.62,1.14-1.29,1.33c-0.41,0.11-0.9,0.23-1.2-0.15c-0.25-0.32-0.01-0.7,0.21-0.97
							c0.95-1.13,0.37-2.8,1.51-3.94c0.62-0.62-0.19-1.16-0.79-1.41c-2.5-1.04-4.95-2.14-7.8-2.09c-3.48,0.07-3.49-0.08-3.51,3.51
							c-0.21,1.53,0.99,1.56,1.9,1.59c1.52,0.05,2.91,0.45,4.27,1.08c2.08,0.97,2.12,1.1,0.65,2.93c-1.37-0.04-2.03,1.07-3.2,1.82
							c0.65,0.32,1.1,0.49,1.5,0.73c0.58,0.35,1.48,0.43,1.5,1.31c0.02,0.78-0.78,0.93-1.32,1.21c-0.95,0.49-1.44,1.32-1.87,2.23
							C170.93,512.51,172.32,512.17,173.46,512.1z"/>
						<path class="st4" d="M164.74,628.71c0.95-0.69,1.51-1.71,2.28-2.56c0.14-0.15,0.27-0.3,0.38-0.47
							c0.12-0.14,0.23-0.28,0.33-0.43c0.18-0.18,0.39-0.33,0.6-0.48c0.16-0.08,0.32-0.17,0.46-0.28c0.26-0.16,0.5-0.34,0.7-0.58
							c0.14-0.17,0.24-0.37,0.3-0.58c0.4-1.6-0.7-2.39-1.79-3.05c-1.4-0.84-2.45-1.87-2.91-3.5c-0.32-1.11-1.2-1.74-2.25-2.11
							c-1.79-0.62-6.05,0.47-7.18,1.8c-1.49,1.76-1.72,4.84-0.53,7.18c0.14,0.17,0.29,0.32,0.45,0.47c1.74,0.97,2.43,2.75,3.36,4.34
							c0.3,0.13,0.6,0.27,0.89,0.4C161.52,630,163.07,629.93,164.74,628.71z"/>
						<path class="st4" d="M109.7,557.19c1.4-1.49,2.89-2.72,5.17-2.49c0.97,0.1,1.74-0.6,2.23-1.46c0.81-1.39,0.75-2.87,0.35-4.37
							c-0.26-0.98-0.44-2.06-1.61-2.32c-1.28-0.29-1.66,0.84-2.23,1.63c-0.09,0.13-0.25,0.1-0.46-0.12
							c-0.29-1.91,0.2-4.02-0.62-6.01c-0.31-0.74,0.43-1.02,1.08-1.29c2.65-1.12,2.85-2.71,0.64-4.51c1.56-0.29,3.14-0.08,4.71-0.14
							c0.92-0.03,1.91,0.03,2.38-1.04c-0.1-1.46-1.11-1.82-2.33-1.91c-0.8,0.05-1.57,0.37-2.38,0.16c-0.2-0.05-0.4-0.11-0.59-0.19
							c-0.1-0.06-0.18-0.14-0.27-0.22c-0.01,0.01-0.06-0.16-0.08-0.15c-0.02-0.12,0-0.26,0.02-0.38c0.44-1.07,1.53-1.07,2.39-1.49
							c1.41-0.69,3.24-0.34,4.34-1.77c-1.79-0.52-3.77-0.56-4.22-3.16c-0.2-1.19-4.95-1.85-6.12-1.08c0.15,1.59,0.76,3.06,1.33,4.51
							c0.72,1.87-0.01,3.02-2.13,4.42c-0.9,0.6-1.51,1.5-2,2.46c-0.23,0.44-1.16,0.95-0.42,1.77c2.16,2.38,2.08,5.41-0.15,7.48
							c-0.83,0.1-1.02,0.64-0.93,1.37c0.26,1.21,0.02,2.38-0.28,3.54c-0.25,0.95-0.66,1.86-0.55,2.89c0.16,1.59,1.65,2.44,2.12,3.85
							C109.29,557.26,109.49,557.27,109.7,557.19z"/>
						<path class="st4" d="M101.21,586.41c-0.64,0.11-1.63-0.52-1.8,0.45c-0.15,0.87,0.81,1.04,1.54,1.07
							c1.1,0.05,1.84,0.51,1.74,1.68c-0.09,1.06-0.79,1.35-1.83,1.26c-1.45-0.13-2.17,1.04-1.73,2.04c0.98,2.22,0.62,4.47,0.72,6.72
							c0.03,0.66,0.11,1.35,0.92,1.5c0.76,0.14,1.15-0.4,1.48-0.99c0.37-0.67-0.13-2.11,1.13-1.94c1.15,0.16,0.65,1.56,0.99,2.37
							c0.18,0.44,0.19,0.98,0.19,1.48c-0.03,2.14-0.82,2.85-2.98,2.73c-2.19-0.12-4.07,1.36-4.32,3.41l0,0
							c0.16,0.13,0.27,0.3,0.43,0.43c2.3,2.19,5.24,2.19,8.04,1.99c2.24-0.16,4.38-0.4,6.56,0.34c1.64,0.55,6.08-2.75,6.21-4.5
							c0.01-0.13-0.1-0.27-0.15-0.4c-0.21-0.62-0.79-0.77-1.3-1.02c-0.7-0.34-1.53-0.68-1.52-1.62c0.01-1.05,0.93-1.39,1.72-1.69
							c1.4-0.54,2.91-0.7,4.3-1.3c1.16-0.5,2.25-1.14,2.58-2.4c0.38-1.45,0.86-2.87,1.22-4.32c0.49-1.96-0.67-3.08-2.72-3
							c-0.71,0.03-1.47,0.75-2.17-0.04c-2.19,0.13-4.22-0.37-6.13-1.46c-1.79-1.02-3.61-1.97-5.42-2.95
							C106.33,586.32,103.77,585.98,101.21,586.41z"/>
						<path class="st7" d="M363.54,588.05c-0.14,0.21-0.28,0.42-0.41,0.63c-1.14,2.45,0.45,3.55,2.27,4.46
							c2.49,1.25,5.18,1.77,7.91,2.25c4.69,0.81,5.96,0.12,7.69-4.5c0.23-0.56,0.57-1.04,1.01-1.45c3.03-1.92,5.21,0.4,7.63,1.52
							c0.36,0.14,0.73,0.28,1.09,0.42c1.54,0.41,2.91,1.43,4.6,1.36c3.05,0.03,5.13,1.39,6.44,4.21c1.02,2.21,2.7,3.84,5.25,4.29
							c4.12-0.11,3.52-2.98,2.93-5.46c-0.52-2.15-0.73-3.97,1.28-5.4c3.21-2.37,4.82,1.36,7.27,1.9c2.59-3.24,1.91-4.98-2.98-5.27
							c-4.5-0.26-8.17-1.63-11.64-4.38c-1.33-1.05-3.28-1.33-4.95-1.96c-0.62-0.78-1.2-0.36-1.78,0.07c-0.47,0.53-0.5,1.25-0.8,1.85
							c-0.08,0.15-0.16,0.29-0.24,0.44c-1.4,3.51-3.76,2.56-5.91,1.05c-1.42-0.99-2.46-2.52-3.71-3.77
							c-3.92-3.93-3.93-3.92-6.83,0.38c-1.49,2.03-2.82,0.73-4.16-0.2c-1.57-1.09-3.12-2.02-4.35,0.41
							c-0.43,0.53-0.68,1.13-0.62,1.83c-0.05,0.17-0.11,0.33-0.19,0.48C367.25,583.68,364.68,584.85,363.54,588.05z"/>
					</g>
					<path class="st0" d="M522,700.73c1.84,0.01-12-1.9-16.5-4.73s-15-28.5-15-28.5l-16,12.67c0,0,2.17,46.17,11.83,47.67
						c9.67,1.5,22.33,0.5,22.33,0.5s3.83,7.33,4.67,10.17c0.83,2.83,2.67,7.67,0.5,9.83c-2.17,2.17-64.5,10.33-73.17,11.67
						c-8.67,1.33-47.67,6.67-76.83,4.33c-10.9-0.87-74-6.5-95.83-10.5s-77.67-13.17-79-15.17s-1.67-6.33-1.67-6.33
						s5.5-12.67,5.67-15c0,0,3.33-4-12-5.67s-42.33-9.33-42.33-9.33l-55,50.83l-26.5,70L92.67,863l74.67-10.5l2.33-30
						c0,0,1.33-16,3.83-23.67s6.17-19,7.83-25.5c1.67-6.5,6-20.17,6.5-23.17s1.67-6.5,1.67-6.5S297.67,766,350.33,769.33
						c52.67,3.33,75.5-2.17,90.5-4.08s67.5-9.42,67.5-9.42s-2.17,5-5.5,5.33s-122.33,14.33-129,13.83s-12.33-3-15.17-3
						c-2.83,0-13.33-1.5-15,1.17s-5,30.83,3.83,31.33s15.33-1.5,20.17-1.5c4.83,0,21.14,6.33,64.4,1.5s86.26-8.33,86.26-8.33
						s10.17,0.17,9.67,0.5s4.33,17.67,4.33,27.33s0,17.09,0,17.09l41-3.25c0,0-7-70.83-11.67-83.5s-29.83-41.5-29.83-41.5
						s6.83-38,2.5-52s-9.5-25.83-9.5-25.83s-14,10.17-16.5,13.83c-2.5,3.67-10.83,12.33-10.83,12.33S509,700.63,522,700.73z"/>
					<path class="st0" d="M305.97,614c5.64,3.67,27.03,14.33,27.84,16.83c0.82,2.5,0.68,14.5,0,18.5s-2.15,44.33-2.15,44.33
						s0.83,4,1.83,9.33s-0.5,8.67-2.67,10.33c-2.17,1.67-16.17,2-16.17,2s-21-1.5-27-2.17s-7.83-1-9.05-5.17
						c-1.21-4.17,0.21-36,0.21-36s-1.09-57.7-0.17-59.67C280,609.5,300.33,610.33,305.97,614z M347.95,672.96
						c0.56,2.63,1.29,5.21,2.27,7.72c0.27,0.68,0.5,1.6,1.04,2.12c0.38,0.37,1,0.55,1.48,0.75c1.14,0.46,2.31,0.85,3.49,1.18
						c5.02,1.42,10.25,1.79,15.43,2.25c2.6,0.23,5.19,0.48,7.77,0.87c1.3,0.19,2.59,0.43,3.87,0.71c1.2,0.27,2.44,0.78,3.65,0.92
						c1.4,0.16,2.32-1.05,3.24-1.92c0.92-0.87,1.86-1.7,2.84-2.51c1-0.82,2.02-1.62,3.07-2.38c0.27-0.19,0.54-0.38,0.82-0.57
						c0.03-0.51,0.06-0.94,0.08-1.26c0.33-5.17,0.17-10.83-3.33-11.33s-35.33-15-39-20c-0.44-0.6-7.33-2.67-9.67,3.5
						c-0.41,1.09-0.73,3.79-0.98,7.48C346.34,664.22,347.04,668.65,347.95,672.96z M394.46,687.09c-1.23,1.03-2.36,2.16-3.56,3.23
						c-0.99,0.89-2.09,1.64-3.47,1.68c-1.4,0.04-2.81-0.57-4.16-0.89c-1.28-0.3-2.57-0.55-3.86-0.76c-2.86-0.46-5.75-0.71-8.63-0.96
						c-5.46-0.48-11-0.92-16.25-2.57c-2.4-0.75-4.97-1.45-6.08-3.91c-1.19-2.67-2.07-5.49-2.71-8.34c-0.65-2.88-1.07-5.98-2.01-8.84
						c-0.78,18.71-0.41,50.59-0.41,50.59s12.17,8.83,21.33,7.67c5.89-0.75,15.71-0.95,21.97-1c3.55-0.03,6.72-2.21,8.01-5.52
						c0.34-0.87,0.54-1.78,0.58-2.72c0.24-4.85,1.05-21.04,1.51-29.47C395.97,685.87,395.21,686.47,394.46,687.09z M412.97,685.11
						c1.14,3.94,1.9,7.97,2.37,12.05c8.97,2.8,18.38,3.4,27.73,3.48c1.17,0.01,2.35,0.01,3.52,0.01c1.19,0,2.57,0.19,3.75-0.01
						c0.97-0.16,1.32-1.11,1.87-1.87c0.59-0.83,1.22-1.64,1.88-2.42c1.28-1.51,2.73-2.89,4.36-4.01c-0.17-1.49-0.37-2.52-0.62-2.85
						c-1.67-2.17-7.17-2.17-7.17-2.17s-9.5-0.83-15.83-1.67c-6.33-0.83-17.5-3.33-21.83-6c-0.28-0.17-1.29-0.56-2.51-0.67
						C411.61,680.88,412.36,683.01,412.97,685.11z M454.6,699.72c-1.24,1.69-1.95,3.33-4.26,3.43c-2.42,0.1-4.86,0.02-7.27,0
						c-9.83-0.09-19.79-0.72-29.19-3.8c-0.57-0.19-0.86-0.63-0.92-1.21c-0.41-4.02-1.17-8.01-2.27-11.9
						c-0.68-2.41-1.49-4.83-2.93-6.85c-1.27,0.58-2.34,1.88-2.6,4.45c-0.67,6.83,0.33,13,1,18.67s-0.5,27,0.83,28.5
						s10.5,3.83,16.5,3.67c6-0.17,25.83,1.67,29.33-0.33s6.33-9.5,6.33-9.5s0.19-19.47-0.46-29.55
						C457.15,696.55,455.79,698.09,454.6,699.72z M367.65,818.68c-6.21,0.17-12.38,0.18-18.5-1c-6.64-1.28-12.7-2.37-19.5-1.79
						c-2.33,0.2-3.7-1.15-4.14-2.86c-0.34-0.44-0.62-0.97-0.8-1.62c-1.15-4.16-1.75-8.39-2.1-12.66c-0.12-0.01-0.23-0.03-0.35-0.05
						c-11.45-2.17-22.92-4.37-34.55-5.22c-10.34-0.76-20.67-0.65-30.95-2.21c-21.82-3.3-43.42-7.81-65.29-10.85
						c-5.72-0.8-3.27-9.47,2.39-8.68c21.87,3.05,43.47,7.59,65.29,10.85c11.07,1.66,22.31,1.18,33.43,2.31
						c9.94,1.01,19.77,2.79,29.58,4.64c-0.08-2.59-0.17-5.18-0.37-7.77c-0.07-0.93,0.13-4.54-0.59-5.23
						c0.01,0.01-3.63-0.52-3.76-0.54c-13.63-2.36-27.34-4.31-41.09-5.84c-13.55-1.5-27.14-2.5-40.62-4.5
						c-14-2.07-27.9-4.79-41.82-7.32c-5.7-1.04-3.27-9.71,2.39-8.68c15.33,2.79,30.64,5.85,46.09,7.93
						c14.81,1.99,29.74,2.96,44.57,4.84c7.14,0.9,14.27,1.9,21.38,3.01c3.84,0.6,7.67,1.23,11.49,1.89c2.73,0.47,6,0.64,8.08,2.75
						c3.55,3.61,2.94,11.72,3.14,16.32c0.29,6.85,0.32,13.62,1.79,20.3c5.17-0.15,10.23,0.42,15.34,1.55
						c6.53,1.44,12.83,1.59,19.48,1.41C373.45,809.52,373.43,818.52,367.65,818.68z M259.34,365.02c6.49,0.18,12.99,0.37,19.48,0.55
						c10.26,0.29,20.51,0.58,30.77,0.87c2.38,0.07,4.75,0.13,7.13,0.2c3.22,0.09,3.22-4.91,0-5c-6.49-0.18-12.99-0.37-19.48-0.55
						c-10.26-0.29-20.51-0.58-30.77-0.87c-2.38-0.07-4.75-0.13-7.13-0.2C256.13,359.93,256.13,364.93,259.34,365.02L259.34,365.02z
						 M264.17,374.58c-2.96-0.09-2.96-5.09,0-5c2.18,0.07,4.37,0.13,6.55,0.2c9.43,0.29,18.86,0.58,28.28,0.87
						c5.97,0.18,11.94,0.37,17.91,0.55c2.96,0.09,2.96,5.09,0,5c-2.18-0.07-4.37-0.13-6.55-0.2c-9.43-0.29-18.86-0.58-28.28-0.87
						C276.11,374.95,270.14,374.76,264.17,374.58L264.17,374.58z M274.3,385.16c-2.19-0.04-2.31-5.04-0.12-5
						c1.62,0.03,3.23,0.06,4.85,0.09c6.97,0.12,13.95,0.25,20.92,0.37c4.42,0.08,8.83,0.16,13.25,0.23c2.19,0.04,2.31,5.04,0.12,5
						c-1.62-0.03-3.23-0.06-4.85-0.09c-6.97-0.12-13.95-0.25-20.92-0.37C283.14,385.31,278.72,385.23,274.3,385.16L274.3,385.16z
						 M322.91,405.1c-0.5-2.47-0.8-5.76-3.17-7.21c-2.06-1.26-4.8-1.9-7.12-2.49c-3.13-0.8-6.39-1.39-9.63-1.38
						c-4.62,0.02-9.25,0.05-13.87,0.07c-2.12-0.85-4.64,0.68-5.23,2.86c-0.73,2.72,1.39,5.19,2.76,7.3c1.36,2.09,2.6,4.52,4.37,6.29
						c1.74,1.75,4.04,2.59,6.17,3.72c4.14,2.2,7.74,5.21,10.88,8.68c3.31,3.68,5.87,8.72,10.74,10.6c2.86,1.1,5.35-0.62,5.67-3.57
						c0.31-2.79,0.3-5.64,0.25-8.44C324.63,416.04,324,410.51,322.91,405.1z M287.59,398.94c0.01,0.01,0.03,0.02,0.04,0.02
						C287.62,398.95,287.61,398.94,287.59,398.94L287.59,398.94z M315.53,424.31c-2.47-3.35-5.18-6.5-8.36-9.2
						c-1.83-1.56-3.78-3-5.84-4.24c-1.91-1.14-4.05-1.9-5.89-3.13c-1.79-1.19-2.82-3.45-3.96-5.21c-0.68-1.06-1.38-2.11-2.05-3.17
						c-0.02-0.03-0.07-0.14-0.14-0.27c3.36-0.02,6.71-0.03,10.07-0.05c1.6-0.01,3.2-0.06,4.79-0.02c3.5,0.09,7.13,1.07,10.43,2.17
						c0.67,0.22,1.96,0.43,2.54,0.94c-0.11-0.05,0.06,0.34,0.1,0.46c0.19,0.65,0.33,1.33,0.48,1.99c0.5,2.24,0.92,4.5,1.25,6.77
						c0.66,4.63,0.9,9.34,0.79,14.01c-0.02,0.98-0.07,1.97-0.13,2.95C318,427.21,316.69,425.88,315.53,424.31z M355.46,414.95
						c-0.26-0.89-0.77-1.76-1.21-2.57c-3.4-6.38-7.36-12.5-11.27-18.57c-2.21-3.43-4.45-6.86-6.83-10.18
						c-0.86-1.21-1.74-2.42-2.7-3.55c-0.72-0.84-1.53-1.58-2.65-1.71c-0.22-0.03-0.45-0.04-0.68,0c-0.72,0.09-1.24,0.46-1.56,0.96
						c-1,1.02-1.98,2.07-2.92,3.15c-1.22,1.4-3.12,3.27-3.1,5.29c0.02,1.57,0.94,3.14,1.61,4.51c1.01,2.07,2.12,4.09,3.24,6.11
						c1.98,3.6,4.03,7.15,5.76,10.89c1.99,4.3,3.95,8.92,7.1,12.53c1.31,1.5,3.18,2.82,5.27,2.35c1.29-0.29,2.6-1.12,3.75-1.77
						c1.47-0.83,2.88-1.75,4.18-2.84C354.83,418.39,356.02,416.82,355.46,414.95z M350.77,415.2c0-0.05,0.05-0.1,0.07-0.11
						c-0.01,0.02-0.03,0.05-0.05,0.09C350.78,415.19,350.78,415.19,350.77,415.2z M329.3,382.93c0.01,0.01,0.01,0.01,0.02,0.02
						c-0.08-0.06-0.15-0.1-0.19-0.13C329.18,382.86,329.24,382.9,329.3,382.93z M329.09,382.8c-0.03-0.03-0.05-0.04-0.05-0.05
						C329.06,382.76,329.08,382.78,329.09,382.8z M327.55,387.58c-0.05-0.15-0.09-0.31-0.07-0.33
						C327.55,387.2,327.56,387.37,327.55,387.58z M327.84,388.39C327.78,388.24,327.73,388.09,327.84,388.39L327.84,388.39z
						 M344.86,419.27L344.86,419.27c-0.03-0.01-0.05-0.02-0.08-0.02C345.04,419.25,345.07,419.3,344.86,419.27z M347.77,417.46
						c-0.68,0.41-1.37,0.8-2.07,1.17c-0.23,0.12-0.46,0.24-0.7,0.35c-0.11,0.05-0.23,0.11-0.34,0.16c-1.32-1.18-2.05-2.4-3.05-4.14
						c-1.15-1.99-2.17-4.05-3.15-6.13c-1.54-3.26-3.12-6.45-4.86-9.61c-1.22-2.21-2.46-4.42-3.65-6.65
						c-0.51-0.95-1.01-1.91-1.48-2.88c-0.2-0.41-0.39-0.83-0.59-1.25c-0.01-0.02-0.02-0.04-0.03-0.07c-0.06-0.15-0.12-0.3-0.18-0.46
						c0.51-0.69,0.66-0.99,1.32-1.76c0.52-0.6,1.04-1.19,1.58-1.77c0.35,0.47,0.71,0.95,1.05,1.43c1.87,2.6,3.65,5.28,5.41,7.96
						c3.9,5.96,7.7,11.99,11.26,18.15c0.6,1.04,1.19,2.08,1.75,3.15c0.09,0.17,0.17,0.34,0.26,0.52
						C349.55,416.35,348.66,416.92,347.77,417.46z M350.6,416.21c0.01,0.02,0.03,0.07,0.07,0.14c0,0.02,0.01,0.03,0.01,0.06
						c0.03,0.17,0.04,0.13,0.03,0.03c0.03,0.07,0.06,0.14,0.06,0.14C350.64,416.64,350.59,416.31,350.6,416.21z M350.83,415.12
						c0-0.01,0.01-0.01,0.01-0.02C350.84,415.1,350.84,415.11,350.83,415.12z"/>
				</g>
			</g>
		</g>
		<g>
			<path class="st10" d="M325,184.33c-6.78-2.09-58.61,3.7-96.39,8.31c4.02,8.97,5.32,20.39,4.61,30.06
				c-0.75,10.22-2.8,20.33-3.28,30.57c-0.6,12.94,1.32,25.85,3.26,38.66c0.26,1.72,0.55,3.52,1.58,4.93c1.38,1.9,3.78,2.7,6.02,3.39
				c15.74,4.86,31.48,9.71,47.21,14.57c10.77-19.8,21.55-39.63,33.9-58.48c2.24-3.41,4.72-6.95,8.13-9.04
				c2.16-9.24,3.46-19.29,3.46-30.13C333.5,217.17,335.83,187.67,325,184.33z"/>
			<path class="st11" d="M321.91,256.34c-12.35,18.86-23.13,38.68-33.9,58.48c-15.74-4.86-31.48-9.71-47.21-14.57
				c-2.24-0.69-4.64-1.49-6.02-3.39c-1.03-1.41-1.32-3.21-1.58-4.93c-1.94-12.81-3.86-25.72-3.26-38.66
				c0.48-10.24,2.53-20.35,3.28-30.57c0.71-9.67-0.6-21.09-4.61-30.06c-22.55,2.75-40.1,5.09-40.1,5.09l1.55,23.33
				c-0.34,0.33,1.94,85.6,58.1,109.43c0,0,28,3.17,37.17-7.5c7.5-8.73,34.97-34.09,44.71-75.7
				C326.63,249.39,324.15,252.93,321.91,256.34z"/>
			<g>
				<g>
					<path class="st12" d="M295.71,207.67h-37.38c-0.55,0-1,0.45-1,1s0.45,1,1,1h8.27c0.49,2.11,2.27,6.38,8.65,6.5
						c6.52,0.13,8.71-2.5,9.99-6.5h10.47c0.55,0,1-0.45,1-1S296.26,207.67,295.71,207.67z"/>
					<path class="st13" d="M275.95,210.17c-0.01,0.1-0.04,0.19-0.04,0.29c0,1.68,1.3,3.04,2.9,3.04s2.9-1.36,2.9-3.04
						c0-0.1-0.03-0.19-0.04-0.29H275.95z"/>
				</g>
				<g>
					<path class="st12" d="M239.88,213H202.5c-0.55,0-1,0.45-1,1s0.45,1,1,1h8.27c0.49,2.11,2.27,6.38,8.65,6.5
						c6.52,0.13,8.71-2.5,9.99-6.5h10.47c0.55,0,1-0.45,1-1S240.43,213,239.88,213z"/>
					<path class="st13" d="M220.12,215.5c-0.01,0.1-0.04,0.19-0.04,0.29c0,1.68,1.3,3.04,2.9,3.04s2.9-1.36,2.9-3.04
						c0-0.1-0.03-0.19-0.04-0.29H220.12z"/>
				</g>
				<path class="st12" d="M256.93,230.31c1.49,6.32,2.97,12.64,4.46,18.96c1.09,4.65,1.62,10.72,5.79,13.77
					c0.78,0.57,1.53-0.73,0.76-1.3c-1.96-1.43-2.84-3.76-3.46-6.03c-0.75-2.73-1.33-5.52-1.97-8.28
					c-1.37-5.84-2.75-11.68-4.12-17.52C258.15,228.97,256.71,229.37,256.93,230.31L256.93,230.31z"/>
				<path class="st12" d="M259.92,288.65c3.58-0.84,7.32-0.92,10.92-0.16c3.37,0.71,6.98,1.98,9.31,4.63
					c1.07,1.21,2.83-0.56,1.77-1.77c-2.6-2.95-6.66-4.48-10.42-5.27c-4.05-0.85-8.22-0.78-12.25,0.16
					C257.69,286.61,258.35,289.02,259.92,288.65L259.92,288.65z"/>
			</g>
		</g>
		<path class="st0" d="M374.06,166.22c-0.84-6.44-10.84-15.78-11.28-21.78c-0.01-0.11-0.02-0.24-0.03-0.37
			c-4.76,4.05-9.14,8.59-13.47,13.11c-1.65,1.72-3.31,3.45-4.66,5.42c-4.74,6.92-5.15,15.85-8.23,23.65
			c-0.88-0.76-1.82-1.61-1.99-2.76c-0.09-0.59,0.05-1.19,0.18-1.78c0.37-1.62,0.73-3.24,1.1-4.86c1.13-4.99,2.28-10.02,4.43-14.66
			c4.28-9.24,12.26-16.29,20.88-21.72c0.39-0.24,0.79-0.49,1.2-0.7c-1.66-10.71-6.52-34.04-13.4-49.12c-8.22-18-11.56-14-16-20.89
			s-14.44-20-33.11-26.67s-38.13-8.74-55.56-4.44c-17.11,4.22-36.22,19.78-44.89,29.11s-17.78,22.67-22.67,36.89
			s-11.56,28.67-12.67,34.67c-0.17,0.89-0.28,1.6-0.36,2.2c2.09,5.83,4.18,11.66,6.27,17.5c1.18,3.3,2.36,6.96,1.06,10.21
			c-0.21,0.52-0.57,1.08-1.13,1.14c-0.69,0.07-1.18-0.63-1.49-1.24c-3.28-6.65-3.75-14.5-7.04-21.08c-1.79,1.51-4.51,2.66-6.2,6.38
			c-2.22,4.89-1.78,14.67-1.78,14.67s-1.41,14.44-0.04,29.11c0.89,9.5,1.59,16.19,4.25,20.7c1.35-4.19,3.05-8.26,6.07-11.4
			c3.36-3.5,8-5.45,12.58-7.02c31.02-10.66,62.02-8.88,94.74-11.17c13.52-0.95,29.71-2.02,43.23-2.91c2.13-0.14,4.31-0.26,6.37,0.32
			c2.88,0.81,9.28,20.89,30.06,27.61c7.67,2.48,13.67-6.19,18-7.19c1.45-0.34,2.51-0.62,3.39-0.92c3.73-10.15,1.54-13.45,1.33-19.13
			C373,181.11,374.9,172.67,374.06,166.22z"/>
		<g>
			<path class="st1" d="M169.73,170.38c0.56-0.06,0.92-0.62,1.13-1.14c1.31-3.25,0.13-6.91-1.06-10.21
				c-2.09-5.83-4.18-11.66-6.27-17.5c-0.47,3.42,0.16,2.64-0.97,4.91c-0.32,0.64-0.79,1.14-1.35,1.62
				c3.29,6.58,3.76,14.42,7.04,21.08C168.55,169.76,169.05,170.46,169.73,170.38z"/>
			<path class="st1" d="M336.39,186.27c3.08-7.8,3.49-16.73,8.23-23.65c1.35-1.97,3.01-3.7,4.66-5.42
				c4.33-4.52,8.71-9.06,13.47-13.11c-0.09-0.99-0.28-2.45-0.56-4.29c-0.41,0.21-0.81,0.45-1.2,0.7
				c-8.62,5.43-16.6,12.48-20.88,21.72c-2.15,4.64-3.29,9.67-4.43,14.66c-0.37,1.62-0.73,3.24-1.1,4.86
				c-0.13,0.58-0.27,1.19-0.18,1.78C334.57,184.65,335.51,185.51,336.39,186.27z"/>
			<path class="st1" d="M368.5,207.17c-4.33,1-10.33,9.67-18,7.19c-20.78-6.72-27.18-26.8-30.06-27.61
				c-2.06-0.58-4.24-0.46-6.37-0.32c-13.53,0.9-29.71,1.97-43.23,2.91c-1.11,0.08-2.22,0.15-3.33,0.22
				c-7.17-10.78-6-48.05-6.5-48.72s-42.17,0.67-44.67,0.7S212.5,155.83,212,166s-4.41,27.35-4.33,27.31
				c0.48-0.26,3.68-0.59,8.36-0.95c-13.4,1.3-26.67,3.58-39.93,8.14c-4.59,1.58-9.22,3.53-12.58,7.02
				c-3.02,3.14-4.73,7.21-6.07,11.4c1.45,2.45,3.47,4.27,6.45,5.52c8.44,3.56,26.22,1.11,27.78-6.22s-2.67-12,2.22-13.33
				s112.67-7.56,112.67-7.56l8.89-0.67c0,0,7.78,20.22,19.33,22.67s31.78,0.22,36.44-11.33c0.25-0.61,0.46-1.19,0.67-1.76
				C371.01,206.55,369.95,206.83,368.5,207.17z M244.67,151c-3.33,0.5-3,5.67-3,5.67l-11.83-0.71c0,0,1-5.46-1.5-5.13
				s-3.67,1.83-3.67,3.83s-5.83,24.5-8,27.17c-0.64,0.79,2.17-12.83,1.5-13.83c0,0-1.5,0.17-1.5-3.33s1.5-17.83,3.17-18.33
				s33.17-2.17,34-1.67s-2.67,32.83-2.67,32.83l-2.33-21.54C248.83,155.96,248,150.5,244.67,151z M247.7,190.5
				c10.71-0.54,19.44-0.93,19.78-0.95C260.82,189.97,254.23,190.24,247.7,190.5z"/>
		</g>
		<path class="st14" d="M233.11,212.67c0,0-0.04,0.13-0.11,0.36c0.07,0,0.14,0,0.21,0.01C233.14,212.8,233.11,212.67,233.11,212.67z
			"/>
		<path class="st14" d="M108.91,495.22c-2.27,0.95-3.91,1.45-3.91,1.45s1.38-0.25,3.56-0.63c0.04-0.07,0.08-0.14,0.11-0.2
			C108.75,495.66,108.83,495.45,108.91,495.22z"/>
		<path class="st10" d="M206.8,343.83c0,0-2.8,3.17-3.47,6.67s-3.22,11.6-0.83,12.83c2.39,1.23,20,7.17,22.33,8.17s6.98,3.83,4.24,4
			s-17.97-1.17-22.27-0.67s-8.97,0.68-8.97,0.68s-1.33,16.71,1.17,18.35s17.67,5.34,23.5,5.07s14.5,0.48,18.83,2.86
			c4.33,2.37,9.5,8.37,10.83,10.21c1.33,1.83,3.97,8.94,0.67,7.28c-3.31-1.66-17.5-8.45-20.67-11.45s-8.15-6.54-8.15-6.54
			s-17.52-1.29-25.35-5.12c-1,0.33-5.5,3.83-5.67,9s0.17,15.06,1.83,15.78c1.67,0.72,3,2.39,3,2.39s3,7.31,17.5,10.57
			s17.25,3.18,17.25,3.18s1.42,1.75-0.67,1.92c-2.08,0.17-29.92-2.08-36.08-14.5c0,0-0.75-0.67-0.92,1.83s-1.67,10.67-0.92,14.67
			s-0.08,7.08,3.75,11.33s8,8.25,10.08,8.92s2.83,2.33,5,3.5s15,9.33,18.75,9.25s13.75-2.58,20.58-6.75
			c6.83-4.17,19.92-19,23.25-27.08s4.25-22.76,4.42-26.51c0.17-3.74-3.83-8.07-6.83-11.87s-8.33-12.29-10.33-19.79
			s-17.75-31.58-17.75-31.58L206.8,343.83z"/>
		<path class="st1" d="M385.67,784.67l14.17,11.67c0,0,73.67-7.17,83.5-7.67c9.83-0.5,47-4,47-4l-8.67-18
			C521.67,766.67,396.83,786,385.67,784.67z"/>
		<g>
			<path class="st15" d="M264.67,314c1.67-3.67,3.83-23.67,2.83-26.33c-1-2.67-4.9-6.17-4.9-6.17s0.93-13.33,0-15.5s-9.6-16-9.6-16
				l2.25-50.91c0.14-3.15-2.38-5.78-5.53-5.78H213c-2.98,0-5.42,2.35-5.53,5.33l-1.63,43.53l10.74,11.33l-8.91,13.33h-19.16l-2.34,2
				c0,0,0.5,9.33,24.5,8.33c0,0-0.04,0.41-0.11,1.16c0.39-0.19,0.71-0.59,1.11-1.66c0.67-1.78-1.11-10.45,2.11-14.28
				s7.96-5.17,9.2-5.72c1.24-0.56,4.91-3.56,4.47-25h11.01c0,0-0.78,14.11,0.66,18.56c1.44,4.44,2.67,6,4.11,6.56
				s7.11,1.22,9.33,13.56s1.56,16.56,2.56,17.44c1,0.89,1.78-1.33,1.78,3.78s-2.56,18.67-0.78,21.22c0.97,1.39,2.92,2.19,5.01,3.18
				C262.38,316.12,263.83,315.83,264.67,314z"/>
			<path class="st16" d="M256.11,312.78c-1.78-2.56,0.78-16.11,0.78-21.22s-0.78-2.89-1.78-3.78c-1-0.89-0.33-5.11-2.56-17.44
				s-7.89-13-9.33-13.56s-2.67-2.11-4.11-6.56c-1.44-4.44-0.66-18.56-0.66-18.56h-0.06c3.18-1.99,5.3-5.51,5.3-9.54
				c0-6.21-5.04-11.25-11.25-11.25s-11.25,5.04-11.25,11.25c0,4.42,2.56,8.23,6.26,10.07c0.37,20.95-3.24,23.91-4.47,24.46
				c-1.24,0.56-5.98,1.89-9.2,5.72s-1.44,12.5-2.11,14.28c-0.4,1.07-0.72,1.47-1.11,1.66c-0.79,8.35-5.5,59.7-3.06,71.18
				c0,0,4.33,7.83,21.33,8.33s20.17-4,22.67-9.83s7.33-32.83,7.33-32.83s1.04,0.63,2.29,0.79
				C259.03,314.97,257.08,314.17,256.11,312.78z"/>
			<g>
				<circle class="st17" cx="238.45" cy="286.89" r="5.34"/>
				<path class="st18" d="M225.38,227.93c-1.3-1.58-2.08-3.6-2.08-5.8c0-5.04,4.09-9.13,9.13-9.13c0.19,0,0.37,0.02,0.56,0.03
					c-0.61,1.99-3.65,11.72-4.92,13.87C227.51,227.87,226.45,228.05,225.38,227.93z M233.21,213.04c0.58,2.26,3.69,14.15,5.24,14.93
					c0.22,0.11,0.48,0.2,0.76,0.28c1.46-1.62,2.36-3.76,2.36-6.11C241.57,217.35,237.89,213.43,233.21,213.04z M226.96,259.58
					c1.13-0.83,1.79,10.25,1.37,11.42s-7.42,9.42-9.25,10.56c-1.83,1.14-0.75-2.64-0.75-5.81s0.75-3.5,0.75-3.5
					S225.83,260.42,226.96,259.58z M245.92,262.75c0,0-1.01-3.33-2.13-2.25s-1.04,3.92,0.46,7.67s5.92,12.08,6.5,12.25
					C251.33,280.58,248.83,267.75,245.92,262.75z M220.95,285.92c0.03,3.27,0.49,6.53,1.4,9.67c0.44,1.52,0.99,3.01,1.63,4.46
					c0.52,1.19,1.06,2.4,2.35,2.9c0.75,0.29,1.08-0.92,0.33-1.21c-1.09-0.42-1.61-2.31-2-3.27c-0.53-1.33-0.98-2.69-1.34-4.08
					c-0.73-2.77-1.09-5.61-1.12-8.48C222.19,285.11,220.94,285.11,220.95,285.92L220.95,285.92z M249.36,285.92
					c-0.05-0.8-1.3-0.8-1.25,0c0.25,4.23,0.52,8.66-1.09,12.67c-0.83,2.06-2.12,3.89-3.72,5.4c-0.2-0.26-0.46-0.49-0.74-0.66
					c-0.95-0.59-2.12-0.76-3.21-0.55c-0.91,0.17-1.75,0.84-2.67,0.91c-2.29,0.17-3.31-3.4-5.73-2.83c-0.79,0.19-1.37,0.89-1.63,1.65
					c-0.26,0.76-0.26,1.59-0.24,2.4c0.07,3.48,0.37,6.96,0.88,10.41c0.13,0.87,0.29,1.78,0.82,2.48c0.71,0.94,1.94,1.33,3.11,1.47
					c1.13,0.14,2.28,0.12,3.42,0.1c1.11-0.02,2.32-0.08,3.18-0.79c0.6-0.5,0.93-1.24,1.14-1.99c0.95-3.23,0.16-6.85,1.49-9.95
					c0.17-0.39,0.36-0.8,0.46-1.21c1.91-1.65,3.46-3.72,4.46-6.06C249.87,295.12,249.63,290.42,249.36,285.92z M214.17,312.17
					c0,0-1.08-0.75-1.25,3.08s2.11,37.25,5.1,39.75c2.98,2.5,21.12,4,25.01,0s13.39-36.58,10.39-40.5c0,0-0.83-1-1.58,1.5
					s-4,15.3-21.92,14.94c0,0-9.55,0.31-11.9-8.44C215.67,313.75,215.33,312.33,214.17,312.17z"/>
			</g>
			<g>
				<g>
					<g>
						<path class="st11" d="M190.75,447.08c-0.07-0.29,0.83-13.18,0.83-13.18l-16.75,13.18c0,0,3.92,1.25,10.83,12.83
							c6.92,11.58,22.75,35.83,26.58,38.83s26.08,1,28.5-2.58s-2.42-1.58,7.33-8s33.58-16,37.42-20s5.5-9.5,7.25-13.17
							s3-10.5,3.67-15.83s0.53-7.25,1.22-10s0.95-5.17,0.95-5.17s-6.42-6.51-13.84-10.34c0,0-0.33,22.92-6.25,33.92
							s-8.58,14.42-14.17,18.5c-5.58,4.08-11.33,6-14.25,7.08s-8.17,1.42-11.5,2.17s-8.33,6.08-17.17,5.25
							c-8.83-0.83-16.42-6-18.5-10.42C200.83,465.75,191.67,451.17,190.75,447.08z"/>
					</g>
					<path class="st19" d="M232.5,526.81c-3.83-0.22-7.65-0.75-11.4-1.59c-1.46-0.33-2.92-0.7-4.41-0.7
						c-2.91-0.01-5.78,1.39-8.63,0.81c-0.54-0.11-1.06-0.32-1.55-0.56c-0.01,2.07-0.03,4.14-0.06,6.22
						c-0.44,34.89-1.78,55.56-1.78,55.56s-2.44,5.44,3.56,6.11s26.98-1.33,28.49-2c1.51-0.67,2.51-1.33,2.29-5.22
						c-0.22-3.89-0.05-8,0.03-10.33s0.97-21.56,1.19-36.89c0.05-3.55,0.07-7.78,0.06-12.23
						C237.83,526.95,235.13,526.96,232.5,526.81z"/>
					<path class="st20" d="M238.11,480l-29.31-16.15c-1.47-0.81-3.27,0.28-3.21,1.96c0.33,9.1,1.08,33.28,0.91,58.96
						c0.5,0.25,1.01,0.45,1.55,0.56c2.85,0.58,5.73-0.82,8.63-0.81c1.49,0,2.96,0.38,4.41,0.7c3.75,0.84,7.57,1.37,11.4,1.59
						c2.62,0.15,5.33,0.13,7.78-0.82c-0.03-14.77-0.36-31.88-0.61-34.1C239.33,489,240.22,481.33,238.11,480z"/>
				</g>
				<g>
					<path class="st21" d="M283.32,553.4c-1.14-1.75-3.33-2.48-5.3-1.77l-20.58,7.48c0,0-2.33-0.89-0.11,6.56
						c2.22,7.44,18.82,31.89,20.8,43c1.98,11.11,1.31,35.78,3.09,37.89c1.78,2.11,3.83,3.44,16.42,3.33
						c12.58-0.11,26.92,1.51,29.58,1.2c2.67-0.31,5.44-1.64,5-6.42c-0.44-4.78-0.66-9.11-0.89-12.67s1.44-5.78-1.22-9.44
						c-2.67-3.67-12.44-12.33-18.78-24.22C306.11,588.52,289.11,562.27,283.32,553.4z"/>
					<path class="st19" d="M262.76,561.67c-0.33,1.81,0.96,3.36,1.92,4.77c1.59,2.35,3.23,4.67,4.84,7.01
						c4.26,6.18,8.49,12.46,11.94,19.14c1.44,2.8,2.53,4.93,3.2,8.08c0.11,0.54,0.2,1.08,0.28,1.63c0.05,0.33,0.1,0.66,0.15,0.99
						c0.03,0.19,0.16,1.16,0.09,0.61c0.21,1.62,0.4,3.24,0.58,4.86c0.8,7.47,1.37,14.97,1.89,22.47c0.33,4.78,0.65,9.55,0.92,14.33
						c0.18,3.2,5.18,3.22,5,0c-0.64-11.37-1.41-22.75-2.53-34.09c-0.33-3.31-0.69-6.63-1.18-9.92c-0.42-2.85-1.28-5.44-2.43-8.08
						c-2.97-6.77-7.13-13.03-11.25-19.14c-1.99-2.95-4.03-5.86-6.05-8.78c-0.67-0.97-1.35-1.95-1.99-2.95
						c-0.2-0.31-0.38-0.63-0.57-0.94c-0.02-0.02-0.17-0.28-0.15-0.29c0.14-0.15,0.17,1.65,0.17,1.62c0.24-1.33-0.37-2.7-1.75-3.08
						C264.62,559.59,263,560.33,262.76,561.67L262.76,561.67z"/>
					<path class="st19" d="M277.47,558.22c-0.33,1.78,0.92,3.31,1.86,4.71c1.5,2.25,3.06,4.45,4.61,6.67
						c4.26,6.11,8.52,12.23,12.37,18.61c1.68,2.78,3.3,5.61,4.61,8.58c0.04,0.1,0.19,0.45-0.01-0.04c0.06,0.15,0.13,0.3,0.18,0.45
						c0.1,0.26,0.2,0.52,0.3,0.79c0.3,0.84,0.56,1.7,0.82,2.56c0.57,1.9,1.08,3.81,1.54,5.74c1.96,8.16,3.25,16.49,4.18,24.78
						c0.41,3.63,0.76,7.27,0.96,10.91c0.06,1.16,0.12,2.33,0.11,3.49c0,0.35-0.04,0.7-0.04,1.05c0.01,0.47,0.15-0.71,0.04-0.31
						c-0.01,0.03-0.02,0.06-0.03,0.1c0.5-1.55,3.41-2.02,4.39-0.56c-1.78-2.66-6.12-0.16-4.32,2.52c1.26,1.88,4.04,1.65,4.74-0.6
						c0.2-0.63,0.2-1.36,0.21-2.02c0.04-2.48-0.17-4.97-0.37-7.43c-0.68-8.4-1.79-16.79-3.33-25.07
						c-1.41-7.58-3.03-15.27-6.65-22.14c-3.56-6.77-7.93-13.13-12.27-19.42c-2.15-3.12-4.33-6.21-6.48-9.32
						c-0.69-1-1.38-2-2.03-3.03c-0.2-0.31-0.38-0.64-0.58-0.95c-0.01-0.01-0.19-0.34-0.18-0.36c0.21-0.16,0.16,1.72,0.18,1.63
						c0.25-1.33-0.37-2.7-1.75-3.08C279.33,556.14,277.72,556.89,277.47,558.22L277.47,558.22z"/>
				</g>
			</g>
		</g>
	</g>
</g>
</svg>
