<?xml version="1.0" encoding="UTF-8" standalone="no"?>
<!-- Created with Inkscape (http://www.inkscape.org/) -->

<svg
   version="1.1"
   id="svg1"
   width="729.33331"
   height="1292"
   viewBox="0 0 729.33331 1292"
   xmlns="http://www.w3.org/2000/svg"
   xmlns:svg="http://www.w3.org/2000/svg">
  <defs
     id="defs1">
    <clipPath
       clipPathUnits="userSpaceOnUse"
       id="clipPath13">
      <path
         d="M 0,0 H 547 V 969 H 0 Z"
         id="path13" />
    </clipPath>
  </defs>
  <g
     id="g1">
    <path
       id="path1"
       d="m 465.07,1.5 h 76.199 V 5.73 H 465.07 Z"
       style="fill:#ffffff;fill-opacity:1;fill-rule:nonzero;stroke:none"
       transform="scale(1.3333333)" />
    <path
       id="path2"
       d="m 234.816,0 h 76.203 v 4.227 h -76.203 z"
       style="fill:#ffffff;fill-opacity:1;fill-rule:nonzero;stroke:none"
       transform="scale(1.3333333)" />
    <path
       id="path3"
       d="m 234.387,964.773 h 76.199 V 969 h -76.199 z"
       style="fill:#ffffff;fill-opacity:1;fill-rule:nonzero;stroke:none"
       transform="scale(1.3333333)" />
    <path
       id="path4"
       d="m 541.27,1.5 h 4.23 v 80.434 h -4.23 z"
       style="fill:#ffffff;fill-opacity:1;fill-rule:nonzero;stroke:none"
       transform="scale(1.3333333)" />
    <path
       id="path5"
       d="m 540.656,446.398 h 4.23 v 76.207 h -4.23 z"
       style="fill:#ffffff;fill-opacity:1;fill-rule:nonzero;stroke:none"
       transform="scale(1.3333333)" />
    <path
       id="path6"
       d="m 0.375,446.398 h 4.227 v 76.207 H 0.375 Z"
       style="fill:#ffffff;fill-opacity:1;fill-rule:nonzero;stroke:none"
       transform="scale(1.3333333)" />
    <path
       id="path7"
       d="M 0,5.969 H 4.227 V 82.172 H 0 Z"
       style="fill:#ffffff;fill-opacity:1;fill-rule:nonzero;stroke:none"
       transform="scale(1.3333333)" />
    <path
       id="path8"
       d="M 0,1.742 H 80.43 V 5.969 H 0 Z"
       style="fill:#ffffff;fill-opacity:1;fill-rule:nonzero;stroke:none"
       transform="scale(1.3333333)" />
    <path
       id="path9"
       d="M 4.227,963.031 H 80.43 v 4.23 H 4.227 Z"
       style="fill:#ffffff;fill-opacity:1;fill-rule:nonzero;stroke:none"
       transform="scale(1.3333333)" />
    <path
       id="path10"
       d="m 0,886.828 h 4.227 v 80.434 H 0 Z"
       style="fill:#ffffff;fill-opacity:1;fill-rule:nonzero;stroke:none"
       transform="scale(1.3333333)" />
    <path
       id="path11"
       d="M 542.773,888.566 H 547 v 76.207 h -4.227 z"
       style="fill:#ffffff;fill-opacity:1;fill-rule:nonzero;stroke:none"
       transform="scale(1.3333333)" />
    <path
       id="path12"
       d="M 466.57,964.773 H 547 V 969 h -80.43 z"
       style="fill:#ffffff;fill-opacity:1;fill-rule:nonzero;stroke:none"
       transform="scale(1.3333333)" />
    <g
       opacity="0.700306"
       id="g14">
      <path
         d="M 4.602,6.344 V 962.66 H 540.656 V 6.344 Z m 268.027,85 c 64.898,0 117.508,52.793 117.512,117.918 0,31.273 -12.383,61.265 -34.418,83.383 -22.039,22.113 -51.926,34.535 -83.094,34.535 -64.899,0 -117.508,-52.793 -117.508,-117.918 0,-65.125 52.609,-117.918 117.508,-117.918 z m -77.461,271.961 h 159.941 c 45.102,0 81.411,36.437 81.411,81.695 v 277.762 c 0,45.258 -36.309,81.691 -81.411,81.691 H 195.168 c -45.102,0 -81.41,-36.433 -81.41,-81.691 V 445 c 0,-45.258 36.308,-81.695 81.41,-81.695 z"
         style="fill:#808080;fill-opacity:1;fill-rule:nonzero;stroke:none"
         transform="matrix(1.3333333,0,0,1.3333333,1.5,-0.49999999)"
         clip-path="url(#clipPath13)"
         id="path14" />
    </g>
  </g>
</svg>
