<?xml version="1.0" encoding="utf-8"?>
<!-- Generator: Adobe Illustrator 23.0.2, SVG Export Plug-In . SVG Version: 6.00 Build 0)  -->
<svg version="1.1" xmlns="http://www.w3.org/2000/svg" xmlns:xlink="http://www.w3.org/1999/xlink" x="0px" y="0px"
	 viewBox="0 0 595.28 841.89" style="enable-background:new 0 0 595.28 841.89;" xml:space="preserve">
<style type="text/css">
	.st0{fill:#1F1A1C;}
	.st1{fill:#F4C6A9;}
	.st2{fill:#78A8C6;}
	.st3{fill:#937169;}
	.st4{fill:#644A45;}
	.st5{fill:#6291A8;}
	.st6{fill:#E18A63;}
	.st7{fill:#4C474C;}
	.st8{fill:#070606;}
	.st9{fill:#F0AB8A;}
	.st10{fill:#E58F68;}
	.st11{fill:#EEA47F;}
</style>
<g id="图层_1">
</g>
<g id="图层_2">
</g>
<g id="图层_3">
	<g>
		<polygon class="st8" points="182.24,618.69 159.3,737.5 431.15,737.5 405.2,605.15 195.4,604.77 		"/>
		<g>
			<g>
				<path class="st1" d="M342.2,163.8c1.2,1.12,1.36,2.62,1.45,4.15c0.29,5.51,0.44,10.8,0.74,16.31c0.02,0.27,0.01,0.55,0.07,0.81
					c0.16,0.71-0.42,1.43,0.5,1.49c0.72,0.05,0.58-1.06,0.86-1.76c1.23-3.06,1.94-5.54,2.8-8.72c0.79-2.9,3.1-4.84,5.68-6.2
					c0.26-0.06,0.52-0.11,0.77-0.2c2.56-0.95,4.08-0.17,4.65,2.54c0.52,2.45,0.49,4.95,0.45,7.43c-0.13,7.22-1.95,14.03-5.2,20.45
					c-1.44,2.84-3.21,5.48-5.86,7.35c-1.72,1.22-3.79,1.41-5.82,1.44c-0.96,0.01-0.64-0.92-0.58-1.5c0.36-3.51,0.74-7.01,1.12-10.52
					c0.01-0.04,0.01-0.09,0.02-0.13c0.03-0.43,0.32-1.04-0.26-1.18c-0.65-0.15-0.7,0.57-0.88,0.99c-0.71,1.63-0.85,3.39-1.14,5.12
					c-1.35,7.85-1.91,15.78-2.71,23.69c-0.21,2.11-0.47,4.22-0.62,6.34c-0.22,3.23-2.18,5.57-3.99,8c-2.56,3.44-5.58,6.49-8.35,9.76
					c-3.88,4.58-7.9,9.05-11.78,13.62c-3.02,3.55-6.7,5.48-11.44,5.39c-5.11-0.1-10.22-0.05-15.33-0.07
					c-3.73-0.02-6.85-1.53-9.43-4.12c-6.72-6.76-13.12-13.83-19.49-20.92c-2.34-2.61-4.76-5.17-6.59-8.19
					c-0.64-1.05-1.01-2.19-1.09-3.43c-0.38-5.59-1.03-11.15-1.72-16.71c-0.51-4.08-1.01-8.15-1.8-12.19
					c-0.23-1.18-0.52-2.31-0.4-3.58c0.11-1.16-0.84-2.16-1.47-3.24c-0.57,0.53-0.33,1-0.29,1.41c0.37,3.46,0.74,6.92,1.2,10.36
					c0.13,0.98-0.17,1.31-1.1,1.35c-2.29,0.11-4.4-0.38-6.3-1.68c-2.51-1.71-4.27-4.02-5.71-6.69c-2.7-5.03-4.55-10.32-5.29-15.97
					c-0.47-3.6-0.4-7.23-0.16-10.83c0.24-3.77,2.85-5.09,6.18-3.3c0.31,0.17,0.58,0.45,0.99,0.35c0.28,0.21,0.56,0.41,0.84,0.62
					c-0.03,0.17,0.75-0.6,0.92-0.64c1.05,0.93,2.48,1.25,3.01,2.51c-0.13,0.29-0.18,2.62,0.13,2.76c1.14,3.1,0.77,5.88,1.9,8.98
					c0.3,0.81,0.66,1.59,1.24,2.24c0.73,0.83,1.24,0.72,1.62-0.3c0.81-2.22,0.5-4.57,0.68-6.85c0.34-4.28-0.44-8.57-0.44-12.87
					c0-0.74,0.93-1.45,1.39-1.97c1.17-1.31,2.02-3.03,3.21-4.34c0.62-0.69,0.99-0.9,0.88-1.83c-0.29-2.42-0.6-9.97-0.61-10.39
					c-0.02-1.09-0.08-2.12-0.09-3.21c-0.02-1.38-0.06-8.24,0.18-9.62c0.21-1.23,4.83-8.82,6.01-9.71c2.28-1.74,6.71-0.79,9.21-0.14
					c2.13,0.55,50.84,2.58,58.98-0.59c2.16-0.84,4.96,0.18,6.82,1.63c2.32,1.8,4.44,3.9,6.68,5.78c1,0.83,1.49,2.69,1.58,3.93
					C338.99,137.02,341.19,162.85,342.2,163.8z M229.04,174.33c0.07,0.69,0.58,0.91,0.9,1.25c1.75,1.82,3.61,3.53,5.21,5.5
					c1.15,1.43,1.97,2.78,0.47,4.5c-0.46,0.52-0.68,1.27-0.97,1.92c-0.96,2.18-1.25,4.37,0.24,6.42c1.33,1.84,2.95,3.4,4.92,4.57
					c0.42,0.25,0.86,0.69,1.33,0.26c0.42-0.39,0.16-0.94,0.02-1.41c-0.38-1.24-1.31-2.15-1.96-3.23c-1.1-1.82-1.03-3.95,0.39-5.51
					c0.65-0.72,0.64-1.23,0.19-2.01c-2.48-4.29-5.5-8.14-9.15-11.5C230.22,174.74,229.83,174.26,229.04,174.33 M358.41,173.4
					c-0.48,0-0.78,0.32-1.04,0.58c-3.38,3.43-6.13,7.32-8.44,11.53c-0.41,0.75-0.24,1.46,0.12,2.2c1.15,2.39,0.98,4.7-0.44,6.95
					c-0.6,0.95-1.09,1.97-1.58,2.98c-0.16,0.33-0.46,0.79-0.02,1.1c0.35,0.24,0.7-0.07,0.98-0.26c1.93-1.28,3.61-2.84,5-4.71
					c1.37-1.85,1.49-3.81,0.65-5.89c-0.38-0.93-0.85-1.82-1.53-2.54c-1.09-1.17-1.01-2.17-0.07-3.44c1.8-2.43,3.64-4.82,5.59-7.14
					C357.97,174.36,358.4,174.02,358.41,173.4"/>
				<path class="st1" d="M348.6,267.87c-2.95-0.93-5.5-2.68-8.28-3.95c-1.44-0.66-1.77-1.59-1.81-3.04
					c-0.2-6.64-0.5-13.28-0.78-19.91c-0.01-0.33,0.16-0.8-0.33-0.91c-0.34-0.07-0.53,0.29-0.73,0.53c-0.9,1.13-1.8,2.27-2.69,3.4
					c-5.83,7.35-11.89,14.51-18.32,21.35c-3.48,3.71-38.72-0.08-38.72-0.08s-23.17-26.35-23.5-25.68c-0.13,0.26-0.93,0.45-1.29,0.57
					c-0.35,0.12-0.26,0.54-0.3,0.84c-0.24,1.73,0.32,3.41,0.33,5.12c0.03,12.88,0.05,25.76,0.06,38.64c0,1.4-0.07,2.8-0.9,4.02
					c0.71,1.22,1.6,2.29,2.58,3.3c8.34,8.56,18.53,13.64,30.17,15.99c0.81,0.16,8.96-1.13,12.3-1.12
					c3.43,0.01,11.75,0.83,12.79,0.57c11.8-2.9,21.76-8.85,29.85-17.92c5.04-5.66,8.58-12.14,10.65-19.44
					C350.02,268.95,349.81,268.23,348.6,267.87z"/>
				<path class="st3" d="M362.47,174.02c0.84,10.55-1.43,20.4-6.88,29.47c-1.91,3.18-4.41,5.84-8.06,7.14
					c-1.2,0.43-2.45,0.68-3.71,0.71c-0.98,0.02-1.31,0.37-1.39,1.35c-0.55,6.53-1.16,13.05-1.75,19.58
					c-0.09,0.99-0.25,1.97-0.75,2.86c-0.23,0.41-0.21,0.86-0.18,1.32c0.49,7.8,0.94,15.61,1.13,23.42c0.02,0.98,0.39,1.44,1.22,1.83
					c2.03,0.97,4.02,2.03,6.03,3.05c0.24,1.03-0.14,2.15,0.48,3.12c-2.95-0.93-5.5-2.68-8.28-3.95c-1.44-0.66-1.77-1.59-1.81-3.04
					c-0.2-6.64-0.51-13.28-0.78-19.91c-0.01-0.33,0.15-0.8-0.33-0.91c-0.34-0.07-0.53,0.29-0.73,0.53c-0.9,1.13-1.8,2.27-2.69,3.4
					c-5.83,7.35-11.89,14.51-18.31,21.35c-3.48,3.71-7.52,5.78-12.77,5.76c-5.46-0.02-10.93,0.09-16.39-0.09
					c-2.42-0.08-4.63-0.71-6.67-1.97c-3.75-2.31-6.51-5.69-9.51-8.81c-1.18-1.23-14.34-15.46-17.43-19.58
					c-0.18-0.24-0.38-0.61-0.73-0.49c-0.35,0.12-0.26,0.54-0.3,0.84c-0.24,1.73,0.32,3.41,0.33,5.12
					c0.03,12.88,0.05,25.76,0.06,38.64c0,1.4-0.07,2.8-0.9,4.02c-1.1-0.77-1.64-1.99-2.34-3.06c-2.82-4.32-5.16-8.85-6.15-14
					c-0.29-1.53,0.3-2.25,1.46-2.91c1.43-0.81,2.81-1.74,4.26-2.52c1.2-0.66,1.17-3.78,1.17-4.42c-0.05-8.27-0.09-16.53-0.11-24.8
					c0-1.01-0.2-1.9-0.64-2.84c-0.93-2-0.9-4.21-1.1-6.37c-0.47-5.04-0.95-10.07-1.41-15.11c-0.07-0.75-0.18-1.3-1.16-1.23
					c-5.38,0.35-9.11-2.47-12.02-6.56c-4.87-6.82-7.35-14.54-8-22.85c-0.22-2.83-0.38-5.68,0.04-8.52c0.24-1.65,0.84-3.14,2.02-4.34
					c1.57-1.61,3.45-2.04,5.58-1.36c0.47,0.15,0.91,0.44,1.42,0.18c-0.05,1.03,0.04,2.04,0.52,2.97c-0.41,0.1-0.68-0.18-0.99-0.35
					c-3.33-1.79-5.94-0.48-6.18,3.3c-0.23,3.6-0.31,7.24,0.16,10.83c0.73,5.66,2.59,10.94,5.29,15.97c1.43,2.67,3.2,4.98,5.71,6.69
					c1.9,1.3,4.01,1.79,6.3,1.68c0.93-0.04,1.23-0.37,1.1-1.35c-0.45-3.45-0.82-6.91-1.2-10.36c-0.04-0.41-0.28-0.88,0.29-1.41
					c0.63,1.08,1.57,2.07,1.47,3.24c-0.12,1.27,0.17,2.4,0.4,3.58c0.79,4.04,1.29,8.11,1.8,12.19c0.69,5.56,1.34,11.12,1.72,16.71
					c0.08,1.24,0.45,2.37,1.09,3.43c1.83,3.02,4.25,5.58,6.59,8.19c6.37,7.09,12.77,14.16,19.49,20.92c2.58,2.59,5.7,4.11,9.43,4.12
					c5.11,0.02,10.22-0.03,15.33,0.07c4.74,0.09,8.42-1.84,11.44-5.39c3.89-4.57,7.9-9.04,11.78-13.62
					c2.77-3.27,5.79-6.32,8.35-9.76c1.81-2.42,3.77-4.76,3.99-8c0.14-2.12,0.4-4.23,0.62-6.34c0.8-7.91,1.36-15.85,2.71-23.69
					c0.3-1.73,0.43-3.49,1.14-5.12c0.18-0.42,0.24-1.15,0.88-0.99c0.58,0.14,0.29,0.75,0.26,1.18c0,0.05-0.01,0.09-0.02,0.13
					c-0.38,3.5-0.77,7.01-1.12,10.51c-0.06,0.58-0.38,1.51,0.58,1.5c2.03-0.03,4.1-0.22,5.82-1.44c2.64-1.87,4.42-4.51,5.86-7.35
					c3.26-6.42,5.07-13.23,5.2-20.45c0.05-2.48,0.07-4.98-0.45-7.43c-0.57-2.7-2.09-3.49-4.65-2.54c-0.25,0.09-0.51,0.13-0.77,0.2
					c-0.02-0.69,0.8-0.52,1.04-0.98c-0.4-0.16-0.75-0.33-1.17-0.24c-0.93,0.2-0.82-0.33-0.62-0.91c0.54,0.31,1.04,0.07,1.55-0.11
					c3.04-1.03,5.2-0.08,6.52,2.83C362.13,171.61,362.37,172.8,362.47,174.02 M229.04,174.33c0.07,0.69,0.58,0.91,0.9,1.25
					c1.75,1.82,3.61,3.53,5.21,5.5c1.15,1.43,1.97,2.78,0.47,4.5c-0.46,0.52-0.68,1.27-0.97,1.92c-0.96,2.18-1.25,4.37,0.24,6.42
					c1.33,1.84,2.95,3.4,4.92,4.57c0.42,0.25,0.86,0.69,1.33,0.26c0.42-0.39,0.16-0.94,0.01-1.41c-0.38-1.24-1.31-2.15-1.96-3.23
					c-1.1-1.82-1.03-3.95,0.39-5.51c0.65-0.72,0.64-1.23,0.19-2.01c-2.48-4.29-5.5-8.14-9.15-11.5
					C230.22,174.74,229.83,174.26,229.04,174.33 M358.41,173.4c-0.48,0.01-0.78,0.32-1.04,0.59c-3.38,3.43-6.13,7.32-8.44,11.53
					c-0.41,0.75-0.24,1.46,0.11,2.19c1.15,2.39,0.98,4.7-0.44,6.95c-0.6,0.95-1.09,1.97-1.58,2.98c-0.16,0.33-0.46,0.79-0.02,1.1
					c0.35,0.24,0.7-0.07,0.98-0.26c1.93-1.28,3.61-2.83,5-4.71c1.37-1.85,1.49-3.81,0.65-5.89c-0.38-0.93-0.85-1.82-1.53-2.54
					c-1.09-1.17-1.01-2.17-0.07-3.44c1.8-2.43,3.64-4.82,5.59-7.14C357.97,174.36,358.4,174.02,358.41,173.4"/>
				<g>
					<path class="st3" d="M286.27,219.32c1.65-0.05,2.58,0.76,3.49,1.57c2.4,2.13,5.04,2.14,7.5,0.01c1.49-1.29,3.17-2.06,5.2-1.85
						c0.4,0.04,0.88,0.02,0.89,0.6c0,0.46-0.31,0.83-0.73,0.86c-2.26,0.14-3.82,1.76-5.71,2.67c-2.45,1.19-4.76,1.17-7-0.45
						c-1.3-0.94-2.74-1.54-4.27-1.97c-0.46-0.13-1.14-0.02-1.09-0.72c0.04-0.55,0.71-0.45,1.1-0.61
						C285.92,219.29,286.26,219.32,286.27,219.32"/>
					<path class="st3" d="M306.78,217.28c-0.04,2.08-0.82,3.43-2.29,3.9c-0.21,0.07-0.44,0.21-0.62-0.01
						c-0.17-0.21-0.04-0.42,0.13-0.59c1.91-1.87,1.03-4.09,0.75-6.22c-0.04-0.3-0.22-0.59-0.34-0.88c-0.12-0.3-0.29-0.63,0.02-0.87
						c0.37-0.28,0.67-0.01,0.92,0.27C306.47,214.15,306.77,215.67,306.78,217.28"/>
					<path class="st3" d="M280.94,217.03c-0.16-1.37,0.35-2.66,1.04-3.89c0.19-0.34,0.51-0.72,0.97-0.56
						c0.6,0.22,0.24,0.66,0.13,1.02c-0.7,2.22-1.09,4.45,0,6.67c0.08,0.16,0.15,0.35-0.01,0.49c-0.26,0.21-0.51,0.08-0.74-0.07
						C281.06,219.82,280.88,218.51,280.94,217.03"/>
				</g>
				<g>
					<path class="st9" d="M276.99,237.49c0.05,0.35,1.57,0.75,2.39,1.15c1.99,0.95,4.04,1.88,6.57,2.36
						c12.94,2.44,18.19,0.01,19.59-0.76c1.71-0.94,3.9-1.02,5.13-2.81C300.13,236.72,287.51,236.17,276.99,237.49z"/>
					<path class="st4" d="M284.39,181.22c-2.94,0.22-3.75,0.31-6.7,0.53c-3.54,0.26-7.28-0.28-10.88-0.17
						c-3.59,0.11-7.07,0.84-10.43,2.13c-0.33,0.13-0.71,0.38-1.03,0.04c-0.37-0.39-0.13-0.84,0.13-1.12
						c2.88-3.19,5.67-6.41,10.62-6.26c6.45,0.2,11.24-0.04,17.66-0.8c1.04-0.12,2.82,0.31,3.32,1.63c0.01,0.02,0.02,0.04,0.02,0.06
						C287.79,179.13,286.37,181.1,284.39,181.22L284.39,181.22z"/>
					<path class="st4" d="M305.62,180.63c-1.26-0.11-2.46-0.7-3.21-1.72c-0.25-0.35-0.42-0.72-0.39-1.16
						c0.04-0.55,0.08-1.18,0.27-1.7c0.25-0.7,0.51-0.6,1.22-0.55c4.9,0.36,9.8,0.63,14.72,0.64c1.47,0,2.94-0.03,4.41-0.08
						c1.14-0.04,2.26,0.21,3.31,0.62c1.97,0.78,3.93,2.61,5.51,3.98c0.75,0.64,2.01,3.41-0.06,2.58c-1.96-0.79-3.97-1.88-6.11-2.02
						c-0.18-0.02-0.36-0.04-0.54-0.06c-3.57-0.44-7.16-0.11-10.73,0.15c-0.25,0.02-0.5,0.02-0.75-0.01L305.62,180.63z"/>
					<path class="st10" d="M310.67,237.43c-10.54-0.71-21.07-1.09-31.6,0.23c-0.74-0.01-1.48-0.02-2.22-0.04
						c0-0.28-0.01-0.56-0.01-0.84c2.92-1.08,5.81-2.23,8.76-3.2c2.15-0.71,4.29-1.5,6.7-1.01c1.4,0.28,2.91,0.08,4.38-0.13
						c2.62-0.37,5.07,0.58,7.49,1.44c2.24,0.79,4.45,1.71,6.67,2.57c0.31,0.12,0.87,0,0.82,0.52
						C311.62,237.56,311.03,237.31,310.67,237.43"/>
					<g>
						<path class="st4" d="M271.61,190.91c-2.21-0.18-3.65-1.48-3.97-3.72c-0.12-0.86-0.44-0.98-1.19-0.69
							c-1.33,0.51-2.69,0.96-4.03,1.44c-0.17-0.21-0.47-0.48-0.09-0.65c2.6-1.17,5.31-2.21,8.14-2.66c1.36-0.22,6.86-0.09,8.91,1.03
							c0.68,0.37,1.32,1.33,0.61,1.48c-0.67,0.15-1.24-0.92-2.83-0.8c-0.54,0.31-0.64,0.96-0.6,1.4
							C276.57,187.75,277.1,191.36,271.61,190.91z"/>
						<path class="st4" d="M316.89,190.91c2.21-0.18,3.65-1.48,3.97-3.72c0.12-0.86,0.44-0.98,1.19-0.69
							c1.33,0.51,2.69,0.96,4.03,1.44c0.17-0.21,0.47-0.48,0.08-0.65c-2.6-1.17-5.31-2.21-8.14-2.66c-1.36-0.22-6.86-0.09-8.91,1.03
							c-0.68,0.37-1.32,1.33-0.61,1.48c0.67,0.15,1.24-0.92,2.83-0.8c0.54,0.31,0.64,0.96,0.6,1.4
							C311.93,187.75,311.4,191.36,316.89,190.91z"/>
					</g>
				</g>
			</g>
			<g>
				<path class="st3" d="M325.65,121.37c1.9-2.89,2.69-6.06,3.07-9.4c0.52-4.53-0.89-8.72-2.42-12.86c-1.77-4.8-4.76-8.76-8.71-12
					c-2.56-2.09-5.56-3.36-8.64-4.4c-3.97-1.34-7.99-2.77-12.28-2.35c-3.64,0.36-7.22,1.13-10.75,2.1
					c-8.75,2.4-17.42,5.04-25.76,8.68c-4.26,1.86-7.67,2.32-12.15,3.62c-0.33,0.1-2.12,1.93-2.01,2.23
					c0.43,1.16-0.87,1.01-1.39,1.67c-2.39,2.99-3.84,6.49-6.28,9.43c-1.09,1.32-2.32,2.53-3.52,3.75c-0.52,0.53-1.2,0.77-1.96,0.63
					c-1.92,1.85-3.94,3.57-6.06,5.18c0.75,0.75,1.68,1.01,2.7,1.04c4.62,0.16,9.1-0.45,13.34-2.39c0.48-0.22,1-0.37,1.86-0.69
					c-1.95,2-4.05,3.04-6.21,3.97c-1.71,0.73-3.48,1.39-5.32,1.55c-1.54,0.14-2.26,0.93-2.67,2.22c-0.61,1.94-1.22,3.88-1.74,5.84
					c-0.5,1.89-0.13,2.39,1.75,2.25c4.92-0.38,8.85-2.81,11.93-6.48c2.84-3.38,5.5-6.93,8.52-10.15c1.07-1.14,2.27-1.91,4.19-1.48
					c1.98,0.45,4.12,0.17,6.18,0.57c3.9,0.75,7.29,2.56,10.47,4.83c3.84,2.74,6.71,6.38,9.41,10.18c0.16,0.22,0.41,0.44,0.19,0.7
					c-0.12,0.14-0.41,0.2-0.61,0.19c-0.31-0.01-2.77-0.71-3.05,1.07c0.13,0.3,2.14,0.93,2.66,1.04c3.35,0.74,6.73,1.37,10.08,2.09
					c2.74,0.59,5.46,0.57,8.2-0.01c8.55-1.8,16.93-4.22,25.07-7.39c2.16-0.84,3.87-0.68,5.72,0.76c2.32,1.8,4.52,3.73,6.77,5.61
					c1,0.84,1.12,2.11,1.21,3.35c0.37,5.1,0.45,10.2,0.49,15.31c0,0.49,0.16,8.44,0.69,9.1c0.88,1.09,1.68,2.27,2.69,3.21
					c1.2,1.12,1.55,2.46,1.63,3.99c0.29,5.51,0.61,11.01,0.91,16.51c0.02,0.27,0.01,0.55,0.07,0.81c0.16,0.71-0.06,1.84,0.85,1.9
					c0.72,0.05,1.02-0.98,1.3-1.68c1.23-3.06,2.24-6.21,3.1-9.38c0.79-2.9,2.51-4.88,5.09-6.24c-0.02-0.69,0.8-0.52,1.04-0.98
					c-0.4-0.16-0.75-0.33-1.17-0.24c-0.93,0.2-0.82-0.33-0.62-0.91c0.03-0.18,0.03-0.61,0.09-0.54c-0.01-0.02,1.52-6.32,1.8-8
					c0.56-3.37,1.05-6.76,1.5-10.15c0.39-2.96,0.75-5.93,1.18-8.89c0.22-1.5,0.22-4.43,0.22-4.43c-0.71-2.65-1.34-5.2-1.09-7.95
					c0.24-2.56,0.18-5.18-0.53-7.67c-0.96-3.35-2.75-6.25-5.35-8.61c-0.51-0.47-1.06-0.91-1.4-1.75c0.81,0.13,1.19,0.78,1.85,0.78
					c0.25,0,0.53,0.25,0.75-0.01c0.24-0.3,0.05-0.59-0.1-0.87c-0.8-1.5-2.03-2.65-3.19-3.84c-3.23-3.3-7.3-4.67-11.79-5.07
					c-0.76-0.07-1.53-0.17-2.27-0.32c-1.27-0.26-1.41-1.46-1.73-2.39c-1.1-3.2-2.52-6.15-5.28-8.31c-2.21-1.73-4.78-2.66-7.39-3.53
					c-0.21-0.07-0.47-0.14-0.57,0.15c-0.09,0.26,0.13,0.41,0.28,0.57c1.26,1.29,2.62,2.46,3.72,3.92c3.38,4.48,5.73,9.43,6.57,14.96
					c0.94,6.16-0.13,12.04-3.47,17.41c-0.07,0.11-0.13,0.25-0.21,0.34 M292.74,132.33c-0.6,0.3-0.78-0.19-0.99-0.6
					c-0.02-0.04-0.07-0.09-0.1-0.09c-3.07,0.25-2.91-2.37-3.62-4.15c-2.76-6.94-6.76-12.85-13.63-16.31
					c-3.72-1.87-7.68-2.77-12.02-2.08c0.3-0.66,0.67-0.68,1.01-0.77c3.93-1.09,7.8-0.93,11.74,0.17
					c7.54,2.11,12.77,6.87,16.02,13.83c1.26,2.69,2.13,5.56,2.2,8.6C293.36,131.5,293.3,132.05,292.74,132.33 M338.22,157.98
					c0.06-0.17,0.1-0.35,0.1-0.53C338.32,157.63,338.28,157.8,338.22,157.98"/>
				<path class="st4" d="M359.37,123.25c0.2,2.07,0.2,4.16,0,6.26c-0.11,1.13-0.26,2.25-0.44,3.37c-0.14,0.91-0.15,2.03-0.58,2.86
					c-0.71-2.65-1.34-5.2-1.09-7.95c0.24-2.56,0.18-5.18-0.53-7.67c-0.96-3.35-2.75-6.25-5.35-8.61c-0.51-0.47-1.06-0.91-1.4-1.75
					c0.81,0.13,1.19,0.78,1.85,0.78c0.25,0,0.53,0.25,0.75-0.01c0.24-0.3,0.06-0.59-0.1-0.87c-0.8-1.5-2.03-2.65-3.19-3.84
					c-3.23-3.3-7.3-4.67-11.79-5.07c-0.76-0.07-1.53-0.17-2.27-0.32c-1.27-0.26-1.41-1.46-1.73-2.39c-1.1-3.2-2.52-6.15-5.28-8.31
					c-2.21-1.73-4.78-2.66-7.39-3.53c-0.21-0.07-0.46-0.14-0.57,0.15c-0.09,0.26,0.13,0.41,0.28,0.57c1.26,1.29,2.62,2.46,3.72,3.92
					c3.38,4.48,5.73,9.43,6.57,14.96c0.94,6.16-0.13,12.04-3.47,17.41c-0.07,0.11-2.12,2.83-3.56,3.31c-0.8-2.3,0.9-3.69,1.85-5.14
					c1.9-2.89,2.69-6.06,3.07-9.4c0.52-4.53-0.89-8.72-2.42-12.86c-1.78-4.8-4.76-8.76-8.71-12c-2.55-2.09-5.56-3.36-8.64-4.4
					c-3.97-1.34-7.99-2.77-12.28-2.35c-3.64,0.36-7.22,1.13-10.75,2.1c-8.75,2.4-17.42,5.04-25.76,8.68c-2.33,1.01-4.66,2-7.02,2.94
					c-1.07,0.43-2.13,0.9-3.21,1.28c-0.81,0.29-1.87,0.18-2.56,0.75c-0.31,0.25-0.49,0.62-0.66,0.98c-0.8,1.67-1.73,2.92-2.95,4.3
					c-0.82,0.93-1.56,1.94-2.34,2.91c-1.98,2.45-4,4.87-6.18,7.15c-0.32,0.33-0.65,0.67-1.05,0.88c-0.41,0.21-0.92,0.28-1.32,0.07
					c0.4-0.31,0.68-0.75,0.95-1.18c2.23-3.49,4.83-6.73,7.37-10c1.2-1.54,2.39-3.09,3.67-4.57c0.76-0.88,1.55-1.73,2.5-2.4
					c1.24-0.89,2.65-1.02,4-1.62c1.45-0.65,2.83-1.44,4.28-2.09c4-1.8,8.04-3.52,12.17-4.98c8.05-2.86,16.33-5.18,24.76-6.57
					c2.46-0.4,5.22-1.11,7.71-0.65c5.71,1.06,11.19,2.21,16.2,5.31c0.21,0.13,1.22-0.09,1.5-0.08c0.65,0.02,1.3,0.08,1.95,0.17
					c1.2,0.17,2.39,0.45,3.54,0.84c5.65,1.94,10.82,6.43,12.14,12.44c0.05,0.24,0.1,0.49,0.22,0.72c0.2,0.39,0.49,0.47,0.9,0.48
					c0.51,0.01,1.05-0.08,1.56-0.01c1.9,0.26,3.96,0.55,5.73,1.29c1.74,0.73,3.39,1.69,4.88,2.85c2.06,1.6,3.85,3.56,5.31,5.73
					c0.74,1.1,1.4,2.25,1.95,3.45C357.87,115.24,358.99,119.2,359.37,123.25 M269.6,98.32c3.91,0.06,7.77,0.33,11.56,1.33
					c5.66,1.49,11.03,3.47,15,8.07c3.4,3.94,5.67,8.31,5.54,13.72c-0.09,3.93-1.84,9.24-3.67,12.64c0.25,0.19,1.97-0.96,2.07-1.08
					c5.5-6.96,6.04-16.23,3.67-21.3c-3.18-6.81-8.94-10.63-16.06-12.6C281.73,97.43,275.67,97.67,269.6,98.32 M262.38,109.1
					c4.34-0.69,8.3,0.21,12.02,2.08c6.88,3.46,10.88,9.37,13.63,16.31c0.71,1.78,0.54,6.97,3.61,6.72c0.03,0,0.07-0.04,0.09,0
					c0.21,0.4,1.78-0.29,1.93-3.29c0.14-3.03-1.27-5.91-2.53-8.59c-3.25-6.96-8.47-11.72-16.02-13.83
					c-3.94-1.1-7.81-1.26-11.74-0.17C263.05,108.43,262.67,108.45,262.38,109.1 M281.23,128.93c0.16,0.22,0.41,0.44,0.19,0.7
					c-0.12,0.14-0.41,0.2-0.61,0.19c-0.31-0.01-2.94,0.58-3.06,1.02c-0.84,0.02-1.96-0.58-2.77-0.83
					c-3.31-1.05-6.66-2.08-10.02-2.92c-0.84-0.24-1.68-0.59-2.54-0.74c-1-0.17-2.02-0.26-3.04-0.17c-1.58,0.15-2.8,1.44-3.89,2.47
					c-1.31,1.24-2.53,2.58-3.57,4.04c-0.48,0.67-0.91,1.36-1.31,2.08c-0.67,1.19-0.65,2.54-0.71,3.87
					c-0.06,1.42-0.09,2.84-0.09,4.26c-0.01,5.51,0.25,10.96,0.89,16.43c0.11,0.93-0.06,1.67-0.69,2.36c-1.18,1.3-2.33,2.64-3.5,3.96
					c-0.47,0.52-0.77,1.07-0.77,1.81c0.01,4.3-0.22,8.59-0.56,12.87c-0.18,2.29,0.14,4.63-0.68,6.85c-0.37,1.02-0.89,1.13-1.62,0.3
					c-0.57-0.65-0.94-1.42-1.24-2.24c-1.13-3.1-4.69-12.46-5.74-13.4c0.02-0.16-0.03-0.25-0.21-0.2l-0.84-0.62
					c-0.53-0.39-0.43-1.52-0.54-2.09c-0.19-0.98-0.4-1.95-0.6-2.92c-0.4-1.9-0.82-3.8-1.22-5.71c-1.25-5.86-2.32-11.83-2.73-17.82
					c-0.08-1.18-0.15-2.36-0.16-3.55c-0.01-0.92,0.13-1.9-0.3-2.75c-0.11-0.21-0.34-0.38-0.57-0.34c-0.23,0.04-0.38,0.24-0.51,0.43
					c-0.31,0.45-1.33,2.47-1.89,2.31c-0.48-0.14-0.08-0.75-0.06-1.05c0.04-0.59-0.16-1.28-0.2-1.87c-0.09-1.33-0.07-2.66,0.05-3.99
					c0.25-2.65,0.92-5.26,2.02-7.68c0.34-0.75,0.86-1.51,0.83-2.36c-0.03-0.72-0.71-0.86-1.24-1.1c-0.66-0.3-1.23-0.77-1.79-1.22
					c-0.19-0.15-0.38-0.31-0.48-0.52c-0.39-0.84,0.86-0.92,1.32-1.13c0.75,0.75,1.68,1.01,2.7,1.04c4.62,0.16,9.1-0.45,13.34-2.39
					c0.48-0.22,1-0.37,1.86-0.69c-1.95,2-4.05,3.04-6.21,3.97c-1.71,0.73-3.48,1.39-5.32,1.55c-1.54,0.14-2.26,0.93-2.67,2.22
					c-0.61,1.94-1.22,3.88-1.73,5.84c-0.5,1.89-0.13,2.39,1.75,2.25c4.92-0.38,8.85-2.81,11.93-6.48c2.84-3.38,5.5-6.93,8.52-10.15
					c1.07-1.14,2.27-1.91,4.19-1.48c1.98,0.45,4.12,0.17,6.18,0.57c3.9,0.75,7.29,2.56,10.47,4.83
					C275.66,121.48,278.54,125.13,281.23,128.93 M249.45,140.89c0-0.05,0.03-0.1,0.08-0.15
					C249.48,140.79,249.45,140.84,249.45,140.89 M249.62,137.27c0.01-0.09,0.05-0.17,0.11-0.25
					C249.67,137.1,249.63,137.19,249.62,137.27 M250.29,134.59c0.03-0.04,0.08-0.07,0.15-0.08
					C250.37,134.53,250.32,134.55,250.29,134.59 M247.98,135.91c1.2-1.34,2.32-2.79,3.77-3.9
					C250.3,133.12,249.18,134.56,247.98,135.91 M260.54,125.69c0.16,0,0.32,0.04,0.48,0.12
					C260.87,125.74,260.71,125.7,260.54,125.69 M264.91,126.57c0.23,0.06,0.46,0.14,0.67,0.27
					C265.37,126.71,265.14,126.63,264.91,126.57 M268.15,127.47c0.23,0.1,0.44,0.24,0.65,0.41
					C268.59,127.71,268.38,127.57,268.15,127.47"/>
			</g>
		</g>
		<g>
			<g>
				<path class="st10" d="M76.37,429.48c0.56-2.66,7.92-43.74,13.86-77.43l-27.02,17.79c0,0-64.26,71.93-31.77,77.15
					c10.9,1.75,26.66-1.26,42.78-6.04c0.55-2.67,0.47-4.75,0.78-5.83C75.54,433.26,75.97,431.38,76.37,429.48z"/>
				<path class="st1" d="M147.63,388.83c-7.96-17.53-24.81-58.24-24.81-58.24l-32.59,21.46c-5.94,33.69-13.3,74.77-13.86,77.43
					c-0.4,1.9-0.82,3.78-1.36,5.65c-0.31,1.07-0.23,3.16-0.78,5.83c31.93-9.46,65.3-25.84,65.3-25.84S155.59,406.35,147.63,388.83z"
					/>
			</g>
			<path class="st1" d="M163.81,207.92c-2.44-2.38-5.33-2.29-8.32-1.38c-4.84,1.47-8.48,4.56-11.47,8.55
				c-2.22,2.96-4.24,6.06-6.68,8.85c-0.5,0.57-0.95,0.65-1.57,0.39c-0.28,0.13,0.65,0.45-0.08,0.51c-0.89,1.24-2.33,1.43-3.64,1.79
				c-4.95,1.35-9.9,2.68-14.42,5.19c-3.95,2.19-8.9,3.51-13.36,13.87c-0.01,0.08-0.03,0.16-0.04,0.24c0.02-0.08,0.03-0.16,0.04-0.24
				c-0.69-0.32-0.33-0.84-0.18-1.24c0.66-1.75,1.22-3.57,2.1-5.21c1.31-2.43,2.98-4.63,5.12-6.43c0.86-0.72,1.61-1.58,2.51-2.22
				c3.72-2.61,7.84-4.28,12.27-5.28c2.2-0.5,9.31,1.84,9.99,1.51c0.34,0.07-0.74-2.05-0.4-1.98c0.73-0.07-0.2-0.38,0.07-0.52
				c-0.74-0.26,1.3-19.18,2.13-23.23c0.78-3.82,1.58-7.63,2.37-11.44c0.52-2.39,1.01-4.79,1.52-7.19c0.9-4.29,1.81-8.58,2.71-12.87
				c0.35-1.66,0.7-3.33,1.05-4.99c0.33-1.58,0.64-3.17,0.87-4.77c0.24-1.71,0.63-3.48-0.01-5.14c-0.71-1.82-2.37-3.9-4.48-3.99
				c-1.4-0.06-2.94,0.48-3.93,1.49c-0.83,0.86-1.27,2.08-1.5,3.23c-0.28,1.41-0.71,2.8-1.09,4.19c-0.77,2.81-1.54,5.61-2.31,8.41
				c-0.38,1.38-0.76,2.77-1.15,4.15c-0.19,0.69-0.38,1.38-0.57,2.07c-0.15,0.55-0.51,1.28-0.51,1.85c-0.49,1.78-0.95,3.57-1.46,5.35
				c-0.04,0.01-0.1,0.01-0.1,0.03c-0.02,0.06-0.02,0.13-0.02,0.19c-0.66,1.55-5.03,13.19-4.79,13.58c-0.05,0.14-0.11,0.29-0.16,0.43
				c-0.67,0.34-0.92,0.32-0.81-0.6c0.56-4.4,1.72-8.68,2.36-13.07c0.53-3.63,1.35-7.22,2.03-10.83c0.7-3.73,1.4-7.46,2.1-11.18
				c0-1,0.41-2.14,0.6-3.13c0.22-1.15,0.43-2.3,0.64-3.45c0.43-2.3,0.85-4.61,1.3-6.91c0.82-4.18-0.97-6.83-5.14-7.54
				c-2.62-0.45-4.82,0.9-5.36,3.48c-1.53,7.31-3.34,14.55-5.08,21.8c0,0.92-0.5,2.07-0.71,2.97c-0.25,1.03-0.49,2.05-0.74,3.08
				c-0.48,1.98-0.95,3.97-1.49,5.94c-0.29,1.06-2.96,12.05-3.17,13.23c-0.11,0.59-1.02,3.43-1.43,3.68
				c-0.02-0.43-0.08-0.76-0.04-1.07c0.4-3.15,0.78-6.3,1.23-9.44c0.56-3.94,1.13-7.87,1.76-11.8c0.96-5.96,1.97-11.9,2.96-17.86
				c0.22-1.35,0.49-2.7,0.59-4.06c0.07-0.99,0.01-2.01-0.53-2.93c-1.1-1.88-2.84-2.74-4.97-2.43c-2.43,0.35-4.29,1.84-4.78,3.86
				c-0.8,3.33-1.51,6.68-2.28,10.01c-1.93,8.4-3.63,16.85-5.41,25.28c-0.11,0.51-2.38,11.66-2.94,12.51
				c-0.12-0.18-0.41-4.08-0.28-5.07c0.05-0.3,0.8-6.16,0.95-7.59c0.43-4.19,0.88-8.37,1.47-12.55c0.3-2.11,0.61-4.21,0.79-6.33
				c0.08-0.9-0.07-1.84-0.57-2.67c-1.06-1.78-2.66-2.5-4.92-2.17c-1.93,0.27-3.64,1.82-4.07,3.8c-0.96,4.45-1.88,8.91-2.81,13.37
				c-0.06,0.3-1.59,7.6-1.89,10.5c-0.47,4.55-1.05,9.09-1.53,13.64c-0.5,4.75-1.41,9.46-2,14.2c-0.52,4.18-1.08,8.35-1.41,12.56
				c-0.51,6.58-0.14,13.08,1.03,19.55c0.57,3.13,0.76,6.11-0.92,9.07c-1.68,2.96-3.04,6.11-4.5,9.19
				c-4.23,8.94-8.72,17.75-13.18,26.57c-4.51,8.91-9.11,17.75-13.76,26.59c-4.6,8.76-9.19,17.52-14.02,26.16
				c-1.81,3.24-3.62,6.49-5.38,9.76c-2.06,3.82-20.18,47.55-20.49,50.7c-0.46,4.76,0,9.45,0.51,14.18c0.5,4.6,1.21,9.2,2.68,13.6
				c0.9,2.69,2.13,5.25,4.13,7.3c0.38,0.39,0.78,0.77,1.2,1.13c2.67,2.29,5.79,3.8,9.14,4.71c4.92,1.34,9.92,1.98,15.04,1.24
				c4.94-0.71,9.5-2.41,13.73-4.97c1.99-1.2,4.05-2.41,5.64-4.11c5.43-5.81,5.28-11.51,6.1-13.46c0.75-1.79,1.4-3.61,2.02-5.45
				c1.38-4.1,31.46-103.15,35.23-116.71c3.21-11.54,6.59-23.02,10.34-34.4c0.52-1.58,0.91-3.19,1.5-4.75
				c0.23-0.62,0.58-0.94,1.07-1.16c4.16-1.87,14.24-7.92,14.52-8.13c2.24-1.7,12.37-7.84,16.12-15.69
				c2.94-6.15,6.63-11.85,10.93-17.15c2-2.47,4.32-4.63,6.48-6.96C165.92,211.58,165.89,209.94,163.81,207.92"/>
			<path class="st11" d="M81.05,251.45c0.84,0.13,1.33,0.85,2.05,1.19c2.16,1,4.23,2.21,6.53,2.86c0.04,0.01,0.08,0.03,0.11,0.04
				c1.23,0.48,1.24,0.57,0.27,1.5c-2.06-0.16-4.14,0.09-6.2-0.14c-1.16-0.13-2.29-0.38-3.41-0.66c-0.64-0.16-1.05-0.72-0.77-1.38
				C80.11,253.72,80.34,252.48,81.05,251.45"/>
			<g>
				<path class="st10" d="M135.7,224.85c-0.89,1.24-2.33,1.43-3.64,1.79c-4.95,1.35-9.9,2.68-14.42,5.19
					c-3.95,2.19-12.43,11.78-12.47,12.09c-0.29,0.59-0.43,1.27-0.89,1.78c-0.69-0.32-0.33-0.84-0.17-1.24
					c0.66-1.75,1.22-3.57,2.1-5.21c1.31-2.43,2.98-4.63,5.12-6.43c0.86-0.72,1.6-1.58,2.51-2.22c3.72-2.61,7.84-4.28,12.27-5.28
					c2.19-0.5,4.42-0.64,6.64-0.84C133.4,224.51,135.36,224.78,135.7,224.85"/>
				<path class="st10" d="M127.49,212.97c0.73,0.49-0.42,0.56-0.21,0.94c-0.99-0.12-1.88,0.36-2.79,0.58
					c-2.53,0.61-5.11,0.96-7.64,1.49c-4.65,0.98-9.36,1.45-14.06,1.98c-3.05,0.34-6.1,0.67-9.17,0.75c-0.33-0.04-0.67-0.25-1,0.03
					c-0.64-0.11-1.31,0.09-1.95-0.15c-0.48-0.18-1.28,0.01-1.03-0.95c0.23-0.23,0.5-0.13,0.76-0.09c0.31,0.06,0.5-0.07,0.59-0.36
					c2.61,0.15,5.1-0.69,7.65-1.02c4.59-0.6,9.14-1.45,13.74-2c3.88-0.46,7.76-0.75,11.65-1.02
					C125.18,213.07,126.33,212.9,127.49,212.97"/>
			</g>
		</g>
		<g>
			<g>
				<path class="st10" d="M518.91,427.4c-0.56-2.66-7.92-43.74-13.86-77.43l27.02,17.79c0,0,64.26,71.93,31.77,77.15
					c-10.9,1.75-26.66-1.26-42.78-6.04c-0.54-2.67-0.47-4.75-0.78-5.83C519.73,431.18,519.31,429.3,518.91,427.4z"/>
				<path class="st1" d="M447.65,386.75c7.96-17.53,24.81-58.24,24.81-58.24l32.59,21.46c5.94,33.69,13.3,74.77,13.86,77.43
					c0.4,1.9,0.82,3.78,1.36,5.65c0.31,1.07,0.23,3.16,0.78,5.83c-31.93-9.46-65.3-25.84-65.3-25.84S439.69,404.27,447.65,386.75z"
					/>
			</g>
			<path class="st1" d="M431.46,205.84c2.44-2.38,5.33-2.29,8.32-1.38c4.84,1.47,8.48,4.56,11.47,8.55
				c2.22,2.96,4.24,6.06,6.68,8.85c0.5,0.57,0.95,0.65,1.57,0.39c0.28,0.13-0.65,0.45,0.08,0.51c0.89,1.24,2.33,1.43,3.64,1.79
				c4.95,1.35,9.9,2.68,14.42,5.19c3.95,2.19,8.9,3.51,13.36,13.87c0.01,0.08,0.03,0.16,0.04,0.24c-0.02-0.08-0.03-0.16-0.04-0.24
				c0.69-0.32,0.33-0.84,0.18-1.24c-0.66-1.75-1.22-3.57-2.1-5.21c-1.31-2.43-2.98-4.63-5.12-6.43c-0.86-0.72-1.61-1.58-2.51-2.22
				c-3.72-2.61-7.84-4.28-12.27-5.28c-2.2-0.5-9.31,1.84-9.99,1.51c-0.34,0.07,0.74-2.05,0.4-1.98c-0.73-0.07,0.2-0.38-0.07-0.52
				c0.74-0.26-1.3-19.18-2.13-23.23c-0.78-3.82-1.58-7.63-2.37-11.44c-0.52-2.39-1.01-4.79-1.52-7.19
				c-0.9-4.29-1.81-8.58-2.71-12.87c-0.35-1.66-0.7-3.33-1.05-4.99c-0.33-1.58-0.64-3.17-0.87-4.77c-0.24-1.71-0.63-3.48,0.01-5.14
				c0.71-1.82,2.37-3.9,4.48-3.99c1.4-0.06,2.94,0.48,3.93,1.49c0.83,0.86,1.27,2.08,1.5,3.23c0.28,1.41,0.71,2.8,1.09,4.19
				c0.77,2.81,1.54,5.61,2.31,8.41c0.38,1.38,0.76,2.77,1.15,4.15c0.19,0.69,0.38,1.38,0.57,2.07c0.15,0.55,0.51,1.28,0.51,1.85
				c0.49,1.78,0.95,3.57,1.46,5.35c0.04,0.01,0.1,0.01,0.1,0.03c0.02,0.06,0.02,0.13,0.02,0.19c0.66,1.55,5.03,13.19,4.79,13.58
				c0.05,0.14,0.11,0.29,0.16,0.43c0.67,0.34,0.92,0.32,0.81-0.6c-0.56-4.4-1.72-8.68-2.36-13.07c-0.53-3.63-1.35-7.22-2.03-10.83
				c-0.7-3.73-1.4-7.46-2.1-11.18c0-1-0.41-2.14-0.6-3.13c-0.22-1.15-0.43-2.3-0.64-3.45c-0.43-2.3-0.85-4.61-1.3-6.91
				c-0.82-4.18,0.97-6.83,5.14-7.54c2.62-0.45,4.82,0.9,5.36,3.48c1.53,7.31,3.34,14.55,5.08,21.8c0,0.92,0.5,2.07,0.71,2.97
				c0.25,1.03,0.49,2.05,0.74,3.08c0.48,1.98,0.95,3.97,1.49,5.94c0.29,1.06,2.96,12.05,3.17,13.23c0.11,0.59,1.02,3.43,1.43,3.68
				c0.02-0.43,0.08-0.76,0.04-1.07c-0.4-3.15-0.78-6.3-1.23-9.44c-0.56-3.94-1.13-7.87-1.76-11.8c-0.96-5.96-1.97-11.9-2.96-17.86
				c-0.22-1.35-0.49-2.7-0.59-4.06c-0.07-0.99-0.01-2.01,0.53-2.93c1.1-1.88,2.84-2.74,4.97-2.43c2.43,0.35,4.29,1.84,4.78,3.86
				c0.8,3.33,1.51,6.68,2.28,10.01c1.93,8.4,3.63,16.85,5.41,25.28c0.11,0.51,2.38,11.66,2.94,12.51c0.12-0.18,0.41-4.08,0.28-5.07
				c-0.05-0.3-0.8-6.16-0.95-7.59c-0.42-4.19-0.88-8.37-1.47-12.55c-0.3-2.11-0.61-4.21-0.79-6.33c-0.08-0.9,0.07-1.84,0.57-2.67
				c1.06-1.78,2.66-2.5,4.92-2.17c1.93,0.27,3.64,1.82,4.07,3.8c0.96,4.45,1.88,8.91,2.81,13.37c0.06,0.3,1.59,7.6,1.89,10.5
				c0.47,4.55,1.05,9.09,1.53,13.64c0.5,4.75,1.41,9.46,2,14.2c0.52,4.18,1.08,8.35,1.41,12.56c0.51,6.58,0.14,13.08-1.03,19.55
				c-0.57,3.13-0.76,6.11,0.92,9.07c1.68,2.96,3.04,6.11,4.5,9.19c4.23,8.94,8.72,17.75,13.18,26.57
				c4.51,8.91,9.11,17.75,13.76,26.59c4.6,8.76,9.19,17.52,14.02,26.16c1.81,3.24,3.62,6.49,5.38,9.76
				c2.06,3.82,20.18,47.55,20.49,50.7c0.46,4.76,0,9.45-0.51,14.18c-0.5,4.6-1.21,9.2-2.68,13.6c-0.9,2.69-2.13,5.25-4.13,7.3
				c-0.38,0.39-0.78,0.77-1.2,1.13c-2.67,2.29-5.79,3.8-9.14,4.71c-4.92,1.34-9.92,1.98-15.04,1.24c-4.94-0.71-9.5-2.41-13.73-4.97
				c-1.99-1.2-4.05-2.41-5.64-4.11c-5.43-5.81-5.28-11.51-6.1-13.46c-0.75-1.79-1.4-3.61-2.02-5.45
				c-1.38-4.1-31.46-103.15-35.23-116.71c-3.21-11.54-6.59-23.02-10.34-34.4c-0.52-1.58-0.91-3.19-1.5-4.75
				c-0.23-0.62-0.58-0.94-1.07-1.16c-4.16-1.87-14.24-7.92-14.52-8.13c-2.24-1.7-12.37-7.84-16.12-15.69
				c-2.94-6.15-6.63-11.85-10.93-17.15c-2-2.47-4.32-4.63-6.48-6.96C429.35,209.5,429.39,207.86,431.46,205.84"/>
			<path class="st11" d="M514.22,249.37c-0.84,0.13-1.33,0.85-2.05,1.19c-2.16,1-4.23,2.21-6.53,2.86
				c-0.04,0.01-0.08,0.03-0.11,0.04c-1.23,0.48-1.24,0.57-0.27,1.5c2.06-0.16,4.14,0.09,6.2-0.14c1.16-0.13,2.29-0.38,3.41-0.66
				c0.64-0.16,1.05-0.72,0.77-1.38C515.16,251.64,514.94,250.4,514.22,249.37"/>
			<g>
				<path class="st10" d="M459.58,222.77c0.89,1.24,2.33,1.43,3.64,1.79c4.95,1.35,9.9,2.68,14.42,5.19
					c3.95,2.19,12.43,11.78,12.47,12.09c0.29,0.59,0.43,1.27,0.89,1.78c0.69-0.32,0.33-0.84,0.17-1.24
					c-0.66-1.75-1.22-3.57-2.1-5.21c-1.31-2.43-2.98-4.63-5.12-6.43c-0.86-0.72-1.6-1.58-2.52-2.22c-3.72-2.61-7.84-4.28-12.27-5.28
					c-2.19-0.5-4.42-0.64-6.64-0.84C461.88,222.43,459.91,222.7,459.58,222.77"/>
				<path class="st10" d="M467.78,210.89c-0.73,0.49,0.42,0.56,0.21,0.94c0.99-0.12,1.88,0.36,2.79,0.58
					c2.53,0.61,5.11,0.96,7.64,1.49c4.65,0.98,9.36,1.45,14.06,1.98c3.05,0.34,6.1,0.67,9.17,0.75c0.33-0.04,0.67-0.25,1,0.03
					c0.64-0.11,1.31,0.09,1.95-0.15c0.48-0.18,1.28,0.01,1.03-0.95c-0.23-0.23-0.5-0.13-0.76-0.09c-0.31,0.06-0.5-0.07-0.59-0.36
					c-2.61,0.15-5.1-0.69-7.65-1.02c-4.59-0.6-9.14-1.45-13.74-2c-3.88-0.46-7.76-0.75-11.65-1.02
					C470.09,210.99,468.94,210.82,467.78,210.89"/>
			</g>
		</g>
		<path class="st8" d="M175.74,431.82c3.33,16.84,8.65,49.62,10.76,95.49c1.17,25.41,1.9,42.93,2.36,54.95
			c-1.73,5.09-3.45,10.19-5.17,15.28c-1.2,3.54-2.32,7.07-1.34,10.9c0.26,1.01-0.88,16.56-0.5,17.52
			c9.77,1.84,21.01-10.81,30.9-9.68c12.49,1.42,25.11,1.57,37.65,2.3c13.65,0.79,27.3,1.74,40.94,2.73
			c16.01-0.6,31.99-1.92,47.92-3.66c18.13-1.99,36.19-4.56,54.31-6.64c6.44-0.74,7.45,0.6,13.88-0.59c0.9-3.75,1.5-6.77,0.75-13.16
			c-0.63-5.34-1.13-7.52-1.8-14.99c0.46-12.02,1.19-29.53,2.36-54.95c2.11-45.86,7.39-86.55,10.72-103.39
			c3.65,1.27,28.94,18.81,34.09,9.02c7.3-13.88,46.34-91.34,42.11-97.76c-4.4-6.69-50.6-35.79-64.34-46.92
			c0.11-0.59-5.6-3.05-5.92-3.15c-11.24-3.75-82.16-23.39-81.52-22.3c0.08,0.13-0.54,31.43-25.19,40.23
			c-4.51,1.61-35.34,3.76-45.68-0.38c-25.85-10.34-25.67-35.35-25.58-35.5c0.64-1.09-84.1,19.44-85.44,20.51
			c-0.26,0.21-0.29,0.59-0.18,1.18c-2.81,2.38-58.34,43.31-62.74,50c-4.22,6.42,32.74,80.84,40.04,94.72
			C144.3,443.36,172.09,433.1,175.74,431.82z"/>
		<g>
			<path class="st1" d="M272.09,639.2c1.55-1.89,3.57-2.94,5.98-3.06c10.46-0.51,20.94-0.75,31.41-0.89
				c2.33-0.03,3.54,1.93,2.72,4.17c-0.22,0.61-0.74,0.5-1.19,0.52c-5.63,0.25-11.27,0.47-16.9,0.75c-4.31,0.21-8.62,0.44-12.92,0.75
				c-2.94,0.21-3.74,1.13-3.78,4.01c-0.03,2.09,0.05,4.17-0.05,6.26c-0.06,1.24,0.41,1.51,1.57,1.44c1.89-0.11,3.79-0.05,5.69-0.07
				c1.34-0.02,1.8,0.72,1.88,1.96c0.09,1.27-0.48,1.86-1.69,1.93c-2.13,0.12-4.26,0.3-6.39,0.33c-0.97,0.01-1.08,0.45-1.05,1.23
				c0.1,2.56,0.13,5.12,0.25,7.67c0.09,1.97,1.14,2.96,3.22,2.96c4.69,0,9.39-0.04,14.08-0.12c5.31-0.09,10.62-0.2,15.92-0.37
				c1.12-0.03,1.61,0.18,1.57,1.45c-0.1,2.64-0.17,2.84-2.79,2.96c-10.28,0.45-20.56,0.85-30.83,1.29c-2.74,0.12-4.88-0.96-6.5-3.12
				c-0.75-1-1.22-2.13-1.26-3.41c-0.25-8.15-0.16-16.31-0.13-24.46c0-0.61,0.13-1.22,0.21-1.83
				C271.47,640.77,271.95,640.05,272.09,639.2"/>
			<path class="st2" d="M162.16,737.38c1.1-5.32,2.26-10.64,3.29-15.98c0.97-5.01,1.85-10.04,2.71-15.07
				c0.47-2.74,0.7-2.96,3.46-3.06c10-0.36,19.79-1.78,29.07-5.74c5.31-2.26,10.09-5.32,14.27-9.34c6.16-5.93,9.96-13.12,11.87-21.38
				c0.32-1.38,0.95-2.68,1.13-4.1c0.05-0.37,0.03-0.87,0.57-0.79c0.48,0.07,0.48,0.56,0.4,0.93c-0.35,1.62-0.74,3.22-1.09,4.84
				c-0.94,4.36-0.94,4.4,3.34,5.68c2.53,0.76,5.06,1.55,7.73,1.77c1.22,0.1,1.85-0.39,2.09-1.57c0.44-2.13,0.99-4.23,1.42-6.36
				c0.48-2.41,0.75-2.64,3.19-2.19c2.47,0.46,4.92,0.99,7.39,1.4c5.08,0.84,10.18,1.63,15.27,2.4c1.11,0.17,1.81,0.42,2.12,1.77
				c0.54,2.34,2.26,3.76,4.43,4.82c2.08,1.02,4.22,0.88,6.37,0.79c1.28-0.05,1.58,0.4,1.61,1.62c0.47,19.29,0.11,38.57,0.19,57.86
				c0,0.57,0.05,1.13,0.07,1.7H162.16z M426.21,737.38c0.12-2.06-0.61-3.99-0.96-5.97c-1.06-5.99-4.16-21.76-4.28-22.31
				c-0.49-2.17-1.07-4.33-1.43-6.52c-0.17-1-0.62-1.12-1.42-1.07c-5.78,0.35-11.54,0.33-17.31-0.28c-9.98-1.06-19.59-3.22-28.4-8.29
				c-5.52-3.18-9.95-7.43-13.55-12.65c-1.6-2.32-2.76-4.85-3.84-7.43c-0.3-0.72-0.56-1.03-1.46-0.62c-3.03,1.39-6.29,2.05-9.53,2.74
				c-2.19,0.46-3.07-0.25-3.42-2.53c-0.28-1.83-0.62-3.64-0.93-5.46c-0.15-0.87-0.54-1.17-1.48-0.95
				c-7.71,1.79-15.52,2.97-23.39,3.77c-1.15,0.12-1.4,0.61-1.35,1.64c0.13,2.88,0.28,5.76,0.27,8.64
				c-0.02,9.04-0.12,18.09-0.17,27.13c-0.03,6.07-0.07,12.13-0.04,18.2c0.02,3.82-1.02,7.28-3.15,10.44
				c-0.3,0.44-0.81,0.85-0.52,1.52H426.21z M304.43,737.38c3.95-3.67,5.62-8.13,5.53-13.59c-0.2-12.42-0.07-24.85-0.08-37.27
				c0-3.37-0.03-6.73,0.02-10.1c0.01-1.05-0.32-1.51-1.39-1.37c-0.33,0.04-0.66,0.01-0.99,0.04c-6.37,0.53-12.75,0.9-19.14,1.07
				c-1.34,0.04-1.7,0.51-1.68,1.78c0.05,3.3-0.04,6.61-0.03,9.92c0.02,5.2-0.01,10.4-0.07,15.6c-0.06,5.09-0.06,10.19-0.07,15.29
				c0,6.21-0.02,12.43-0.03,18.64H304.43z M411.19,689.72c0.99-0.24,2.51-0.05,4.03-0.11c1.71-0.07,1.78-0.16,1.43-1.83
				c-1.37-6.58-2.81-13.14-4.33-19.68c-1.35-5.85-2.53-11.74-3.8-17.61c-0.45-2.08-0.65-2.22-2.66-1.55
				c-5.55,1.86-11.18,3.44-16.83,4.97c-8.63,2.33-17.25,4.75-25.97,6.72c-1.78,0.4-2.05,0.81-1.15,2.4c1,1.77,1.45,3.78,2.59,5.48
				c1.88,2.83,3.39,5.94,5.91,8.29c5.07,4.74,11.03,7.99,17.68,9.89C395.46,688.81,403.04,689.59,411.19,689.72 M180.66,647.86
				c-0.7-0.01-0.75,0.42-0.85,0.85c-0.47,2.13-0.96,4.25-1.45,6.37c-0.62,2.68-0.62,2.67,1.92,3.4c8,2.32,16.01,4.58,23.98,6.98
				c3.96,1.19,3.8,1.21,3.16,5.34c-0.49,3.13-1.25,6.21-1.88,9.32c-0.09,0.43-0.48,1.01,0.06,1.28c0.5,0.25,0.76-0.41,1.13-0.68
				c0.23-0.17,0.41-0.39,0.62-0.59c5.79-5.6,9.28-12.59,12.05-20.01c0.3-0.82-0.09-1.02-0.7-1.19c-2.1-0.58-4.18-1.21-6.29-1.73
				c-9.19-2.29-18.29-4.86-27.26-7.89C183.62,648.81,182.08,648.33,180.66,647.86 M172.5,691.83c2.63-0.16,5.31-0.38,7.98-0.73
				c5.27-0.7,10.43-1.79,15.35-3.87c0.8-0.34,1.2-0.82,1.34-1.64c0.49-2.89,0.94-5.79,1.56-8.65c0.27-1.23-0.2-1.63-1.23-1.87
				c-1.61-0.38-3.22-0.76-4.81-1.24c-5.2-1.58-10.54-2.67-15.66-4.5c-1.2-0.43-1.72-0.21-1.96,1.21c-0.7,4.14-1.61,8.25-2.41,12.38
				c-0.5,2.55-0.95,5.11-1.43,7.67C171.04,691.57,171.4,692.04,172.5,691.83 M411.21,698.5c2.27-0.14,4.36,0.06,6.44-0.21
				c0.87-0.11,1.13-0.51,0.95-1.34c-0.22-0.97-0.42-1.95-0.55-2.93c-0.11-0.82-0.51-1.15-1.33-1.09c-1.18,0.09-2.36,0.18-3.54,0.19
				c-9.29,0.12-18.43-0.82-27.32-3.66c-6.11-1.95-11.71-4.82-16.51-9.14c-4.77-4.29-7.69-9.78-10.1-15.58
				c-1.23-2.95-1.19-2.95-4.36-2.23c-0.97,0.22-1.35,0.59-1.02,1.68c1.06,3.47,2.74,6.62,4.47,9.79
				c5.53,10.14,14.06,16.6,24.83,20.17C392.3,697.18,401.77,698.45,411.21,698.5 M170.73,700c6.96-0.23,14.14-1.06,21.18-2.94
				c10.63-2.84,19.67-8.1,26.12-17.23c3.52-4.98,5.98-10.52,8.05-16.22c0.87-2.4,0.76-2.44-1.7-3.18c-0.27-0.08-0.55-0.16-0.81-0.26
				c-0.62-0.21-0.97-0.01-1.18,0.62c-1.24,3.64-2.89,7.1-4.65,10.51c-1.97,3.81-4.37,7.31-7.46,10.31
				c-6.64,6.46-14.81,9.88-23.68,11.88c-5.01,1.13-10.13,1.33-15.23,1.77c-0.64,0.05-1.39-0.08-1.57,0.84
				c-0.18,0.93-0.38,1.86-0.54,2.79C169.1,699.79,169.45,700.25,170.73,700 M245.2,634.53c0.15-0.49-0.32-0.71-0.96-0.84
				c-1.48-0.3-2.96-0.64-4.44-0.95c-2.83-0.58-2.81-0.57-3.42,2.31c-1.52,7.18-2.73,14.41-4.01,21.63
				c-0.71,4.01-1.42,8.01-2.16,12.01c-0.18,0.98,0.09,1.45,1.16,1.64c1.86,0.32,3.71,0.75,5.53,1.27c1.18,0.34,1.58,0,1.79-1.18
				c1.39-7.73,2.84-15.45,4.26-23.17C243.7,643.11,244.42,638.97,245.2,634.53 M345.22,632.02c-2.05,0.37-4.09,0.77-6.15,1.1
				c-1.17,0.19-1.38,0.73-1.18,1.87c1.11,6.34,2.02,12.72,2.94,19.09c0.8,5.48,1.49,10.98,2.6,16.42c0.22,1.1,0.65,1.41,1.75,1.11
				c1.78-0.48,3.59-0.89,5.41-1.19c1.03-0.17,1.19-0.59,1.05-1.53c-1.14-7.87-2.21-15.75-3.35-23.62
				c-0.59-4.08-1.28-8.14-1.89-12.21C346.29,632.34,346.05,631.88,345.22,632.02 M348.9,632.76c0.01,0.07,0.09,0.31,0.09,0.54
				c0.01,1.3,0.4,1.85,1.89,1.45c2.14-0.58,4.36-0.85,6.53-1.34c5.63-1.27,11.24-2.6,16.87-3.86c10.05-2.26,20.01-4.87,30-7.41
				c0.74-0.19,0.89-0.6,0.78-1.24c-0.07-0.42-0.23-0.84-0.22-1.25c0.04-1.29-0.6-1.31-1.64-1.11c-4.19,0.81-8.26,2.06-12.38,3.11
				c-10.23,2.61-20.53,4.9-30.79,7.34c-3.27,0.78-6.54,1.52-9.81,2.29C349.51,631.45,348.76,631.59,348.9,632.76 M185.14,619.03
				c-0.57-0.04-0.96,0.11-1.01,0.74c-0.06,0.79-0.7,1.7,0.32,2.31c0.61,0.36,1.27,0.67,1.94,0.87c4.3,1.3,8.62,2.54,12.93,3.84
				c10.84,3.28,21.85,5.86,32.91,8.29c1.97,0.43,1.33-1.09,1.7-1.81c0.47-0.92-0.02-1.27-0.97-1.52c-5.98-1.56-12.04-2.8-18.02-4.39
				c-8.42-2.24-16.84-4.45-25.18-6.95C188.22,619.95,186.68,619.49,185.14,619.03 M197.37,672.31c0.74,0.11,1.01-0.22,1.1-0.93
				c0.13-0.93,0.29-1.89,0.62-2.76c0.42-1.11,0.16-1.63-0.99-1.94c-2.69-0.74-5.34-1.6-8.02-2.4c-3.9-1.16-7.8-2.29-11.7-3.45
				c-0.97-0.29-1.53-0.1-1.68,1.01c-0.14,0.98-0.37,1.95-0.64,2.91c-0.33,1.16,0.05,1.72,1.23,2.04c4.28,1.19,8.53,2.48,12.81,3.69
				C192.51,671.16,194.9,671.92,197.37,672.31 M272.09,639.2c-0.2-0.73-0.69-1.05-1.43-1.15c-1.36-0.18-2.71-0.49-4.05-0.63
				c-5.69-0.63-11.31-1.74-16.99-2.48c-1.54-0.2-1.63-0.09-1.95,2.32c-0.16,1.24,0.85,0.96,1.42,1.04
				c7.34,1.09,14.64,2.49,22.03,3.24C271.47,640.77,271.95,640.05,272.09,639.2 M316.08,640.37c1.15-0.13,2.79-0.3,4.43-0.52
				c4.5-0.6,8.99-1.26,13.49-1.81c1.2-0.15,1.35-0.83,1.06-1.65c-0.3-0.82,0.44-2.5-1.58-2.13c-3.63,0.67-7.27,1.29-10.9,1.93
				c-2.88,0.51-5.76,1.02-8.65,1.5c-0.81,0.13-0.94,0.54-0.88,1.29C313.2,640.81,314.52,640.29,316.08,640.37 M405.17,623.44
				c0.43,6.24,1.38,12.27,1.96,18.33c0.07,0.74-0.18,1.95,0.91,1.91c1.19-0.05,0.92-1.31,1.04-2.16c0.01-0.05,0-0.09,0-0.14
				c-0.47-6.03-1.39-12.01-2.13-18.01c-0.08-0.62-0.15-1.31-1.04-1.2C405.02,622.28,405.18,623,405.17,623.44 M203.93,676.96
				c0.05-0.64-0.19-1.06-0.87-0.99c-0.85,0.08-2.09-0.6-2.36,0.79c-0.49,2.54-0.82,5.11-1.2,7.67c-0.07,0.49,0.11,0.99,0.66,0.75
				c1.1-0.48,2.41-0.86,2.71-2.25C203.3,680.96,203.59,678.95,203.93,676.96 M202.32,667.76c-0.58,0.05-1.29,0-1.77,0.72
				c-0.87,1.32-1.08,2.8-1.05,4.32c0.01,0.53,0.38,0.97,0.87,1.21c0.76,0.38,1.52,0.72,2.36,0.92c0.97,0.24,1.59-0.09,1.91-0.96
				c0.38-1.01,0.77-2.04,0.99-3.09c0.37-1.75-0.3-2.66-2.08-3C203.19,667.82,202.81,667.81,202.32,667.76"/>
		</g>
	</g>
</g>
</svg>
