<?xml version="1.0" encoding="utf-8"?>
<!-- Generator: Adobe Illustrator 23.0.2, SVG Export Plug-In . SVG Version: 6.00 Build 0)  -->
<svg version="1.1" id="图层_1" xmlns="http://www.w3.org/2000/svg" xmlns:xlink="http://www.w3.org/1999/xlink" x="0px" y="0px"
	 viewBox="0 0 595.28 841.89" style="enable-background:new 0 0 595.28 841.89;" xml:space="preserve">
<style type="text/css">
	.st0{fill:#1F1A1C;}
	.st1{fill:#F4C6A9;}
	.st2{fill:#78A8C6;}
	.st3{fill:#937169;}
	.st4{fill:#644A45;}
</style>
<g>
	<g>
		<path class="st0" d="M466.39,319.67c-4.65-10.6-11.91-18.87-22.01-24.59c-8.58-4.86-17.91-7.18-27.64-8.13
			c-1.52-0.15-3.11-0.13-4.51-0.74c-7.22-3.18-14.74-5.53-22.14-8.21c-9.65-3.49-19.34-6.85-29.01-10.28
			c-3.52-1.25-6.96-2.72-10.6-3.61c-0.14,0.16-0.26,0.15-0.35-0.04c-0.14,0.01-0.29,0.02-0.43,0.03c0.24,1.02-0.14,2.14,0.47,3.11
			c1.21,0.35,1.42,1.08,1.08,2.27c-2.06,7.27-5.59,13.73-10.61,19.37c-8.06,9.04-17.98,14.96-29.74,17.86
			c-1.04,0.26-1.24-0.05-1.3-0.98c-0.32-4.85-0.34-4.85-5.15-4.76c-0.32,0.01-0.63,0.05-0.94,0.01c-1.31-0.14-1.7,0.47-1.75,1.72
			c-0.14,3.44-0.19,3.44-3.6,3.44c-3.33,0-3.39,0-3.43-3.39c-0.01-1.37-0.46-1.86-1.81-1.73c-1.16,0.11-2.34,0.08-3.51,0.1
			c-1.27,0.02-1.98,0.68-2.25,1.9c-0.26,1.15-0.26,2.32-0.3,3.49c-0.02,0.67-0.15,0.92-0.95,0.76c-11.6-2.34-21.75-7.4-30.06-15.93
			c-0.97-1-1.87-2.07-2.57-3.28c-1.1-0.77-1.64-1.98-2.34-3.05c-2.81-4.3-5.14-8.82-6.13-13.95c-0.29-1.52,0.3-2.25,1.46-2.9
			c1.43-0.81,2.8-1.73,4.24-2.52c1.2-0.65,1.17-1.55,0.74-2.61c-3.04,0.98-6.14,1.81-9.1,2.98c-6.49,2.56-13,5.07-19.52,7.54
			c-8.38,3.16-16.78,6.26-25.04,9.74c-2.41,1.01-4.78,1.61-7.42,1.6c-9.86-0.06-19.48,1.44-28.73,4.93
			c-10.43,3.94-19.33,10.08-25.9,19.17c-10.29,14.25-12.7,30.12-8.83,47.05c1.72,7.51,4.6,14.69,7.18,21.94
			c1.8,5.04,3.34,10.06,3.27,15.48c-0.02,1.75,0.25,3.5,0.5,5.24c1.58,11.11,11.72,20.4,22.89,20.95c0.89,0.04,1.23,0.34,1.44,1.18
			c2.76,11.24,5.54,22.47,8.33,33.7c3.72,14.99,7.51,29.96,11.12,44.98c1.6,6.67,3.95,13.18,3.79,20.23
			c-0.1,4.49,0.48,8.99,0.69,13.49c0.07,1.43,0.04,2.89-0.11,4.32c-1.38,13.39-2.62,26.81-4.52,40.14
			c-0.36,2.49,0.16,4.63,1.55,6.64c1.77,2.56,3.63,5.04,5.76,7.31c0.36,0.38,1.09,0.9,0.38,1.44c-0.84,0.64-0.93,1.5-1.06,2.38
			c-0.86,5.84-1.54,11.71-2.62,17.5c-0.68,3.66-0.24,7.36-1.22,11.03c-3.18,11.97-5.39,24.16-7.9,36.29
			c-3,14.51-5.55,29.1-8.37,43.65c-0.04,0.2-0.07,0.4-0.09,0.6l-0.79,3.11h3.78h135.17h5.14h110.57h2.06h1.72
			c-0.06-0.4-0.11-0.8-0.18-1.2c-2.47-13.51-5.33-26.95-8.01-40.42c-2.92-14.66-5.88-29.32-9.59-43.82
			c-0.16-0.63-0.25-1.26,0.07-1.85c0.54-1,0.65-2.08,0.57-3.15c-0.56-7.6-1.37-15.16-2.83-22.65c-0.1-0.53-0.17-1.15-0.62-1.46
			c-1.07-0.74-0.49-1.27,0.1-1.91c2.16-2.29,4.3-4.6,6.26-7.08c1.77-2.25,2.48-4.71,2-7.57c-1.83-10.79-3.64-21.58-5.37-32.39
			c-0.42-2.64-1.23-5.24-0.6-8.01c1.11-4.87,2-9.8,3.05-14.68c3.45-16.12,7.5-32.1,11.28-48.14c1.59-6.75,3.6-13.4,4.68-20.27
			c6.42-8.54,17.71-24.03,25.12-36.84c6.41-2.84,10.63-7.79,12.45-14.98c0.64-2.55,0.5-5.2,0.46-7.8
			c-0.14-8.07,0.76-15.98,2.87-23.78c1.18-4.34,2.34-8.7,3.13-13.13C472.42,343.83,471.6,331.52,466.39,319.67z"/>
		<g>
			<path class="st1" d="M275.13,614.31c1.47-1.8,3.39-2.79,5.68-2.91c9.94-0.48,19.89-0.71,29.85-0.85
				c2.21-0.03,3.36,1.83,2.58,3.96c-0.21,0.58-0.71,0.47-1.13,0.49c-5.35,0.24-10.71,0.45-16.06,0.71
				c-4.09,0.2-8.19,0.42-12.27,0.72c-2.79,0.2-3.55,1.08-3.59,3.81c-0.03,1.98,0.05,3.97-0.05,5.95c-0.05,1.18,0.39,1.43,1.49,1.37
				c1.8-0.11,3.6-0.05,5.4-0.07c1.27-0.02,1.71,0.68,1.79,1.86c0.08,1.21-0.46,1.76-1.61,1.83c-2.02,0.12-4.04,0.28-6.07,0.31
				c-0.92,0.01-1.03,0.43-1,1.17c0.1,2.43,0.12,4.86,0.24,7.29c0.09,1.87,1.09,2.81,3.06,2.81c4.46,0,8.92-0.04,13.38-0.11
				c5.04-0.08,10.09-0.19,15.13-0.35c1.07-0.03,1.53,0.17,1.49,1.37c-0.09,2.51-0.17,2.7-2.65,2.81
				c-9.76,0.42-19.53,0.81-29.29,1.23c-2.6,0.11-4.64-0.91-6.18-2.96c-0.71-0.95-1.16-2.02-1.19-3.24
				c-0.23-7.74-0.15-15.49-0.12-23.24c0-0.58,0.13-1.16,0.2-1.74C274.54,615.8,274.99,615.12,275.13,614.31"/>
			<path class="st2" d="M170.68,707.59c1.05-5.06,2.14-10.11,3.13-15.18c0.92-4.76,1.75-9.54,2.57-14.32
				c0.45-2.61,0.67-2.81,3.29-2.91c9.5-0.34,18.8-1.69,27.62-5.45c5.04-2.15,9.59-5.05,13.56-8.88c5.85-5.63,9.46-12.46,11.28-20.32
				c0.3-1.31,0.9-2.54,1.07-3.9c0.04-0.35,0.03-0.83,0.54-0.75c0.46,0.07,0.46,0.53,0.38,0.88c-0.33,1.54-0.71,3.06-1.04,4.6
				c-0.89,4.15-0.89,4.18,3.18,5.4c2.41,0.72,4.81,1.48,7.34,1.68c1.15,0.09,1.76-0.37,1.99-1.49c0.42-2.02,0.94-4.02,1.35-6.04
				c0.46-2.29,0.72-2.51,3.03-2.08c2.34,0.43,4.67,0.94,7.02,1.33c4.83,0.8,9.67,1.55,14.51,2.28c1.05,0.16,1.72,0.4,2.02,1.68
				c0.51,2.22,2.15,3.57,4.21,4.58c1.98,0.96,4.01,0.84,6.06,0.76c1.21-0.05,1.5,0.38,1.53,1.54c0.44,18.32,0.1,36.65,0.18,54.97
				c0,0.54,0.04,1.08,0.07,1.62L170.68,707.59L170.68,707.59z M421.55,707.59c0.11-1.96-0.58-3.79-0.92-5.68
				c-1-5.69-3.95-20.67-4.07-21.19c-0.46-2.06-1.01-4.11-1.36-6.19c-0.16-0.95-0.59-1.06-1.35-1.01
				c-5.49,0.33-10.96,0.32-16.44-0.26c-9.48-1-18.61-3.06-26.98-7.88c-5.24-3.02-9.45-7.06-12.87-12.02
				c-1.52-2.21-2.63-4.6-3.65-7.05c-0.29-0.69-0.54-0.98-1.39-0.59c-2.88,1.32-5.98,1.95-9.06,2.6c-2.08,0.44-2.92-0.23-3.25-2.4
				c-0.26-1.73-0.59-3.46-0.88-5.19c-0.14-0.82-0.51-1.11-1.41-0.9c-7.32,1.7-14.75,2.82-22.22,3.58c-1.09,0.11-1.33,0.58-1.29,1.56
				c0.13,2.73,0.26,5.47,0.26,8.21c-0.02,8.59-0.12,17.18-0.16,25.77c-0.03,5.77-0.07,11.53-0.04,17.29
				c0.02,3.63-0.97,6.92-2.99,9.92c-0.28,0.42-0.77,0.81-0.49,1.44L421.55,707.59L421.55,707.59z M305.85,707.59
				c3.75-3.49,5.34-7.73,5.25-12.91c-0.19-11.8-0.07-23.61-0.07-35.41c0-3.2-0.02-6.4,0.02-9.6c0.01-0.99-0.31-1.44-1.32-1.3
				c-0.31,0.04-0.63,0.01-0.94,0.03c-6.05,0.5-12.11,0.85-18.19,1.02c-1.27,0.03-1.61,0.49-1.59,1.69c0.05,3.14-0.04,6.28-0.03,9.42
				c0.02,4.94-0.01,9.88-0.07,14.83c-0.06,4.84-0.06,9.68-0.06,14.53c0,5.9-0.02,11.8-0.02,17.71h17.02V707.59z M407.29,662.31
				c0.94-0.23,2.39-0.05,3.83-0.1c1.62-0.06,1.69-0.16,1.36-1.74c-1.3-6.25-2.67-12.48-4.11-18.7c-1.29-5.56-2.41-11.15-3.61-16.73
				c-0.43-1.97-0.62-2.11-2.52-1.47c-5.27,1.77-10.63,3.27-15.99,4.72c-8.2,2.22-16.38,4.52-24.68,6.38
				c-1.69,0.38-1.95,0.77-1.09,2.28c0.95,1.68,1.38,3.6,2.46,5.21c1.79,2.69,3.22,5.65,5.62,7.88c4.82,4.5,10.48,7.59,16.79,9.4
				C392.34,661.44,399.54,662.18,407.29,662.31 M188.25,622.54c-0.66-0.01-0.72,0.4-0.81,0.81c-0.45,2.02-0.91,4.04-1.37,6.05
				c-0.59,2.54-0.59,2.54,1.83,3.23c7.6,2.2,15.21,4.35,22.78,6.63c3.76,1.13,3.61,1.15,3,5.07c-0.46,2.97-1.19,5.9-1.79,8.85
				c-0.08,0.41-0.45,0.96,0.06,1.22c0.47,0.24,0.73-0.39,1.07-0.65c0.22-0.16,0.39-0.37,0.59-0.56c5.5-5.32,8.81-11.96,11.44-19.01
				c0.29-0.78-0.09-0.97-0.67-1.13c-1.99-0.55-3.97-1.15-5.98-1.65c-8.73-2.17-17.38-4.62-25.9-7.5
				C191.06,623.44,189.61,622.98,188.25,622.54 M180.51,664.32c2.49-0.15,5.04-0.36,7.58-0.7c5.01-0.66,9.91-1.7,14.59-3.68
				c0.76-0.32,1.14-0.78,1.27-1.56c0.47-2.74,0.89-5.5,1.48-8.22c0.25-1.17-0.19-1.55-1.17-1.78c-1.53-0.36-3.06-0.72-4.57-1.18
				c-4.94-1.5-10.01-2.54-14.88-4.28c-1.14-0.41-1.64-0.2-1.87,1.15c-0.67,3.94-1.53,7.84-2.29,11.76c-0.47,2.42-0.9,4.86-1.36,7.28
				C179.12,664.07,179.46,664.51,180.51,664.32 M407.3,670.65c2.16-0.14,4.14,0.06,6.11-0.2c0.83-0.11,1.08-0.48,0.9-1.27
				c-0.21-0.92-0.4-1.85-0.52-2.78c-0.11-0.78-0.48-1.09-1.26-1.03c-1.12,0.09-2.24,0.17-3.37,0.18
				c-8.82,0.12-17.51-0.78-25.96-3.47c-5.8-1.85-11.12-4.58-15.69-8.69c-4.54-4.08-7.31-9.29-9.6-14.81
				c-1.16-2.8-1.13-2.8-4.14-2.12c-0.93,0.21-1.28,0.56-0.96,1.59c1.01,3.29,2.61,6.29,4.25,9.3c5.25,9.64,13.36,15.77,23.59,19.16
				C389.34,669.39,398.33,670.6,407.3,670.65 M178.82,672.07c6.61-0.21,13.43-1.01,20.12-2.8c10.1-2.7,18.68-7.69,24.82-16.37
				c3.34-4.73,5.68-9.99,7.65-15.41c0.83-2.28,0.72-2.31-1.61-3.02c-0.26-0.08-0.52-0.16-0.77-0.24c-0.59-0.2-0.92-0.01-1.12,0.59
				c-1.18,3.46-2.74,6.75-4.42,9.98c-1.87,3.62-4.15,6.94-7.08,9.8c-6.31,6.14-14.07,9.39-22.5,11.28
				c-4.76,1.07-9.63,1.27-14.47,1.68c-0.61,0.05-1.32-0.08-1.49,0.8c-0.18,0.88-0.36,1.76-0.51,2.65
				C177.27,671.88,177.6,672.31,178.82,672.07 M249.58,609.87c0.14-0.46-0.31-0.67-0.91-0.79c-1.41-0.29-2.81-0.61-4.22-0.9
				c-2.68-0.55-2.67-0.54-3.25,2.2c-1.44,6.82-2.59,13.69-3.81,20.55c-0.68,3.81-1.35,7.61-2.05,11.41
				c-0.17,0.93,0.08,1.38,1.1,1.55c1.77,0.3,3.53,0.71,5.25,1.2c1.12,0.32,1.5,0,1.7-1.12c1.32-7.34,2.7-14.68,4.05-22.02
				C248.15,618.03,248.83,614.09,249.58,609.87 M344.6,607.48c-1.95,0.35-3.89,0.73-5.84,1.04c-1.12,0.18-1.31,0.69-1.12,1.78
				c1.05,6.03,1.92,12.08,2.8,18.14c0.76,5.21,1.41,10.43,2.47,15.6c0.21,1.04,0.62,1.34,1.66,1.06c1.69-0.45,3.41-0.85,5.14-1.13
				c0.98-0.16,1.13-0.56,1-1.45c-1.08-7.48-2.1-14.96-3.18-22.44c-0.56-3.87-1.21-7.73-1.8-11.6
				C345.62,607.79,345.39,607.36,344.6,607.48 M348.1,608.19c0.01,0.07,0.08,0.29,0.09,0.51c0.01,1.23,0.38,1.76,1.79,1.38
				c2.03-0.55,4.14-0.81,6.2-1.28c5.35-1.2,10.68-2.47,16.02-3.67c9.55-2.15,19.02-4.63,28.5-7.04c0.7-0.18,0.85-0.57,0.74-1.18
				c-0.07-0.4-0.22-0.8-0.21-1.19c0.04-1.23-0.57-1.24-1.56-1.05c-3.98,0.77-7.85,1.96-11.76,2.96c-9.72,2.48-19.5,4.66-29.26,6.98
				c-3.11,0.74-6.21,1.45-9.32,2.18C348.68,606.94,347.97,607.08,348.1,608.19 M192.51,595.15c-0.54-0.04-0.92,0.11-0.96,0.7
				c-0.05,0.75-0.67,1.62,0.3,2.19c0.58,0.34,1.2,0.63,1.85,0.83c4.09,1.23,8.19,2.41,12.28,3.65c10.3,3.12,20.76,5.57,31.26,7.88
				c1.88,0.41,1.26-1.03,1.62-1.72c0.45-0.87-0.02-1.21-0.92-1.44c-5.68-1.48-11.44-2.66-17.12-4.17c-8-2.13-16-4.23-23.92-6.61
				C195.44,596.02,193.98,595.59,192.51,595.15 M204.13,645.77c0.7,0.11,0.96-0.21,1.05-0.89c0.12-0.89,0.27-1.79,0.59-2.62
				c0.4-1.05,0.15-1.54-0.94-1.85c-2.55-0.71-5.08-1.52-7.62-2.28c-3.7-1.1-7.41-2.17-11.12-3.28c-0.92-0.27-1.45-0.09-1.6,0.96
				c-0.13,0.93-0.35,1.86-0.6,2.76c-0.31,1.1,0.05,1.63,1.16,1.94c4.07,1.13,8.11,2.36,12.17,3.51
				C199.51,644.67,201.78,645.39,204.13,645.77 M275.13,614.31c-0.19-0.69-0.65-1-1.36-1.1c-1.29-0.17-2.57-0.46-3.85-0.6
				c-5.41-0.6-10.75-1.65-16.14-2.36c-1.46-0.19-1.55-0.08-1.85,2.2c-0.16,1.18,0.81,0.91,1.35,0.99c6.97,1.03,13.9,2.37,20.93,3.08
				C274.54,615.8,274.99,615.12,275.13,614.31 M316.92,615.42c1.09-0.13,2.65-0.28,4.21-0.49c4.27-0.57,8.54-1.2,12.82-1.72
				c1.14-0.14,1.29-0.79,1.01-1.57s0.42-2.38-1.5-2.02c-3.45,0.64-6.9,1.23-10.36,1.83c-2.74,0.48-5.48,0.97-8.22,1.43
				c-0.76,0.13-0.89,0.52-0.84,1.22C314.18,615.83,315.44,615.35,316.92,615.42 M401.56,599.33c0.41,5.93,1.31,11.66,1.86,17.42
				c0.07,0.7-0.17,1.85,0.86,1.81c1.13-0.04,0.87-1.24,0.99-2.05c0.01-0.04,0-0.09,0-0.14c-0.45-5.73-1.32-11.41-2.03-17.11
				c-0.07-0.59-0.14-1.25-0.99-1.14C401.42,598.23,401.57,598.91,401.56,599.33 M210.37,650.18c0.05-0.61-0.18-1.01-0.83-0.94
				c-0.8,0.08-1.99-0.57-2.24,0.75c-0.47,2.41-0.78,4.86-1.14,7.29c-0.07,0.47,0.11,0.94,0.63,0.71c1.04-0.46,2.29-0.82,2.57-2.13
				C209.76,653.99,210.04,652.08,210.37,650.18 M208.83,641.45c-0.55,0.05-1.23,0-1.68,0.68c-0.83,1.26-1.03,2.66-1,4.11
				c0.01,0.51,0.36,0.92,0.83,1.15c0.72,0.36,1.44,0.68,2.24,0.88c0.93,0.22,1.51-0.08,1.82-0.91c0.36-0.96,0.73-1.94,0.94-2.94
				c0.35-1.66-0.29-2.52-1.98-2.85C209.66,641.5,209.3,641.49,208.83,641.45"/>
		</g>
		<g>
			<g>
				<path class="st3" d="M294.63,463.72c-3.92-0.02-7.84-0.05-11.66-1.11c-1.97-0.55-3.78-1.37-5.33-2.78
					c-1.13-1.03-1.45-2.23-1.24-3.65c0.24-1.6,0.56-3.19,0.81-4.8c0.14-0.93,0.52-1.2,1.47-0.88c3.44,1.17,3.45,1.14,3.18,4.73
					c-0.25,3.22-0.12,3.47,3.11,4.13c4.39,0.89,8.86,0.83,13.32,0.93c2.11,0.05,4.22,0.22,6.33,0.38c0.7,0.05,1.41,0.27,1.43,1.13
					c0.03,0.86-0.66,1.07-1.36,1.22C301.38,463.73,298,463.7,294.63,463.72 M316.37,329.11c0-2.93,0-5.86,0-8.78
					c0-0.58,0.06-1.22-0.27-1.71c-1.83-2.7-4.21-4.69-7.49-5.31c-2.35-0.45-4.77-0.13-7.14-0.37c-5.32-0.54-9.42,1.7-12.96,5.37
					c-1.17,1.21-1.76,2.61-1.74,4.37c0.07,5.27,0.18,10.55-0.08,15.81c-0.14,2.77,0.56,4.58,3.22,5.47c1.79,0.6,2.28,1.98,2.26,3.7
					c-0.02,2.16-0.01,4.32,0.01,6.49c0.02,2.62,1.64,4.81,4.25,5.14c3.3,0.41,6.66,0.42,9.96-0.05c2.03-0.29,3.31-2.04,3.33-4.13
					c0.02-1.67-0.04-3.34,0.04-5c0.23-4.73-0.42-4.1,3.75-5.9c0.16-0.07,0.3-0.2,0.47-0.27c1.64-0.65,2.17-1.86,2.25-3.6
					C316.4,336.58,316.35,332.84,316.37,329.11 M314.01,330.31c0.02,6.8-5.34,12.26-12.06,12.29c-6.75,0.03-12.23-5.5-12.39-12.21
					c-0.14-5.64,5.35-12.32,12.46-12.12C308.7,318.47,313.99,323.59,314.01,330.31 M319.83,338.67c1.08,2.19,0.85,4.49,0.59,6.79
					c-0.02,0.2-0.18,0.47-0.35,0.55c-1.46,0.69-1.29,1.98-1.27,3.25c0.02,2.12,0.03,4.23-0.02,6.35c-0.03,1.26-2.22,2.55-3.34,1.98
					c-0.56-0.29-0.57-0.85-0.51-1.42c0.24-2.51-0.1-5.02-0.12-7.53c0-0.39-0.06-0.81-0.58-1.02c-0.4,0.45-0.24,1.01-0.26,1.52
					c-0.13,3.01,0.21,6.04-0.19,9.04c-0.51,3.81-3.15,6.28-7,6.64c-3.64,0.34-7.33,0.48-10.91-0.1c-3.3-0.54-5.96-2.61-8.11-5.22
					c-0.2-0.24-0.35-0.51-0.55-0.75c-1.34-1.55-2.05-3.23-1.96-5.38c0.11-2.6,0.2-5.22-0.15-7.82c-0.12-0.89,0.29-0.95,0.93-0.61
					c1.1,0.6,2.17,1.25,3.27,1.84c0.71,0.38,0.63,1.02,0.65,1.64c0.08,2.43-0.18,4.86,0.21,7.28c0.51,3.26,3.65,6.06,6.95,6.07
					c3.06,0,6.12-0.06,9.18-0.21c2.9-0.14,5.74-3.16,5.86-6.12c0.08-2.2,0.15-4.41,0.15-6.61c0-1.01,0.3-1.59,1.35-1.82
					c1.74-0.38,2.99-1.61,4.23-2.77c0.61-0.57,0.75-1.41,0.75-2.25c-0.01-7.52-0.02-15.04-0.03-22.56c0-1.46-0.78-2.55-1.72-3.55
					c-1.82-1.91-3.85-3.51-6.39-4.39c-0.56-0.2-1.15-0.38-0.89-1.21c0.25-0.8,0.89-0.72,1.44-0.59c3.45,0.8,6.25,2.67,8.54,5.34
					c1.56,1.81,2.26,3.87,2.21,6.31c-0.11,4.82-0.01,9.64,0.02,14.46C321.76,338.04,321.78,338.04,319.83,338.67 M294.44,380.47
					c0-3.42,0.02-6.84-0.01-10.26c-0.01-0.94,0.26-1.46,1.31-1.35c3.05,0.32,6.11,0.15,9.17,0.15c1.12,0,1.47,0.38,1.46,1.49
					c-0.04,6.16-0.01,12.33-0.01,18.49c0,0.05,0,0.09,0,0.14c-0.05,3.22-0.17,3.34-3.35,3.34c-2.25,0-4.5-0.01-6.75-0.05
					c-1.56-0.03-1.88-0.38-1.89-1.96c-0.01-3.33,0-6.66,0-9.99C294.39,380.47,294.42,380.47,294.44,380.47 M275.33,344.63
					c0-1.3-0.03-2.61,0.01-3.91c0.03-1.16,0.55-1.49,1.54-0.95c1.65,0.92,3.25,1.92,4.89,2.86c0.67,0.38,0.84,0.91,0.85,1.66
					c0.07,4.54,0.18,9.08,0.31,13.62c0.03,0.9,0.14,1.79,0.25,2.68c0.11,0.86-0.29,0.92-0.93,0.66c-0.04-0.02-0.08-0.04-0.12-0.05
					c-3.02-1.11-3.01-1.11-3.03-4.4c-0.01-1.39-0.07-2.79-0.07-4.18c0-1.05-0.5-1.61-1.51-1.92c-2.27-0.7-2.26-0.73-2.25-3.1
					c0-0.99,0-1.98,0-2.97L275.33,344.63L275.33,344.63z M284.56,330.85c0,2.97-0.02,5.94,0.01,8.91c0.01,1.01-0.31,1.36-1.27,0.84
					c-0.04-0.02-0.08-0.03-0.13-0.05c-3.96-1.61-3.97-1.61-3.97-5.85c-0.01-4.64-0.01-9.27,0-13.91c0-1.62,0.58-1.99,2.1-1.41
					c3.27,1.25,3.28,1.25,3.31,4.86c0.01,2.2,0,4.41,0,6.62C284.6,330.85,284.58,330.85,284.56,330.85 M273.74,327.01
					c0-1.62,0-3.24,0-4.86c0-1.75,0.2-1.97,1.95-2.26c2.07-0.34,1.95-0.35,1.89,1.73c-0.12,3.77-0.06,7.55-0.14,11.33
					c-0.01,0.63,0.51,1.67-0.75,1.8c-1.5,0.16-2.87-0.73-2.9-1.94c-0.06-1.93-0.02-3.87-0.02-5.8H273.74z M296.54,310.97
					c-2.13,0.39-3.84,1.68-5.76,2.53c-1.59,1.28-3.16,2.58-4.36,4.27c-0.33,0.47-0.64,0.94-0.78,1.5c-0.14,0.6-0.51,0.79-1.09,0.6
					c-1.08-1.12-2.52-1.25-3.93-1.47c-0.26-2.03,0.39-3.96,0.73-5.92c0.09-0.55,0.68-0.63,1.17-0.73c1.81-0.4,3.62-0.46,5.43-0.06
					c0.35-0.06,0.7-0.19,1.05-0.18c1.36,0.04,2.56-0.04,2.47-1.92c-0.03-0.64,0.53-0.78,1.05-0.78c1.21,0,2.43,0.02,3.64,0.07
					c0.43,0.02,0.98,0,1.04,0.61C297.28,310.11,297.18,310.86,296.54,310.97z M302.08,319.91c-6.24,0.04-10.89,4.53-10.84,10.48
					c0.04,5.54,4.89,10.13,10.69,10.12c5.64-0.01,10.47-4.82,10.43-10.4C312.32,324.57,307.59,319.88,302.08,319.91 M301.98,323.08
					c4.09,0.03,7.24,3.22,7.2,7.3c-0.04,4.05-3.41,7.15-7.75,7.12c-4.03-0.03-7.01-3.16-7-7.34
					C294.44,326.05,297.64,323.05,301.98,323.08"/>
				<g>
					<path class="st0" d="M314.01,330.31c0.02,6.8-5.34,12.26-12.06,12.29c-6.75,0.03-12.23-5.5-12.39-12.21
						c-0.14-5.64,5.35-12.32,12.46-12.12C308.7,318.47,313.99,323.59,314.01,330.31 M302.08,319.91
						c-6.24,0.04-10.89,4.53-10.84,10.48c0.04,5.54,4.89,10.13,10.69,10.12c5.64-0.01,10.47-4.82,10.43-10.4
						C312.32,324.57,307.59,319.88,302.08,319.91"/>
					<path class="st0" d="M301.98,323.08c4.09,0.03,7.24,3.22,7.2,7.3c-0.04,4.05-3.41,7.15-7.75,7.12c-4.03-0.03-7.01-3.16-7-7.34
						C294.44,326.05,297.64,323.05,301.98,323.08"/>
				</g>
			</g>
			<g>
				<path class="st3" d="M360.75,131.37c-0.61,1.3-0.16,2.83-0.86,4.17c-0.7-2.64-1.34-5.18-1.09-7.92
					c0.24-2.55,0.18-5.16-0.53-7.64c-0.95-3.33-2.74-6.22-5.33-8.58c-0.51-0.46-1.06-0.91-1.4-1.74c0.81,0.13,1.19,0.78,1.84,0.78
					c0.25,0,0.53,0.25,0.75-0.01c0.24-0.3,0.05-0.59-0.1-0.87c-0.8-1.49-2.02-2.64-3.18-3.83c-3.22-3.29-7.28-4.65-11.75-5.06
					c-0.76-0.07-1.52-0.17-2.27-0.32c-1.26-0.26-1.41-1.45-1.73-2.38c-1.1-3.19-2.51-6.13-5.26-8.28c-2.2-1.72-4.76-2.65-7.36-3.52
					c-0.21-0.07-0.46-0.14-0.57,0.15c-0.09,0.26,0.13,0.41,0.28,0.56c1.26,1.28,2.61,2.45,3.71,3.9c3.37,4.46,5.71,9.4,6.54,14.91
					c0.93,6.14-0.13,12-3.45,17.35c-0.07,0.11-0.2,0.22-0.21,0.34c-0.27,2.28-2.19,2.19-3.62,2.67c-0.8-2.29,1.18-3.38,2.13-4.83
					c1.89-2.88,2.68-6.04,3.06-9.37c0.51-4.51-0.88-8.69-2.41-12.81c-1.77-4.78-4.74-8.73-8.68-11.95
					c-2.55-2.08-5.54-3.35-8.61-4.38c-3.96-1.34-7.96-2.76-12.23-2.34c-3.62,0.36-7.19,1.12-10.71,2.09
					c-8.72,2.39-17.36,5.02-25.67,8.65c-4.24,1.85-7.64,2.31-12.1,3.61c-0.33,0.1-2.11,1.92-2,2.22c0.43,1.16-0.86,1.01-1.39,1.67
					c-2.38,2.98-3.83,6.47-6.26,9.4c-1.09,1.31-2.31,2.52-3.51,3.74c-0.52,0.53-1.19,0.77-1.95,0.63c-1.91,1.84-3.92,3.56-6.04,5.16
					c0.74,0.74,1.68,1.01,2.69,1.04c4.6,0.16,9.06-0.45,13.29-2.38c0.48-0.22,0.99-0.37,1.86-0.68c-1.94,1.99-4.03,3.03-6.19,3.95
					c-1.7,0.73-3.47,1.39-5.3,1.55c-1.54,0.14-2.26,0.92-2.66,2.21c-0.6,1.93-1.21,3.86-1.73,5.82c-0.5,1.88-0.13,2.38,1.75,2.24
					c4.91-0.37,8.81-2.8,11.89-6.46c2.83-3.37,5.48-6.9,8.49-10.11c1.07-1.14,2.26-1.91,4.18-1.48c1.97,0.44,4.1,0.17,6.15,0.57
					c3.89,0.74,7.27,2.55,10.43,4.81c3.82,2.73,6.69,6.36,9.38,10.15c0.16,0.22,0.41,0.44,0.19,0.7c-0.12,0.14-0.4,0.2-0.61,0.19
					c-0.31-0.01-2.77-0.71-3.04,1.07c0.13,0.3,2.13,0.92,2.65,1.04c3.34,0.74,6.7,1.36,10.04,2.08c2.73,0.59,5.44,0.57,8.17-0.01
					c8.52-1.8,16.87-4.2,24.98-7.36c2.15-0.84,3.85-0.68,5.7,0.76c2.31,1.8,4.5,3.72,6.74,5.59c0.99,0.83,1.11,2.1,1.2,3.34
					c0.36,5.08,0.45,10.17,0.49,15.26c0,0.49,0.16,8.41,0.69,9.07c0.88,1.08,1.67,2.26,2.68,3.2c1.2,1.12,1.54,2.45,1.63,3.98
					c0.29,5.49,0.6,10.97,0.91,16.45c0.02,0.27,0.01,0.55,0.07,0.81c0.16,0.71-0.06,1.83,0.85,1.89c0.72,0.05,1.01-0.98,1.29-1.67
					c1.23-3.05,2.23-6.18,3.09-9.35c0.78-2.89,2.51-4.86,5.07-6.22c-0.02-0.69,0.8-0.52,1.04-0.97c-0.39-0.16-0.74-0.33-1.16-0.24
					c-0.92,0.2-0.81-0.33-0.61-0.91c0.03-0.18,0.03-0.61,0.09-0.54c-0.01-0.02,1.52-6.3,1.79-7.97c0.56-3.36,1.05-6.73,1.49-10.11
					c0.39-2.95,0.74-5.91,1.17-8.86c0.22-1.49,0.45-2.98,0.73-4.46C360.62,134.23,361.21,132.64,360.75,131.37 M294.51,132.14
					c-0.6,0.3-0.78-0.19-0.98-0.6c-0.02-0.04-0.07-0.09-0.1-0.09c-3.06,0.25-2.9-2.36-3.61-4.13c-2.75-6.92-6.73-12.8-13.58-16.25
					c-3.71-1.86-7.65-2.76-11.98-2.08c0.29-0.66,0.67-0.67,1.01-0.77c3.91-1.09,7.77-0.93,11.69,0.17
					c7.52,2.1,12.72,6.84,15.96,13.78c1.25,2.68,2.13,5.54,2.19,8.57C295.13,131.31,295.07,131.86,294.51,132.14 M306.36,127.42
					c-0.13,0.33-0.17,0.7-0.24,1.05c-0.44,2.2-0.63,2.62-2.78,2.6c-1.12-0.01-1.84-0.03-2.39,0.98c-0.08,0.14-0.37,0.26-0.62,0.07
					c1.82-3.38,3.03-6.91,3.13-10.83c0.13-5.39-2.14-9.74-5.53-13.67c-3.96-4.59-9.31-6.56-14.95-8.04c-3.78-1-7.62-1.27-11.52-1.32
					c6.05-0.65,12.09-0.89,18.05,0.77c7.1,1.97,12.84,5.78,16.01,12.56C307.87,116.63,308.55,122.01,306.36,127.42 M339.84,157.69
					c0.06-0.17,0.09-0.35,0.1-0.53C339.93,157.34,339.9,157.52,339.84,157.69"/>
				<path class="st4" d="M360.91,123.09c0.2,2.06,0.2,4.15,0,6.24c-0.11,1.12-0.26,2.24-0.44,3.36c-0.14,0.91-0.15,2.03-0.58,2.85
					c-0.7-2.64-1.34-5.18-1.09-7.92c0.24-2.55,0.18-5.16-0.53-7.64c-0.95-3.34-2.74-6.22-5.33-8.58c-0.51-0.46-1.06-0.91-1.4-1.74
					c0.81,0.13,1.19,0.78,1.84,0.78c0.25,0,0.53,0.25,0.75-0.01c0.24-0.3,0.05-0.59-0.1-0.87c-0.8-1.49-2.02-2.64-3.18-3.83
					c-3.22-3.29-7.28-4.66-11.75-5.06c-0.76-0.07-1.52-0.16-2.27-0.32c-1.26-0.26-1.41-1.45-1.73-2.38
					c-1.1-3.19-2.51-6.13-5.26-8.28c-2.2-1.72-4.76-2.65-7.36-3.52c-0.21-0.07-0.46-0.14-0.57,0.15c-0.09,0.26,0.13,0.41,0.28,0.56
					c1.26,1.28,2.61,2.45,3.71,3.9c3.37,4.46,5.71,9.4,6.54,14.91c0.93,6.14-0.13,12-3.45,17.35c-0.07,0.11-0.2,0.22-0.21,0.34
					c-0.27,2.28-2.19,2.19-3.62,2.67c-0.8-2.29,1.18-3.38,2.13-4.83c1.89-2.88,2.68-6.04,3.06-9.37c0.52-4.51-0.88-8.69-2.41-12.81
					c-1.77-4.78-4.74-8.73-8.68-11.95c-2.55-2.08-5.54-3.34-8.61-4.38c-3.96-1.34-7.96-2.76-12.23-2.34
					c-3.62,0.36-7.19,1.12-10.71,2.09c-8.72,2.39-17.36,5.02-25.67,8.65c-2.32,1.01-4.65,1.99-7,2.92c-1.06,0.42-2.12,0.9-3.19,1.28
					c-0.81,0.29-1.86,0.18-2.55,0.75c-0.3,0.25-0.49,0.62-0.66,0.97c-0.8,1.67-1.73,2.91-2.94,4.29c-0.82,0.93-1.56,1.94-2.33,2.9
					c-1.98,2.44-3.99,4.86-6.16,7.12c-0.32,0.33-0.64,0.66-1.05,0.88s-0.91,0.28-1.32,0.07c0.4-0.31,0.67-0.75,0.95-1.18
					c2.22-3.48,4.81-6.71,7.35-9.97c1.2-1.54,2.39-3.08,3.66-4.56c0.75-0.87,1.55-1.72,2.49-2.4c1.24-0.89,2.64-1.02,3.98-1.62
					c1.45-0.64,2.82-1.43,4.26-2.08c3.98-1.8,8.01-3.51,12.12-4.97c8.02-2.85,16.27-5.17,24.68-6.55c2.45-0.4,5.21-1.11,7.68-0.65
					c5.68,1.06,11.15,2.21,16.14,5.29c0.2,0.13,1.22-0.09,1.49-0.08c0.65,0.02,1.3,0.08,1.94,0.17c1.2,0.17,2.38,0.45,3.53,0.84
					c5.63,1.93,10.78,6.41,12.1,12.4c0.05,0.24,0.1,0.49,0.22,0.71c0.2,0.39,0.49,0.47,0.89,0.48c0.51,0.01,1.05-0.08,1.55-0.01
					c1.89,0.26,3.94,0.54,5.71,1.28c1.74,0.73,3.38,1.69,4.86,2.84c2.06,1.59,3.84,3.55,5.29,5.71c0.74,1.09,1.39,2.24,1.95,3.44
					C359.41,115.11,360.53,119.06,360.91,123.09 M271.45,98.25c3.9,0.06,7.74,0.33,11.52,1.32c5.64,1.49,10.99,3.46,14.95,8.04
					c3.39,3.93,5.65,8.28,5.52,13.67c-0.09,3.91-1.3,7.45-3.13,10.83c0.25,0.19,0.55,0.07,0.62-0.07c0.55-1.02,1.27-1,2.39-0.98
					c2.15,0.03,2.34-0.4,2.78-2.6c0.07-0.35,0.1-0.72,0.24-1.05c2.2-5.41,1.52-10.79-0.84-15.84c-3.16-6.78-8.91-10.59-16.01-12.56
					C283.54,97.36,277.5,97.6,271.45,98.25 M264.26,108.99c4.33-0.68,8.27,0.21,11.98,2.08c6.85,3.45,10.84,9.33,13.59,16.25
					c0.71,1.78,0.54,4.38,3.61,4.14c0.03,0,0.08,0.05,0.1,0.09c0.21,0.4,0.39,0.9,0.98,0.6c0.56-0.28,0.61-0.83,0.6-1.4
					c-0.07-3.03-0.94-5.89-2.19-8.57c-3.24-6.94-8.44-11.68-15.96-13.78c-3.92-1.1-7.78-1.26-11.7-0.17
					C264.93,108.32,264.56,108.34,264.26,108.99 M283.05,128.75c0.16,0.22,0.41,0.44,0.19,0.7c-0.12,0.14-0.4,0.2-0.61,0.19
					c-0.3-0.01-2.93,0.57-3.04,1.01c-0.83,0.02-1.95-0.57-2.76-0.83c-3.29-1.04-6.63-2.07-9.99-2.91c-0.84-0.24-1.67-0.59-2.53-0.73
					c-1-0.17-2.02-0.26-3.03-0.17c-1.57,0.15-2.79,1.43-3.88,2.46c-1.3,1.23-2.52,2.57-3.56,4.03c-0.47,0.66-0.9,1.36-1.31,2.07
					c-0.67,1.19-0.65,2.53-0.71,3.85c-0.06,1.41-0.09,2.83-0.09,4.24c-0.01,5.49,0.25,10.92,0.89,16.38
					c0.11,0.92-0.06,1.67-0.69,2.35c-1.18,1.3-2.32,2.63-3.49,3.94c-0.47,0.52-0.77,1.06-0.77,1.8c0.01,4.28-0.22,8.56-0.56,12.82
					c-0.18,2.28,0.13,4.61-0.67,6.83c-0.37,1.02-0.88,1.12-1.61,0.3c-0.57-0.65-0.94-1.42-1.23-2.23c-1.13-3.09-2.27-6.17-3.4-9.26
					c0.16-0.3,0.1-0.53-0.23-0.66c-0.53-1.25-1.03-2.51-2.08-3.44c0.02-0.16-0.03-0.25-0.21-0.2l-0.84-0.62
					c-0.53-0.39-0.43-1.51-0.54-2.08c-0.19-0.97-0.39-1.94-0.6-2.91c-0.4-1.9-0.81-3.79-1.22-5.69c-1.24-5.84-2.31-11.79-2.72-17.75
					c-0.08-1.18-0.15-2.36-0.16-3.53c-0.01-0.91,0.13-1.9-0.3-2.74c-0.11-0.21-0.34-0.38-0.57-0.34c-0.23,0.04-0.38,0.24-0.51,0.43
					c-0.31,0.45-1.32,2.47-1.89,2.3c-0.48-0.14-0.08-0.75-0.06-1.04c0.04-0.59-0.16-1.27-0.2-1.87c-0.09-1.32-0.07-2.65,0.05-3.97
					c0.25-2.64,0.92-5.24,2.01-7.66c0.34-0.74,0.86-1.5,0.83-2.36c-0.03-0.72-0.7-0.85-1.24-1.1c-0.66-0.3-1.23-0.76-1.78-1.21
					c-0.18-0.15-0.38-0.3-0.48-0.52c-0.39-0.83,0.86-0.91,1.32-1.12c0.74,0.74,1.68,1.01,2.69,1.04c4.6,0.16,9.07-0.45,13.29-2.38
					c0.48-0.22,0.99-0.37,1.86-0.68c-1.94,1.99-4.03,3.03-6.19,3.95c-1.7,0.73-3.47,1.39-5.3,1.55c-1.54,0.14-2.26,0.92-2.66,2.21
					c-0.6,1.93-1.21,3.86-1.73,5.82c-0.5,1.88-0.13,2.38,1.75,2.24c4.91-0.37,8.81-2.8,11.89-6.45c2.83-3.37,5.48-6.9,8.49-10.11
					c1.07-1.14,2.26-1.91,4.18-1.47c1.98,0.44,4.1,0.17,6.16,0.57c3.89,0.74,7.27,2.55,10.43,4.81
					C277.49,121.33,280.36,124.96,283.05,128.75 M251.38,140.66c0-0.05,0.03-0.1,0.08-0.15
					C251.41,140.56,251.38,140.61,251.38,140.66 M251.55,137.06c0.01-0.09,0.05-0.17,0.11-0.25
					C251.6,136.89,251.56,136.98,251.55,137.06 M252.22,134.39c0.03-0.04,0.08-0.07,0.15-0.08
					C252.29,134.33,252.24,134.35,252.22,134.39 M249.92,135.7c1.19-1.34,2.31-2.78,3.75-3.89
					C252.23,132.92,251.11,134.36,249.92,135.7 M262.43,125.52c0.16,0,0.32,0.04,0.48,0.12
					C262.76,125.57,262.6,125.53,262.43,125.52 M266.78,126.4c0.23,0.06,0.46,0.14,0.67,0.27
					C267.24,126.54,267.02,126.45,266.78,126.4 M270.01,127.3c0.23,0.1,0.44,0.24,0.65,0.41
					C270.45,127.53,270.24,127.4,270.01,127.3"/>
			</g>
			<g>
				<path class="st1" d="M350.17,267.2c-2.94-0.92-5.48-2.67-8.25-3.94c-1.43-0.66-1.76-1.59-1.81-3.03
					c-0.2-6.62-0.5-13.23-0.78-19.84c-0.01-0.33,0.15-0.8-0.33-0.91c-0.34-0.07-0.53,0.29-0.72,0.53c-0.9,1.13-1.79,2.26-2.68,3.39
					c-5.81,7.32-11.85,14.45-18.25,21.28c-3.46,3.69-38.58-0.08-38.58-0.08s-23.09-26.25-23.42-25.58
					c-0.13,0.26-0.93,0.45-1.28,0.57c-0.34,0.12-0.26,0.54-0.3,0.84c-0.23,1.72,0.32,3.39,0.33,5.1c0.03,12.84,0.05,25.67,0.06,38.5
					c0,1.4-0.07,2.79-0.89,4c0.7,1.22,1.6,2.29,2.57,3.29c8.31,8.53,18.46,13.59,30.06,15.93c0.81,0.16,8.93-1.13,12.26-1.12
					c3.41,0.01,11.71,0.82,12.75,0.57c11.76-2.89,21.68-8.81,29.74-17.86c5.03-5.64,8.55-12.1,10.61-19.37
					C351.59,268.28,351.38,267.55,350.17,267.2z"/>
				<path class="st1" d="M343.8,163.49c1.2,1.12,1.36,2.61,1.44,4.14c0.29,5.49,0.43,10.76,0.74,16.25
					c0.02,0.27,0.01,0.55,0.07,0.81c0.16,0.71-0.42,1.42,0.49,1.49c0.72,0.05,0.58-1.06,0.86-1.76c1.22-3.05,1.93-5.52,2.79-8.68
					c0.78-2.89,3.09-4.82,5.66-6.18c0.26-0.06,0.52-0.1,0.77-0.2c2.55-0.95,4.06-0.17,4.63,2.53c0.52,2.44,0.49,4.93,0.44,7.4
					c-0.13,7.19-1.94,13.98-5.18,20.38c-1.43,2.83-3.2,5.46-5.83,7.32c-1.71,1.21-3.78,1.4-5.8,1.43c-0.96,0.01-0.64-0.92-0.58-1.49
					c0.35-3.49,0.74-6.98,1.12-10.48c0.01-0.04,0.01-0.09,0.02-0.13c0.03-0.43,0.32-1.04-0.26-1.17c-0.64-0.15-0.69,0.57-0.88,0.99
					c-0.71,1.63-0.84,3.38-1.14,5.1c-1.35,7.82-1.9,15.73-2.7,23.61c-0.21,2.11-0.47,4.21-0.62,6.32c-0.22,3.22-2.17,5.56-3.97,7.97
					c-2.55,3.43-5.56,6.47-8.32,9.72c-3.87,4.56-7.87,9.01-11.74,13.57c-3.01,3.53-6.68,5.46-11.4,5.37
					c-5.09-0.1-10.18-0.05-15.27-0.07c-3.72-0.02-6.83-1.52-9.4-4.11c-6.7-6.74-13.08-13.78-19.42-20.85
					c-2.33-2.6-4.74-5.15-6.57-8.16c-0.64-1.05-1.01-2.18-1.09-3.41c-0.38-5.57-1.02-11.11-1.71-16.65c-0.51-4.06-1-8.13-1.79-12.15
					c-0.23-1.17-0.52-2.3-0.4-3.57c0.11-1.16-0.83-2.15-1.46-3.22c-0.57,0.53-0.33,1-0.29,1.41c0.37,3.45,0.74,6.89,1.19,10.33
					c0.13,0.98-0.17,1.3-1.1,1.35c-2.28,0.11-4.38-0.38-6.28-1.67c-2.5-1.71-4.26-4-5.69-6.67c-2.69-5.01-4.54-10.28-5.27-15.92
					c-0.46-3.59-0.39-7.2-0.16-10.8c0.24-3.76,2.84-5.07,6.16-3.28c0.31,0.17,0.58,0.44,0.99,0.34c0.28,0.21,0.56,0.41,0.84,0.62
					c-0.02,0.17,0.04,0.24,0.21,0.2c1.05,0.93,1.56,2.19,2.08,3.44c-0.13,0.29-0.08,0.52,0.23,0.66c1.14,3.08,2.28,6.17,3.4,9.26
					c0.3,0.81,0.66,1.58,1.23,2.23c0.73,0.83,1.24,0.72,1.61-0.3c0.81-2.22,0.49-4.55,0.67-6.83c0.34-4.27-0.44-8.54-0.44-12.82
					c0-0.74,0.92-1.44,1.39-1.96c1.17-1.31,2.02-3.02,3.2-4.32c0.62-0.69,0.99-0.9,0.88-1.82c-0.29-2.41-0.6-9.94-0.61-10.35
					c-0.02-1.08-0.08-2.11-0.09-3.2c-0.02-1.37-0.06-8.21,0.18-9.58c0.21-1.22,4.82-8.78,5.98-9.68c2.27-1.73,6.68-0.78,9.18-0.14
					c2.12,0.55,50.66,2.57,58.77-0.58c2.15-0.84,4.95,0.18,6.79,1.62c2.31,1.8,4.42,3.89,6.66,5.76c0.99,0.83,1.49,2.68,1.58,3.91
					C340.61,136.81,342.79,162.55,343.8,163.49z M231.04,173.99c0.07,0.68,0.57,0.91,0.9,1.25c1.75,1.81,3.6,3.52,5.19,5.48
					c1.15,1.42,1.97,2.77,0.47,4.48c-0.46,0.52-0.68,1.26-0.96,1.92c-0.95,2.17-1.25,4.35,0.24,6.4c1.33,1.83,2.94,3.39,4.9,4.55
					c0.41,0.25,0.86,0.69,1.33,0.26c0.42-0.39,0.16-0.94,0.01-1.4c-0.38-1.23-1.31-2.14-1.96-3.21c-1.1-1.81-1.03-3.94,0.39-5.49
					c0.65-0.72,0.64-1.23,0.19-2c-2.47-4.27-5.49-8.11-9.12-11.46C232.22,174.4,231.83,173.91,231.04,173.99 M359.95,173.06
					c-0.48,0-0.78,0.32-1.04,0.58c-3.36,3.41-6.11,7.29-8.41,11.49c-0.41,0.74-0.24,1.45,0.11,2.19c1.14,2.38,0.98,4.68-0.44,6.93
					c-0.6,0.95-1.09,1.96-1.57,2.97c-0.16,0.33-0.46,0.78-0.02,1.1c0.35,0.24,0.69-0.07,0.98-0.26c1.93-1.28,3.6-2.82,4.98-4.69
					c1.37-1.84,1.48-3.79,0.64-5.87c-0.37-0.93-0.85-1.81-1.52-2.53c-1.09-1.16-1.01-2.17-0.07-3.43c1.8-2.42,3.63-4.81,5.57-7.11
					C359.51,174.02,359.94,173.68,359.95,173.06"/>
				<path class="st3" d="M363.99,173.68c0.83,10.52-1.42,20.33-6.86,29.36c-1.91,3.17-4.4,5.82-8.03,7.11
					c-1.2,0.43-2.44,0.68-3.7,0.71c-0.98,0.02-1.3,0.37-1.38,1.35c-0.54,6.51-1.15,13.01-1.74,19.51c-0.09,0.99-0.25,1.96-0.75,2.85
					c-0.23,0.41-0.21,0.86-0.18,1.32c0.49,7.77,0.94,15.55,1.12,23.34c0.02,0.97,0.39,1.43,1.22,1.83c2.03,0.96,4.01,2.02,6.01,3.04
					c0.24,1.02-0.14,2.14,0.47,3.11c-2.94-0.92-5.48-2.67-8.25-3.94c-1.43-0.66-1.76-1.59-1.81-3.03c-0.2-6.61-0.5-13.23-0.78-19.84
					c-0.01-0.33,0.15-0.8-0.33-0.91c-0.34-0.07-0.53,0.29-0.72,0.53c-0.9,1.13-1.79,2.26-2.68,3.39
					c-5.81,7.32-11.85,14.45-18.25,21.28c-3.46,3.69-7.49,5.76-12.73,5.74c-5.44-0.02-10.89,0.09-16.33-0.09
					c-2.42-0.08-4.61-0.71-6.65-1.96c-3.74-2.3-6.49-5.67-9.48-8.78c-1.18-1.22-14.29-15.41-17.36-19.51
					c-0.18-0.24-0.38-0.61-0.73-0.49c-0.34,0.12-0.26,0.54-0.3,0.84c-0.24,1.72,0.32,3.39,0.33,5.1c0.03,12.84,0.04,25.67,0.06,38.5
					c0,1.4-0.07,2.79-0.89,4c-1.1-0.77-1.64-1.98-2.33-3.05c-2.81-4.3-5.14-8.82-6.13-13.95c-0.29-1.52,0.3-2.25,1.46-2.9
					c1.43-0.81,2.8-1.73,4.24-2.52c1.2-0.65,1.18-1.55,0.74-2.61c0.44-0.53,0.43-1.15,0.42-1.79c-0.05-8.24-0.09-16.48-0.11-24.71
					c0-1.01-0.2-1.9-0.64-2.83c-0.93-1.99-0.89-4.2-1.09-6.34c-0.46-5.02-0.95-10.04-1.4-15.06c-0.07-0.75-0.18-1.29-1.16-1.23
					c-5.36,0.34-9.07-2.46-11.98-6.54c-4.85-6.8-7.32-14.49-7.97-22.77c-0.22-2.82-0.37-5.66,0.04-8.49
					c0.24-1.64,0.84-3.13,2.01-4.33c1.57-1.6,3.44-2.03,5.56-1.36c0.46,0.15,0.91,0.44,1.42,0.18c-0.05,1.03,0.04,2.03,0.52,2.96
					c-0.4,0.1-0.67-0.18-0.99-0.34c-3.32-1.78-5.92-0.48-6.16,3.28c-0.23,3.59-0.3,7.21,0.16,10.8c0.73,5.64,2.58,10.9,5.27,15.92
					c1.43,2.66,3.19,4.96,5.69,6.67c1.89,1.29,4,1.78,6.27,1.67c0.93-0.04,1.22-0.37,1.1-1.35c-0.45-3.43-0.82-6.88-1.19-10.33
					c-0.04-0.41-0.28-0.88,0.28-1.41c0.63,1.07,1.57,2.07,1.46,3.23c-0.12,1.27,0.17,2.39,0.4,3.57c0.79,4.02,1.28,8.08,1.79,12.15
					c0.69,5.54,1.33,11.08,1.71,16.65c0.08,1.23,0.45,2.37,1.09,3.42c1.83,3.01,4.23,5.56,6.57,8.16
					c6.34,7.07,12.72,14.11,19.42,20.85c2.57,2.58,5.68,4.09,9.4,4.11c5.09,0.02,10.18-0.03,15.27,0.07
					c4.72,0.09,8.39-1.84,11.4-5.37c3.88-4.56,7.88-9.01,11.74-13.57c2.76-3.25,5.77-6.3,8.32-9.72c1.8-2.41,3.75-4.74,3.97-7.97
					c0.14-2.11,0.4-4.21,0.62-6.32c0.8-7.88,1.35-15.79,2.7-23.61c0.3-1.72,0.43-3.48,1.14-5.1c0.18-0.42,0.24-1.14,0.88-0.99
					c0.58,0.14,0.29,0.75,0.26,1.17c0,0.04-0.01,0.09-0.02,0.13c-0.38,3.49-0.76,6.98-1.12,10.48c-0.06,0.57-0.38,1.51,0.58,1.49
					c2.02-0.03,4.08-0.22,5.8-1.43c2.63-1.87,4.4-4.5,5.83-7.32c3.24-6.4,5.05-13.18,5.18-20.38c0.05-2.47,0.07-4.97-0.44-7.4
					c-0.57-2.69-2.08-3.48-4.63-2.53c-0.25,0.09-0.51,0.13-0.77,0.2c-0.02-0.69,0.8-0.52,1.04-0.97c-0.39-0.16-0.74-0.33-1.16-0.24
					c-0.92,0.2-0.81-0.33-0.61-0.91c0.54,0.31,1.03,0.07,1.55-0.11c3.03-1.03,5.18-0.08,6.49,2.82
					C363.66,171.28,363.9,172.47,363.99,173.68 M231.04,173.99c0.07,0.68,0.57,0.91,0.9,1.25c1.75,1.81,3.6,3.52,5.19,5.48
					c1.15,1.42,1.96,2.77,0.47,4.48c-0.46,0.52-0.68,1.26-0.96,1.92c-0.95,2.17-1.25,4.35,0.24,6.4c1.33,1.83,2.94,3.39,4.9,4.55
					c0.41,0.25,0.86,0.69,1.33,0.26c0.42-0.39,0.16-0.94,0.01-1.4c-0.38-1.23-1.31-2.14-1.95-3.21c-1.09-1.81-1.03-3.94,0.39-5.49
					c0.65-0.71,0.64-1.23,0.19-2c-2.47-4.27-5.49-8.11-9.12-11.46C232.22,174.4,231.83,173.91,231.04,173.99 M359.95,173.06
					c-0.48,0.01-0.78,0.32-1.04,0.58c-3.36,3.42-6.11,7.29-8.41,11.49c-0.41,0.74-0.24,1.45,0.11,2.19
					c1.14,2.38,0.98,4.68-0.44,6.93c-0.6,0.95-1.08,1.96-1.57,2.97c-0.16,0.33-0.46,0.78-0.02,1.1c0.35,0.24,0.69-0.07,0.98-0.26
					c1.93-1.28,3.6-2.82,4.98-4.69c1.37-1.84,1.48-3.79,0.64-5.87c-0.38-0.93-0.85-1.81-1.52-2.53c-1.09-1.16-1.01-2.17-0.07-3.43
					c1.8-2.42,3.63-4.81,5.57-7.11C359.51,174.02,359.94,173.68,359.95,173.06"/>
				<g>
					<path class="st3" d="M296.09,238.2c-4.88-0.15-10.19-0.01-15.5,0.05c-0.72,0.01-1.44-0.01-2.16-0.02
						c-0.43-0.01-0.87-0.1-0.86-0.63c0.01-0.45,0.43-0.54,0.79-0.58c4.01-0.35,7.83-1.63,11.78-2.29c1.67-0.28,3.32-0.36,4.94,0.12
						c1.69,0.5,3.34,0.46,5.05,0.07c3-0.68,5.89,0.19,8.79,0.77c2.12,0.42,4.21,0.96,6.37,1.14c0.39,0.03,0.9,0.02,0.9,0.58
						c0.01,0.46-0.44,0.54-0.78,0.59c-0.62,0.1-1.25,0.19-1.87,0.19C307.86,238.21,302.19,238.2,296.09,238.2"/>
					<path class="st3" d="M289.82,218.82c1.64-0.05,2.57,0.76,3.48,1.57c2.39,2.12,5.02,2.13,7.47,0.01
						c1.49-1.29,3.16-2.05,5.18-1.85c0.4,0.04,0.88,0.02,0.89,0.6c0,0.46-0.31,0.82-0.73,0.85c-2.25,0.14-3.81,1.75-5.69,2.66
						c-2.44,1.18-4.75,1.16-6.98-0.45c-1.29-0.93-2.73-1.53-4.26-1.97c-0.45-0.13-1.13-0.02-1.08-0.72c0.04-0.55,0.71-0.45,1.1-0.61
						C289.47,218.79,289.81,218.82,289.82,218.82"/>
					<path class="st3" d="M310.26,216.79c-0.04,2.08-0.82,3.41-2.28,3.88c-0.21,0.07-0.44,0.21-0.62-0.01
						c-0.17-0.21-0.04-0.42,0.13-0.58c1.91-1.86,1.02-4.07,0.75-6.2c-0.04-0.3-0.22-0.59-0.33-0.88c-0.12-0.29-0.29-0.63,0.02-0.86
						c0.37-0.28,0.67-0.01,0.92,0.27C309.95,213.66,310.25,215.18,310.26,216.79"/>
					<path class="st3" d="M284.52,216.54c-0.16-1.37,0.35-2.65,1.04-3.88c0.19-0.34,0.51-0.72,0.97-0.55
						c0.59,0.22,0.24,0.66,0.13,1.01c-0.7,2.22-1.09,4.43,0,6.65c0.08,0.16,0.15,0.35-0.01,0.49c-0.26,0.21-0.51,0.08-0.73-0.07
						C284.64,219.32,284.46,218.01,284.52,216.54"/>
				</g>
				<g>
					<path class="st4" d="M338.67,176.01c-2.11-2.38-5.16-4.42-8.24-5.13c-1.51-0.34-3.41,0.64-4.83,1.07
						c-4.13,1.38-8.38,2.49-12.59,3.58c-2.55,0.66-5.18,1.17-7.7,1.94c-1.07,0.33-2.79-2.3-3.02-3.72c-0.06-0.35-0.12-0.8-0.6-0.74
						c-0.37,0.05-0.4,0.45-0.41,0.76c-0.04,1.44-0.09,2.89,0.29,4.3c0.49,1.85,2.16,2.97,3.95,3.38c2.19,0.5,4.38-0.21,6.58-0.14
						c0.14,0,0.76,0.2,0.85,0.12c-1.14,0.98-2.66,1.32-3.31,2.74c1.92-0.89,3.85-1.77,5.77-2.66c0.42,0.14,0.49,0.56,0.55,0.87
						c0.25,1.32,0.98,2.33,2.04,3.03c2.22,1.47,5.5,1.37,6.86-1.24c0.42-0.8,0.25-2.2,1.22-2.34c1.21-0.18,2.52,0.57,3.49,1.21
						c0.4,0.26,0.8,0.53,1.26,0.67c0.43,0.14,2.16,0.1,1.35-0.66c-1.04-0.98-2.45-1.42-3.77-1.89c-1.97-0.7-4.09-1.44-6.19-1.48
						c-0.13,0-1.48-0.11-1.52-0.02c0.17-0.69,0.81-0.59,1.29-0.75c1.23-0.42,2.47-0.77,3.7-1.16c1.34-0.42,2.68-0.91,4.07-1.14
						c1.22-0.2,2.46,0.01,3.68,0.14c1.32,0.13,2.64,0.29,3.96,0.5c0.5,0.08,2.28-0.06,1.54-0.94
						C338.85,176.21,338.76,176.11,338.67,176.01"/>
					<path class="st4" d="M292.22,171.88c-0.47,0-0.47,0.6-0.53,0.97c-0.23,1.37-4.09,4.95-12.97,2.49
						c-2.66-0.74-5.4-1.43-8.08-2.17c-1.36-0.37-2.73-0.74-4.1-1.07c-0.69-0.17-1.37-0.38-2.07-0.51c-1.87-0.33-3.71,0.61-5.23,1.59
						c-1.56,1.01-3.18,2.13-4.47,3.48c-0.48,0.5-0.86,1.25-0.49,1.82c0.34,0.53,1.13,0.26,1.74,0.13c0.04-0.01,0.07-0.05,0.11-0.07
						c5.61-2.17,11.09-1.08,16.54,0.69c0.05,0.02,0.07,0.15,0.17,0.38c-1.67,0.27-3.34,0.31-4.94,0.74
						c-2.26,0.61-4.51,1.25-6.5,2.54c-0.25,0.16-0.65,0.31-0.52,0.69c0.15,0.4,0.56,0.4,0.93,0.29c0.3-0.09,0.6-0.19,0.88-0.33
						c1.33-0.67,2.76-1.08,4.15-1.59c1.03-0.37,1.46-0.33,1.72,0.92c0.37,1.82,1.45,3.21,3.45,3.52c2.03,0.32,3.85,0.01,5.12-1.86
						c0.6-0.89,0.6-1.97,1.06-2.89c0.68,0.25,1.37,0.49,2.26,0.82c-0.35-0.6-0.78-0.9-0.78-1.41c0.31,0.03,0.66-0.05,0.96,0.05
						c0.59,0.2,1.21,0.17,1.83,0.23c0.58,0.06,1.14,0.24,1.73,0.33c0.79,0.13,1.58,0.18,2.38,0.16c2.31-0.07,4.66-1.48,5.45-3.71
						c0.6-1.67,0.73-3.42,0.72-5.18C292.73,172.52,292.84,171.89,292.22,171.88"/>
				</g>
			</g>
			<g>
				<path class="st1" d="M329.82,347.35c0.73,0.16,1.24,0.7,1.61,1.35c0.21,0.36,0.78,0.45,1.19,0.61c5.93,2.33,8.93,6.92,7.65,13.1
					c-1.1,5.3-3.02,10.33-5.26,15.22c-0.92,2.01-2.75,3.23-5.06,3.67c-1.81,0.35-5.08-0.08-5.9-0.32c-0.95-0.27-1.63-1.13-2.39-1.76
					c-1.87-1.54-2.88-3.52-2.85-6.1c0.01-1.06-0.02-2.12-0.19-3.16c-0.59-3.56,0.14-6.64,1.99-9.53c1.25-1.94,1.89-4.11,1.79-6.47
					c-0.07-1.57-0.04-3.15-0.05-4.73c0-1.29,0.87-2.1,2.13-2.26C326.37,346.73,328.42,347.04,329.82,347.35z"/>
				<path class="st1" d="M309.47,371.26c-0.02-1.09,0.43-1.33,1.4-1.08c2.32,0.6,4.27,1.74,4.72,4.25c0.59,3.24,0.83,6.52-0.77,9.63
					c-0.84,1.63-3.12,2.89-4.9,2.63c-0.78-0.11-0.58-0.68-0.58-1.13"/>
				<path class="st3" d="M336.35,454.97c0.14-0.14,0.24-0.07,0.32,0.07C336.53,455.15,336.42,455.13,336.35,454.97"/>
				<path class="st1" d="M457.86,388.66c-1.84-8.18-6.21-18.25-11.98-23.92c-7.76-7.63-16.84-12.99-27.24-16.15
					c-8.51-2.59-17.1-3.54-25.81-1.09c-6.24,1.76-11.46,4.77-14.81,10.79c-3.84,6.91-6.84,14.07-8.65,21.73
					c-0.65,2.73-1.72,5.39-1.65,8.27c3.72-1.36,7.42-2.77,11.15-4.08c6.43-2.26,13-3.66,19.88-2.97c4.01,0.4,7.88,1.38,11.62,2.88
					c0.29,0.12,0.86,0.16,0.68,0.64c-0.16,0.43-0.63,0.15-0.96,0.09c-4.36-0.8-8.76-0.99-13.18-1c-6.22-0.01-12.15,1.38-17.94,3.45
					c-6.66,2.38-13.32,4.75-20.08,6.8c-1.77,0.53-3.58,0.93-5.42,1.07c-0.88,0.06-1.43,0.59-1.55,1.26
					c-0.21,1.2-0.84,2.19-1.48,3.11c-1.21,1.75-1.12,3.3,0.01,5.03c1.18,1.81,2.08,3.79,2.61,5.9c1.19,4.66,0.13,8.94-3.27,12.18
					c-2.54,2.42-3.09,4.83-2.55,8.13c0.67,4.13-0.87,7.72-3.79,10.77c-0.94,0.98-1.97,1.84-3.06,2.57c-1.24,0.83-1.79,1.9-1.98,3.32
					c-0.32,2.41-0.65,4.84-2.58,6.65c-0.14,0.13-0.14,0.41-0.2,0.63c0.24,0.09,0.48,0.17,0.72,0.26c0.14-0.14,0.24-0.07,0.32,0.07
					c3.65,1.09,7.26,2.29,10.95,3.23c3.07,0.78,21,2.92,24.16,3.09c45.64,2.46,78.99-19.08,82.8-25.92
					C463.67,419.11,458.91,393.36,457.86,388.66z"/>
				<path class="st1" d="M141.81,364.66c1.84-8.18,6.21-18.25,11.98-23.92c7.76-7.63,16.84-12.99,27.24-16.15
					c8.51-2.59,17.1-3.54,25.81-1.09c6.24,1.76,11.46,4.77,14.81,10.79c3.84,6.91,6.84,14.07,8.65,21.73
					c0.65,2.73,1.99,8.01,1.92,10.89c-3.72-1.36,1.8,1.14,8.57,3.19c1.77,0.53,3.58,0.93,5.42,1.07c0.88,0.06,1.43,0.59,1.55,1.26
					c0.21,1.2,0.84,2.19,1.48,3.11c1.21,1.75,1.12,3.3-0.01,5.03c-1.18,1.81-2.08,3.79-2.61,5.9c-1.19,4.66-0.13,8.94,3.27,12.18
					c2.54,2.42,3.09,4.83,2.55,8.13c-0.67,4.13,0.87,7.72,3.79,10.77c0.94,0.98,1.97,1.84,3.06,2.57c1.24,0.83,1.79,1.9,1.98,3.32
					c0.32,2.41,0.65,4.84,2.58,6.65c0.14,0.13,0.14,0.41,0.2,0.63c-0.24,0.09-0.48,0.17-0.72,0.26c-0.14-0.14-0.24-0.07-0.32,0.07
					c-3.65,1.09-7.26,2.29-10.95,3.23c-3.07,0.78-21,2.92-24.16,3.09c-45.64,2.46-78.99-19.08-82.8-25.92
					C136,395.11,140.76,369.36,141.81,364.66z"/>
				<path class="st1" d="M347.3,404.92c-1.23-2.14-1.11-4.12,0.19-6.22c0.95-1.54,1.87-3.12,2.53-4.84c1.66-4.38,0.67-8.31-2-11.94
					c-2.19-2.97-5.32-4.94-8-7.39c-0.57-0.52-0.94-0.11-1.16,0.51c-0.27,0.76-0.6,1.49-0.92,2.23c-2.5,5.76-7.2,6.87-11.69,6.3
					c-0.8-0.1-1.61-0.18-2.36-0.54c-0.68,0.52-0.65,1.28-0.75,2.02c-0.4,3.02-1.95,5.91-5.43,6.57c-1.59,0.3-3.16,0.71-4.76,0.96
					c-2.61,0.41-2.62,0.38-3.14,3c-0.43,2.2-2.14,3.72-4.36,3.79c-3.69,0.11-7.38,0.16-11.07-0.04c-0.31-0.02-0.62-0.04-0.92-0.12
					c-2.15-0.64-3-1.91-3.08-4.59c-0.02-0.65,0.13-1.27-0.84-1.55c-3.84-1.11-7.66-2.31-11.46-3.54c-0.55-0.18-1.25-0.23-1.6-0.85
					c-0.85,0.3-1.51-0.26-2.12-0.62c-3.67-2.17-7.43-4.22-10.74-6.94c-2.26-1.86-3.6-4.3-4.47-7.34c0.96,0.4,1.66,0.76,2.17,1.36
					c2.42,2.8,5.73,3.9,9.13,4.81c1.69,0.45,3.4,0.85,5.1,1.28c0.33,0.09,0.74,0.07,0.87,0.51c1.27,0.28,2.55,0.55,3.82,0.84
					c3.25,0.73,6.49,1.48,9.74,2.19c0.52,0.11,1.25,0.45,1.25-0.59c0-5.85-0.01-11.7,0.01-17.55c0-0.55-0.24-0.78-0.73-0.96
					c-3.14-1.19-6.27-2.41-9.41-3.6c-2.67-1.01-5.37-1.94-8.03-2.97c-1.88-0.72-2.3-1.93-1.44-3.68c0.44-0.9,0.99-1.74,1.69-2.43
					c1.19-1.18,1.67-2.37,1.06-4.08c-0.32-0.9-0.56-1.15-1.47-0.91c-5.7,1.53-11.28,3.41-16.56,6.07c-2.34,1.18-4.15,2.94-5.38,5.28
					c-1.26,2.39-1.52,4.96-1.38,7.6c0.69,2.41,1.67,4.76,1.81,7.28c0.13,2.33-1.31,4.06-2.55,5.82c-1.55,2.2-3.47,4.16-4.21,6.86
					c-0.86,3.15-0.24,6.06,1.43,8.79c0.81,1.33,1.72,2.61,2.45,3.98c1.05,1.96,0.64,3.9-0.3,5.81c-0.77,1.57-1.55,3.16-1.83,4.92
					c-0.51,3.2,0.66,5.91,2.83,8.12c1.9,1.94,2.61,4.09,2.28,6.74c-0.2,1.6-0.21,3.23-0.27,4.85c-0.19,4.73,2.01,8.02,6.2,9.99
					c2.72,1.28,5.51,2.42,8.29,3.59c0.34,0.14,0.77,0.51,1.12,0.17c0.4-0.39-0.09-0.72-0.25-1.06c-2.08-4.21-2.3-8.35,0.49-12.35
					c0.23-0.34,0.24-0.53-0.04-0.78c-0.44-0.39-0.93-0.66-1.49-0.86c-2.07-0.74-3.83-1.96-5.33-3.57c-0.6-0.65-0.85-1.4-0.51-2.24
					c0.16-0.41,0.47-0.8,0.97-0.84c0.45-0.03,0.55,0.4,0.71,0.71c0.82,1.57,2.46,2.1,3.84,2.84c5.92,3.17,12.17,5.62,18.39,8.13
					c1.21,0.49,2.42,1,3.57,1.61c4.18,2.21,8.69,2.74,13.32,2.9c7.2,0.25,14.39,0.66,21.56,1.36c0.31,0.03,0.63,0.05,0.93,0.13
					c0.9,0.25,0.96,0.69,0.28,1.31c-0.7,0.64-1.52,0.9-2.47,0.91c-5.46,0.06-10.88-0.48-16.32-0.71c-1.75-0.07-3.51-0.41-5.25-0.31
					c-4.65,0.26-8.85-1.1-13.02-2.97c-4.93-2.21-9.95-4.21-14.93-6.31c-1.82-0.77-2.08-0.71-2.74,1.19
					c-0.96,2.78-1.37,5.59-0.08,8.42c0.61,1.33,1.54,2.29,2.74,3.07c1.77,1.15,3.65,2.06,5.56,2.89c0.32,0.27,0.69,0.56,1.18,0.84
					c2.34,1.35,7.11,4.77,18.45,6.84c11.34,2.07,18.81,2.79,18.81,2.79s0.06-0.11,0.15-0.29c1.14,0.32,2.28,0.63,3.45,0.77
					c4.43,0.55,8.74,0.27,12.47-2.6c2.37-1.82,3.86-4.25,3.98-7.22c0.15-3.61,2.01-6.04,4.71-8.07c1.05-0.79,2-1.68,2.78-2.73
					c1.49-2.01,1.74-4.29,1.38-6.69c-0.15-0.98-0.24-1.98-0.5-2.93c-0.58-2.17,0.11-3.84,1.76-5.29c1.01-0.89,1.91-1.91,2.79-2.93
					c2.76-3.18,2.96-6.74,1.39-10.48C348.95,407.82,348.13,406.36,347.3,404.92z M333.46,404.52c-1.18,1.25-2.53,2.3-4.02,3.16
					c-6.28,3.63-13.21,5.61-20.03,7.87c-3.67,1.22-7.37,2.35-11.06,3.53c-0.33,0.1-0.83,0.14-0.79,0.58
					c0.04,0.5,0.55,0.54,0.94,0.55c2.02,0.09,4.05,0.19,6.07,0.25c8.01,0.23,16.02,0.55,24.01,1.19c0.69,0.05,1.91-0.17,1.91,0.71
					c0,0.86-1.21,0.68-1.92,0.75c-6.83,0.65-13.68,0.34-20.52,0.13c-3.15-0.1-6.29-0.25-9.43-0.53c-3.57-0.32-6.8-1.74-10.05-3.03
					c-6.11-2.41-12.15-5-18.19-7.6c-3.01-1.29-6.1-2.48-8.73-4.52c-0.35-0.27-0.73-0.56-0.98-0.91c-0.29-0.4-0.95-0.81-0.54-1.37
					c0.35-0.48,0.94-0.1,1.37,0.07c3.47,1.38,6.93,2.79,10.4,4.18c6.39,2.57,12.67,5.4,19.16,7.72c1.42,0.51,2.71,0.46,4.18-0.02
					c7.58-2.44,15.16-4.9,22.66-7.61c2.78-1.01,5.6-1.94,8.2-3.4c0.83-0.47,1.14-1.16,1.18-2.11c0.14-3.03-0.47-5.9-1.76-8.63
					c-0.85-1.82-2.41-2.54-4.32-2.8c2.49-0.49,5.41,1.19,6.46,3.32c1.09,2.22,1.25,4.57,1.4,6.95c0.09,1.39,0.25,1.55,1.63,1.15
					c0.65-0.18,1.3-0.36,1.87-0.77c0.43-0.3,1.11-0.72,1.44-0.32C334.42,403.52,333.85,404.11,333.46,404.52z"/>
				<path class="st3" d="M249.58,366.96c0.69,2.41,1.67,4.76,1.81,7.28c0.13,2.32-1.31,4.06-2.55,5.82
					c-1.55,2.2-3.47,4.16-4.21,6.86c-0.86,3.15-0.24,6.06,1.43,8.79c0.81,1.33,1.72,2.61,2.45,3.98c1.05,1.96,0.64,3.9-0.3,5.81
					c-0.77,1.58-1.55,3.16-1.83,4.92c-0.5,3.2,0.66,5.91,2.83,8.12c1.9,1.94,2.61,4.09,2.28,6.74c-0.2,1.6-0.21,3.23-0.27,4.85
					c-0.19,4.73,2.01,8.01,6.2,9.99c2.72,1.28,5.51,2.42,8.29,3.59c0.34,0.14,0.77,0.51,1.12,0.17c0.4-0.39-0.09-0.72-0.25-1.06
					c-2.08-4.21-2.3-8.35,0.49-12.35c0.23-0.34,0.24-0.53-0.04-0.78c-0.44-0.39-0.93-0.66-1.49-0.86c-2.07-0.74-3.83-1.96-5.33-3.57
					c-0.6-0.65-0.85-1.4-0.51-2.24c0.16-0.41,0.47-0.8,0.97-0.84c0.45-0.03,0.55,0.4,0.71,0.71c0.82,1.57,2.46,2.1,3.84,2.84
					c5.92,3.17,12.17,5.62,18.39,8.13c1.21,0.49,2.42,1,3.57,1.61c4.18,2.21,8.69,2.74,13.33,2.9c7.2,0.25,14.39,0.66,21.56,1.36
					c0.31,0.03,0.63,0.05,0.93,0.13c0.9,0.25,0.96,0.69,0.28,1.31c-0.71,0.64-1.52,0.89-2.47,0.9c-5.45,0.06-10.88-0.48-16.32-0.71
					c-1.75-0.07-3.51-0.41-5.25-0.31c-4.65,0.26-8.85-1.1-13.02-2.97c-4.93-2.21-9.95-4.21-14.93-6.31
					c-1.82-0.77-2.08-0.71-2.74,1.19c-0.96,2.78-1.37,5.58-0.08,8.42c0.61,1.33,1.54,2.29,2.74,3.07
					c3.76,2.44,14.21,5.98,14.38,7.35c-2.49-0.57-4.91-1.35-7.23-2.44c-0.41-0.19-0.82-0.38-1.23-0.56
					c-1.8-0.77-1.81-0.77-2.09,1.21c-0.1,0.73-0.33,1.22-1.21,0.97c-5.32-1.51-10.53-3.3-15.24-6.27c-1.37-0.86-2.7-1.82-3.62-3.18
					c-0.58-0.84-3.18-1.9-3.84-2.64c-2.37-2.67-3.25-5.74-3-9.23c0.04-0.54,0-1.09,0.09-1.62c0.52-3.33-0.42-6.06-2.49-8.82
					c-2.86-3.83-3.42-8.36-1.34-12.8c1.45-3.09,1.47-5.49-0.66-8.51c-3.91-5.53-3.24-11.35,0.54-16.88
					c1.29-1.89,2.63-3.76,3.64-5.84c0.47-0.96,0.48-1.38-0.76-1.77c-5.94-1.83-11.73-4.09-17.48-6.43c-4.04-1.65-8.08-3.3-12.33-4.4
					c-7-1.82-13.83-1.07-20.63,1.03c-3.27,1.01-6.52,2.05-9.68,3.39c-0.24,0.1-0.48,0.28-0.83,0c0.63-0.95,1.54-1.6,2.49-2.1
					c4.07-2.12,8.22-4.05,12.69-5.23c7.1-1.86,14-0.99,20.85,1.3c3.72,1.24,7.33,2.76,10.9,4.37c0.37,0.17,2.15,1.34,3.09,1.71
					c3.81,1.49,7.59,3.07,11.35,4.68c1.15,0.5,1.47,0.1,1.47-0.96C249.06,369.48,249.14,368.2,249.58,366.96 M324.45,381.05
					c-0.24,0.58-0.33,1.39-0.58,1.97c0.74,0.36,1.55,0.44,2.36,0.54c4.49,0.57,9.19-0.55,11.69-6.3c0.32-0.74,0.65-1.47,0.92-2.23
					c0.22-0.62,0.59-1.03,1.16-0.51c2.68,2.45,5.82,4.42,8,7.39c2.67,3.63,3.65,7.56,2,11.94c-0.65,1.72-1.57,3.3-2.52,4.85
					c-1.3,2.1-1.42,4.08-0.19,6.22c0.83,1.44,1.65,2.9,2.3,4.43c1.57,3.74,1.36,7.3-1.39,10.48c-0.88,1.02-1.78,2.04-2.79,2.93
					c-1.64,1.45-2.33,3.12-1.75,5.29c0.25,0.95,0.35,1.95,0.5,2.93c0.36,2.4,0.11,4.68-1.38,6.69c-0.78,1.05-1.73,1.95-2.78,2.73
					c-2.7,2.03-4.56,4.46-4.71,8.07c-0.12,2.97-1.61,5.4-3.98,7.22c-3.73,2.87-8.05,3.14-12.47,2.6c-2.92-0.36-5.65-1.72-8.63-1.84
					c0.53,1.1,0.4,2.28,0.36,3.43c-0.03,0.97,0.32,1.4,1.28,1.48c1.03,0.08,2.04,0.29,3.07,0.38c7.35,0.72,13.82-1.33,19.35-6.25
					c0.42-0.37,0.84-0.65,1.38-0.76c0.06-0.21,0.06-0.49,0.2-0.63c1.93-1.81,2.25-4.24,2.58-6.65c0.19-1.42,0.73-2.49,1.98-3.32
					c1.1-0.73,2.12-1.59,3.06-2.57c2.92-3.05,4.47-6.63,3.79-10.77c-0.54-3.3,0.01-5.71,2.55-8.13c3.41-3.24,4.46-7.52,3.27-12.18
					c-0.54-2.1-1.43-4.09-2.62-5.9c-1.13-1.73-1.22-3.27-0.01-5.03c0.64-0.92,1.27-1.91,1.48-3.11c0.12-0.67,0.66-1.19,1.55-1.26
					c1.84-0.14,3.65-0.53,5.42-1.07c6.77-2.05,13.43-4.42,20.08-6.8c5.8-2.07,11.73-3.47,17.94-3.45c4.42,0.01,8.82,0.2,13.18,1
					c0.33,0.06,0.8,0.35,0.96-0.08c0.18-0.48-0.38-0.53-0.68-0.64c-3.74-1.5-7.61-2.48-11.62-2.88c-6.88-0.68-13.45,0.72-19.88,2.97
					c-3.73,1.31-7.43,2.71-11.15,4.08c-4.46,1.54-8.91,3.1-13.38,4.6c-1.73,0.58-1.74,0.52-1.71-1.27c0.04-3.03-0.5-5.89-2.11-8.53
					c-0.77-1.25-1.79-2.23-2.75-3.3c-2.09-2.33-4.62-4.17-7.14-5.94c-0.99-0.69-1.41-1.18-1.16-2.25c0.54-2.32,0.95-4.69,1.71-6.93
					c1.9-5.6,0.93-10.05-3.5-13.89c-1.74-1.51-3.72-2.8-6.16-3.01c-0.57,1.18,0.47,1.26,1.1,1.51c5.93,2.33,8.93,6.92,7.65,13.1
					c-1.1,5.3-3.02,10.33-5.26,15.22c-0.92,2.01-2.75,3.23-5.06,3.67C328.15,381.63,324.45,381.05,324.45,381.05z M276.47,388.68
					c-0.67-1.9-0.91-3.86-0.87-5.86c0.01-0.59,0.11-1.03,0.81-1.08c-0.13-0.44-0.54-0.43-0.87-0.51c-1.7-0.43-3.41-0.83-5.1-1.28
					c-3.41-0.9-6.71-2.01-9.13-4.81c-0.51-0.59-1.21-0.96-2.17-1.36c0.88,3.04,2.21,5.48,4.48,7.34c3.32,2.72,7.07,4.78,10.74,6.94
					C274.97,388.42,275.62,388.98,276.47,388.68 M321.22,392.68c1.91,0.26,3.46,0.98,4.32,2.8c1.28,2.74,1.9,5.6,1.76,8.63
					c-0.04,0.95-0.36,1.65-1.18,2.11c-2.6,1.46-5.42,2.39-8.2,3.4c-7.49,2.72-15.07,5.17-22.66,7.61c-1.47,0.47-2.76,0.53-4.18,0.02
					c-6.49-2.32-12.77-5.15-19.16-7.72c-3.47-1.39-6.93-2.8-10.4-4.18c-0.43-0.17-1.02-0.56-1.37-0.07
					c-0.41,0.56,0.24,0.97,0.54,1.37c0.26,0.36,0.63,0.64,0.98,0.91c2.63,2.04,5.72,3.22,8.73,4.52c6.04,2.59,12.08,5.18,18.19,7.6
					c3.25,1.28,6.48,2.7,10.05,3.02c3.14,0.28,6.29,0.44,9.43,0.53c6.84,0.21,13.68,0.52,20.52-0.13c0.7-0.07,1.92,0.12,1.92-0.75
					s-1.22-0.65-1.91-0.7c-7.99-0.64-16-0.96-24.01-1.19c-2.02-0.06-4.05-0.15-6.07-0.25c-0.4-0.02-0.9-0.06-0.94-0.55
					c-0.03-0.44,0.47-0.48,0.79-0.58c3.68-1.18,7.38-2.32,11.06-3.54c6.82-2.26,13.75-4.24,20.03-7.87
					c1.49-0.86,2.84-1.91,4.02-3.16c0.39-0.41,0.96-1,0.55-1.5c-0.33-0.4-1.01,0.01-1.44,0.32c-0.57,0.4-1.22,0.58-1.87,0.77
					c-1.37,0.39-1.54,0.23-1.63-1.15c-0.15-2.38-0.31-4.73-1.4-6.95C326.63,393.87,323.7,392.2,321.22,392.68"/>
			</g>
		</g>
	</g>
</g>
</svg>
