<?xml version="1.0" encoding="UTF-8" standalone="no"?>
<!-- Generator: Adobe Illustrator 26.0.0, SVG Export Plug-In . SVG Version: 6.00 Build 0)  -->

<svg
   version="1.1"
   id="图层_1"
   x="0px"
   y="0px"
   viewBox="0 0 860.69999 1457"
   xml:space="preserve"
   width="860.70001"
   height="1457"
   xmlns="http://www.w3.org/2000/svg"
   xmlns:svg="http://www.w3.org/2000/svg"><defs
   id="defs22" />
<style
   type="text/css"
   id="style1">
	.st0{fill:#BFA583;}
	.st1{fill:#CFB89C;}
	.st2{fill:#DED1C1;}
</style>
<g
   id="图层_2_00000142877516324275656000000013307548410707386538_"
   style="display:inline"
   transform="translate(-107.8,-229.4)">
	<g
   id="g22">
		<g
   id="g1">
			<rect
   x="395"
   y="234.39999"
   class="st0"
   width="286.39999"
   height="286.39999"
   id="rect1" />
			<path
   d="M 686.4,525.8 H 390 V 229.4 H 686.4 Z M 400,515.8 H 676.4 V 239.4 H 400 Z"
   id="path1" />
		</g>
		<g
   id="g2">
			<polygon
   class="st0"
   points="562.8,520.8 211.4,520.8 112.8,673.4 112.8,1437.2 238.1,1681.4 616.1,1681.4 763.2,1681.4 838.3,1681.4 963.5,1437.2 963.5,673.4 864.9,520.8 693.5,520.8 "
   id="polygon1" />
			<path
   d="M 841.4,1686.4 H 235 l -127.2,-248 V 671.9 L 208.7,515.8 h 658.9 c 33.65151,52.02151 67.26986,104.06463 100.9,156.1 v 766.5 z m -600.3,-10 H 835.3 L 958.5,1436 V 674.9 L 862.2,525.8 h -648 L 117.9,674.9 V 1436 Z"
   id="path2" />
		</g>
		<g
   id="g3">
			<polygon
   class="st1"
   points="259.1,675 396.5,520.8 679.9,520.8 817.3,675 817.3,1151.8 675.4,1382.4 401,1382.4 259.1,1151.8 "
   id="polygon2" />
			<path
   d="m 678.2,1387.4 h -280 L 254.1,1153.2 V 673.1 L 394.2,515.8 h 288 l 140.1,157.3 v 480.2 z m -274.5,-10 h 268.9 l 139.7,-227 V 676.9 L 677.7,525.8 h -279 L 264.1,676.9 v 473.6 z"
   id="path3" />
		</g>
		<g
   id="g4">
			<circle
   class="st2"
   cx="537.79999"
   cy="394.79999"
   r="93.900002"
   id="circle3" />
			<path
   d="m 537.8,491.2 c -53.2,0 -96.4,-43.2 -96.4,-96.4 0,-53.2 43.2,-96.4 96.4,-96.4 53.2,0 96.4,43.2 96.4,96.4 0,53.2 -43.2,96.4 -96.4,96.4 z m 0,-187.8 c -50.4,0 -91.4,41 -91.4,91.4 0,50.4 41,91.4 91.4,91.4 50.4,0 91.4,-41 91.4,-91.4 0,-50.4 -41,-91.4 -91.4,-91.4 z"
   id="path4" />
		</g>
		<g
   id="g5">
			<circle
   class="st2"
   cx="536.29999"
   cy="859"
   r="188.60001"
   id="circle4" />
			<path
   d="m 536.3,1050.1 c -105.4,0 -191.1,-85.7 -191.1,-191.1 0,-105.4 85.7,-191.1 191.1,-191.1 105.4,0 191.1,85.7 191.1,191.1 0,105.4 -85.7,191.1 -191.1,191.1 z m 0,-377.2 c -102.6,0 -186.1,83.5 -186.1,186.1 0,102.6 83.5,186.1 186.1,186.1 102.6,0 186.1,-83.5 186.1,-186.1 0,-102.6 -83.5,-186.1 -186.1,-186.1 z"
   id="path5" />
		</g>
		<g
   id="g7">
			<path
   d="m 603.6,283.5 h 12.6 v 4.2 h -12.6 z"
   id="path6" />
			<path
   d="m 630.3,274.3 -7.1,1.4 v -4.4 l 8.6,-1.8 h 3.8 v 28.9 h -5.3 z"
   id="path7" />
		</g>
		<g
   id="g9">
			<path
   d="M 520.3,590.3 H 533 v 4.2 h -12.6 v -4.2 z"
   id="path8" />
			<path
   d="m 547,581.1 -7.1,1.4 v -4.4 l 8.6,-1.8 h 3.8 v 28.9 H 547 Z"
   id="path9" />
		</g>
		<g
   id="g11">
			<path
   d="M 520.3,1202.9 H 533 v 4.2 h -12.6 v -4.2 z"
   id="path10" />
			<path
   d="m 547,1193.7 -7.1,1.4 v -4.4 l 8.6,-1.8 h 3.8 v 28.9 H 547 Z"
   id="path11" />
		</g>
		<g
   id="g13">
			<path
   d="m 518.9,394.3 h 12.6 v 4.2 h -12.6 z"
   id="path12" />
			<path
   d="m 546.5,409.6 c -1.5,0 -3,-0.2 -4.2,-0.6 -1.2,-0.4 -2.3,-1.2 -3.2,-2.3 -0.9,-1.1 -1.6,-2.6 -2.1,-4.6 -0.5,-2 -0.7,-4.4 -0.7,-7.3 0,-3 0.2,-5.4 0.7,-7.3 0.5,-1.9 1.2,-3.4 2.1,-4.6 0.9,-1.1 2,-1.9 3.2,-2.3 1.2,-0.4 2.7,-0.6 4.2,-0.6 1.5,0 3,0.2 4.2,0.6 1.3,0.4 2.3,1.2 3.2,2.3 0.9,1.1 1.6,2.6 2.1,4.6 0.5,1.9 0.7,4.4 0.7,7.3 0,3 -0.2,5.4 -0.7,7.3 -0.5,1.9 -1.2,3.5 -2.1,4.6 -0.9,1.1 -2,1.9 -3.2,2.3 -1.2,0.4 -2.7,0.6 -4.2,0.6 z m 0,-4.4 c 0.9,0 1.6,-0.1 2.3,-0.5 0.7,-0.4 1.1,-0.8 1.5,-1.6 0.4,-0.8 0.7,-1.8 0.9,-3.2 0.2,-1.4 0.3,-3.1 0.3,-5.1 0,-2 -0.1,-3.8 -0.3,-5.1 -0.2,-1.3 -0.5,-2.4 -0.9,-3.2 -0.4,-0.8 -0.9,-1.3 -1.5,-1.6 -0.6,-0.3 -1.4,-0.5 -2.3,-0.5 -0.9,0 -1.6,0.1 -2.3,0.5 -0.6,0.3 -1.1,0.9 -1.5,1.6 -0.4,0.8 -0.7,1.8 -0.9,3.2 -0.2,1.3 -0.3,3 -0.3,5.1 0,2.1 0.1,3.8 0.3,5.1 0.2,1.3 0.5,2.4 0.9,3.2 0.4,0.8 0.9,1.3 1.5,1.6 0.6,0.3 1.4,0.5 2.3,0.5 z"
   id="path13" />
		</g>
		<g
   id="g15"
   style="display:inline">
			<path
   d="M 517.4,858.6 H 530 v 4.2 h -12.6 z"
   id="path14" />
			<path
   d="m 545,873.9 c -1.5,0 -3,-0.2 -4.2,-0.7 -1.2,-0.5 -2.3,-1.2 -3.2,-2.3 -0.9,-1.1 -1.6,-2.6 -2.1,-4.6 -0.5,-2 -0.7,-4.4 -0.7,-7.3 0,-3 0.2,-5.4 0.7,-7.3 0.5,-1.9 1.2,-3.4 2.1,-4.6 0.9,-1.1 2,-1.9 3.2,-2.3 1.2,-0.4 2.7,-0.7 4.2,-0.7 1.5,0 3,0.2 4.2,0.7 1.3,0.4 2.3,1.2 3.2,2.3 0.9,1.1 1.6,2.6 2.1,4.6 0.5,1.9 0.7,4.4 0.7,7.3 0,3 -0.2,5.4 -0.7,7.3 -0.5,1.9 -1.2,3.5 -2.1,4.6 -0.9,1.1 -2,1.9 -3.2,2.3 -1.2,0.5 -2.6,0.7 -4.2,0.7 z m 0,-4.5 c 0.9,0 1.6,-0.2 2.3,-0.5 0.7,-0.3 1.1,-0.8 1.5,-1.6 0.4,-0.8 0.7,-1.8 0.9,-3.2 0.2,-1.3 0.3,-3.1 0.3,-5.1 0,-2 -0.1,-3.8 -0.3,-5.1 -0.2,-1.3 -0.5,-2.4 -0.9,-3.2 -0.4,-0.8 -0.9,-1.3 -1.5,-1.6 -0.6,-0.3 -1.4,-0.5 -2.3,-0.5 -0.9,0 -1.6,0.2 -2.3,0.5 -0.6,0.3 -1.1,0.8 -1.5,1.6 -0.4,0.8 -0.7,1.8 -0.9,3.2 -0.2,1.3 -0.3,3 -0.3,5.1 0,2.1 0.1,3.8 0.3,5.1 0.2,1.3 0.5,2.4 0.9,3.2 0.4,0.8 0.9,1.3 1.5,1.6 0.7,0.3 1.4,0.5 2.3,0.5 z"
   id="path15" />
		</g>
		<g
   id="g20"
   style="display:inline">
			<g
   id="g17">
				<path
   d="m 167.8,891.6 h 12.6 v 4.2 h -12.6 z"
   id="path16" />
				<path
   d="m 192.6,906.9 c -1.3,0 -2.4,0 -3.5,-0.1 -1.1,-0.1 -2.1,-0.2 -3.1,-0.4 v -4.5 c 1.1,0.2 2.2,0.4 3.2,0.5 1,0.1 2.1,0.2 3.2,0.2 0.9,0 1.8,-0.1 2.6,-0.2 0.8,-0.1 1.5,-0.4 2.1,-0.7 0.6,-0.3 1.1,-0.8 1.4,-1.3 0.4,-0.6 0.5,-1.3 0.5,-2.2 0,-1.7 -0.6,-2.9 -2,-3.5 -1.3,-0.6 -3.1,-0.9 -5.5,-0.9 h -2.2 v -4 h 2.2 c 2.2,0 3.9,-0.3 5.1,-1 1.2,-0.7 1.9,-1.8 1.9,-3.3 0,-1.4 -0.5,-2.4 -1.5,-3 -1,-0.5 -2.3,-0.8 -4.1,-0.8 -0.9,0 -1.8,0.1 -2.9,0.2 -1.1,0.2 -2,0.3 -2.8,0.6 V 878 c 0.7,-0.2 1.6,-0.4 2.8,-0.6 1.2,-0.2 2.3,-0.2 3.5,-0.2 1.6,0 3,0.1 4.2,0.4 1.2,0.3 2.3,0.7 3.2,1.3 0.9,0.6 1.6,1.4 2,2.4 0.5,1 0.7,2.2 0.7,3.6 0,1.7 -0.4,3 -1.2,4 -0.8,1 -2,1.8 -3.6,2.3 v 0.2 c 1.9,0.4 3.3,1.1 4.2,2.3 0.9,1.2 1.4,2.7 1.4,4.5 0,5.9 -3.9,8.7 -11.8,8.7 z"
   id="path17" />
			</g>
			<g
   id="g19">
				<path
   d="m 868.2,891.6 h 12.6 v 4.2 h -12.6 z"
   id="path18" />
				<path
   d="m 893.1,906.9 c -1.3,0 -2.5,0 -3.5,-0.1 -1,-0.1 -2.1,-0.2 -3.1,-0.4 v -4.5 c 1.1,0.2 2.2,0.4 3.2,0.5 1,0.1 2,0.2 3.2,0.2 0.9,0 1.8,-0.1 2.6,-0.2 0.8,-0.1 1.5,-0.4 2.1,-0.7 0.6,-0.3 1.1,-0.8 1.4,-1.3 0.3,-0.6 0.5,-1.3 0.5,-2.2 0,-1.7 -0.7,-2.9 -2,-3.5 -1.3,-0.6 -3.2,-0.9 -5.5,-0.9 h -2.2 v -4 h 2.2 c 2.2,0 3.9,-0.3 5.1,-1 1.2,-0.7 1.8,-1.8 1.8,-3.3 0,-1.4 -0.5,-2.4 -1.5,-3 -1,-0.5 -2.3,-0.8 -4.1,-0.8 -0.9,0 -1.8,0.1 -2.9,0.2 -1,0.2 -2,0.3 -2.8,0.6 V 878 c 0.7,-0.2 1.6,-0.4 2.8,-0.6 1.2,-0.2 2.3,-0.2 3.5,-0.2 1.6,0 3,0.1 4.2,0.4 1.2,0.3 2.3,0.7 3.2,1.3 0.9,0.6 1.5,1.4 2,2.4 0.5,1 0.7,2.2 0.7,3.6 0,1.7 -0.4,3 -1.2,4 -0.8,1 -2,1.8 -3.6,2.3 v 0.2 c 1.9,0.4 3.3,1.1 4.2,2.3 0.9,1.2 1.4,2.7 1.4,4.5 0.1,5.9 -3.8,8.7 -11.7,8.7 z"
   id="path19" />
			</g>
		</g>
		<g
   id="g21"
   style="display:inline">
			<path
   d="m 518,1535.5 h 12.6 v 4.2 H 518 Z"
   id="path20" />
			<path
   d="m 542.8,1550.8 c -1.3,0 -2.5,0 -3.5,-0.1 -1,-0.1 -2.1,-0.2 -3.1,-0.4 v -4.5 c 1.1,0.2 2.2,0.4 3.2,0.5 1,0.1 2,0.2 3.2,0.2 0.9,0 1.8,-0.1 2.6,-0.2 0.8,-0.1 1.5,-0.4 2.1,-0.7 0.6,-0.3 1.1,-0.8 1.4,-1.3 0.3,-0.5 0.5,-1.3 0.5,-2.2 0,-1.7 -0.7,-2.9 -2,-3.5 -1.3,-0.6 -3.2,-0.9 -5.5,-0.9 h -2.2 v -4 h 2.2 c 2.2,0 3.9,-0.3 5.1,-1 1.2,-0.7 1.8,-1.8 1.8,-3.3 0,-1.4 -0.5,-2.4 -1.5,-3 -1,-0.6 -2.3,-0.8 -4.1,-0.8 -0.9,0 -1.8,0.1 -2.9,0.2 -1.1,0.1 -2,0.3 -2.8,0.6 v -4.3 c 0.7,-0.2 1.6,-0.4 2.8,-0.6 1.2,-0.2 2.3,-0.2 3.5,-0.2 1.6,0 3,0.1 4.2,0.4 1.2,0.3 2.3,0.7 3.2,1.3 0.9,0.6 1.5,1.4 2,2.4 0.5,1 0.7,2.2 0.7,3.6 0,1.7 -0.4,3 -1.2,4 -0.8,1 -2,1.8 -3.6,2.3 v 0.2 c 1.9,0.4 3.3,1.1 4.2,2.3 0.9,1.2 1.4,2.7 1.4,4.5 0.2,5.7 -3.8,8.5 -11.7,8.5 z"
   id="path21" />
		</g>
	</g>
</g><g
   id="layer1"
   transform="matrix(1,0,0,0.94379071,-107.8,-134.8897)"
   style="display:inline"><path
     style="fill:#000000;stroke-width:3.77953;stroke-linecap:square"
     d="M 146.3,1452 760.4,286.4 855.7,438.5 v 766.9984 L 729.81809,1457 Z"
     id="path27"
     transform="matrix(1,0,0,1.0595569,107.8,142.92332)" /></g>
</svg>
