<?xml version="1.0" encoding="UTF-8" standalone="no"?>
<!-- Created with Inkscape (http://www.inkscape.org/) -->

<svg
   width="16.667776mm"
   height="32.122017mm"
   viewBox="0 0 16.667776 32.122017"
   version="1.1"
   id="svg1"
   xml:space="preserve"
   xmlns="http://www.w3.org/2000/svg"
   xmlns:svg="http://www.w3.org/2000/svg"><defs
     id="defs1"><marker
       markerWidth="0.52499998"
       markerHeight="0.99999994"
       refX="0"
       refY="0"
       orient="auto-start-reverse"
       id="CapTriangle"
       viewBox="0 0 0.525 1"
       style="overflow:visible"
       preserveAspectRatio="xMidYMid"><path
         style="fill:context-stroke;stroke-linecap:butt"
         d="M 0,-1 1,0 0,1 -0.05,0 Z"
         transform="scale(0.5)"
         id="path61" /></marker><linearGradient
       id="swatch17"><stop
         style="stop-color:#000000;stop-opacity:1;"
         offset="0"
         id="stop17" /></linearGradient></defs><g
     id="layer1"
     style="display:inline"
     transform="translate(-6.2941943,-12.847284)"><path
       d="m 14.628048,12.987321 c -4.525324,2e-5 -8.1938142,3.754114 -8.1938154,8.385018 1.45e-5,3.216153 1.7976573,6.148917 4.6271074,7.548893 h 7.132967 c 2.829652,-1.399825 4.627515,-4.33262 4.627625,-7.548893 -1e-6,-4.630904 -3.668491,-8.384998 -8.193815,-8.385018 z"
       style="fill:#ffffff;stroke:#000000;stroke-width:0.280077;stroke-linecap:square;marker-end:url(#CapTriangle)"
       id="path15" /><path
       d="m 18.194238,28.921232 0.0072,-0.275952 h -7.147367 l 0.0072,0.275952 c 1.916575,0.94819 4.567533,1.269345 7.132898,3e-6 z"
       style="fill:#ffffff;stroke-width:0.280077;stroke-linecap:square"
       id="path14" /><path
       d="m 11.06134,28.921229 0.535885,15.908073 h 6.061129 l 0.535884,-15.90807"
       style="fill:#ffffff;stroke:#000000;stroke-width:0.28;stroke-linecap:square;marker-end:url(#CapTriangle)"
       id="path16" /></g><style
     type="text/css"
     id="style1">
	.st0{fill:#C6A471;}
	.st1{fill:#D8C5A0;}
	.st2{fill:#FFFFFF;}
	.st3{fill:#050404;}
</style></svg>
