<?xml version="1.0" encoding="UTF-8" standalone="no"?>
<!-- Created with Inkscape (http://www.inkscape.org/) -->

<svg
   width="63.164474mm"
   height="78.000473mm"
   viewBox="0 0 63.164474 78.000473"
   version="1.1"
   id="svg1"
   xml:space="preserve"
   inkscape:version="1.4.2 (ebf0e940, 2025-05-08)"
   sodipodi:docname="ipsc.svg"
   xmlns:inkscape="http://www.inkscape.org/namespaces/inkscape"
   xmlns:sodipodi="http://sodipodi.sourceforge.net/DTD/sodipodi-0.dtd"
   xmlns="http://www.w3.org/2000/svg"
   xmlns:svg="http://www.w3.org/2000/svg"><sodipodi:namedview
     id="namedview1"
     pagecolor="#ffffff"
     bordercolor="#000000"
     borderopacity="0.25"
     inkscape:showpageshadow="2"
     inkscape:pageopacity="0.0"
     inkscape:pagecheckerboard="0"
     inkscape:deskcolor="#d1d1d1"
     inkscape:document-units="mm"
     inkscape:lockguides="false"
     inkscape:zoom="2.3920869"
     inkscape:cx="663.64646"
     inkscape:cy="742.0299"
     inkscape:window-width="1352"
     inkscape:window-height="815"
     inkscape:window-x="0"
     inkscape:window-y="35"
     inkscape:window-maximized="1"
     inkscape:current-layer="layer3"
     showgrid="false"><inkscape:page
       x="2.5080624e-15"
       y="0"
       width="63.164474"
       height="78.000473"
       id="page2"
       margin="0"
       bleed="0" /></sodipodi:namedview><defs
     id="defs1"><linearGradient
       id="swatch17"
       inkscape:swatch="solid"><stop
         style="stop-color:#000000;stop-opacity:1;"
         offset="0"
         id="stop17" /></linearGradient></defs><g
     inkscape:label="Layer 1"
     inkscape:groupmode="layer"
     id="layer1"
     style="display:inline"
     transform="translate(-30.829697,-119.11689)"><g
       id="g18-2-4"
       transform="matrix(0.06412931,0,0,0.06412931,27.777161,96.549798)"
       inkscape:export-filename="../Documents/flextrikeIOS/flextarget/Assets.xcassets/special_2.imageset/special.2.pdf"
       inkscape:export-xdpi="10.311548"
       inkscape:export-ydpi="10.311548">
	<g
   id="g1-4-9">
		<polygon
   class="st0"
   points="367.4,1566.6 470.1,1566.6 609.9,1566.6 712.6,1566.6 1030.8,1167.8 1030.8,980.6 1030.8,939.4 1030.8,752.2 712.6,353.5 609.9,353.5 470.1,353.5 367.4,353.5 49.2,752.2 49.2,939.4 49.2,980.6 49.2,1167.8 "
   id="polygon1-8-1"
   style="fill:#c6a471" />
		<path
   d="M 713.4,1568.2 H 366.6 l -0.5,-0.6 L 47.6,1168.4 V 751.6 l 0.3,-0.4 318.6,-399.3 h 346.8 l 0.5,0.6 318.5,399.2 v 416.8 l -0.3,0.4 z M 368.1,1565 h 343.7 l 317.3,-397.7 V 752.7 L 711.9,355 H 368.1 L 50.8,752.7 v 414.6 z"
   id="path1-7" />
	</g>
	<polygon
   class="st0"
   points="74.6,761.1 379.6,366.1 700.4,366.1 1005.4,761.1 1005.4,1159 700.4,1541.2 379.6,1541.2 74.6,1159 "
   id="polygon2-3-5"
   style="fill:#c6a471" />
	<g
   id="g8-9-5">
		<polygon
   class="st0"
   points="74.6,761.1 379.6,366.1 700.4,366.1 1005.4,761.1 1005.4,1159 700.4,1541.2 379.6,1541.2 74.6,1159 "
   id="polygon3-0-4"
   style="fill:#c6a471" />
		<g
   id="g7-5-1">
			<polygon
   points="704.6,372.8 700.1,366.9 692.5,366.9 692.5,365.3 700.8,365.3 705.9,371.9 "
   id="polygon4-2-8" />
			<path
   d="m 708,1533.1 -1.2,-1 9.9,-12.4 1.2,1 z m 11.8,-14.9 -1.2,-1 9.9,-12.4 1.2,1 z m 11.8,-14.8 -1.2,-1 9.9,-12.4 1.2,1 z m 11.9,-14.8 -1.2,-1 9.9,-12.4 1.2,1 z m 11.8,-14.9 -1.2,-1 9.9,-12.4 1.2,1 z m 11.9,-14.8 -1.2,-1 9.9,-12.4 1.2,1 z m 11.8,-14.8 -1.2,-1 9.9,-12.4 1.2,1 z m 11.8,-14.9 -1.2,-1 9.9,-12.4 1.2,1 z m 11.9,-14.8 -1.2,-1 9.9,-12.4 1.2,1 z m 11.8,-14.9 -1.2,-1 9.9,-12.4 1.2,1 z m 11.9,-14.8 -1.2,-1 9.9,-12.4 1.2,1 z m 11.8,-14.9 -1.2,-1 9.9,-12.4 1.2,1 z m 11.8,-14.8 -1.2,-1 9.9,-12.4 1.2,1 z m 11.9,-14.8 -1.2,-1 9.9,-12.4 1.2,1 z m 11.8,-14.9 -1.2,-1 9.9,-12.4 1.2,1 z m 11.9,-14.8 -1.2,-1 9.9,-12.4 1.2,1 z m 11.8,-14.9 -1.2,-1 9.9,-12.4 1.2,1 z m 11.9,-14.8 -1.2,-1 9.9,-12.4 1.2,1 z m 11.8,-14.9 -1.2,-1 9.9,-12.4 1.2,1 z m 11.8,-14.8 -1.2,-1 9.9,-12.4 1.2,1 z m 11.9,-14.8 -1.2,-1 9.9,-12.4 1.2,1 z m 11.8,-14.9 -1.2,-1 9.9,-12.4 1.2,1 z m 11.9,-14.8 -1.2,-1 9.9,-12.4 1.2,1 z m 11.8,-14.8 -1.2,-1 9.9,-12.4 1.2,1 z m 11.8,-14.9 -1.2,-1 9.9,-12.4 1.2,1 z m 11.9,-14.8 -1.2,-1 1.9,-2.4 v -12.2 h 1.6 v 12.8 z m 2.2,-18.8 h -1.6 v -15.8 h 1.6 z m 0,-19 h -1.6 v -15.8 h 1.6 z m 0,-18.9 h -1.6 v -15.8 h 1.6 z m 0,-19.1 h -1.6 v -15.8 h 1.6 z m 0,-18.9 h -1.6 v -15.8 h 1.6 z m 0,-19 h -1.6 v -15.8 h 1.6 z m 0,-19 h -1.6 v -15.8 h 1.6 z m 0,-19 h -1.6 v -15.8 h 1.6 z m 0,-19 h -1.6 v -15.8 h 1.6 z m 0,-19 h -1.6 v -15.8 h 1.6 z m 0,-19 h -1.6 v -15.8 h 1.6 z m 0,-18.9 h -1.6 v -15.8 h 1.6 z m 0,-19 h -1.6 v -15.8 h 1.6 z m 0,-19 h -1.6 v -15.8 h 1.6 z m 0,-19 h -1.6 v -15.8 h 1.6 z m 0,-19 h -1.6 v -15.8 h 1.6 z m 0,-19 h -1.6 v -15.8 h 1.6 z m 0,-18.9 h -1.6 v -15.8 h 1.6 z m 0,-19 h -1.6 v -15.8 h 1.6 z m 0,-19 h -1.6 v -15.8 h 1.6 z m 0,-19 h -1.6 v -2.3 l -8,-10.3 1.3,-1 8.3,10.7 z m -11.4,-15.1 -9.7,-12.5 1.3,-1 9.7,12.5 z m -11.6,-15 -9.7,-12.5 1.3,-1 9.7,12.5 z m -11.7,-15 -9.7,-12.5 1.3,-1 9.7,12.5 z m -11.5,-15.1 -9.7,-12.5 1.3,-1 9.7,12.5 z m -11.7,-15 -9.7,-12.5 1.3,-1 9.7,12.5 z m -11.6,-15 -9.7,-12.5 1.3,-1 9.7,12.5 z m -11.6,-15 -9.7,-12.5 1.3,-1 9.7,12.5 z m -11.6,-15.1 -9.7,-12.5 1.3,-1 9.7,12.5 z m -11.6,-15 -9.7,-12.5 1.3,-1 9.7,12.5 z m -11.6,-15 -9.7,-12.5 1.3,-1 9.7,12.5 z m -11.6,-15.1 -9.7,-12.5 1.3,-1 9.7,12.5 z m -11.6,-15 -9.7,-12.5 1.3,-1 9.7,12.5 z m -11.6,-15 -9.7,-12.5 1.3,-1 9.7,12.5 z m -11.6,-15 -9.7,-12.5 1.3,-1 9.7,12.5 z m -11.6,-15 -9.7,-12.5 1.3,-1 9.7,12.5 z m -11.6,-15.1 -9.7,-12.5 1.3,-1 9.7,12.5 z m -11.6,-15 -9.7,-12.5 1.3,-1 9.7,12.5 z m -11.6,-15 -9.7,-12.5 1.3,-1 9.7,12.5 z m -11.6,-15.1 -9.7,-12.5 1.3,-1 9.7,12.5 z m -11.6,-15 -9.7,-12.5 1.3,-1 9.7,12.5 z m -11.6,-15 -9.7,-12.5 1.3,-1 9.7,12.5 z m -11.6,-15 -9.7,-12.5 1.3,-1 9.7,12.5 z m -11.6,-15.1 -9.7,-12.5 1.3,-1 9.7,12.5 z m -11.6,-15 -9.7,-12.5 1.3,-1 9.7,12.5 z m -11.6,-15 -9.7,-12.5 1.3,-1 9.7,12.5 z"
   id="path4-8" />
			<polygon
   points="700.8,1542 692.5,1542 692.5,1540.4 700.1,1540.4 704.8,1534.5 706,1535.6 "
   id="polygon5-2-3" />
			<path
   d="m 689.4,1542 h -15.7 v -1.6 h 15.7 z m -18.9,0 h -15.7 v -1.6 h 15.7 z m -18.9,0 h -15.7 v -1.6 h 15.7 z m -18.8,0 H 617 v -1.6 h 15.7 v 1.6 z m -18.9,0 h -15.7 v -1.6 h 15.7 z m -18.9,0 h -15.7 v -1.6 H 595 Z m -18.8,0 h -15.7 v -1.6 h 15.7 z m -18.9,0 h -15.7 v -1.6 h 15.7 z m -18.9,0 h -15.7 v -1.6 h 15.7 z m -18.8,0 h -15.7 v -1.6 h 15.7 z m -18.9,0 H 485 v -1.6 h 15.7 z m -18.9,0 h -15.7 v -1.6 h 15.7 z m -18.8,0 h -15.7 v -1.6 H 463 Z m -18.9,0 h -15.7 v -1.6 h 15.7 z m -18.9,0 h -15.7 v -1.6 h 15.7 z m -18.9,0 h -15.7 v -1.6 h 15.7 z"
   id="path5-7-5" />
			<polygon
   points="387.5,1542 379.2,1542 374,1535.6 375.3,1534.5 380,1540.4 387.5,1540.4 "
   id="polygon6-3-2" />
			<path
   d="m 372,1533.1 -9.9,-12.4 1.2,-1 9.9,12.4 z m -11.8,-14.9 -9.9,-12.4 1.2,-1 9.9,12.4 z m -11.8,-14.8 -9.9,-12.4 1.2,-1 9.9,12.4 z m -11.9,-14.8 -9.9,-12.4 1.2,-1 9.9,12.4 z m -11.8,-14.9 -9.9,-12.4 1.2,-1 9.9,12.4 z m -11.9,-14.8 -9.9,-12.4 1.2,-1 9.9,12.4 z m -11.8,-14.8 -9.9,-12.4 1.2,-1 9.9,12.4 z m -11.8,-14.9 -9.9,-12.4 1.2,-1 9.9,12.4 z m -11.9,-14.8 -9.9,-12.4 1.2,-1 9.9,12.4 z m -11.8,-14.9 -9.9,-12.4 1.2,-1 9.9,12.4 z m -11.9,-14.8 -9.9,-12.4 1.2,-1 9.9,12.4 z m -11.8,-14.9 -9.9,-12.4 1.2,-1 9.9,12.4 z M 230,1355 l -9.9,-12.4 1.2,-1 9.9,12.4 z m -11.9,-14.8 -9.9,-12.4 1.2,-1 9.9,12.4 z m -11.8,-14.9 -9.9,-12.4 1.2,-1 9.9,12.4 z m -11.9,-14.8 -9.9,-12.4 1.2,-1 9.9,12.4 z m -11.8,-14.9 -9.9,-12.4 1.2,-1 9.9,12.4 z m -11.8,-14.8 -9.9,-12.4 1.2,-1 9.9,12.4 z m -11.9,-14.9 -9.9,-12.4 1.2,-1 9.9,12.4 z m -11.8,-14.8 -9.9,-12.4 1.2,-1 9.9,12.4 z m -11.9,-14.8 -9.9,-12.4 1.2,-1 9.9,12.4 z m -11.8,-14.9 -9.9,-12.4 1.2,-1 9.9,12.4 z m -11.8,-14.8 -9.9,-12.4 1.2,-1 9.9,12.4 z m -11.9,-14.8 -9.9,-12.4 1.2,-1 9.9,12.4 z m -11.8,-14.9 -9.9,-12.4 1.2,-1 9.9,12.4 z m -11.9,-14.8 -2.2,-2.8 v -12.8 h 1.6 v 12.2 l 1.9,2.4 z m -0.6,-18.8 h -1.6 v -15.8 h 1.6 z m 0,-19 h -1.6 v -15.8 h 1.6 z m 0,-18.9 h -1.6 v -15.8 h 1.6 z m 0,-19.1 h -1.6 v -15.8 h 1.6 z m 0,-18.9 h -1.6 v -15.8 h 1.6 z m 0,-19 h -1.6 v -15.8 h 1.6 z m 0,-19 h -1.6 v -15.8 h 1.6 z m 0,-19 h -1.6 v -15.8 h 1.6 z m 0,-19 h -1.6 v -15.8 h 1.6 z m 0,-19 h -1.6 v -15.8 h 1.6 z m 0,-18.9 h -1.6 v -15.8 h 1.6 z m 0,-19 h -1.6 v -15.8 h 1.6 z m 0,-19 h -1.6 v -15.8 h 1.6 z m 0,-19 h -1.6 v -15.8 h 1.6 z m 0,-19 h -1.6 v -15.8 h 1.6 z m 0,-19 h -1.6 v -15.8 h 1.6 z m 0,-19 h -1.6 v -15.8 h 1.6 z m 0,-18.9 h -1.6 v -15.8 h 1.6 z m 0,-19 h -1.6 v -15.8 h 1.6 z m 0,-19 h -1.6 v -15.8 h 1.6 z m 0,-19 h -1.6 v -2.8 l 8.3,-10.7 1.3,1 -8,10.3 z m 9.8,-15.1 -1.3,-1 9.7,-12.5 1.3,1 z m 11.6,-15 -1.3,-1 9.7,-12.5 1.3,1 z m 11.7,-15 -1.3,-1 9.7,-12.5 1.3,1 z m 11.5,-15 -1.3,-1 9.7,-12.5 1.3,1 z m 11.6,-15.1 -1.3,-1 9.7,-12.5 1.3,1 z m 11.7,-15 -1.3,-1 9.7,-12.5 1.3,1 z m 11.6,-15 -1.3,-1 9.7,-12.5 1.3,1 z m 11.6,-15.1 -1.3,-1 9.7,-12.5 1.3,1 z m 11.6,-15 -1.3,-1 9.7,-12.5 1.3,1 z m 11.6,-15 -1.3,-1 9.7,-12.5 1.3,1 z m 11.6,-15 -1.3,-1 9.7,-12.5 1.3,1 z m 11.6,-15 -1.3,-1 9.7,-12.5 1.3,1 z m 11.6,-15.1 -1.3,-1 9.7,-12.5 1.3,1 z m 11.6,-15 -1.3,-1 9.7,-12.5 1.3,1 z m 11.6,-15 -1.3,-1 9.7,-12.5 1.3,1 z m 11.6,-15.1 -1.3,-1 9.7,-12.5 1.3,1 z m 11.6,-15 -1.3,-1 9.7,-12.5 1.3,1 z m 11.6,-15 -1.3,-1 9.7,-12.5 1.3,1 z m 11.6,-15 -1.3,-1 9.7,-12.5 1.3,1 z m 11.6,-15 -1.3,-1 9.7,-12.5 1.3,1 z m 11.6,-15.1 -1.3,-1 9.7,-12.5 1.3,1 z m 11.6,-15 -1.3,-1 9.7,-12.5 1.3,1 z m 11.7,-15 -1.3,-1 9.7,-12.5 1.3,1 z m 11.6,-15.1 -1.3,-1 9.7,-12.5 1.3,1 z m 11.5,-15 -1.3,-1 9.7,-12.5 1.3,1 z"
   id="path6-7-2" />
			<polygon
   points="375.4,372.8 374.1,371.9 379.2,365.3 387.5,365.3 387.5,366.9 380,366.9 "
   id="polygon7-9-6" />
			<path
   d="m 689.4,366.9 h -15.7 v -1.6 h 15.7 z m -18.9,0 h -15.7 v -1.6 h 15.7 z m -18.9,0 h -15.7 v -1.6 h 15.7 z m -18.8,0 H 617 v -1.6 h 15.7 v 1.6 z m -18.9,0 h -15.7 v -1.6 h 15.7 z m -18.9,0 h -15.7 v -1.6 H 595 Z m -18.8,0 h -15.7 v -1.6 h 15.7 z m -18.9,0 h -15.7 v -1.6 h 15.7 z m -18.9,0 h -15.7 v -1.6 h 15.7 z m -18.8,0 h -15.7 v -1.6 h 15.7 z m -18.9,0 H 485 v -1.6 h 15.7 z m -18.9,0 h -15.7 v -1.6 h 15.7 z m -18.8,0 h -15.7 v -1.6 H 463 Z m -18.9,0 h -15.7 v -1.6 h 15.7 z m -18.9,0 h -15.7 v -1.6 h 15.7 z m -18.9,0 h -15.7 v -1.6 h 15.7 z"
   id="path7-6" />
		</g>
	</g>
	<g
   id="g9-0-7">
		<polygon
   class="st1"
   points="861.5,1047.2 643.9,1309.7 436.1,1309.7 218.5,1047.2 218.5,774.8 379.6,366.8 700.4,366.8 861.5,774.8 "
   id="polygon8-2-84"
   style="fill:#c6a471;fill-opacity:1" />
		<path
   d="m 644.3,1310.4 h -5.1 v -1.6 h 4.3 l 6.9,-8.3 1.2,1 z m -8.3,0 h -15.8 v -1.6 H 636 Z m -19,0 h -15.8 v -1.6 H 617 Z m -19,0 h -15.8 v -1.6 H 598 Z m -19,0 h -15.8 v -1.6 H 579 Z m -19,0 h -15.8 v -1.6 H 560 Z m -19,0 h -15.8 v -1.6 H 541 Z m -19,0 h -15.8 v -1.6 H 522 Z m -19,0 h -15.8 v -1.6 H 503 Z m -19,0 h -15.8 v -1.6 H 484 Z m -19,0 h -15.8 v -1.6 H 465 Z m -19,0 h -10.2 l -10.4,-12.5 1.2,-1 9.9,11.9 h 9.5 z m 207.6,-11.2 -1.2,-1 10.1,-12.2 1.2,1 z m -230.2,-3.7 -10.1,-12.2 1.2,-1 10.1,12.2 z m 242.4,-11 -1.2,-1 10.1,-12.2 1.2,1 z m -254.5,-3.6 -10.1,-12.2 1.2,-1 10.1,12.2 z m 266.6,-11 -1.2,-1 10.1,-12.2 1.2,1 z m -278.8,-3.6 -10.1,-12.2 1.2,-1 10.1,12.2 z m 290.9,-11 -1.2,-1 10.1,-12.2 1.2,1 z m -303,-3.6 -10.1,-12.2 1.2,-1 10.1,12.2 z m 315.2,-11.1 -1.2,-1 10.1,-12.2 1.2,1 z m -327.3,-3.6 -10.1,-12.2 1.2,-1 10.1,12.2 z m 339.4,-11 -1.2,-1 10.1,-12.2 1.2,1 z m -351.6,-3.6 -10.1,-12.2 1.2,-1 10.1,12.2 z m 363.7,-11 -1.2,-1 10.1,-12.2 1.2,1 z m -375.8,-3.6 -10.1,-12.2 1.2,-1 10.1,12.2 z m 388,-11.1 -1.2,-1 10.1,-12.2 1.2,1 z m -400.1,-3.6 -10.1,-12.2 1.2,-1 10.1,12.2 z m 412.2,-11 -1.2,-1 10.1,-12.2 1.2,1 z m -424.4,-3.6 -10.1,-12.2 1.2,-1 10.1,12.2 z m 436.5,-11 -1.2,-1 10.1,-12.2 1.2,1 z m -448.6,-3.6 -10.1,-12.2 1.2,-1 10.1,12.2 z m 460.7,-11 -1.2,-1 10.1,-12.2 1.2,1 z m -472.8,-3.7 -10.1,-12.2 1.2,-1 10.1,12.2 z m 485,-11 -1.2,-1 10.1,-12.2 1.2,1 z m -497.2,-3.6 -10.1,-12.2 1.2,-1 10.1,12.2 z m 509.3,-11 -1.2,-1 10.1,-12.2 1.2,1 z m -521.4,-3.6 -10.1,-12.2 1.2,-1 10.1,12.2 z m 533.5,-11 -1.2,-1 10.1,-12.2 1.2,1 z m -545.6,-3.6 -10.1,-12.2 1.2,-1 10.1,12.2 z m 557.8,-11.1 -1.2,-1 10.1,-12.2 1.2,1 z m -569.9,-3.6 -10.1,-12.2 1.2,-1 10.1,12.2 z m 582,-11 -1.2,-1 10.1,-12.2 1.2,1 z m -594.2,-3.6 -10.1,-12.2 1.2,-1 10.1,12.2 z m 606.3,-11 -1.2,-1 10.1,-12.2 1.2,1 z m -618.4,-3.6 -10.1,-12.2 1.2,-1 10.1,12.2 z m 630.6,-11 -1.2,-1 2.1,-2.5 v -12 h 1.6 v 12.6 z m -640.6,-4.4 h -1.6 v -15.8 h 1.6 z m 643,-14.4 h -1.6 v -15.8 h 1.6 z m -643,-4.6 h -1.6 v -15.8 h 1.6 z m 643,-14.4 h -1.6 v -15.8 h 1.6 z m -643,-4.6 h -1.6 v -15.8 h 1.6 z m 643,-14.4 h -1.6 v -15.8 h 1.6 z m -643,-4.7 h -1.6 v -15.8 h 1.6 z m 643,-14.3 h -1.6 v -15.8 h 1.6 z m -643,-4.7 h -1.6 v -15.8 h 1.6 z m 643,-14.3 h -1.6 v -15.8 h 1.6 z m -643,-4.7 h -1.6 v -15.8 h 1.6 z m 643,-14.3 h -1.6 v -15.8 h 1.6 z m -643,-4.7 h -1.6 v -15.8 h 1.6 z m 643,-14.3 h -1.6 v -15.8 h 1.6 z m -643,-4.7 h -1.6 v -15.8 h 1.6 z m 643,-14.3 h -1.6 v -15.8 h 1.6 z m -643,-4.7 h -1.6 v -15.8 h 1.6 z m 643,-14.3 h -1.6 v -15.8 h 1.6 z m -643,-4.7 h -1.6 v -15.8 h 1.6 z m 643,-14.3 h -1.6 v -15.8 h 1.6 z m -643,-4.7 h -1.6 v -15.8 h 1.6 z m 643,-14.3 h -1.6 v -15.8 h 1.6 z m -643,-4.7 h -1.6 v -15.8 h 1.6 z m 643,-14.3 h -1.6 v -15.8 h 1.6 z m -643,-4.7 h -1.6 v -15.8 h 1.6 z m 643,-14.3 h -1.6 v -15.8 h 1.6 z m -643,-4.7 h -1.6 v -15.8 h 1.6 z m 643,-14.3 h -1.6 v -9.8 l -2.1,-5.4 1.5,-0.6 2.2,5.8 z m -643,-4.7 h -1.6 l 0.1,-5.5 3.9,-9.9 1.5,0.6 -3.8,9.7 v 5.1 z m 638.1,-13.4 -5.8,-14.7 1.5,-0.6 5.8,14.7 z m -633.1,-4.4 -1.5,-0.6 5.8,-14.7 1.5,0.6 z m 626.2,-13.2 -5.8,-14.7 1.5,-0.6 5.8,14.7 z m -619.2,-4.5 -1.5,-0.6 5.8,-14.7 1.5,0.6 z m 612.2,-13.3 -5.8,-14.7 1.5,-0.6 5.8,14.7 z m -605.2,-4.3 -1.5,-0.6 5.8,-14.7 1.5,0.6 z m 598.2,-13.3 -5.8,-14.7 1.5,-0.6 5.8,14.7 z m -591.2,-4.4 -1.5,-0.6 5.8,-14.7 1.5,0.6 z m 584.2,-13.3 -5.8,-14.7 1.5,-0.6 5.8,14.7 z m -577.2,-4.4 -1.5,-0.6 5.8,-14.7 1.5,0.6 z m 570.3,-13.3 -5.8,-14.7 1.5,-0.6 5.8,14.7 z m -563.4,-4.3 -1.5,-0.6 5.8,-14.7 1.5,0.6 z m 556.4,-13.4 -5.8,-14.7 1.5,-0.6 5.7,14.8 z m -549.4,-4.3 -1.5,-0.6 5.8,-14.7 1.5,0.6 z m 542.4,-13.3 -5.8,-14.7 1.5,-0.6 5.8,14.7 z m -535.4,-4.4 -1.5,-0.6 5.8,-14.7 1.5,0.6 z m 528.4,-13.3 -5.8,-14.7 1.5,-0.6 5.8,14.7 z m -521.4,-4.4 -1.5,-0.6 5.8,-14.7 1.5,0.6 z m 514.4,-13.3 -5.8,-14.7 1.5,-0.6 5.8,14.7 z m -507.4,-4.3 -1.5,-0.6 5.8,-14.7 1.5,0.6 z m 500.4,-13.3 -5.8,-14.7 1.5,-0.6 5.8,14.7 z m -493.5,-4.4 -1.5,-0.6 5.8,-14.7 1.5,0.6 z m 486.5,-13.3 -5.8,-14.7 1.5,-0.6 5.8,14.7 z m -479.5,-4.4 -1.5,-0.6 5.8,-14.7 1.5,0.6 z m 472.6,-13.3 -5.8,-14.7 1.5,-0.6 5.8,14.7 z m -465.6,-4.4 -1.5,-0.6 5.8,-14.7 1.5,0.6 z m 458.6,-13.3 -5.8,-14.7 1.5,-0.6 5.8,14.7 z m -451.6,-4.3 -1.5,-0.6 5.8,-14.7 1.5,0.6 z m 444.6,-13.3 -5.8,-14.7 1.5,-0.6 5.8,14.7 z m -437.7,-4.4 -1.5,-0.6 5.8,-14.7 1.5,0.6 z m 430.7,-13.3 -5.8,-14.7 1.5,-0.6 5.8,14.7 z m -423.7,-4.4 -1.5,-0.6 5.8,-14.7 1.5,0.6 z m 416.7,-13.3 -5.8,-14.7 1.5,-0.6 5.8,14.7 z m -409.7,-4.4 -1.5,-0.6 5.8,-14.7 1.5,0.6 z m 402.8,-13.3 -5.8,-14.7 1.5,-0.6 5.8,14.7 z m -395.8,-4.4 -1.5,-0.6 5.8,-14.7 1.5,0.6 z m 388.8,-13.3 -5.8,-14.7 1.5,-0.6 5.8,14.7 z m -381.8,-4.3 -1.5,-0.6 5.8,-14.7 1.5,0.6 z M 724.8,430.8 719,416 l 1.5,-0.6 5.8,14.7 z m -367.9,-4.4 -1.5,-0.6 5.8,-14.7 1.5,0.6 z m 360.9,-13.3 -5.8,-14.7 1.5,-0.6 5.8,14.7 z m -353.9,-4.4 -1.5,-0.6 5.8,-14.7 1.5,0.6 z m 347,-13.3 -5.8,-14.7 1.5,-0.6 5.8,14.7 z m -340,-4.4 -1.5,-0.6 5.8,-14.7 1.5,0.6 z m 333,-13.3 -4,-10.1 H 696 V 366 h 5 l 4.4,11.1 z m -326,-4.3 -1.5,-0.6 2.7,-6.7 h 9.7 v 1.6 h -8.6 z m 314.9,-5.8 H 677 V 366 h 15.8 z m -19,0 H 658 V 366 h 15.8 z m -19,0 H 639 V 366 h 15.8 z m -19,0 H 620 V 366 h 15.8 z m -19,0 H 601 V 366 h 15.8 z m -19,0 H 582 V 366 h 15.8 z m -19,0 H 563 V 366 h 15.8 z m -19,0 H 544 V 366 h 15.8 z m -19,0 H 525 V 366 h 15.8 z m -19,0 H 506 V 366 h 15.8 z m -19,0 H 487 V 366 h 15.8 z m -19,0 H 468 V 366 h 15.8 z m -19,0 H 449 V 366 h 15.8 z m -19,0 H 430 V 366 h 15.8 z m -19.1,0 H 410.9 V 366 h 15.8 z m -19,0 H 391.9 V 366 h 15.8 z"
   id="path8-1" />
	</g>
	<g
   id="g10-3-7">
		<polygon
   class="st2"
   points="703.1,929.9 591.6,1091.1 488.4,1091.1 376.9,929.9 376.9,773.2 487.3,408 592.7,408 703.1,773.2 "
   id="polygon9-9-1"
   style="fill:#c6a471;fill-opacity:1" />
		<path
   d="m 592.1,1091.9 h -0.8 v -1.1 l -0.2,-0.2 8.8,-12.7 1.3,0.9 z m -4,0 h -15.8 v -1.6 h 15.8 z m -19,0 h -15.8 v -1.6 h 15.8 z m -19,0 h -15.8 v -1.6 h 15.8 z m -19,0 h -15.8 v -1.6 h 15.8 z m -19.1,0 h -15.8 v -1.6 H 512 Z m -19,0 h -5.1 l -9.2,-13.4 1.3,-0.9 8.8,12.7 h 4.3 v 1.6 z m 109.9,-15.6 -1.3,-0.9 9,-13 1.3,0.9 z m -126,-0.4 -9,-13 1.3,-0.9 9,13 z m 136.8,-15.3 -1.3,-0.9 9,-13 1.3,0.9 z m -147.6,-0.3 -9,-13 1.3,-0.9 9,13 z m 158.4,-15.3 -1.3,-0.9 9,-13 1.3,0.9 z m -169.2,-0.3 -9,-13 1.3,-0.9 9,13 z m 180,-15.3 -1.3,-0.9 9,-13 1.3,0.9 z m -190.8,-0.4 -9,-13 1.3,-0.9 9,13 z m 201.6,-15.2 -1.3,-0.9 9,-13 1.3,0.9 z m -212.4,-0.4 -9,-13 1.3,-0.9 9,13 z m 223.2,-15.3 -1.3,-0.9 9,-13 1.3,0.9 z m -234,-0.3 -9,-13 1.3,-0.9 9,13 z m 244.9,-15.3 -1.3,-0.9 9,-13 1.3,0.9 z m -255.8,-0.4 -9,-13 1.3,-0.9 9,13 z m 266.6,-15.2 -1.3,-0.9 9,-13 1.3,0.9 z m -277.4,-0.4 -9,-13 1.3,-0.9 9,13 z m 288.2,-15.3 -1.3,-0.9 9,-13 1.3,0.9 z m -299,-0.3 -9,-13 1.3,-0.9 9,13 z m 309.8,-15.3 -1.3,-0.9 3.5,-5 v -9.2 h 1.6 v 9.8 z m -320.6,-0.3 -3.5,-5.1 V 920 h 1.6 v 9.7 l 3.2,4.7 z m 324.3,-18 h -1.6 v -15.8 h 1.6 z m -326.2,-0.5 h -1.6 V 901 h 1.6 z m 326.2,-18.5 h -1.6 v -15.8 h 1.6 z m -326.2,-0.5 h -1.6 V 882 h 1.6 z m 326.2,-18.5 h -1.6 v -15.8 h 1.6 z m -326.2,-0.5 h -1.6 V 863 h 1.6 z m 326.2,-18.5 h -1.6 v -15.8 h 1.6 z m -326.2,-0.5 h -1.6 V 844 h 1.6 z m 326.2,-18.5 h -1.6 v -15.8 h 1.6 z m -326.2,-0.5 h -1.6 V 825 h 1.6 z m 326.2,-18.6 h -1.6 v -15.8 h 1.6 z m -326.2,-0.4 h -1.6 V 806 h 1.6 z m 326.2,-18.6 h -1.6 v -15.8 h 1.6 z m -326.2,-0.4 h -1.6 V 787 h 1.6 z m 326.2,-18.6 h -1.6 v -10.9 l -1.4,-4.5 1.5,-0.4 1.4,4.9 z m -326.2,-0.4 h -1.6 V 773 l 1.5,-5 1.5,0.4 -1.5,4.9 z m 322.4,-18 -4.6,-15.2 1.5,-0.4 4.6,15.2 z m -320,-0.4 -1.5,-0.4 4.6,-15.2 1.5,0.4 z m 314.5,-17.8 -4.6,-15.2 1.5,-0.4 4.6,15.2 z m -309,-0.4 -1.5,-0.4 4.6,-15.2 1.5,0.4 z m 303.5,-17.8 -4.6,-15.2 1.5,-0.4 4.6,15.2 z m -298,-0.4 -1.5,-0.4 4.6,-15.2 1.5,0.4 z M 683.6,711.2 679,696 l 1.5,-0.4 4.6,15.2 z m -287,-0.4 -1.5,-0.4 4.6,-15.2 1.5,0.4 z m 281.5,-17.8 -4.6,-15.2 1.5,-0.4 4.6,15.2 z m -276,-0.4 -1.5,-0.4 4.6,-15.2 1.5,0.4 z m 270.5,-17.7 -4.6,-15.2 1.5,-0.4 4.6,15.2 z m -265,-0.5 -1.5,-0.4 4.6,-15.2 1.5,0.4 z m 259.5,-17.7 -4.6,-15.2 1.5,-0.4 4.6,15.2 z m -254,-0.5 -1.5,-0.4 4.6,-15.2 1.5,0.4 z m 248.5,-17.7 -4.6,-15.2 1.5,-0.4 4.6,15.2 z m -243,-0.4 -1.5,-0.4 4.6,-15.2 1.5,0.4 z m 237.4,-17.8 -4.6,-15.2 1.5,-0.4 4.6,15.2 z m -231.9,-0.4 -1.5,-0.4 4.6,-15.2 1.5,0.4 z m 226.5,-17.8 -4.6,-15.2 1.5,-0.4 4.6,15.2 z m -221,-0.4 -1.5,-0.4 4.6,-15.2 1.5,0.4 z m 215.4,-17.8 -4.6,-15.2 1.5,-0.4 4.6,15.2 z m -209.9,-0.4 -1.5,-0.4 4.6,-15.2 1.5,0.4 z m 204.4,-17.8 -4.6,-15.2 1.5,-0.4 4.6,15.2 z m -198.9,-0.4 -1.5,-0.4 4.6,-15.2 1.5,0.4 z m 193.5,-17.8 -4.6,-15.2 1.5,-0.4 4.6,15.2 z m -188,-0.4 -1.5,-0.4 4.6,-15.2 1.5,0.4 z m 182.4,-17.8 -4.6,-15.2 1.5,-0.4 4.6,15.2 z m -176.9,-0.4 -1.5,-0.4 4.6,-15.2 1.5,0.4 z m 171.4,-17.8 -4.6,-15.2 1.5,-0.4 4.6,15.2 z m -165.9,-0.4 -1.5,-0.4 4.6,-15.2 1.5,0.4 z M 617.6,493 613,477.8 l 1.5,-0.4 4.6,15.2 z m -155,-0.5 -1.5,-0.4 4.6,-15.2 1.5,0.4 z m 149.4,-17.8 -4.6,-15.2 1.5,-0.4 4.6,15.2 z m -143.9,-0.4 -1.5,-0.4 4.6,-15.2 1.5,0.4 z m 138.4,-17.7 -4.6,-15.2 1.5,-0.4 4.6,15.2 z m -132.9,-0.4 -1.5,-0.4 4.6,-15.2 1.5,0.4 z m 127.5,-17.8 -4.6,-15.2 1.5,-0.4 4.6,15.2 z m -122,-0.5 -1.5,-0.4 4.6,-15.2 1.5,0.4 z M 595.5,420.2 592,408.8 h -2.8 v -1.6 h 4 l 3.8,12.5 z m -110.9,-0.4 -1.5,-0.4 3.6,-12.1 h 4.4 v 1.6 h -3.2 z m 101.6,-11 h -15.8 v -1.6 h 15.8 z m -19,0 h -15.8 v -1.6 h 15.8 z m -19,0 h -15.8 v -1.6 h 15.8 z m -19,0 h -15.8 v -1.6 h 15.8 z m -19.1,0 h -15.8 v -1.6 h 15.8 z"
   id="path9-8" />
	</g>
	<g
   id="g11-9-7">
		<path
   class="st3"
   d="m 546,755 h -12.1 l -3.2,10.1 h -4.2 l 11.3,-33.3 h 4.7 l 11.3,33.3 h -4.5 z m -1,-3.4 -1.6,-5.1 c -1.2,-3.7 -2.2,-7.4 -3.3,-11.2 h -0.2 c -1.1,3.9 -2.2,7.5 -3.3,11.2 l -1.7,5.1 z"
   id="path10-8"
   style="fill:#050404" />
	</g>
	<g
   id="g14-7-7">
		<g
   id="g12-0-7">
			<path
   class="st3"
   d="m 138.2,731.9 h 8.4 c 10.2,0 15.7,6 15.7,16.6 0,10.6 -5.5,16.8 -15.6,16.8 h -8.6 v -33.4 z m 8,29.8 c 7.8,0 11.7,-4.9 11.7,-13.3 0,-8.5 -3.8,-13.1 -11.7,-13.1 h -3.7 v 26.4 z"
   id="path11-4"
   style="fill:#050404" />
		</g>
		<g
   id="g13-3-4">
			<path
   class="st3"
   d="m 917.8,731.9 h 8.3 c 10.2,0 15.7,6 15.7,16.6 0,10.6 -5.5,16.8 -15.6,16.8 h -8.6 z m 8,29.8 c 7.9,0 11.7,-4.9 11.7,-13.3 0,-8.5 -3.8,-13.1 -11.7,-13.1 h -3.7 v 26.4 z"
   id="path12-9"
   style="fill:#050404" />
		</g>
	</g>
	<g
   id="g17-9-15">
		<g
   id="g15-8-5">
			<path
   class="st3"
   d="m 294.7,748.6 c 0,-10.8 6.3,-17.3 14.8,-17.3 4.1,0 7.2,2 9.2,4.1 l -2.2,2.8 c -1.7,-1.8 -4,-3.2 -6.8,-3.2 -6.3,0 -10.5,5.2 -10.5,13.5 0,8.4 4,13.7 10.4,13.7 3.2,0 5.6,-1.4 7.7,-3.7 l 2.3,2.7 c -2.7,3.1 -5.9,4.8 -10.2,4.8 -8.4,-0.2 -14.7,-6.6 -14.7,-17.4 z"
   id="path14-58"
   style="fill:#050404" />
		</g>
		<g
   id="g16-6-2">
			<path
   class="st3"
   d="m 760.4,748.6 c 0,-10.8 6.3,-17.3 14.8,-17.3 4.1,0 7.2,2 9.2,4.1 l -2.2,2.8 c -1.7,-1.8 -4,-3.2 -6.8,-3.2 -6.3,0 -10.5,5.2 -10.5,13.5 0,8.4 4,13.7 10.4,13.7 3.2,0 5.6,-1.4 7.7,-3.7 l 2.3,2.7 c -2.7,3.1 -5.9,4.8 -10.2,4.8 -8.5,-0.2 -14.7,-6.6 -14.7,-17.4 z"
   id="path15-5-9"
   style="fill:#050404" />
		</g>
	</g>
</g><path
       id="rect18-3-2"
       style="fill:#000000;stroke:none;stroke-width:0.121189;stroke-linecap:round"
       d="m 93.994176,144.96112 -20.5342,-25.60683 v 0 l -22.17301,77.76309 22.13744,-0.20521 20.34823,-25.50423 c 0,0 0.22158,-9.12732 0.22148,-26.44682 z"
       sodipodi:nodetypes="cccccccc" /></g><style
     type="text/css"
     id="style1">
	.st0{fill:#C6A471;}
	.st1{fill:#D8C5A0;}
	.st2{fill:#FFFFFF;}
	.st3{fill:#050404;}
</style></svg>
