<?xml version="1.0" encoding="UTF-8" standalone="no"?>
<!-- Created with Inkscape (http://www.inkscape.org/) -->

<svg
   width="97.499817mm"
   height="143.82285mm"
   viewBox="0 0 97.499817 143.82285"
   version="1.1"
   id="svg1"
   xml:space="preserve"
   sodipodi:docname="smart-target-icon.svg"
   inkscape:version="1.4.2 (ebf0e940, 2025-05-08)"
   xmlns:inkscape="http://www.inkscape.org/namespaces/inkscape"
   xmlns:sodipodi="http://sodipodi.sourceforge.net/DTD/sodipodi-0.dtd"
   xmlns:xlink="http://www.w3.org/1999/xlink"
   xmlns="http://www.w3.org/2000/svg"
   xmlns:svg="http://www.w3.org/2000/svg"><sodipodi:namedview
     id="namedview1"
     pagecolor="#ffffff"
     bordercolor="#000000"
     borderopacity="0.25"
     inkscape:showpageshadow="2"
     inkscape:pageopacity="0.0"
     inkscape:pagecheckerboard="0"
     inkscape:deskcolor="#d1d1d1"
     inkscape:document-units="mm"
     inkscape:zoom="0.79811849"
     inkscape:cx="229.28926"
     inkscape:cy="140.95651"
     inkscape:window-width="1352"
     inkscape:window-height="820"
     inkscape:window-x="0"
     inkscape:window-y="30"
     inkscape:window-maximized="1"
     inkscape:current-layer="svg1" /><defs
     id="defs1" /><g
     id="g30"
     style="display:inline"
     transform="translate(-85.868795,-111.96283)"><use
       x="0"
       y="0"
       xlink:href="#use20"
       id="use24"
       transform="rotate(180,154.4891,152.0622)" /><use
       x="0"
       y="0"
       xlink:href="#use21"
       id="use25"
       transform="rotate(180,154.4891,152.0622)" /><use
       x="0"
       y="0"
       xlink:href="#use22"
       id="use26"
       transform="rotate(180,154.4891,152.0622)" /><use
       x="0"
       y="0"
       xlink:href="#use23"
       id="use27"
       transform="rotate(180,154.4891,152.0622)" /></g><rect
     style="display:inline;fill:none;stroke:#ffffff;stroke-width:5;stroke-linecap:square;stroke-dasharray:none;stroke-dashoffset:0"
     id="rect1"
     width="92.499825"
     height="138.82285"
     x="2.5000026"
     y="2.5000057"
     ry="0" /><path
     style="display:inline;fill:#de3823;stroke:none;stroke-width:3.36827;stroke-linecap:square;stroke-dasharray:none;stroke-dashoffset:0;fill-opacity:1"
     id="path1"
     d="m 64.279916,50.140764 a 3.3082302,3.2518549 0 0 1 0.04667,4.598123 3.3082302,3.2518549 0 0 1 -4.677829,0.04681 3.3082302,3.2518549 0 0 1 -0.04856,-4.598104 3.3082302,3.2518549 0 0 1 4.677808,-0.04867" /><g
     id="g28"
     transform="translate(-85.947031,-110.74202)"
     style="display:inline"><path
       style="fill:none;stroke:#808080;stroke-width:1;stroke-linecap:square;stroke-dasharray:none;stroke-dashoffset:0"
       id="path10"
       d="m 94.00608,238.28836 a 9.3998108,9.3998108 0 0 1 9.32718,9.27123" /><path
       style="fill:none;stroke:#808080;stroke-width:1;stroke-linecap:square;stroke-dasharray:none;stroke-dashoffset:0"
       id="path11"
       d="m 93.929437,244.33092 a 3.3570752,3.3570752 0 0 1 3.361683,3.31358" /><path
       style="fill:none;stroke:#808080;stroke-width:1;stroke-linecap:square;stroke-dasharray:none;stroke-dashoffset:0"
       id="path12"
       d="m 93.982317,241.40124 a 6.2868862,6.2868862 0 0 1 6.238543,6.22008" /><path
       style="fill:#808080;stroke:#808080;stroke-width:0;stroke-linecap:square;stroke-dasharray:none;stroke-dashoffset:0"
       id="path13"
       d="m 94.410368,246.26398 a 0.90121132,0.90121132 0 0 1 0.894318,0.90607 0.90121132,0.90121132 0 0 1 -0.904093,0.89632 0.90121132,0.90121132 0 0 1 -0.898316,-0.90211 0.90121132,0.90121132 0 0 1 0.900123,-0.90031" /></g><g
     id="g29"
     transform="rotate(-90,71.976076,228.97069)"
     style="display:inline"><use
       x="0"
       y="0"
       xlink:href="#path10"
       id="use14"
       transform="translate(70.109148,-2.1600095)" /><use
       x="0"
       y="0"
       xlink:href="#path11"
       id="use15"
       transform="translate(70.109148,-2.1600095)" /><use
       x="0"
       y="0"
       xlink:href="#path12"
       id="use16"
       transform="translate(70.109148,-2.1600095)" /><use
       x="0"
       y="0"
       xlink:href="#path13"
       id="use17"
       transform="translate(70.109148,-2.1600095)" /></g><g
     id="g27"
     transform="rotate(90,159.50779,33.172246)"
     style="display:inline"><path
       style="fill:none;stroke:#808080;stroke-width:1;stroke-linecap:square;stroke-dasharray:none;stroke-dashoffset:0"
       id="use20"
       d="m 134.69047,174.47649 a 9.3998108,9.3998108 0 0 1 9.32718,9.27123" /><path
       style="fill:none;stroke:#808080;stroke-width:1;stroke-linecap:square;stroke-dasharray:none;stroke-dashoffset:0"
       id="use21"
       d="m 134.61382,180.51904 a 3.3570752,3.3570752 0 0 1 3.36169,3.31358" /><path
       style="fill:none;stroke:#808080;stroke-width:1;stroke-linecap:square;stroke-dasharray:none;stroke-dashoffset:0"
       id="use22"
       d="m 134.6667,177.58937 a 6.2868862,6.2868862 0 0 1 6.23855,6.22008" /><path
       style="fill:#808080;stroke:#808080;stroke-width:0;stroke-linecap:square;stroke-dasharray:none;stroke-dashoffset:0"
       id="use23"
       d="m 135.09475,182.4521 a 0.90121132,0.90121132 0 0 1 0.89432,0.90607 0.90121132,0.90121132 0 0 1 -0.90409,0.89632 0.90121132,0.90121132 0 0 1 -0.89832,-0.90211 0.90121132,0.90121132 0 0 1 0.90013,-0.9003" /></g></svg>
